<svg version="1.1" id="Layer_1" xmlns="http://www.w3.org/2000/svg" xmlns:xlink="http://www.w3.org/1999/xlink" x="0px" y="0px"
	 width="100%" viewBox="0 0 442 156" enable-background="new 0 0 442 156" xml:space="preserve">
<path fill="none" opacity="1.000000" stroke="none" 
	d="
M278.000000,157.000000 
	C185.333328,157.000000 93.166664,157.000000 1.000000,157.000000 
	C1.000000,105.000000 1.000000,53.000000 1.000000,1.000000 
	C148.333328,1.000000 295.666656,1.000000 443.000000,1.000000 
	C443.000000,53.000000 443.000000,105.000000 443.000000,157.000000 
	C388.166656,157.000000 333.333344,157.000000 278.000000,157.000000 
M418.829224,63.208866 
	C418.187592,58.811619 417.721710,54.377964 416.821991,50.034168 
	C416.435547,48.168385 415.148254,46.489185 414.245728,43.932369 
	C413.065674,42.559563 412.101410,40.383560 410.656799,39.995422 
	C408.276215,39.355816 405.584991,39.872505 402.679596,39.566635 
	C402.119904,39.712059 401.560211,39.857479 400.337280,39.913334 
	C399.896332,39.966526 399.455353,40.019714 398.091370,39.878208 
	C381.386658,40.624245 364.681946,41.370285 347.182922,41.999138 
	C346.116455,42.057007 345.050018,42.114880 343.204895,41.982300 
	C342.142578,42.038601 341.080231,42.094906 339.192322,42.008854 
	C337.797882,41.994884 336.403412,41.980915 334.327301,41.514793 
	C326.849945,41.105869 319.365875,40.266155 311.896667,40.381950 
	C298.330841,40.592266 284.775909,41.437183 271.211731,41.869743 
	C267.411011,41.990940 263.472260,42.145405 259.807404,41.333778 
	C249.510010,39.053291 239.308594,38.412083 228.786285,39.906803 
	C220.484634,41.086071 211.983643,41.634708 203.609360,41.348019 
	C191.154572,40.921638 178.799744,37.916126 165.762436,39.258259 
	C154.887894,38.135902 144.032394,36.744499 133.133011,35.973072 
	C123.769989,35.310383 114.356850,35.355961 104.041527,34.966187 
	C91.406395,35.425076 78.771263,35.883968 65.299713,36.250565 
	C56.862999,37.216053 48.426281,38.181541 39.129265,39.026287 
	C35.194118,39.433704 31.208706,39.596481 27.352644,40.388783 
	C26.099438,40.646278 24.270271,42.538261 24.255970,43.701717 
	C24.111984,55.414608 24.290915,67.131470 24.197210,79.667839 
	C24.258852,80.774994 24.320494,81.882156 24.177668,83.772606 
	C24.094126,84.847977 24.010584,85.923340 23.764568,87.240204 
	C23.764568,87.240204 23.848682,87.518852 23.311079,88.045471 
	C22.835587,89.675987 22.360096,91.306511 21.240385,93.324539 
	C20.877663,95.555580 20.514942,97.786629 20.058126,100.704247 
	C20.396849,101.800125 20.735573,102.896004 20.999916,104.779419 
	C21.717289,107.854340 22.434662,110.929260 23.116995,114.508980 
	C23.329910,114.746399 23.542824,114.983826 23.702719,115.227325 
	C23.702719,115.227325 23.694586,115.280075 23.666306,115.986778 
	C24.392105,117.612915 25.117907,119.239052 25.893007,121.654755 
	C26.294081,122.688843 26.446756,124.398384 27.135029,124.651497 
	C33.347183,126.935959 39.613483,130.616119 45.938896,130.768234 
	C67.230476,131.280212 88.580009,131.080200 109.855736,130.067535 
	C130.437729,129.087891 150.933121,125.830345 171.509262,125.330208 
	C188.056030,124.928001 204.758881,126.387505 221.227890,128.380737 
	C247.996674,131.620529 274.685089,130.406738 301.479370,129.525345 
	C331.408936,128.540802 361.389313,128.217194 391.181122,132.566345 
	C400.337799,133.903076 409.545380,134.891220 419.175354,136.094681 
	C419.016205,133.921219 418.897736,132.303772 418.741241,130.603851 
	C418.741241,130.603851 418.673462,130.477676 419.010834,129.527405 
	C419.361725,111.026596 419.752869,92.526360 420.019592,74.024338 
	C420.059082,71.284950 419.510986,68.537079 419.172760,65.187546 
	C419.066620,64.795364 418.960480,64.403183 418.829224,63.208866 
z"/>
<path fill="#D88D3D" opacity="1.000000" stroke="none" 
	d="
M343.983551,42.172749 
	C345.050018,42.114880 346.116455,42.057007 347.662292,42.420158 
	C350.589569,43.560020 353.063324,44.970051 355.480927,44.879631 
	C366.732727,44.458805 377.983337,43.790844 389.201996,42.832142 
	C392.527100,42.547993 395.746552,41.027088 399.014404,40.072906 
	C399.455353,40.019714 399.896332,39.966526 400.817932,40.189850 
	C401.873962,40.278172 402.449341,40.089981 403.024689,39.901791 
	C405.584991,39.872505 408.276215,39.355816 410.656799,39.995422 
	C412.101410,40.383560 413.065674,42.559563 414.182312,44.705727 
	C414.375427,46.972382 414.631958,48.465679 414.431396,49.980167 
	C365.212921,47.736141 317.214111,54.912178 269.168213,61.669334 
	C284.302826,62.000984 299.425629,62.130608 314.543915,61.926811 
	C319.470337,61.860409 324.383728,60.911934 329.305328,60.388157 
	C343.092285,58.920872 356.850189,56.860413 370.676331,56.168640 
	C385.448242,55.429546 400.284943,55.986149 415.350037,56.233910 
	C416.401154,58.996330 417.195557,61.501999 417.961975,64.259941 
	C417.904419,64.678825 417.874817,64.845436 417.391327,65.005768 
	C391.947876,65.003021 366.944183,65.516052 341.974030,64.822388 
	C326.558167,64.394142 311.995789,67.006477 297.560730,71.926971 
	C280.816071,77.634743 263.526978,76.482521 246.277237,75.244102 
	C238.393936,74.678131 230.644150,74.199745 222.653381,75.722038 
	C207.086838,78.687561 191.391953,81.778992 175.626358,82.701553 
	C154.986725,83.909325 134.949402,87.886780 114.909973,92.262886 
	C110.737579,93.174026 106.798409,95.153130 101.772018,97.000069 
	C103.755211,98.460411 104.442039,99.334190 105.285767,99.529236 
	C112.047478,101.092278 118.798721,102.767952 125.636810,103.906952 
	C129.474213,104.546127 133.539978,104.758766 137.381790,104.249786 
	C148.845642,102.731003 160.213333,100.463219 171.688629,99.061218 
	C180.878479,97.938438 190.185516,97.809906 199.411667,96.935501 
	C204.654800,96.438576 209.945892,95.736656 215.029800,94.413872 
	C226.730820,91.369354 238.287048,88.311256 250.567398,87.787994 
	C263.410187,87.240768 276.277405,85.552933 288.954742,83.338058 
	C300.777222,81.272522 311.745483,75.936760 324.241821,75.688408 
	C343.755463,75.300598 363.221893,72.922493 382.738464,72.148743 
	C394.160309,71.695908 405.640686,72.720100 417.082886,73.471191 
	C417.087708,74.910393 417.104370,75.958244 417.086212,77.433594 
	C417.054688,79.577141 417.057983,81.293182 417.043579,83.254456 
	C417.025848,83.499680 417.059906,83.990234 417.039490,84.392242 
	C417.033600,85.867188 417.048065,86.940117 417.037781,88.341782 
	C417.029083,89.109398 417.045166,89.548294 417.039795,90.364319 
	C416.979401,91.495705 416.940399,92.249969 416.461731,92.997314 
	C406.998169,93.989845 397.996185,95.503983 388.946198,95.888268 
	C365.615448,96.878960 342.178009,94.250862 318.935059,98.867119 
	C306.447021,101.347359 293.704193,102.544579 281.076324,104.320724 
	C281.092834,104.547073 281.109344,104.773430 281.125885,104.999779 
	C282.767548,104.999779 284.409180,104.999718 286.050842,104.999779 
	C308.178864,105.000648 330.310181,104.784653 352.433197,105.118454 
	C360.322235,105.237488 368.192230,106.679352 376.069061,107.534386 
	C389.687836,109.012695 403.305145,110.504272 416.951508,112.327621 
	C417.005035,113.115646 417.030121,113.566322 417.030151,114.430130 
	C417.022675,116.222603 417.040222,117.601959 417.038025,119.383659 
	C416.982117,120.859367 416.945984,121.932724 416.451904,122.999908 
	C406.419434,122.995850 396.825165,123.375816 387.276855,122.876732 
	C380.049164,122.498947 372.891388,120.907867 365.682434,120.019508 
	C353.222717,118.484123 340.730988,117.200050 328.285828,115.559105 
	C322.267456,114.765572 316.405853,114.329865 310.754395,117.099174 
	C301.488953,121.639366 291.825531,123.938171 281.395538,123.081726 
	C275.938660,122.633644 270.267151,122.213112 264.950653,123.187874 
	C254.315323,125.137825 244.611450,122.376572 234.824326,119.099419 
	C226.448807,116.294914 217.965332,114.146973 208.975708,114.974785 
	C196.789154,116.096992 184.575104,116.935509 172.401443,118.176132 
	C166.231125,118.804962 160.123535,120.049034 153.609863,121.183609 
	C145.166733,121.910507 137.101288,122.468742 128.571228,123.022652 
	C119.760078,123.686104 112.054909,121.817902 104.860802,117.485992 
	C100.749527,115.010391 96.427574,112.883705 92.192276,110.615250 
	C83.384285,105.897629 74.750557,104.329231 65.469666,110.074707 
	C58.783665,114.213776 51.112961,115.525314 43.096569,115.093468 
	C36.651295,114.746269 30.163507,115.188263 23.694586,115.280075 
	C23.694586,115.280075 23.702719,115.227325 23.749830,114.974640 
	C23.694441,114.381584 23.479473,114.142326 23.152035,114.004181 
	C22.434662,110.929260 21.717289,107.854340 21.440737,104.389870 
	C25.048162,103.170692 28.214766,102.341072 31.381371,101.511444 
	C31.304249,101.013519 31.227125,100.515594 31.150003,100.017670 
	C27.484076,100.017670 23.818148,100.017670 20.152222,100.017670 
	C20.514942,97.786629 20.877663,95.555580 21.910446,93.149185 
	C23.390957,92.660812 24.201408,92.347801 25.471149,92.028839 
	C31.841928,91.398643 37.742569,90.631989 43.667229,90.180618 
	C55.012466,89.316269 66.474709,89.344727 77.702438,87.718681 
	C99.126404,84.615982 120.439369,80.721664 141.757019,76.923592 
	C149.244781,75.589539 156.628448,73.643204 164.013779,71.793274 
	C165.094650,71.522530 165.919357,70.229141 166.862595,69.408936 
	C166.111053,68.641830 165.403336,67.257721 164.601364,67.200768 
	C153.703110,66.426926 142.768112,65.069839 131.890015,65.405853 
	C119.694580,65.782570 107.572014,68.419327 95.374557,68.850227 
	C71.941612,69.678024 48.478203,69.643356 25.024426,69.510918 
	C25.021423,66.145363 25.021423,63.235336 25.021423,59.751465 
	C28.752312,60.092506 31.525026,60.487816 34.306976,60.569859 
	C39.611732,60.726303 45.220303,61.834496 50.169285,60.527550 
	C61.499592,57.535397 72.634987,60.376190 83.837219,60.158154 
	C93.405594,59.971920 103.066643,60.589592 112.520081,59.458775 
	C124.304405,58.049141 135.878357,54.967945 147.616531,53.059963 
	C158.536072,51.285053 169.516678,49.680458 180.533844,48.761131 
	C196.068268,47.464855 211.647598,46.527290 226.908508,51.427002 
	C244.834335,57.182339 263.079834,57.624146 281.410431,53.679646 
	C292.731537,51.243492 303.948792,48.328182 315.252228,45.805122 
	C321.797272,44.344189 328.420776,43.234634 335.008972,41.966949 
	C336.403412,41.980915 337.797882,41.994884 339.826111,42.311211 
	C341.634460,42.466629 342.809021,42.319687 343.983551,42.172749 
M263.390656,98.463882 
	C257.060394,99.305359 250.735062,100.186035 244.398804,100.979553 
	C233.582825,102.334099 222.749634,103.555237 211.943222,104.980705 
	C202.609634,106.211906 193.328812,107.873596 183.978424,108.939331 
	C172.023132,110.301964 160.021454,111.257523 148.039764,112.388512 
	C158.142670,113.001541 168.258148,113.372162 178.335052,112.907013 
	C190.715118,112.335548 203.070816,111.155449 215.422302,110.070801 
	C225.630707,109.174355 235.799011,107.572708 246.020538,107.158577 
	C253.261017,106.865234 259.167419,104.906952 263.390656,98.463882 
M346.852539,85.054131 
	C336.930084,86.437737 327.007599,87.821350 317.085144,89.204956 
	C348.331177,91.767715 379.108704,87.717911 409.877350,83.371918 
	C408.219391,83.012177 406.572906,82.963120 404.930023,83.019669 
	C385.883423,83.675316 366.837341,84.346924 346.852539,85.054131 
M209.111847,67.797508 
	C211.241013,67.538109 213.368668,67.070000 215.499603,67.054543 
	C226.124603,66.977448 236.750473,67.019310 247.810318,67.019310 
	C230.324310,61.139908 212.565765,61.691208 191.449005,68.778984 
	C197.401993,68.479408 202.794846,68.208023 209.111847,67.797508 
M34.962093,99.182701 
	C34.555401,99.276543 34.148708,99.370384 33.742012,99.464226 
	C33.831570,99.584053 33.936142,99.815086 34.008205,99.805351 
	C34.421139,99.749596 34.826355,99.636658 34.962093,99.182701 
z"/>
<path fill="#E3A25C" opacity="1.000000" stroke="none" 
	d="
M334.668152,41.740871 
	C328.420776,43.234634 321.797272,44.344189 315.252228,45.805122 
	C303.948792,48.328182 292.731537,51.243492 281.410431,53.679646 
	C263.079834,57.624146 244.834335,57.182339 226.908508,51.427002 
	C211.647598,46.527290 196.068268,47.464855 180.533844,48.761131 
	C169.516678,49.680458 158.536072,51.285053 147.616531,53.059963 
	C135.878357,54.967945 124.304405,58.049141 112.520081,59.458775 
	C103.066643,60.589592 93.405594,59.971920 83.837219,60.158154 
	C72.634987,60.376190 61.499592,57.535397 50.169285,60.527550 
	C45.220303,61.834496 39.611732,60.726303 34.306976,60.569859 
	C31.525026,60.487816 28.752312,60.092506 25.021423,59.751465 
	C25.021423,63.235336 25.021423,66.145363 25.015297,69.947113 
	C24.799131,73.508293 24.589088,76.177750 24.379047,78.847214 
	C24.290915,67.131470 24.111984,55.414608 24.255970,43.701717 
	C24.270271,42.538261 26.099438,40.646278 27.352644,40.388783 
	C31.208706,39.596481 35.194118,39.433704 39.454033,39.381828 
	C42.706398,40.600853 45.656921,41.393936 48.558014,42.338818 
	C74.566704,50.809814 100.972191,50.549110 127.601624,46.090939 
	C140.463394,43.937679 153.358765,41.985088 166.238922,39.941635 
	C178.799744,37.916126 191.154572,40.921638 203.609360,41.348019 
	C211.983643,41.634708 220.484634,41.086071 228.786285,39.906803 
	C239.308594,38.412083 249.510010,39.053291 259.807404,41.333778 
	C263.472260,42.145405 267.411011,41.990940 271.211731,41.869743 
	C284.775909,41.437183 298.330841,40.592266 311.896667,40.381950 
	C319.365875,40.266155 326.849945,41.105869 334.668152,41.740871 
z"/>
<path fill="#E4A159" opacity="1.000000" stroke="none" 
	d="
M24.288128,79.257523 
	C24.589088,76.177750 24.799131,73.508293 25.018301,70.402634 
	C48.478203,69.643356 71.941612,69.678024 95.374557,68.850227 
	C107.572014,68.419327 119.694580,65.782570 131.890015,65.405853 
	C142.768112,65.069839 153.703110,66.426926 164.601364,67.200768 
	C165.403336,67.257721 166.111053,68.641830 166.862595,69.408936 
	C165.919357,70.229141 165.094650,71.522530 164.013779,71.793274 
	C156.628448,73.643204 149.244781,75.589539 141.757019,76.923592 
	C120.439369,80.721664 99.126404,84.615982 77.702438,87.718681 
	C66.474709,89.344727 55.012466,89.316269 43.667229,90.180618 
	C37.742569,90.631989 31.841928,91.398643 25.426975,91.644684 
	C24.565235,90.017273 24.206959,88.768059 23.848682,87.518852 
	C23.848682,87.518852 23.764568,87.240204 24.237043,87.119034 
	C25.750408,86.503891 26.791298,86.009918 27.832188,85.515945 
	C26.682171,84.673737 25.532154,83.831520 24.382137,82.989311 
	C24.320494,81.882156 24.258852,80.774994 24.288128,79.257523 
z"/>
<path fill="#95735A" opacity="1.000000" stroke="none" 
	d="
M129.035858,123.026978 
	C137.101288,122.468742 145.166733,121.910507 154.071686,121.192703 
	C157.408142,121.003036 159.906982,120.894478 162.401657,120.955666 
	C177.780945,121.332901 193.177582,121.410889 208.532928,122.243607 
	C224.731262,123.122040 240.878479,125.587395 257.068756,125.803123 
	C276.469696,126.061630 295.888824,124.300743 315.307007,124.107246 
	C333.252838,123.928421 351.209839,124.589233 369.157288,125.057304 
	C373.105408,125.160278 377.032379,126.023605 380.971954,126.513878 
	C392.958099,128.005524 404.945618,129.485947 417.398071,130.924316 
	C418.168823,130.814011 418.474060,130.750168 418.779297,130.686310 
	C418.897736,132.303772 419.016205,133.921219 419.175354,136.094681 
	C409.545380,134.891220 400.337799,133.903076 391.181122,132.566345 
	C361.389313,128.217194 331.408936,128.540802 301.479370,129.525345 
	C274.685089,130.406738 247.996674,131.620529 221.227890,128.380737 
	C204.758881,126.387505 188.056030,124.928001 171.509262,125.330208 
	C150.933121,125.830345 130.437729,129.087891 109.855736,130.067535 
	C88.580009,131.080200 67.230476,131.280212 45.938896,130.768234 
	C39.613483,130.616119 33.347183,126.935959 27.135029,124.651497 
	C26.446756,124.398384 26.294081,122.688843 26.280169,121.271927 
	C28.405359,121.390472 30.144684,121.887413 31.881159,122.394112 
	C35.999664,123.595856 40.116783,125.835686 44.234520,125.835823 
	C67.638519,125.836601 91.044662,125.397575 114.444817,124.873589 
	C119.319839,124.764420 124.172752,123.668274 129.035858,123.026978 
z"/>
<path fill="#E2A15A" opacity="1.000000" stroke="none" 
	d="
M128.571228,123.022659 
	C124.172752,123.668274 119.319839,124.764420 114.444817,124.873589 
	C91.044662,125.397575 67.638519,125.836601 44.234520,125.835823 
	C40.116783,125.835686 35.999664,123.595856 31.881159,122.394112 
	C30.144684,121.887413 28.405359,121.390472 26.255518,120.877144 
	C25.117907,119.239052 24.392105,117.612915 23.680447,115.633423 
	C30.163507,115.188263 36.651295,114.746269 43.096569,115.093468 
	C51.112961,115.525314 58.783665,114.213776 65.469666,110.074707 
	C74.750557,104.329231 83.384285,105.897629 92.192276,110.615250 
	C96.427574,112.883705 100.749527,115.010391 104.860802,117.485992 
	C112.054909,121.817902 119.760078,123.686104 128.571228,123.022659 
z"/>
<path fill="#D78E3F" opacity="1.000000" stroke="none" 
	d="
M166.000671,39.599945 
	C153.358765,41.985088 140.463394,43.937679 127.601624,46.090939 
	C100.972191,50.549110 74.566704,50.809814 48.558014,42.338818 
	C45.656921,41.393936 42.706398,40.600853 39.884182,39.442200 
	C48.426281,38.181541 56.862999,37.216053 66.037086,36.503666 
	C86.893280,38.949570 107.011734,41.152683 127.297119,39.107010 
	C121.361359,37.991734 115.374847,37.593025 109.418892,36.922714 
	C107.885162,36.750103 106.447601,35.722942 104.965866,35.088348 
	C114.356850,35.355961 123.769989,35.310383 133.133011,35.973072 
	C144.032394,36.744499 154.887894,38.135902 166.000671,39.599945 
z"/>
<path fill="#C5732F" opacity="1.000000" stroke="none" 
	d="
M104.503693,35.027267 
	C106.447601,35.722942 107.885162,36.750103 109.418892,36.922714 
	C115.374847,37.593025 121.361359,37.991734 127.297119,39.107010 
	C107.011734,41.152683 86.893280,38.949570 66.455292,36.549812 
	C78.771263,35.883968 91.406395,35.425076 104.503693,35.027267 
z"/>
<path fill="#E3A25C" opacity="1.000000" stroke="none" 
	d="
M398.552887,39.975555 
	C395.746552,41.027088 392.527100,42.547993 389.201996,42.832142 
	C377.983337,43.790844 366.732727,44.458805 355.480927,44.879631 
	C353.063324,44.970051 350.589569,43.560020 348.059448,42.478748 
	C364.681946,41.370285 381.386658,40.624245 398.552887,39.975555 
z"/>
<path fill="#95735A" opacity="1.000000" stroke="none" 
	d="
M417.055176,114.017006 
	C417.030121,113.566322 417.005035,113.115646 416.979309,111.860672 
	C416.952911,105.039001 416.927185,99.021614 416.901428,93.004234 
	C416.940399,92.249969 416.979401,91.495705 417.254517,90.218536 
	C417.347992,89.134773 417.205261,88.573914 417.062561,88.013054 
	C417.048065,86.940117 417.033600,85.867188 417.196106,84.303711 
	C417.269165,83.545189 417.165222,83.277206 417.061279,83.009224 
	C417.057983,81.293182 417.054688,79.577141 417.463074,77.333206 
	C418.220276,73.231812 418.565796,69.658325 418.991302,66.010971 
	C419.071320,65.937119 419.234741,65.793137 419.234741,65.793137 
	C419.510986,68.537079 420.059082,71.284950 420.019592,74.024338 
	C419.752869,92.526360 419.361725,111.026596 418.677917,129.521606 
	C417.927643,128.677872 417.510254,127.839928 417.058014,126.603333 
	C416.985352,125.138481 416.947601,124.072281 416.909851,123.006081 
	C416.945984,121.932724 416.982117,120.859367 417.296204,119.151779 
	C417.401184,117.017372 417.228180,115.517189 417.055176,114.017006 
z"/>
<path fill="#A57F60" opacity="1.000000" stroke="none" 
	d="
M414.888458,49.958977 
	C414.631958,48.465679 414.375427,46.972382 414.194580,45.102150 
	C415.148254,46.489185 416.435547,48.168385 416.821991,50.034168 
	C417.721710,54.377964 418.187592,58.811619 418.625763,63.606163 
	C418.422302,64.003456 417.989990,64.007660 417.989990,64.007660 
	C417.195557,61.501999 416.401154,58.996330 415.339355,55.805706 
	C415.010803,53.400162 414.949646,51.679569 414.888458,49.958977 
z"/>
<path fill="#C5732C" opacity="1.000000" stroke="none" 
	d="
M20.105173,100.360962 
	C23.818148,100.017670 27.484076,100.017670 31.150003,100.017670 
	C31.227125,100.515594 31.304249,101.013519 31.381371,101.511444 
	C28.214766,102.341072 25.048162,103.170692 21.477926,103.996101 
	C20.735573,102.896004 20.396849,101.800125 20.105173,100.360962 
z"/>
<path fill="#E3A25C" opacity="1.000000" stroke="none" 
	d="
M24.279902,83.380959 
	C25.532154,83.831520 26.682171,84.673737 27.832188,85.515945 
	C26.791298,86.009918 25.750408,86.503891 24.318279,86.998291 
	C24.010584,85.923340 24.094126,84.847977 24.279902,83.380959 
z"/>
<path fill="#E3A25C" opacity="1.000000" stroke="none" 
	d="
M23.579880,87.782166 
	C24.206959,88.768059 24.565235,90.017273 24.967686,91.650635 
	C24.201408,92.347801 23.390957,92.660812 22.232555,92.955429 
	C22.360096,91.306511 22.835587,89.675987 23.579880,87.782166 
z"/>
<path fill="#E3A25C" opacity="1.000000" stroke="none" 
	d="
M343.594238,42.077522 
	C342.809021,42.319687 341.634460,42.466629 340.238922,42.382385 
	C341.080231,42.094906 342.142578,42.038601 343.594238,42.077522 
z"/>
<path fill="#E3A25C" opacity="1.000000" stroke="none" 
	d="
M402.852142,39.734211 
	C402.449341,40.089981 401.873962,40.278172 401.149567,40.234634 
	C401.560211,39.857479 402.119904,39.712059 402.852142,39.734211 
z"/>
<path fill="#98704B" opacity="1.000000" stroke="none" 
	d="
M417.092896,127.001984 
	C417.510254,127.839928 417.927643,128.677872 418.509247,129.996750 
	C418.673462,130.477676 418.741241,130.603851 418.760284,130.645081 
	C418.474060,130.750168 418.168823,130.814011 417.422058,130.528290 
	C417.018005,129.119797 417.055450,128.060898 417.092896,127.001984 
z"/>
<path fill="#95735A" opacity="1.000000" stroke="none" 
	d="
M417.961975,64.259933 
	C417.989990,64.007660 418.422302,64.003456 418.638306,64.007233 
	C418.960480,64.403183 419.066620,64.795364 419.203735,65.490341 
	C419.234741,65.793137 419.071320,65.937119 418.781982,65.980629 
	C418.492676,66.024139 418.068848,66.006004 418.019775,65.755981 
	C417.928864,65.341316 417.887054,65.176674 417.845245,65.012039 
	C417.874817,64.845436 417.904419,64.678825 417.961975,64.259933 
z"/>
<path fill="#E2A15A" opacity="1.000000" stroke="none" 
	d="
M23.134514,114.256577 
	C23.479473,114.142326 23.694441,114.381584 23.776340,114.971596 
	C23.542824,114.983826 23.329910,114.746399 23.134514,114.256577 
z"/>
<path fill="#E4A159" opacity="1.000000" stroke="none" 
	d="
M417.391327,65.005768 
	C417.887054,65.176674 417.928864,65.341316 417.990845,66.172249 
	C417.705597,68.918983 417.400146,70.999413 417.094727,73.079849 
	C405.640686,72.720100 394.160309,71.695908 382.738464,72.148743 
	C363.221893,72.922493 343.755463,75.300598 324.241821,75.688408 
	C311.745483,75.936760 300.777222,81.272522 288.954742,83.338058 
	C276.277405,85.552933 263.410187,87.240768 250.567398,87.787994 
	C238.287048,88.311256 226.730820,91.369354 215.029800,94.413872 
	C209.945892,95.736656 204.654800,96.438576 199.411667,96.935501 
	C190.185516,97.809906 180.878479,97.938438 171.688629,99.061218 
	C160.213333,100.463219 148.845642,102.731003 137.381790,104.249786 
	C133.539978,104.758766 129.474213,104.546127 125.636810,103.906952 
	C118.798721,102.767952 112.047478,101.092278 105.285767,99.529236 
	C104.442039,99.334190 103.755211,98.460411 101.772018,97.000069 
	C106.798409,95.153130 110.737579,93.174026 114.909973,92.262886 
	C134.949402,87.886780 154.986725,83.909325 175.626358,82.701553 
	C191.391953,81.778992 207.086838,78.687561 222.653381,75.722038 
	C230.644150,74.199745 238.393936,74.678131 246.277237,75.244102 
	C263.526978,76.482521 280.816071,77.634743 297.560730,71.926971 
	C311.995789,67.006477 326.558167,64.394142 341.974030,64.822388 
	C366.944183,65.516052 391.947876,65.003021 417.391327,65.005768 
z"/>
<path fill="#E4A159" opacity="1.000000" stroke="none" 
	d="
M416.461731,92.997314 
	C416.927185,99.021614 416.952911,105.039001 416.950867,111.523331 
	C403.305145,110.504272 389.687836,109.012695 376.069061,107.534386 
	C368.192230,106.679352 360.322235,105.237488 352.433197,105.118454 
	C330.310181,104.784653 308.178864,105.000648 286.050842,104.999779 
	C284.409180,104.999718 282.767548,104.999779 281.125885,104.999779 
	C281.109344,104.773430 281.092834,104.547073 281.076324,104.320724 
	C293.704193,102.544579 306.447021,101.347359 318.935059,98.867119 
	C342.178009,94.250862 365.615448,96.878960 388.946198,95.888268 
	C397.996185,95.503983 406.998169,93.989845 416.461731,92.997314 
z"/>
<path fill="#E1A05A" opacity="1.000000" stroke="none" 
	d="
M417.057983,126.603333 
	C417.055450,128.060898 417.018005,129.119797 416.956604,130.574738 
	C404.945618,129.485947 392.958099,128.005524 380.971954,126.513878 
	C377.032379,126.023605 373.105408,125.160278 369.157288,125.057304 
	C351.209839,124.589233 333.252838,123.928421 315.307007,124.107246 
	C295.888824,124.300743 276.469696,126.061630 257.068756,125.803123 
	C240.878479,125.587395 224.731262,123.122040 208.532928,122.243607 
	C193.177582,121.410889 177.780945,121.332901 162.401657,120.955666 
	C159.906982,120.894478 157.408142,121.003036 154.449402,121.024040 
	C160.123535,120.049034 166.231125,118.804962 172.401443,118.176132 
	C184.575104,116.935509 196.789154,116.096992 208.975708,114.974785 
	C217.965332,114.146973 226.448807,116.294914 234.824326,119.099419 
	C244.611450,122.376572 254.315323,125.137825 264.950653,123.187874 
	C270.267151,122.213112 275.938660,122.633644 281.395538,123.081726 
	C291.825531,123.938171 301.488953,121.639366 310.754395,117.099174 
	C316.405853,114.329865 322.267456,114.765572 328.285828,115.559105 
	C340.730988,117.200050 353.222717,118.484123 365.682434,120.019508 
	C372.891388,120.907867 380.049164,122.498947 387.276855,122.876732 
	C396.825165,123.375816 406.419434,122.995850 416.451904,122.999908 
	C416.947601,124.072281 416.985352,125.138481 417.057983,126.603333 
z"/>
<path fill="#C5702A" opacity="1.000000" stroke="none" 
	d="
M414.431396,49.980171 
	C414.949646,51.679569 415.010803,53.400162 415.082672,55.548958 
	C400.284943,55.986149 385.448242,55.429546 370.676331,56.168640 
	C356.850189,56.860413 343.092285,58.920872 329.305328,60.388157 
	C324.383728,60.911934 319.470337,61.860409 314.543915,61.926811 
	C299.425629,62.130608 284.302826,62.000984 269.168213,61.669334 
	C317.214111,54.912178 365.212921,47.736141 414.431396,49.980171 
z"/>
<path fill="#C57029" opacity="1.000000" stroke="none" 
	d="
M263.515625,98.803093 
	C259.167419,104.906952 253.261017,106.865234 246.020538,107.158577 
	C235.799011,107.572708 225.630707,109.174355 215.422302,110.070801 
	C203.070816,111.155449 190.715118,112.335548 178.335052,112.907013 
	C168.258148,113.372162 158.142670,113.001541 148.039764,112.388512 
	C160.021454,111.257523 172.023132,110.301964 183.978424,108.939331 
	C193.328812,107.873596 202.609634,106.211906 211.943222,104.980705 
	C222.749634,103.555237 233.582825,102.334099 244.398804,100.979553 
	C250.735062,100.186035 257.060394,99.305359 263.515625,98.803093 
z"/>
<path fill="#C6722B" opacity="1.000000" stroke="none" 
	d="
M347.321838,85.034210 
	C366.837341,84.346924 385.883423,83.675316 404.930023,83.019669 
	C406.572906,82.963120 408.219391,83.012177 409.877350,83.371918 
	C379.108704,87.717911 348.331177,91.767715 317.085144,89.204956 
	C327.007599,87.821350 336.930084,86.437737 347.321838,85.034210 
z"/>
<path fill="#C5712A" opacity="1.000000" stroke="none" 
	d="
M208.649780,67.867065 
	C202.794846,68.208023 197.401993,68.479408 191.449005,68.778984 
	C212.565765,61.691208 230.324310,61.139908 247.810318,67.019310 
	C236.750473,67.019310 226.124603,66.977448 215.499603,67.054543 
	C213.368668,67.070000 211.241013,67.538109 208.649780,67.867065 
z"/>
<path fill="#98704B" opacity="1.000000" stroke="none" 
	d="
M417.082886,73.471191 
	C417.400146,70.999413 417.705597,68.918983 418.039917,66.422272 
	C418.068848,66.006004 418.492676,66.024139 418.701965,66.054489 
	C418.565796,69.658325 418.220276,73.231812 417.497925,76.905701 
	C417.104370,75.958244 417.087708,74.910393 417.082886,73.471191 
z"/>
<path fill="#98704B" opacity="1.000000" stroke="none" 
	d="
M417.030151,114.430130 
	C417.228180,115.517189 417.401184,117.017372 417.315979,118.749428 
	C417.040222,117.601959 417.022675,116.222603 417.030151,114.430130 
z"/>
<path fill="#C5732C" opacity="1.000000" stroke="none" 
	d="
M35.098141,99.362915 
	C34.826355,99.636658 34.421139,99.749596 34.008205,99.805351 
	C33.936142,99.815086 33.831570,99.584053 33.742012,99.464226 
	C34.148708,99.370384 34.555401,99.276543 35.098141,99.362915 
z"/>
<path fill="#98704B" opacity="1.000000" stroke="none" 
	d="
M417.037781,88.341782 
	C417.205261,88.573914 417.347992,89.134773 417.275940,89.841415 
	C417.045166,89.548294 417.029083,89.109398 417.037781,88.341782 
z"/>
<path fill="#98704B" opacity="1.000000" stroke="none" 
	d="
M417.043579,83.254456 
	C417.165222,83.277206 417.269165,83.545189 417.216492,83.901703 
	C417.059906,83.990234 417.025848,83.499680 417.043579,83.254456 
z"/>
</svg>