<svg version="1.1" id="Layer_1" xmlns="http://www.w3.org/2000/svg" xmlns:xlink="http://www.w3.org/1999/xlink" x="0px" y="0px"
	 width="100%" viewBox="0 0 163 159" enable-background="new 0 0 163 159" xml:space="preserve">
<path fill="#FEFEFE" opacity="1.000000" stroke="none" 
	d="
M1.000000,64.000000 
	C1.000000,42.666672 1.000000,21.833345 1.000000,1.000014 
	C55.333313,1.000009 109.666626,1.000009 163.999954,1.000005 
	C163.999969,53.999958 163.999969,106.999916 163.999985,159.999908 
	C109.666718,159.999939 55.333443,159.999939 1.000082,159.999969 
	C1.000000,128.166672 1.000000,96.333336 1.000000,64.000000 
M23.152431,43.936466 
	C20.793591,48.626968 18.434750,53.317471 15.720698,58.635117 
	C15.477497,59.755642 15.234296,60.876167 14.528938,62.615566 
	C13.714731,68.744644 12.900524,74.873718 11.910349,81.881760 
	C12.078436,84.251236 12.246524,86.620720 12.297782,89.744713 
	C12.906445,92.536903 13.515106,95.329102 14.084232,98.916847 
	C14.664139,100.631508 15.244045,102.346176 15.826943,104.784111 
	C16.171013,105.395164 16.515083,106.006210 16.787083,106.844543 
	C16.787083,106.844543 16.965296,107.002953 16.998796,107.745819 
	C20.885696,113.986710 24.772596,120.227600 28.934851,127.125092 
	C29.939796,128.088043 30.944742,129.051010 32.225975,130.634323 
	C44.946999,143.194122 60.205662,149.927383 78.964462,150.827927 
	C83.103172,150.527573 87.292084,150.536911 91.372292,149.875595 
	C114.432907,146.137939 131.040604,133.437805 142.407150,112.735497 
	C142.568054,112.268234 142.728958,111.800972 143.404678,110.790398 
	C145.258163,103.860237 147.111633,96.930084 149.327377,89.256996 
	C149.304276,84.864349 149.281174,80.471695 149.500107,75.395546 
	C149.173218,73.525696 148.846329,71.655838 148.544281,68.945869 
	C147.501434,66.589554 149.209641,62.147305 143.992035,62.218777 
	C145.274231,58.157246 146.025116,54.253532 140.899216,51.419464 
	C140.614975,50.615860 140.330734,49.812256 140.677811,48.902367 
	C140.997040,48.574463 141.625946,47.996738 141.591537,47.954090 
	C137.536057,42.926567 133.431381,37.938717 128.965851,32.408909 
	C127.969055,31.608206 126.972260,30.807503 125.662216,29.419857 
	C121.311554,26.592079 118.191017,21.452230 111.592712,21.971308 
	C111.592712,21.971308 111.182777,21.916832 110.899498,21.276806 
	C106.112915,16.788807 100.548958,14.452967 93.094627,14.984559 
	C86.418037,14.410215 79.741447,13.835871 72.269173,13.198191 
	C67.786514,14.292738 63.303848,15.387285 58.167927,16.644947 
	C57.396694,17.039745 56.625458,17.434546 55.126499,17.909018 
	C51.717625,19.831879 48.308754,21.754740 44.179390,23.777254 
	C39.365852,27.819351 34.552311,31.861448 29.156601,36.206276 
	C27.348770,38.659882 25.540939,41.113487 23.152431,43.936466 
z"/>
<path fill="#B60805" opacity="1.000000" stroke="none" 
	d="
M141.962097,112.992950 
	C131.040604,133.437805 114.432907,146.137939 91.372292,149.875595 
	C87.292084,150.536911 83.103172,150.527573 78.531601,150.318268 
	C78.336525,144.202942 78.574303,138.597275 78.863304,132.594757 
	C78.950462,131.132462 78.986389,130.067017 79.446655,129.000977 
	C81.567574,129.001892 83.264145,129.003418 84.969116,129.404449 
	C84.984703,130.869492 84.991890,131.935059 84.997597,133.391754 
	C84.880150,138.138641 87.893044,140.189789 91.329681,139.804398 
	C97.616821,139.099350 103.784935,137.332901 110.361862,135.969360 
	C120.205811,132.199158 127.701111,125.892654 134.128876,117.667007 
	C135.507095,113.226311 136.714981,109.101913 137.944946,104.580391 
	C137.977158,103.121529 137.987305,102.059792 138.001205,100.748703 
	C138.004959,100.499344 137.995590,100.000664 137.991791,99.750641 
	C137.989487,99.333916 137.990997,99.167229 138.166656,98.757790 
	C139.099518,98.352524 139.858215,98.190002 140.755402,98.432526 
	C141.286987,102.877045 141.680115,106.916519 141.838257,111.098007 
	C141.722885,111.824333 141.842499,112.408646 141.962097,112.992950 
z"/>
<path fill="#B75209" opacity="1.000000" stroke="none" 
	d="
M78.812073,132.991623 
	C78.574303,138.597275 78.336525,144.202942 78.098480,150.210876 
	C60.205662,149.927383 44.946999,143.194122 32.500229,130.322937 
	C36.849377,131.007309 40.924267,132.003036 45.304031,133.149261 
	C49.277122,135.440186 52.737389,138.133041 56.656040,139.608246 
	C65.300903,142.862686 69.632324,141.038681 72.404495,134.003250 
	C74.805397,133.665344 76.808739,133.328491 78.812073,132.991623 
z"/>
<path fill="#A5AA46" opacity="1.000000" stroke="none" 
	d="
M58.821186,16.481833 
	C63.303848,15.387285 67.786514,14.292738 72.960472,13.460512 
	C76.582520,14.171238 79.527939,14.540822 82.441216,15.083104 
	C90.573524,16.596867 92.529282,22.006411 87.308418,28.288412 
	C86.707848,29.011047 86.437210,30.007881 85.707291,30.834507 
	C84.611778,30.602125 83.822586,30.412819 82.671303,30.083132 
	C77.870049,28.963804 73.430885,27.984861 68.883263,26.810551 
	C68.589622,26.364601 68.344734,26.206490 67.901550,25.826880 
	C64.854950,22.694014 61.946968,19.875120 58.965691,16.919773 
	C58.892395,16.783319 58.821186,16.481833 58.821186,16.481833 
z"/>
<path fill="#7FA561" opacity="1.000000" stroke="none" 
	d="
M86.013603,30.877583 
	C86.437210,30.007881 86.707848,29.011047 87.308418,28.288412 
	C92.529282,22.006411 90.573524,16.596867 82.441216,15.083104 
	C79.527939,14.540822 76.582520,14.171238 73.358315,13.492180 
	C79.741447,13.835871 86.418037,14.410215 93.703751,15.327057 
	C96.870346,18.114485 99.427811,20.559414 101.953880,23.389467 
	C101.239265,26.164661 100.556046,28.554733 99.591614,31.100521 
	C98.119080,32.518444 96.927765,33.780655 95.470016,35.065704 
	C94.851578,35.051334 94.499588,35.014118 93.921829,34.708298 
	C91.135246,33.252327 88.574425,32.064953 86.013603,30.877583 
z"/>
<path fill="#056A84" opacity="1.000000" stroke="none" 
	d="
M12.086317,81.002800 
	C12.900524,74.873718 13.714731,68.744644 15.121887,62.367432 
	C16.829603,64.909714 17.918184,67.710960 19.066299,70.487595 
	C20.282944,73.429955 21.556173,76.348923 22.739706,79.125648 
	C25.369091,76.517387 27.143959,74.756783 29.014416,73.402557 
	C28.666323,76.837296 28.222635,79.865639 27.605488,83.054077 
	C27.290325,83.497307 27.118895,83.761116 26.560993,84.010345 
	C25.134378,85.340637 24.064503,86.666199 22.650078,87.959061 
	C20.912970,86.825996 19.583628,85.630951 18.112265,84.648613 
	C16.161699,83.346352 14.100164,82.210289 12.086317,81.002800 
z"/>
<path fill="#007794" opacity="1.000000" stroke="none" 
	d="
M28.918823,72.996178 
	C27.143959,74.756783 25.369091,76.517387 22.739706,79.125648 
	C21.556173,76.348923 20.282944,73.429955 19.066299,70.487595 
	C17.918184,67.710960 16.829603,64.909714 15.352964,62.057991 
	C15.234296,60.876167 15.477497,59.755642 16.232466,58.260933 
	C18.825123,55.250423 20.906010,52.614105 23.096191,50.240112 
	C23.471315,51.001945 23.737141,51.501453 23.835917,52.380646 
	C22.488527,58.638676 22.208830,64.391296 26.180702,70.547081 
	C27.380384,68.623016 28.200891,67.307083 29.404308,66.000954 
	C30.296534,66.050278 30.805849,66.089790 31.236708,66.474030 
	C31.093569,67.521797 31.028889,68.224838 30.657234,69.077644 
	C29.873116,70.483673 29.395969,71.739922 28.918823,72.996178 
z"/>
<path fill="#B25B0F" opacity="1.000000" stroke="none" 
	d="
M44.999161,132.998779 
	C40.924267,132.003036 36.849377,131.007309 32.362087,130.012756 
	C30.944742,129.051010 29.939796,128.088043 28.810120,126.445282 
	C28.037672,121.508522 27.389954,117.251572 27.124790,113.024857 
	C29.337824,113.703796 31.168303,114.352509 33.260841,115.210205 
	C34.351685,117.277000 35.180466,119.134819 36.141449,121.306992 
	C38.848900,124.747559 41.424145,127.873779 44.106255,131.258926 
	C44.475128,132.011490 44.737144,132.505142 44.999161,132.998779 
z"/>
<path fill="#817E59" opacity="1.000000" stroke="none" 
	d="
M44.899879,23.677601 
	C48.308754,21.754740 51.717625,19.831879 55.537117,17.925743 
	C55.947739,17.942467 56.039684,18.056873 55.879761,18.348228 
	C47.338428,27.377203 47.338428,27.377203 54.890011,35.394890 
	C52.750282,37.185040 50.802673,38.678223 48.599609,40.279404 
	C47.187977,39.674656 46.031796,38.961910 44.917221,37.845268 
	C45.651684,35.164829 46.344543,32.888283 47.252674,29.904398 
	C44.665871,30.416897 43.252213,30.696972 41.849304,30.605934 
	C42.873325,28.049082 43.886604,25.863340 44.899879,23.677601 
z"/>
<path fill="#153362" opacity="1.000000" stroke="none" 
	d="
M26.742235,112.994621 
	C27.389954,117.251572 28.037672,121.508522 28.672443,126.116982 
	C24.772596,120.227600 20.885696,113.986710 17.340462,107.409920 
	C18.953224,107.655548 20.224319,108.237068 22.217123,109.148773 
	C22.526394,106.815804 22.518042,104.908440 23.094532,103.198227 
	C23.503019,101.986404 24.702011,101.041039 25.666130,100.383102 
	C25.896605,102.190567 26.009094,103.591660 26.054482,105.402023 
	C26.239000,108.205727 26.490618,110.600174 26.742235,112.994621 
z"/>
<path fill="#0B8A98" opacity="1.000000" stroke="none" 
	d="
M143.998932,62.951183 
	C149.209641,62.147305 147.501434,66.589554 148.181458,69.509209 
	C145.363663,72.391380 142.908676,74.710213 141.131516,76.388802 
	C138.138428,75.518730 135.808121,74.841331 133.365173,73.923752 
	C132.883591,73.102737 132.514633,72.521919 132.122650,71.639267 
	C132.028976,70.941612 131.958328,70.545769 131.938431,69.802933 
	C132.606049,68.776367 133.633133,67.424301 133.780579,67.514252 
	C139.466156,70.982361 140.476288,64.129906 143.998932,62.951183 
z"/>
<path fill="#0DDFCF" opacity="1.000000" stroke="none" 
	d="
M125.975464,30.006802 
	C126.972260,30.807503 127.969055,31.608206 129.040573,33.042419 
	C127.423607,33.914627 125.731926,34.153324 123.833908,34.421131 
	C127.101631,38.162914 130.065536,41.556808 132.680084,45.021996 
	C130.306793,45.855537 130.547592,51.033665 126.589119,48.029644 
	C122.575432,44.983742 120.082771,35.126518 122.427490,29.971977 
	C123.872986,29.986940 124.924225,29.996872 125.975464,30.006802 
z"/>
<path fill="#076380" opacity="1.000000" stroke="none" 
	d="
M149.258072,76.079041 
	C149.281174,80.471695 149.304276,84.864349 148.804871,89.687920 
	C147.343140,91.340630 146.403900,92.562416 145.813736,93.330124 
	C143.493622,92.126122 141.512802,91.098206 139.384552,89.756912 
	C137.858368,86.563385 136.479599,83.683243 135.115860,80.496086 
	C135.167358,79.784554 135.203842,79.380035 135.589569,79.032990 
	C138.118622,80.701500 140.298431,82.312546 143.319794,84.545540 
	C145.004074,82.144188 147.131073,79.111618 149.258072,76.079041 
z"/>
<path fill="#074671" opacity="1.000000" stroke="none" 
	d="
M25.548141,99.976738 
	C24.702011,101.041039 23.503019,101.986404 23.094532,103.198227 
	C22.518042,104.908440 22.526394,106.815804 22.217123,109.148773 
	C20.224319,108.237068 18.953224,107.655548 17.323711,107.038483 
	C16.965296,107.002953 16.787083,106.844543 16.835655,106.352844 
	C16.530802,105.261040 16.177376,104.660934 15.823952,104.060837 
	C15.244045,102.346176 14.664139,100.631508 14.559299,98.499268 
	C22.021795,99.070328 22.021795,99.070328 22.988708,92.578781 
	C22.993235,90.771919 22.993933,89.381836 22.994629,87.991760 
	C24.064503,86.666199 25.134378,85.340637 26.595961,84.431107 
	C26.729244,88.217491 26.470819,91.587837 26.094870,95.366867 
	C25.834276,97.175941 25.691210,98.576340 25.548141,99.976738 
z"/>
<path fill="#12A4A7" opacity="1.000000" stroke="none" 
	d="
M143.995483,62.584980 
	C140.476288,64.129906 139.466156,70.982361 133.780579,67.514252 
	C133.633133,67.424301 132.606049,68.776367 131.628891,69.707825 
	C130.764816,68.873734 130.261032,67.787750 129.849258,66.317657 
	C131.389145,65.410347 132.837036,64.887146 134.284927,64.363953 
	C134.686798,64.701683 135.088654,65.039421 135.490524,65.377151 
	C136.011230,62.908386 136.531937,60.439621 137.394196,57.913101 
	C138.816483,55.927601 139.897232,53.999855 140.977997,52.072105 
	C146.025116,54.253532 145.274231,58.157246 143.995483,62.584980 
z"/>
<path fill="#105370" opacity="1.000000" stroke="none" 
	d="
M139.531982,90.070290 
	C141.512802,91.098206 143.493622,92.126122 145.813736,93.330124 
	C146.403900,92.562416 147.343140,91.340630 148.623734,90.059387 
	C147.111633,96.930084 145.258163,103.860237 142.955872,110.939102 
	C142.507080,111.087807 142.073257,110.955994 142.073242,110.955994 
	C141.680115,106.916519 141.286987,102.877045 140.817780,98.079163 
	C140.221008,95.227524 139.700348,93.134293 139.288422,90.902420 
	C139.441299,90.532448 139.486237,90.301292 139.531982,90.070290 
z"/>
<path fill="#0E778E" opacity="1.000000" stroke="none" 
	d="
M149.379089,75.737289 
	C147.131073,79.111618 145.004074,82.144188 143.319794,84.545540 
	C140.298431,82.312546 138.118622,80.701500 135.418167,78.698639 
	C134.424301,76.925850 133.951065,75.544891 133.477814,74.163933 
	C135.808121,74.841331 138.138428,75.518730 141.131516,76.388802 
	C142.908676,74.710213 145.363663,72.391380 148.169037,69.929268 
	C148.846329,71.655838 149.173218,73.525696 149.379089,75.737289 
z"/>
<path fill="#01C8D0" opacity="1.000000" stroke="none" 
	d="
M111.182777,21.916832 
	C111.182777,21.916832 111.592712,21.971308 111.797028,22.400372 
	C113.338104,24.212856 114.674873,25.596277 115.843536,27.363316 
	C115.450554,32.499390 115.225685,37.251842 114.741165,41.898403 
	C113.984863,41.535988 113.488205,41.279465 112.849457,40.724777 
	C111.134689,38.956497 109.562027,37.486389 107.992516,35.562130 
	C108.331055,31.073811 108.666443,27.039642 109.281784,22.883045 
	C110.102074,22.479353 110.642426,22.198092 111.182777,21.916832 
z"/>
<path fill="#E3EBE9" opacity="1.000000" stroke="none" 
	d="
M133.029449,44.950703 
	C130.065536,41.556808 127.101631,38.162914 123.833908,34.421131 
	C125.731926,34.153324 127.423607,33.914627 129.222321,33.312340 
	C133.431381,37.938717 137.536057,42.926567 141.591537,47.954090 
	C141.625946,47.996738 140.997040,48.574463 140.228455,48.742970 
	C139.515396,48.395275 139.251694,48.206978 138.893768,47.694199 
	C137.187073,45.822762 136.083450,43.066998 133.019394,44.949406 
	C133.008011,44.957417 133.029449,44.950703 133.029449,44.950703 
z"/>
<path fill="#005A7A" opacity="1.000000" stroke="none" 
	d="
M22.650078,87.959061 
	C22.993933,89.381836 22.993235,90.771919 22.604174,92.579735 
	C18.948744,91.661720 15.681677,90.325958 12.414610,88.990196 
	C12.246524,86.620720 12.078436,84.251236 11.998333,81.442276 
	C14.100164,82.210289 16.161699,83.346352 18.112265,84.648613 
	C19.583628,85.630951 20.912970,86.825996 22.650078,87.959061 
z"/>
<path fill="#0E4DA8" opacity="1.000000" stroke="none" 
	d="
M44.539635,23.727428 
	C43.886604,25.863340 42.873325,28.049082 41.657028,30.797405 
	C41.325100,31.888926 41.196194,32.417862 40.697960,32.965187 
	C37.891125,34.328777 35.453617,35.673977 32.783981,36.742661 
	C31.614159,36.278610 30.676466,36.091080 29.738773,35.903549 
	C34.552311,31.861448 39.365852,27.819351 44.539635,23.727428 
z"/>
<path fill="#065278" opacity="1.000000" stroke="none" 
	d="
M12.356195,89.367455 
	C15.681677,90.325958 18.948744,91.661720 22.600346,92.996521 
	C22.021795,99.070328 22.021795,99.070328 14.579067,98.101486 
	C13.515106,95.329102 12.906445,92.536903 12.356195,89.367455 
z"/>
<path fill="#0B9DBD" opacity="1.000000" stroke="none" 
	d="
M111.041138,21.596817 
	C110.642426,22.198092 110.102074,22.479353 108.843498,22.876656 
	C106.078606,22.996580 104.031944,23.000462 101.985275,23.004343 
	C99.427811,20.559414 96.870346,18.114485 94.103958,15.402128 
	C100.548958,14.452967 106.112915,16.788807 111.041138,21.596817 
z"/>
<path fill="#10C2C2" opacity="1.000000" stroke="none" 
	d="
M116.011642,26.979698 
	C114.674873,25.596277 113.338104,24.212856 111.986679,22.482758 
	C118.191017,21.452230 121.311554,26.592079 125.818840,29.713329 
	C124.924225,29.996872 123.872986,29.986940 122.259338,29.669075 
	C119.801834,28.567327 117.906738,27.773514 116.011642,26.979698 
z"/>
<path fill="#166A94" opacity="1.000000" stroke="none" 
	d="
M22.986897,49.977783 
	C20.906010,52.614105 18.825123,55.250423 16.410072,57.947357 
	C18.434750,53.317471 20.793591,48.626968 23.589794,44.068443 
	C24.352249,44.816685 24.677340,45.432949 24.953018,46.371246 
	C24.264704,47.788116 23.625801,48.882950 22.986897,49.977783 
z"/>
<path fill="#05569A" opacity="1.000000" stroke="none" 
	d="
M25.002430,46.049210 
	C24.677340,45.432949 24.352249,44.816685 23.880135,43.883759 
	C25.540939,41.113487 27.348770,38.659882 29.447687,36.054913 
	C30.676466,36.091080 31.614159,36.278610 32.654255,37.015228 
	C32.169350,38.375671 31.582045,39.187035 30.772865,40.105370 
	C30.274895,40.414738 30.090225,40.680637 29.702694,41.159340 
	C27.939741,42.888828 26.471085,44.469021 25.002430,46.049210 
z"/>
<path fill="#20BAB3" opacity="1.000000" stroke="none" 
	d="
M138.987976,48.018681 
	C139.251694,48.206978 139.515396,48.395275 139.912811,48.796112 
	C140.330734,49.812256 140.614975,50.615860 140.938599,51.745785 
	C139.897232,53.999855 138.816483,55.927601 137.382812,57.526924 
	C136.693802,55.778622 136.357681,54.358746 136.020416,52.590012 
	C137.008820,50.833664 137.998398,49.426170 138.987976,48.018681 
z"/>
<path fill="#B31413" opacity="1.000000" stroke="none" 
	d="
M141.838257,111.098007 
	C142.073257,110.955994 142.507080,111.087807 142.698471,111.210754 
	C142.728958,111.800972 142.568054,112.268234 142.184631,112.864227 
	C141.842499,112.408646 141.722885,111.824333 141.838257,111.098007 
z"/>
<path fill="#817E59" opacity="1.000000" stroke="none" 
	d="
M55.900978,17.885906 
	C56.625458,17.434546 57.396694,17.039745 58.494556,16.563389 
	C58.821186,16.481833 58.892395,16.783319 58.745049,17.163799 
	C57.745029,17.715145 56.892357,17.886009 56.039684,18.056873 
	C56.039684,18.056873 55.947739,17.942467 55.900978,17.885906 
z"/>
<path fill="#153362" opacity="1.000000" stroke="none" 
	d="
M15.825447,104.422470 
	C16.177376,104.660934 16.530802,105.261040 16.871691,106.239197 
	C16.515083,106.006210 16.171013,105.395164 15.825447,104.422470 
z"/>
<path fill="#B82926" opacity="1.000000" stroke="none" 
	d="
M137.922882,104.977516 
	C136.714981,109.101913 135.507095,113.226311 133.765213,117.676155 
	C132.086090,118.565109 130.906479,119.068565 129.801941,119.702774 
	C125.534653,122.153046 121.488274,125.104362 116.999466,127.029167 
	C106.555214,131.507660 95.765488,130.489853 85.009048,127.594116 
	C85.017159,126.123482 85.030960,125.053513 85.442764,124.039612 
	C102.628067,128.976807 121.810722,122.452179 132.383331,108.529175 
	C133.628876,106.888939 136.047867,106.139763 137.922882,104.977516 
z"/>
<path fill="#BC3131" opacity="1.000000" stroke="none" 
	d="
M137.944946,104.580391 
	C136.047867,106.139763 133.628876,106.888939 132.383331,108.529175 
	C121.810722,122.452179 102.628067,128.976807 85.425301,124.044281 
	C85.009834,123.992882 84.981644,124.010178 84.995316,123.673943 
	C85.031158,122.889870 85.053314,122.442039 85.489563,122.006363 
	C91.602097,121.678894 97.300537,121.339272 103.381409,120.955582 
	C116.923836,117.643547 127.759628,111.219940 134.237350,98.726089 
	C134.666992,97.897430 136.048737,97.562408 137.019379,97.293221 
	C137.364929,98.059280 137.678726,98.529907 137.992523,99.000534 
	C137.990997,99.167229 137.989487,99.333916 137.827972,99.839592 
	C137.777786,100.451729 137.887634,100.724892 137.997467,100.998055 
	C137.987305,102.059792 137.977158,103.121529 137.944946,104.580391 
z"/>
<path fill="#B6221D" opacity="1.000000" stroke="none" 
	d="
M85.014732,127.994774 
	C95.765488,130.489853 106.555214,131.507660 116.999466,127.029167 
	C121.488274,125.104362 125.534653,122.153046 129.801941,119.702774 
	C130.906479,119.068565 132.086090,118.565109 133.594879,117.992447 
	C127.701111,125.892654 120.205811,132.199158 110.069397,135.671524 
	C101.278198,134.609146 93.138641,133.804886 84.999084,133.000610 
	C84.991890,131.935059 84.984703,130.869492 84.984154,129.151932 
	C84.998772,128.331543 85.006752,128.163147 85.014732,127.994774 
z"/>
<path fill="#B51C14" opacity="1.000000" stroke="none" 
	d="
M84.997604,133.391754 
	C93.138641,133.804886 101.278198,134.609146 109.710220,135.711258 
	C103.784935,137.332901 97.616821,139.099350 91.329681,139.804398 
	C87.893044,140.189789 84.880150,138.138641 84.997604,133.391754 
z"/>
<path fill="#B75908" opacity="1.000000" stroke="none" 
	d="
M78.863304,132.594757 
	C76.808739,133.328491 74.805397,133.665344 72.509003,133.742874 
	C72.474419,132.987198 72.732910,132.490860 72.998360,131.625809 
	C73.333282,129.836945 73.661232,128.416794 73.993668,126.998161 
	C73.998154,126.999695 73.998779,126.996567 74.355591,126.960999 
	C76.081551,126.608177 77.450699,126.290924 78.870399,126.349831 
	C78.954735,127.484520 78.988525,128.243057 79.022316,129.001587 
	C78.986389,130.067017 78.950462,131.132462 78.863304,132.594757 
z"/>
<path fill="#BB0A07" opacity="1.000000" stroke="none" 
	d="
M79.446655,129.000977 
	C78.988525,128.243057 78.954735,127.484520 78.922409,126.022507 
	C78.959671,124.878586 78.995483,124.438148 79.456566,123.998322 
	C81.581772,124.002670 83.281708,124.006424 84.981644,124.010178 
	C84.981644,124.010178 85.009834,123.992882 85.027298,123.988213 
	C85.030960,125.053513 85.017159,126.123482 85.009048,127.594116 
	C85.006752,128.163147 84.998772,128.331543 84.975754,128.752441 
	C83.264145,129.003418 81.567574,129.001892 79.446655,129.000977 
z"/>
<path fill="#B31413" opacity="1.000000" stroke="none" 
	d="
M138.166656,98.757790 
	C137.678726,98.529907 137.364929,98.059280 137.018219,96.910072 
	C136.689514,94.493561 136.393707,92.755630 136.482727,91.012741 
	C137.638260,91.018867 138.408966,91.029968 139.179672,91.041069 
	C139.700348,93.134293 140.221008,95.227524 140.679306,97.674110 
	C139.858215,98.190002 139.099518,98.352524 138.166656,98.757790 
z"/>
<path fill="#B31413" opacity="1.000000" stroke="none" 
	d="
M138.001221,100.748703 
	C137.887634,100.724892 137.777786,100.451729 137.831757,100.089615 
	C137.995590,100.000664 138.004959,100.499344 138.001221,100.748703 
z"/>
<path fill="#B5650D" opacity="1.000000" stroke="none" 
	d="
M72.991394,131.994507 
	C72.732910,132.490860 72.474419,132.987198 72.111435,133.743912 
	C69.632324,141.038681 65.300903,142.862686 56.656040,139.608246 
	C52.737389,138.133041 49.277122,135.440186 45.304035,133.149261 
	C44.737144,132.505142 44.475128,132.011490 44.515327,131.267548 
	C54.135368,133.460770 63.526512,133.790436 72.991394,131.994507 
z"/>
<path fill="#A78E3D" opacity="1.000000" stroke="none" 
	d="
M55.879761,18.348228 
	C56.892357,17.886009 57.745029,17.715145 58.818344,17.300255 
	C61.946968,19.875120 64.854950,22.694014 67.681061,26.071075 
	C63.426826,29.452137 59.254478,32.275028 55.082130,35.097923 
	C47.338428,27.377203 47.338428,27.377203 55.879761,18.348228 
z"/>
<path fill="#FDA707" opacity="1.000000" stroke="none" 
	d="
M54.890011,35.394890 
	C59.254478,32.275028 63.426826,29.452137 67.819672,26.385048 
	C68.344734,26.206490 68.589622,26.364601 68.891953,27.195082 
	C69.685860,30.189802 70.362617,32.604630 71.071335,35.412506 
	C71.435837,38.177551 71.768372,40.549541 71.882896,43.193626 
	C70.781395,43.647903 69.897903,43.830086 69.007217,44.006710 
	C69.000015,44.001148 68.983398,44.008045 68.952393,43.642460 
	C67.082916,41.520157 65.040977,38.164677 63.451809,38.366920 
	C60.812626,38.702812 58.464329,41.324268 55.659615,42.990368 
	C54.880779,43.003376 54.435841,43.009056 53.648026,42.860062 
	C52.057144,41.912216 50.809128,41.119045 49.387184,40.275459 
	C49.213257,40.225037 48.855064,40.171406 48.855064,40.171406 
	C50.802673,38.678223 52.750282,37.185040 54.890011,35.394890 
z"/>
<path fill="#FE6204" opacity="1.000000" stroke="none" 
	d="
M72.100906,42.921532 
	C71.768372,40.549541 71.435837,38.177551 71.473846,35.405399 
	C75.574059,33.411331 79.303726,31.817425 83.033386,30.223515 
	C83.822586,30.412819 84.611778,30.602125 85.707291,30.834507 
	C88.574425,32.064953 91.135246,33.252327 93.764465,34.993469 
	C92.865532,36.367958 91.898201,37.188679 90.528122,38.010780 
	C86.406372,39.375088 82.687370,40.738022 78.598236,42.124649 
	C76.539528,42.444283 74.850952,42.740219 72.896484,43.012459 
	C72.454025,42.966358 72.277466,42.943947 72.100906,42.921532 
z"/>
<path fill="#FD7C05" opacity="1.000000" stroke="none" 
	d="
M82.671303,30.083134 
	C79.303726,31.817425 75.574059,33.411331 71.441879,35.012344 
	C70.362617,32.604630 69.685860,30.189802 69.000412,27.390446 
	C73.430885,27.984861 77.870049,28.963804 82.671303,30.083134 
z"/>
<path fill="#F81512" opacity="1.000000" stroke="none" 
	d="
M90.930870,38.009399 
	C91.898201,37.188679 92.865532,36.367958 93.990227,35.262070 
	C94.499588,35.014118 94.851578,35.051334 95.695847,35.340984 
	C99.425568,37.489449 102.663033,39.385483 106.084122,41.566574 
	C108.501366,43.595367 110.734985,45.339096 113.109215,47.387451 
	C115.386261,49.698521 117.522705,51.704967 119.279236,53.857979 
	C117.887718,54.373169 116.876099,54.741795 115.590965,54.938850 
	C113.559547,53.503193 111.801643,52.239105 109.902840,50.672970 
	C107.859230,48.902378 105.956505,47.433834 103.878510,45.666042 
	C100.806519,43.895401 97.909813,42.424004 94.825256,40.695381 
	C93.401894,39.628571 92.166382,38.818985 90.930870,38.009399 
z"/>
<path fill="#02BACE" opacity="1.000000" stroke="none" 
	d="
M101.953880,23.389465 
	C104.031944,23.000462 106.078606,22.996580 108.563553,22.999086 
	C108.666443,27.039642 108.331055,31.073811 107.733803,35.453453 
	C106.972137,35.548691 106.472343,35.298450 105.677444,34.889992 
	C103.545845,33.469452 101.709343,32.207130 99.872833,30.944805 
	C100.556046,28.554733 101.239265,26.164661 101.953880,23.389465 
z"/>
<path fill="#0D96B5" opacity="1.000000" stroke="none" 
	d="
M99.591614,31.100521 
	C101.709343,32.207130 103.545845,33.469452 105.684036,35.332024 
	C105.957314,37.715355 105.928902,39.498432 105.900497,41.281513 
	C102.663033,39.385483 99.425568,37.489449 95.962280,35.318138 
	C96.927765,33.780655 98.119080,32.518444 99.591614,31.100521 
z"/>
<path fill="#CB821D" opacity="1.000000" stroke="none" 
	d="
M26.212395,94.958191 
	C26.470819,91.587837 26.729244,88.217491 26.952702,84.426376 
	C27.118895,83.761116 27.290325,83.497307 27.948757,83.117401 
	C29.628036,83.688538 30.790583,84.356453 31.966059,85.016083 
	C31.978989,85.007797 31.985918,85.014313 31.975109,85.414581 
	C31.650446,88.205025 31.336592,90.595207 31.013718,93.366554 
	C30.991312,94.510849 30.977930,95.273972 30.610096,96.025810 
	C28.907894,95.662407 27.560144,95.310303 26.212395,94.958191 
z"/>
<path fill="#CA912E" opacity="1.000000" stroke="none" 
	d="
M31.953129,85.024361 
	C30.790583,84.356453 29.628036,83.688538 28.122219,82.957306 
	C28.222635,79.865639 28.666323,76.837296 29.014416,73.402557 
	C29.395969,71.739922 29.873116,70.483673 30.678749,69.500832 
	C31.322535,74.857620 31.637833,79.940987 31.953129,85.024361 
z"/>
<path fill="#EEA826" opacity="1.000000" stroke="none" 
	d="
M31.966059,85.016083 
	C31.637833,79.940987 31.322535,74.857620 30.985722,69.351059 
	C31.028889,68.224838 31.093569,67.521797 31.570292,66.420654 
	C33.680157,62.693588 35.377983,59.364624 37.281181,55.968781 
	C37.486557,55.901897 37.896645,55.766502 38.130539,56.078823 
	C39.908443,56.600529 41.452450,56.809914 42.863251,57.340160 
	C40.584969,61.909500 38.221157,66.064751 36.359173,70.433876 
	C34.653225,74.436874 32.627792,78.591209 35.093231,83.401634 
	C34.985638,84.137131 34.908447,84.554558 34.475792,84.979263 
	C33.408859,84.995804 32.697388,85.005058 31.985918,85.014313 
	C31.985918,85.014313 31.978989,85.007797 31.966059,85.016083 
z"/>
<path fill="#0085A6" opacity="1.000000" stroke="none" 
	d="
M29.021402,65.991142 
	C28.200891,67.307083 27.380384,68.623016 26.180702,70.547081 
	C22.208830,64.391296 22.488527,58.638676 24.180523,52.348022 
	C25.793646,51.624607 26.895107,51.313503 27.997734,51.426846 
	C27.815922,53.605770 27.220341,55.443871 27.554688,57.093498 
	C27.970121,59.143192 29.154421,61.037045 29.984682,63.316788 
	C29.648945,64.420631 29.335175,65.205887 29.021402,65.991142 
z"/>
<path fill="#127A9C" opacity="1.000000" stroke="none" 
	d="
M29.404310,66.000954 
	C29.335175,65.205887 29.648945,64.420631 30.022030,62.964493 
	C31.384180,59.881371 32.687016,57.469131 34.211395,55.313087 
	C35.313900,55.724739 36.194855,55.880203 37.075809,56.035660 
	C35.377983,59.364624 33.680157,62.693588 31.648750,66.075928 
	C30.805849,66.089790 30.296534,66.050278 29.404310,66.000954 
z"/>
<path fill="#007AAD" opacity="1.000000" stroke="none" 
	d="
M27.996569,51.002399 
	C26.895107,51.313503 25.793646,51.624607 24.347576,51.968338 
	C23.737141,51.501453 23.471315,51.001945 23.096193,50.240112 
	C23.625801,48.882950 24.264704,47.788116 24.953018,46.371246 
	C26.471085,44.469021 27.939741,42.888828 29.703760,41.565834 
	C29.666922,44.214607 29.334723,46.606182 28.894520,49.257240 
	C28.523199,50.011951 28.259884,50.507175 27.996569,51.002399 
z"/>
<path fill="#BA721B" opacity="1.000000" stroke="none" 
	d="
M36.009247,120.992638 
	C35.180466,119.134819 34.351685,117.277000 33.255348,114.824928 
	C32.661888,112.483452 32.335983,110.736221 32.395699,108.992691 
	C33.805256,109.006432 34.829189,109.016495 35.936058,109.382896 
	C37.309696,111.400879 38.600395,113.062523 40.035194,115.056473 
	C42.509682,116.899658 44.679607,118.792053 47.199673,119.851936 
	C55.748745,123.447464 64.770988,124.447876 73.988281,124.368378 
	C73.994637,125.494759 73.996712,126.245667 73.998779,126.996567 
	C73.998779,126.996567 73.998154,126.999695 73.580070,127.052612 
	C62.684055,129.153900 52.603809,128.025742 42.896763,123.483795 
	C40.694523,122.453369 38.309914,121.812706 36.009247,120.992638 
z"/>
<path fill="#B66A14" opacity="1.000000" stroke="none" 
	d="
M36.141449,121.306992 
	C38.309914,121.812706 40.694523,122.453369 42.896763,123.483795 
	C52.603809,128.025742 62.684055,129.153900 73.575584,127.051079 
	C73.661232,128.416794 73.333282,129.836945 72.998352,131.625809 
	C63.526512,133.790436 54.135368,133.460770 44.408470,131.008621 
	C41.424145,127.873779 38.848900,124.747559 36.141449,121.306992 
z"/>
<path fill="#B66412" opacity="1.000000" stroke="none" 
	d="
M32.010082,108.988998 
	C32.335983,110.736221 32.661888,112.483452 32.993286,114.615952 
	C31.168303,114.352509 29.337824,113.703796 27.124790,113.024857 
	C26.490618,110.600174 26.239000,108.205727 26.458439,105.403946 
	C28.282011,104.999039 29.634527,105.001457 31.024426,105.347870 
	C31.377899,106.790901 31.693991,107.889954 32.010082,108.988998 
z"/>
<path fill="#10579F" opacity="1.000000" stroke="none" 
	d="
M48.599609,40.279404 
	C48.855064,40.171406 49.213257,40.225037 49.084488,40.447159 
	C46.310551,43.796448 43.665390,46.923611 41.010406,49.699017 
	C40.341000,48.232327 39.681412,47.117393 39.021042,45.759365 
	C39.020260,45.516266 39.022202,45.030067 39.293224,44.824810 
	C40.790020,42.309868 42.015789,40.000187 43.517593,37.773247 
	C44.154285,37.987053 44.514950,38.118107 44.875614,38.249165 
	C46.031796,38.961910 47.187977,39.674656 48.599609,40.279404 
z"/>
<path fill="#798A65" opacity="1.000000" stroke="none" 
	d="
M44.917221,37.845268 
	C44.514950,38.118107 44.154285,37.987053 43.413494,37.469524 
	C42.378010,35.704300 41.722652,34.325546 41.067291,32.946796 
	C41.196194,32.417862 41.325100,31.888926 41.646282,31.168518 
	C43.252213,30.696972 44.665871,30.416897 47.252674,29.904398 
	C46.344543,32.888283 45.651684,35.164829 44.917221,37.845268 
z"/>
<path fill="#B66E1A" opacity="1.000000" stroke="none" 
	d="
M30.987043,105.003883 
	C29.634527,105.001457 28.282011,104.999039 26.525539,104.994690 
	C26.009094,103.591660 25.896605,102.190567 25.666128,100.383102 
	C25.691210,98.576340 25.834276,97.175941 26.094870,95.366867 
	C27.560144,95.310303 28.907894,95.662407 30.616264,96.421280 
	C30.985880,97.886177 30.994873,98.944305 30.999519,100.419037 
	C30.992460,102.225052 30.989752,103.614471 30.987043,105.003883 
z"/>
<path fill="#F22627" opacity="1.000000" stroke="none" 
	d="
M115.864479,55.110416 
	C116.876099,54.741795 117.887718,54.373169 119.559204,54.000309 
	C123.398468,58.231304 126.577866,62.466541 129.757263,66.701775 
	C130.261032,67.787750 130.764816,68.873734 131.578125,70.054825 
	C131.958328,70.545769 132.028976,70.941612 131.762665,71.703110 
	C130.943726,73.067398 130.461731,74.066017 129.744385,75.035278 
	C129.509048,75.005920 129.035812,74.970886 128.989014,74.618668 
	C124.648804,68.502228 120.355377,62.738007 116.040092,56.661617 
	C115.966980,55.936440 115.915726,55.523426 115.864479,55.110416 
z"/>
<path fill="#DD2024" opacity="1.000000" stroke="none" 
	d="
M129.979736,75.064636 
	C130.461731,74.066017 130.943726,73.067398 131.785706,72.004936 
	C132.514633,72.521919 132.883591,73.102737 133.365173,73.923752 
	C133.951065,75.544891 134.424301,76.925850 135.068939,78.641159 
	C135.203842,79.380035 135.167358,79.784554 135.066345,80.851097 
	C134.680588,82.349045 134.359390,83.184982 133.772934,83.815430 
	C132.688034,82.059608 131.868378,80.509277 131.007111,78.620949 
	C130.636902,77.210175 130.308319,76.137405 129.979736,75.064636 
z"/>
<path fill="#04D5CE" opacity="1.000000" stroke="none" 
	d="
M115.843536,27.363316 
	C117.906738,27.773514 119.801834,28.567327 121.865082,29.664043 
	C120.082771,35.126518 122.575432,44.983742 126.589119,48.029644 
	C130.547592,51.033665 130.306793,45.855537 132.680084,45.021996 
	C133.029449,44.950703 133.008011,44.957417 133.002869,45.367638 
	C132.002197,49.862862 131.006683,53.947865 129.707779,57.881691 
	C124.603188,52.488445 119.802002,47.246372 115.000816,42.004299 
	C115.225685,37.251842 115.450554,32.499390 115.843536,27.363316 
z"/>
<path fill="#B41B1F" opacity="1.000000" stroke="none" 
	d="
M134.038177,84.020912 
	C134.359390,83.184982 134.680588,82.349045 135.051331,81.158104 
	C136.479599,83.683243 137.858368,86.563385 139.384552,89.756912 
	C139.486237,90.301292 139.441299,90.532448 139.288422,90.902420 
	C138.408966,91.029968 137.638260,91.018867 136.348175,90.795219 
	C135.554871,90.389450 135.280930,90.196228 135.002258,89.635612 
	C134.654327,88.180809 134.311127,87.093407 133.969330,85.674652 
	C133.993225,84.902504 134.015701,84.461708 134.038177,84.020912 
z"/>
<path fill="#07B3B8" opacity="1.000000" stroke="none" 
	d="
M114.741165,41.898403 
	C119.802002,47.246372 124.603188,52.488445 129.752808,58.194782 
	C131.017685,58.525723 132.352493,58.724991 132.772339,58.196880 
	C134.045532,56.595348 134.964569,54.712273 136.021576,52.938873 
	C136.357681,54.358746 136.693802,55.778622 137.041290,57.584679 
	C136.531937,60.439621 136.011230,62.908386 135.490524,65.377151 
	C135.088654,65.039421 134.686798,64.701683 134.284927,64.363953 
	C132.837036,64.887146 131.389145,65.410347 129.849258,66.317657 
	C126.577866,62.466541 123.398468,58.231304 119.939102,53.853745 
	C117.522705,51.704967 115.386261,49.698521 113.087845,47.036278 
	C112.947754,44.594635 112.969658,42.808788 112.991554,41.022945 
	C113.488205,41.279465 113.984863,41.535988 114.741165,41.898403 
z"/>
<path fill="#08A7B8" opacity="1.000000" stroke="none" 
	d="
M112.849457,40.724777 
	C112.969658,42.808788 112.947754,44.594635 112.947235,46.731651 
	C110.734985,45.339096 108.501366,43.595367 106.084122,41.566574 
	C105.928902,39.498432 105.957314,37.715355 105.979134,35.490242 
	C106.472343,35.298450 106.972137,35.548691 107.730652,35.907604 
	C109.562027,37.486389 111.134689,38.956497 112.849457,40.724777 
z"/>
<path fill="#17CBC1" opacity="1.000000" stroke="none" 
	d="
M136.020401,52.590015 
	C134.964569,54.712273 134.045532,56.595348 132.772339,58.196880 
	C132.352493,58.724991 131.017685,58.525723 130.056213,58.345959 
	C131.006683,53.947865 132.002197,49.862862 133.014252,45.359627 
	C136.083450,43.066998 137.187073,45.822762 138.893768,47.694199 
	C137.998398,49.426170 137.008820,50.833664 136.020401,52.590015 
z"/>
<path fill="#016FBD" opacity="1.000000" stroke="none" 
	d="
M40.697960,32.965187 
	C41.722652,34.325546 42.378010,35.704300 43.137466,37.386780 
	C42.015789,40.000187 40.790020,42.309868 39.139954,44.515877 
	C36.142021,42.940933 33.568382,41.469666 30.994740,39.998398 
	C31.582045,39.187035 32.169350,38.375671 32.886383,37.291744 
	C35.453617,35.673977 37.891125,34.328777 40.697960,32.965187 
z"/>
<path fill="#007EBD" opacity="1.000000" stroke="none" 
	d="
M30.772865,40.105370 
	C33.568382,41.469666 36.142021,42.940933 38.868931,44.721134 
	C39.022202,45.030067 39.020260,45.516266 38.755867,45.937405 
	C37.664200,47.575302 36.836926,48.792065 35.619957,49.960503 
	C33.154350,49.607376 31.078434,49.302567 29.002522,48.997757 
	C29.334723,46.606182 29.666922,44.214607 29.998055,41.416542 
	C30.090225,40.680637 30.274895,40.414738 30.772865,40.105370 
z"/>
<path fill="#C2393C" opacity="1.000000" stroke="none" 
	d="
M135.007004,90.003006 
	C135.280930,90.196228 135.554871,90.389450 135.963348,90.800186 
	C136.393707,92.755630 136.689514,94.493561 136.986481,96.614632 
	C136.048737,97.562408 134.666992,97.897430 134.237350,98.726089 
	C127.759628,111.219940 116.923836,117.643547 103.091019,120.661545 
	C99.525269,120.274170 96.606613,120.319633 93.750900,119.917786 
	C92.437218,119.732933 91.246880,118.671539 90.459854,118.004288 
	C104.890793,118.610657 116.983154,114.483658 125.986473,103.398788 
	C129.366821,99.236900 132.021484,94.485588 135.007004,90.003006 
z"/>
<path fill="#C43434" opacity="1.000000" stroke="none" 
	d="
M90.000610,118.007607 
	C91.246880,118.671539 92.437218,119.732933 93.750900,119.917786 
	C96.606613,120.319633 99.525269,120.274170 102.708588,120.705605 
	C97.300537,121.339272 91.602097,121.678894 85.465111,121.630745 
	C85.041832,120.490593 85.057091,119.738205 85.400986,118.987411 
	C86.485275,118.660080 87.240944,118.331154 88.330612,118.001884 
	C89.109947,118.003555 89.555275,118.005585 90.000610,118.007607 
z"/>
<path fill="#C50E0C" opacity="1.000000" stroke="none" 
	d="
M85.072357,118.985825 
	C85.057091,119.738205 85.041832,120.490593 85.051025,121.618591 
	C85.053314,122.442039 85.031158,122.889870 84.995316,123.673943 
	C83.281708,124.006424 81.581772,124.002670 79.431595,123.571182 
	C79.007477,121.432030 79.033607,119.720604 79.479797,118.005692 
	C81.587585,118.005882 83.275314,118.009583 84.985481,118.256973 
	C85.007912,118.500656 85.072357,118.985825 85.072357,118.985825 
z"/>
<path fill="#C46410" opacity="1.000000" stroke="none" 
	d="
M79.059738,118.009186 
	C79.033607,119.720604 79.007477,121.432030 79.006325,123.570580 
	C78.995483,124.438148 78.959671,124.878586 78.871857,125.646347 
	C77.450699,126.290924 76.081551,126.608177 74.355591,126.960999 
	C73.996712,126.245667 73.994637,125.494759 73.994179,123.970825 
	C74.002251,122.136871 74.008705,121.075951 74.318253,119.854500 
	C75.076820,118.468216 75.532303,117.242477 76.270203,115.893463 
	C77.308090,115.494606 78.063560,115.219017 78.874359,115.323944 
	C78.973038,116.472702 79.016388,117.240944 79.059738,118.009186 
z"/>
<path fill="#FEB926" opacity="1.000000" stroke="none" 
	d="
M53.990898,43.014736 
	C54.435841,43.009056 54.880779,43.003376 55.949120,43.288715 
	C60.709476,43.722504 64.846436,43.865276 68.983398,44.008045 
	C68.983398,44.008045 69.000015,44.001148 69.004791,44.392117 
	C69.342072,46.519543 69.674568,48.256004 70.002258,50.370205 
	C69.991440,51.503510 69.985428,52.259071 69.583832,52.961388 
	C64.899277,52.273796 60.624084,51.448143 56.311798,51.137421 
	C55.211449,51.058136 53.993526,52.610600 52.487877,53.312065 
	C50.348747,54.107704 48.551365,55.004631 46.410187,55.922829 
	C45.376804,55.966499 44.687229,55.988899 44.029949,55.661980 
	C47.371799,51.213348 50.681347,47.114040 53.990898,43.014736 
z"/>
<path fill="#F59F19" opacity="1.000000" stroke="none" 
	d="
M53.648026,42.860062 
	C50.681347,47.114040 47.371799,51.213348 43.815201,55.776985 
	C43.302258,56.445278 43.111694,56.704605 42.996460,57.019299 
	C41.452450,56.809914 39.908443,56.600529 38.190926,55.757523 
	C39.018353,53.432861 40.019291,51.741821 41.020233,50.050777 
	C43.665390,46.923611 46.310551,43.796448 49.258415,40.497581 
	C50.809128,41.119045 52.057144,41.912216 53.648026,42.860062 
z"/>
<path fill="#FFB60F" opacity="1.000000" stroke="none" 
	d="
M68.952393,43.642460 
	C64.846436,43.865276 60.709476,43.722504 56.283012,43.281387 
	C58.464329,41.324268 60.812626,38.702812 63.451809,38.366920 
	C65.040977,38.164677 67.082916,41.520157 68.952393,43.642460 
z"/>
<path fill="#FD9113" opacity="1.000000" stroke="none" 
	d="
M70.007065,49.992462 
	C69.674568,48.256004 69.342072,46.519543 69.011993,44.397678 
	C69.897903,43.830086 70.781395,43.647903 71.882896,43.193626 
	C72.277466,42.943947 72.454025,42.966358 72.842682,43.413300 
	C73.321457,46.234753 73.588127,48.631664 73.525574,50.983482 
	C72.133255,50.623074 71.070160,50.307766 70.007065,49.992462 
z"/>
<path fill="#FE1610" opacity="1.000000" stroke="none" 
	d="
M73.854797,51.028580 
	C73.588127,48.631664 73.321457,46.234753 73.108582,43.436996 
	C74.850952,42.740219 76.539528,42.444283 78.613113,42.532711 
	C79.037613,44.290417 79.077103,45.663754 79.121544,47.399696 
	C79.443306,49.182056 79.760117,50.601822 80.062836,52.390404 
	C80.350426,54.169621 80.652100,55.580025 80.944916,57.393848 
	C80.990685,58.870827 81.045319,59.944386 81.064575,61.431747 
	C81.041588,63.230778 81.053955,64.615997 80.691154,66.037994 
	C79.120163,66.412552 77.924332,66.750328 76.614456,66.729691 
	C75.946564,63.914932 75.392715,61.458588 74.892303,58.595829 
	C74.582092,55.802471 74.218445,53.415524 73.854797,51.028580 
z"/>
<path fill="#FF3A2B" opacity="1.000000" stroke="none" 
	d="
M79.116592,47.037094 
	C79.077103,45.663754 79.037613,44.290417 78.983246,42.509014 
	C82.687370,40.738022 86.406372,39.375088 90.528122,38.010780 
	C92.166382,38.818985 93.401894,39.628571 94.756271,41.062878 
	C89.622292,43.470760 84.369446,45.253925 79.116592,47.037094 
z"/>
<path fill="#FF5355" opacity="1.000000" stroke="none" 
	d="
M81.099945,61.017941 
	C81.045319,59.944386 80.990685,58.870827 81.312027,57.359409 
	C90.466194,51.726768 100.029900,50.277687 110.043732,50.975014 
	C111.801643,52.239105 113.559547,53.503193 115.590965,54.938850 
	C115.915726,55.523426 115.966980,55.936440 115.609894,56.671455 
	C113.431343,56.708660 111.660255,56.177734 109.891060,56.183922 
	C103.915466,56.204823 97.870781,55.915829 91.990532,56.735504 
	C88.234344,57.259102 84.721748,59.530273 81.099945,61.017941 
z"/>
<path fill="#FF4947" opacity="1.000000" stroke="none" 
	d="
M109.902840,50.672974 
	C100.029900,50.277687 90.466194,51.726768 81.320892,56.955986 
	C80.652100,55.580025 80.350426,54.169621 80.435638,52.377590 
	C88.566284,49.985737 96.310036,47.975513 104.053787,45.965286 
	C105.956505,47.433834 107.859230,48.902378 109.902840,50.672974 
z"/>
<path fill="#FF413A" opacity="1.000000" stroke="none" 
	d="
M103.878510,45.666039 
	C96.310036,47.975513 88.566284,49.985737 80.449722,52.008774 
	C79.760117,50.601822 79.443306,49.182056 79.121544,47.399693 
	C84.369446,45.253925 89.622292,43.470760 94.944122,41.320099 
	C97.909813,42.424004 100.806519,43.895401 103.878510,45.666039 
z"/>
<path fill="#D39D39" opacity="1.000000" stroke="none" 
	d="
M31.975109,85.414581 
	C32.697388,85.005058 33.408859,84.995804 34.551498,85.410210 
	C35.452370,89.303680 33.506886,93.824089 39.047173,95.439758 
	C39.625061,96.589355 40.073551,97.491112 40.730007,98.200394 
	C49.714958,107.908226 61.415333,110.598351 73.997940,111.374611 
	C73.999313,112.494354 73.992828,113.240891 73.535477,113.990898 
	C68.563087,113.432434 63.811905,113.559830 59.573685,112.147667 
	C53.148621,110.006866 47.080181,106.795761 40.635136,103.810539 
	C38.943726,102.415413 37.477413,101.249115 36.004608,99.710098 
	C34.339657,97.220055 32.681198,95.102722 31.022739,92.985390 
	C31.336592,90.595207 31.650446,88.205025 31.975109,85.414581 
z"/>
<path fill="#CA912E" opacity="1.000000" stroke="none" 
	d="
M31.013718,93.366554 
	C32.681198,95.102722 34.339657,97.220055 35.795071,99.719345 
	C35.592026,100.101311 35.173344,100.077095 34.754467,100.053024 
	C33.225018,100.020119 32.114441,100.011276 31.003866,100.002441 
	C30.994873,98.944305 30.985880,97.886177 30.970715,96.432571 
	C30.977930,95.273972 30.991312,94.510849 31.013718,93.366554 
z"/>
<path fill="#F9F2EA" opacity="1.000000" stroke="none" 
	d="
M39.014469,95.102425 
	C33.506886,93.824089 35.452370,89.303680 34.906960,85.402924 
	C34.908447,84.554558 34.985638,84.137131 35.393757,83.167618 
	C39.401119,73.710869 43.077553,64.806213 46.753990,55.901562 
	C48.551365,55.004631 50.348747,54.107704 52.503067,53.663773 
	C52.528755,55.736492 52.197506,57.356213 51.598747,59.178978 
	C50.128979,61.893288 48.926712,64.404549 47.482906,67.169601 
	C46.312012,70.241592 45.382660,73.059784 44.254593,76.168076 
	C43.083244,79.973572 42.110607,83.488976 41.069794,87.362259 
	C40.947952,88.444298 40.894287,89.168449 40.559174,90.140396 
	C40.116299,91.873917 39.954868,93.359657 39.589050,94.880417 
	C39.384663,94.915451 39.014469,95.102425 39.014469,95.102425 
z"/>
<path fill="#FAC645" opacity="1.000000" stroke="none" 
	d="
M46.410187,55.922829 
	C43.077553,64.806213 39.401119,73.710869 35.424164,82.849533 
	C32.627792,78.591209 34.653225,74.436874 36.359173,70.433876 
	C38.221157,66.064751 40.584969,61.909500 42.863251,57.340160 
	C43.111694,56.704605 43.302258,56.445278 43.782898,56.126312 
	C44.687229,55.988899 45.376804,55.966499 46.410187,55.922829 
z"/>
<path fill="#0965A3" opacity="1.000000" stroke="none" 
	d="
M41.010410,49.699017 
	C40.019291,51.741821 39.018353,53.432861 37.957031,55.445202 
	C37.896645,55.766502 37.486557,55.901897 37.281181,55.968781 
	C36.194855,55.880203 35.313900,55.724739 34.343414,54.994144 
	C34.839138,52.948948 35.424397,51.478886 36.009651,50.008823 
	C36.836926,48.792065 37.664200,47.575302 38.756649,46.180504 
	C39.681412,47.117393 40.341000,48.232327 41.010410,49.699017 
z"/>
<path fill="#008BB9" opacity="1.000000" stroke="none" 
	d="
M35.619957,49.960503 
	C35.424397,51.478886 34.839138,52.948948 34.121864,54.737953 
	C32.687016,57.469131 31.384180,59.881371 30.043997,62.645908 
	C29.154421,61.037045 27.970121,59.143192 27.554688,57.093498 
	C27.220341,55.443871 27.815922,53.605770 27.997734,51.426846 
	C28.259884,50.507175 28.523199,50.011951 28.894518,49.257240 
	C31.078434,49.302567 33.154350,49.607376 35.619957,49.960503 
z"/>
<path fill="#BE7B21" opacity="1.000000" stroke="none" 
	d="
M74.015160,120.015038 
	C74.008705,121.075951 74.002251,122.136871 73.989899,123.595337 
	C64.770988,124.447876 55.748745,123.447464 47.199673,119.851936 
	C44.679607,118.792053 42.509682,116.899658 40.047516,114.767761 
	C39.998466,113.766541 40.081192,113.386353 40.539982,113.005844 
	C41.726833,113.097725 42.706913,112.926170 43.323040,113.321640 
	C52.735569,119.363258 63.181068,120.557503 74.015160,120.015038 
z"/>
<path fill="#C4A49A" opacity="1.000000" stroke="none" 
	d="
M40.163918,113.006157 
	C40.081192,113.386353 39.998466,113.766541 39.903419,114.435455 
	C38.600395,113.062523 37.309696,111.400879 35.976044,108.976639 
	C35.679848,105.501724 35.426594,102.789413 35.173344,100.077095 
	C35.173344,100.077095 35.592026,100.101311 35.801563,100.092064 
	C37.477413,101.249115 38.943726,102.415413 40.634964,104.221436 
	C40.865696,106.232475 40.871502,107.603798 40.743942,109.295563 
	C40.461685,110.746063 40.312801,111.876114 40.163918,113.006157 
z"/>
<path fill="#C1822A" opacity="1.000000" stroke="none" 
	d="
M34.754467,100.053024 
	C35.426594,102.789413 35.679848,105.501724 35.893112,108.620300 
	C34.829189,109.016495 33.805256,109.006432 32.395699,108.992691 
	C31.693991,107.889954 31.377899,106.790901 31.024426,105.347870 
	C30.989752,103.614471 30.992460,102.225052 30.999519,100.419037 
	C32.114441,100.011276 33.225018,100.020119 34.754467,100.053024 
z"/>
<path fill="#FE5B62" opacity="1.000000" stroke="none" 
	d="
M81.064575,61.431747 
	C84.721748,59.530273 88.234344,57.259102 91.990532,56.735504 
	C97.870781,55.915829 103.915466,56.204823 109.891060,56.183922 
	C111.660255,56.177734 113.431343,56.708660 115.631760,56.983624 
	C120.355377,62.738007 124.648804,68.502228 128.691071,74.748505 
	C127.630302,75.489090 126.820702,75.747620 126.006348,75.618683 
	C125.983658,69.727242 121.661758,67.219933 118.005859,64.677727 
	C112.111160,60.578732 105.472023,57.544651 98.133110,59.931675 
	C92.584908,61.736256 87.384499,64.610123 81.919266,66.794754 
	C81.631294,66.298759 81.383659,66.105362 81.066322,66.001221 
	C81.053955,64.615997 81.041588,63.230778 81.064575,61.431747 
z"/>
<path fill="#E8545C" opacity="1.000000" stroke="none" 
	d="
M126.011108,76.006149 
	C126.820702,75.747620 127.630302,75.489090 128.737854,75.100723 
	C129.035812,74.970886 129.509048,75.005920 129.744385,75.035278 
	C130.308319,76.137405 130.636902,77.210175 130.846313,78.964142 
	C130.150208,82.094864 129.573273,84.544380 128.622955,86.995575 
	C127.502571,87.001221 126.755592,87.005188 125.898575,86.788689 
	C125.588493,86.291901 125.325745,86.102592 125.001251,85.667122 
	C125.004547,84.889694 125.006897,84.445457 125.300674,83.970261 
	C125.727547,83.294548 125.862976,82.649780 125.999374,81.605270 
	C125.999619,80.140060 125.998894,79.074608 126.001083,77.675278 
	C126.006378,76.896324 126.008743,76.451233 126.011108,76.006149 
z"/>
<path fill="#D94950" opacity="1.000000" stroke="none" 
	d="
M128.996338,86.993896 
	C129.573273,84.544380 130.150208,82.094864 130.887939,79.302147 
	C131.868378,80.509277 132.688034,82.059608 133.772934,83.815430 
	C134.015701,84.461708 133.993225,84.902504 133.624512,85.730453 
	C131.519653,88.412445 129.761047,90.707291 128.007294,92.617172 
	C128.340225,90.486107 128.668274,88.739998 128.996338,86.993896 
z"/>
<path fill="#CB4147" opacity="1.000000" stroke="none" 
	d="
M128.002441,93.002136 
	C129.761047,90.707291 131.519653,88.412445 133.623108,86.061798 
	C134.311127,87.093407 134.654327,88.180809 135.002258,89.635605 
	C132.021484,94.485588 129.366821,99.236900 125.986473,103.398788 
	C116.983154,114.483658 104.890793,118.610657 90.459854,118.004288 
	C89.555275,118.005585 89.109947,118.003555 88.136673,117.742966 
	C86.774475,117.316048 85.940224,117.147690 85.073601,116.609756 
	C85.005623,115.498741 84.970016,114.757294 84.976944,113.752075 
	C85.053421,113.313606 85.087372,113.138916 85.546761,112.973053 
	C93.612915,114.994629 101.025246,113.916939 108.201591,111.045982 
	C117.015884,107.519745 124.257362,102.148514 128.002441,93.002136 
z"/>
<path fill="#C2393C" opacity="1.000000" stroke="none" 
	d="
M85.105972,116.979332 
	C85.940224,117.147690 86.774475,117.316048 87.802673,117.743317 
	C87.240944,118.331154 86.485275,118.660080 85.400986,118.987411 
	C85.072357,118.985825 85.007912,118.500656 85.016151,117.997665 
	C85.051590,117.322899 85.078781,117.151115 85.105972,116.979332 
z"/>
<path fill="#D11314" opacity="1.000000" stroke="none" 
	d="
M85.073601,116.609756 
	C85.078781,117.151115 85.051590,117.322899 84.993721,117.753983 
	C83.275314,118.009583 81.587585,118.005882 79.479797,118.005692 
	C79.016388,117.240944 78.973038,116.472702 78.920609,115.000290 
	C78.951408,113.861748 78.991287,113.427368 79.413376,112.995995 
	C81.508530,113.337952 83.221466,113.676903 84.934410,114.015854 
	C84.970016,114.757294 85.005623,115.498741 85.073601,116.609756 
z"/>
<path fill="#C58528" opacity="1.000000" stroke="none" 
	d="
M40.539986,113.005844 
	C40.312801,111.876114 40.461685,110.746063 41.132378,109.307953 
	C44.959126,110.420868 48.201550,112.016441 51.581894,113.226852 
	C58.829384,115.822006 66.108032,118.547783 74.339409,115.992500 
	C75.108742,116.001785 75.548271,116.009262 75.987793,116.016731 
	C75.532303,117.242477 75.076820,118.468216 74.318253,119.854500 
	C63.181068,120.557503 52.735569,119.363258 43.323040,113.321640 
	C42.706913,112.926170 41.726833,113.097725 40.539986,113.005844 
z"/>
<path fill="#E27F20" opacity="1.000000" stroke="none" 
	d="
M76.270203,115.893463 
	C75.548271,116.009262 75.108742,116.001785 74.337921,115.658798 
	C73.999855,114.877991 73.993103,114.432709 73.986351,113.987419 
	C73.992828,113.240891 73.999313,112.494354 74.036522,111.032326 
	C74.392403,109.225777 74.717552,108.134720 75.242607,106.925217 
	C75.686996,106.588860 75.820923,106.316559 76.001099,105.708229 
	C76.805878,104.612343 77.453842,103.798088 78.312439,103.095840 
	C78.745827,103.442871 78.909447,103.713638 78.993439,104.418358 
	C78.997780,105.881439 79.022598,106.946304 79.017258,108.425781 
	C79.001785,110.224594 79.016479,111.608795 79.031174,112.992996 
	C78.991287,113.427368 78.951408,113.861748 78.865280,114.619774 
	C78.063560,115.219017 77.308090,115.494606 76.270203,115.893463 
z"/>
<path fill="#FEC234" opacity="1.000000" stroke="none" 
	d="
M51.866257,58.975929 
	C52.197506,57.356213 52.528755,55.736492 52.844818,53.765064 
	C53.993526,52.610600 55.211449,51.058136 56.311798,51.137421 
	C60.624084,51.448143 64.899277,52.273796 69.590996,53.347038 
	C70.334381,55.523201 70.675018,57.260479 71.010330,59.374027 
	C71.000275,60.502769 70.995544,61.255241 70.615578,61.963043 
	C64.115639,60.937557 57.990948,59.956745 51.866257,58.975929 
z"/>
<path fill="#FDA71B" opacity="1.000000" stroke="none" 
	d="
M71.015656,58.997753 
	C70.675018,57.260479 70.334381,55.523201 69.986588,53.400280 
	C69.985428,52.259071 69.991440,51.503510 70.002258,50.370205 
	C71.070160,50.307766 72.133255,50.623074 73.525574,50.983482 
	C74.218445,53.415524 74.582092,55.802471 74.511253,58.595474 
	C73.056396,59.000275 72.036026,58.999012 71.015656,58.997753 
z"/>
<path fill="#FE3135" opacity="1.000000" stroke="none" 
	d="
M79.013924,104.020142 
	C78.909447,103.713638 78.745827,103.442871 78.328888,102.629257 
	C77.419441,90.705498 76.704185,79.360313 76.161484,67.904678 
	C76.517639,67.587952 76.649124,67.352577 76.728508,67.088104 
	C77.924332,66.750328 79.120163,66.412552 80.691154,66.037994 
	C81.383659,66.105362 81.631294,66.298759 81.906754,67.197021 
	C82.056580,68.883743 82.108887,69.954842 82.149101,71.386536 
	C82.411301,73.162369 82.685585,74.577629 82.944992,76.420967 
	C83.214981,79.254089 83.499855,81.659134 83.796707,84.509392 
	C83.919052,87.629814 84.029419,90.305008 84.086243,93.415611 
	C84.278458,97.253914 84.524208,100.656815 84.359390,104.043686 
	C82.303856,104.025154 80.658890,104.022652 79.013924,104.020142 
z"/>
<path fill="#FCA826" opacity="1.000000" stroke="none" 
	d="
M76.614456,66.729691 
	C76.649124,67.352577 76.517639,67.587952 75.764481,67.900040 
	C74.137062,67.997849 73.079231,67.989853 72.009834,67.598953 
	C71.662460,65.479942 71.326637,63.743828 70.990814,62.007710 
	C70.995544,61.255241 71.000275,60.502769 71.010330,59.374027 
	C72.036026,58.999012 73.056396,59.000275 74.457817,59.001892 
	C75.392715,61.458588 75.946564,63.914932 76.614456,66.729691 
z"/>
<path fill="#DBA83D" opacity="1.000000" stroke="none" 
	d="
M75.042694,107.043663 
	C74.717552,108.134720 74.392403,109.225777 74.028671,110.659111 
	C61.415333,110.598351 49.714958,107.908226 40.730007,98.200394 
	C40.073551,97.491112 39.625061,96.589355 39.047173,95.439758 
	C39.014469,95.102425 39.384663,94.915451 39.947742,94.952972 
	C41.812149,95.963539 43.146526,96.895660 44.409500,97.916161 
	C53.373108,105.158897 63.499424,108.471992 75.042694,107.043663 
z"/>
<path fill="#CB902E" opacity="1.000000" stroke="none" 
	d="
M73.535477,113.990898 
	C73.993103,114.432709 73.999855,114.877991 74.008102,115.656982 
	C66.108032,118.547783 58.829384,115.822006 51.581894,113.226852 
	C48.201550,112.016441 44.959126,110.420868 41.265747,108.987503 
	C40.871502,107.603798 40.865696,106.232475 40.860062,104.450264 
	C47.080181,106.795761 53.148621,110.006866 59.573685,112.147667 
	C63.811905,113.559830 68.563087,113.432434 73.535477,113.990898 
z"/>
<path fill="#FBD859" opacity="1.000000" stroke="none" 
	d="
M41.137970,87.004387 
	C42.110607,83.488976 43.083244,79.973572 44.669811,76.178856 
	C46.648121,75.367630 48.047489,74.910538 49.371155,74.291557 
	C57.519764,70.481087 62.536480,71.314461 68.979683,77.418625 
	C70.112511,78.491844 71.632721,79.156158 72.986160,80.447189 
	C73.326134,86.255074 73.653984,91.625092 73.628075,97.034470 
	C69.987343,98.533295 67.688171,103.467003 63.034935,99.645218 
	C64.059296,98.003502 65.038162,96.704239 66.038193,95.421486 
	C70.037872,90.291054 69.226212,82.775085 64.358299,79.175629 
	C60.528046,76.343452 56.278973,75.962509 52.264721,78.007317 
	C47.591099,80.387993 45.728985,84.762184 45.698658,89.843704 
	C43.976753,88.795921 42.557362,87.900154 41.137970,87.004387 
z"/>
<path fill="#FDD34F" opacity="1.000000" stroke="none" 
	d="
M72.974030,80.009308 
	C71.632721,79.156158 70.112511,78.491844 68.979683,77.418625 
	C62.536480,71.314461 57.519764,70.481087 49.371155,74.291557 
	C48.047489,74.910538 46.648121,75.367630 44.868523,75.888763 
	C45.382660,73.059784 46.312012,70.241592 47.938171,67.195755 
	C57.016109,64.856895 64.736908,66.558220 71.989990,71.423500 
	C72.323967,74.560005 72.648994,77.284653 72.974030,80.009308 
z"/>
<path fill="#FDCB43" opacity="1.000000" stroke="none" 
	d="
M71.981041,71.011650 
	C64.736908,66.558220 57.016109,64.856895 48.179714,66.941963 
	C48.926712,64.404549 50.128979,61.893288 51.598747,59.178978 
	C57.990948,59.956745 64.115639,60.937557 70.615570,61.963043 
	C71.326637,63.743828 71.662460,65.479942 72.000732,67.977859 
	C71.995811,69.496994 71.988426,70.254318 71.981041,71.011650 
z"/>
<path fill="#E7BC49" opacity="1.000000" stroke="none" 
	d="
M75.242599,106.925217 
	C63.499424,108.471992 53.373108,105.158897 44.409500,97.916161 
	C43.146526,96.895660 41.812149,95.963539 40.152130,94.917946 
	C39.954868,93.359657 40.116299,91.873917 40.915962,90.202438 
	C43.548779,91.689995 45.414261,93.564919 47.588776,94.957191 
	C48.796501,95.730461 50.519939,95.698265 52.009109,96.017258 
	C52.007275,96.005417 52.021496,96.012611 52.255219,96.016830 
	C52.488941,96.021057 52.956440,96.025986 53.216114,96.028442 
	C53.648895,96.028557 53.822006,96.026199 54.173065,96.161133 
	C54.234818,96.869728 54.118618,97.441017 54.056850,98.365135 
	C59.824398,103.890015 67.131104,103.049179 74.084885,104.239517 
	C74.749199,104.995583 75.296745,105.492722 75.844284,105.989868 
	C75.820923,106.316559 75.686996,106.588860 75.242599,106.925217 
z"/>
<path fill="#F8CF4F" opacity="1.000000" stroke="none" 
	d="
M52.010941,96.029091 
	C50.519939,95.698265 48.796501,95.730461 47.588776,94.957191 
	C45.414261,93.564919 43.548779,91.689995 41.197411,89.954651 
	C40.894287,89.168449 40.947952,88.444298 41.069794,87.362259 
	C42.557362,87.900154 43.976753,88.795921 45.842209,90.140762 
	C47.526718,91.392632 48.765163,92.195435 50.124168,93.282959 
	C50.833469,94.388161 51.422207,95.208626 52.010941,96.029091 
z"/>
<path fill="#FF646E" opacity="1.000000" stroke="none" 
	d="
M82.161186,71.025948 
	C82.108887,69.954842 82.056580,68.883743 82.016785,67.410370 
	C87.384499,64.610123 92.584908,61.736256 98.133110,59.931675 
	C105.472023,57.544651 112.111160,60.578732 118.005859,64.677727 
	C121.661758,67.219933 125.983658,69.727242 126.006348,75.618683 
	C126.008743,76.451233 126.006378,76.896324 125.741692,77.779839 
	C124.985428,78.478638 124.491478,78.739014 123.992981,78.628929 
	C118.893898,63.728546 100.024422,57.778431 87.171745,68.276413 
	C85.720894,69.461456 83.841728,70.122116 82.161186,71.025948 
z"/>
<path fill="#D64F59" opacity="1.000000" stroke="none" 
	d="
M128.007294,92.617172 
	C124.257362,102.148514 117.015884,107.519745 108.201591,111.045982 
	C101.025246,113.916939 93.612915,114.994629 85.508980,112.575310 
	C85.063316,111.101509 85.080879,110.034264 85.560272,108.975845 
	C88.840233,108.991013 91.658379,109.002823 94.476517,109.002754 
	C109.371445,109.002403 121.131851,100.798157 126.008606,87.009155 
	C126.755592,87.005188 127.502571,87.001221 128.622940,86.995575 
	C128.668274,88.739998 128.340225,90.486107 128.007294,92.617172 
z"/>
<path fill="#E25B68" opacity="1.000000" stroke="none" 
	d="
M125.898575,86.788689 
	C121.131851,100.798157 109.371445,109.002403 94.476517,109.002754 
	C91.658379,109.002823 88.840233,108.991013 85.504944,108.994705 
	C84.987801,109.004723 84.879349,109.048302 84.941528,108.735794 
	C85.289322,107.632278 85.574936,106.841255 86.303619,106.032349 
	C88.376221,106.252754 90.012550,106.729584 91.634003,106.683472 
	C96.056313,106.557724 100.928886,107.734108 104.343140,103.016373 
	C105.116776,103.011108 105.558861,103.008591 106.188789,103.246353 
	C107.254768,102.664284 108.132896,101.841934 109.360626,100.981140 
	C112.142929,98.962784 114.575623,96.982887 117.356087,94.965294 
	C120.136002,91.951828 122.568153,88.976067 125.000305,86.000305 
	C125.325745,86.102592 125.588493,86.291901 125.898575,86.788689 
z"/>
<path fill="#EB6372" opacity="1.000000" stroke="none" 
	d="
M125.001251,85.667122 
	C122.568153,88.976067 120.136002,91.951828 117.389824,94.611862 
	C118.717590,90.864807 120.359383,87.433472 122.266190,83.788864 
	C123.019974,82.050201 123.508759,80.524796 123.997528,78.999390 
	C124.491478,78.739014 124.985428,78.478638 125.738770,78.113708 
	C125.998894,79.074608 125.999619,80.140060 125.754395,81.771538 
	C125.342041,82.892105 125.175644,83.446663 125.009247,84.001213 
	C125.006897,84.445457 125.004547,84.889694 125.001251,85.667122 
z"/>
<path fill="#E25B68" opacity="1.000000" stroke="none" 
	d="
M125.300674,83.970261 
	C125.175644,83.446663 125.342041,82.892105 125.753433,82.171280 
	C125.862976,82.649780 125.727547,83.294548 125.300674,83.970261 
z"/>
<path fill="#DE1A1C" opacity="1.000000" stroke="none" 
	d="
M85.043121,108.985870 
	C85.080879,110.034264 85.063316,111.101509 85.083542,112.566498 
	C85.087372,113.138916 85.053421,113.313606 84.976944,113.752075 
	C83.221466,113.676903 81.508530,113.337952 79.413376,112.995995 
	C79.016479,111.608795 79.001785,110.224594 79.396042,108.422440 
	C81.496452,108.352425 83.187897,108.700363 84.879349,109.048302 
	C84.879349,109.048302 84.987801,109.004723 85.043121,108.985870 
z"/>
<path fill="#FBBA31" opacity="1.000000" stroke="none" 
	d="
M76.001099,105.708229 
	C75.296745,105.492722 74.749199,104.995583 74.095154,103.804108 
	C73.986374,101.071556 73.984108,99.033325 73.981834,96.995102 
	C73.653984,91.625092 73.326134,86.255074 72.986160,80.447189 
	C72.648994,77.284653 72.323967,74.560005 71.989990,71.423500 
	C71.988426,70.254318 71.995811,69.496994 72.012299,68.360764 
	C73.079231,67.989853 74.137062,67.997849 75.591911,68.010490 
	C76.704185,79.360313 77.419441,90.705498 78.118256,102.517258 
	C77.453842,103.798088 76.805878,104.612343 76.001099,105.708229 
z"/>
<path fill="#EE2228" opacity="1.000000" stroke="none" 
	d="
M84.941528,108.735794 
	C83.187897,108.700363 81.496452,108.352425 79.426208,108.007828 
	C79.022598,106.946304 78.997780,105.881439 78.993439,104.418365 
	C80.658890,104.022652 82.303856,104.025154 84.591797,104.083130 
	C85.234772,104.138603 85.700920,104.178001 85.738907,104.487061 
	C85.804771,105.214157 85.832664,105.632202 85.860550,106.050240 
	C85.574936,106.841255 85.289322,107.632278 84.941528,108.735794 
z"/>
<path fill="#FD798F" opacity="1.000000" stroke="none" 
	d="
M84.139786,92.980209 
	C84.029419,90.305008 83.919052,87.629814 84.130356,84.362747 
	C85.348358,82.408936 86.390671,81.120224 87.116776,79.672874 
	C91.092094,71.748802 97.743546,69.366135 104.576691,70.178276 
	C112.282242,71.094093 117.602760,76.924446 118.869370,85.315338 
	C117.488625,87.415047 116.243965,89.206993 114.999359,90.624329 
	C114.997704,89.499878 114.995995,88.750015 115.274704,87.745636 
	C116.362511,81.612938 113.401138,76.740685 107.553841,74.326851 
	C101.375702,71.776428 94.649590,73.590630 90.734245,78.863495 
	C87.037903,83.841415 87.353539,91.100494 91.362473,95.888184 
	C92.701187,97.486969 93.795250,99.290611 95.001961,101.002571 
	C95.002769,101.004532 95.009178,101.022079 94.623863,101.015869 
	C92.428169,99.883759 90.496582,98.909866 88.840981,97.589828 
	C87.133980,96.228806 85.695663,94.530785 84.139786,92.980209 
z"/>
<path fill="#FE7283" opacity="1.000000" stroke="none" 
	d="
M119.005440,85.007584 
	C117.602760,76.924446 112.282242,71.094093 104.576691,70.178276 
	C97.743546,69.366135 91.092094,71.748802 87.116776,79.672874 
	C86.390671,81.120224 85.348358,82.408936 84.118370,83.917526 
	C83.499855,81.659134 83.214981,79.254089 83.294724,76.391052 
	C85.064949,74.829674 86.388893,73.596687 87.892708,72.649139 
	C91.326691,70.485390 94.646057,67.943321 98.375549,66.484238 
	C107.197258,63.032936 124.899803,74.130432 120.832153,84.241425 
	C120.112656,84.660812 119.559044,84.834198 119.005440,85.007584 
z"/>
<path fill="#FF6B79" opacity="1.000000" stroke="none" 
	d="
M120.998039,83.995422 
	C124.899803,74.130432 107.197258,63.032936 98.375549,66.484238 
	C94.646057,67.943321 91.326691,70.485390 87.892708,72.649139 
	C86.388893,73.596687 85.064949,74.829674 83.309601,75.962967 
	C82.685585,74.577629 82.411301,73.162369 82.149101,71.386536 
	C83.841728,70.122116 85.720894,69.461456 87.171745,68.276413 
	C100.024422,57.778431 118.893898,63.728546 123.992989,78.628937 
	C123.508759,80.524796 123.019974,82.050201 122.015396,83.787209 
	C121.332413,83.997688 121.165230,83.996559 120.998039,83.995422 
z"/>
<path fill="#FD7082" opacity="1.000000" stroke="none" 
	d="
M84.086243,93.415611 
	C85.695663,94.530785 87.133980,96.228806 88.840981,97.589828 
	C90.496582,98.909866 92.428169,99.883759 94.621750,101.347878 
	C95.003777,102.129364 95.002586,102.572639 94.570236,103.012497 
	C91.326355,103.398712 88.513641,103.788353 85.700920,104.177994 
	C85.700920,104.178001 85.234772,104.138603 85.002365,104.099159 
	C84.524208,100.656815 84.278458,97.253914 84.086243,93.415611 
z"/>
<path fill="#FCDF61" opacity="1.000000" stroke="none" 
	d="
M50.003609,92.998230 
	C48.765163,92.195435 47.526718,91.392632 46.144722,90.292786 
	C45.728985,84.762184 47.591099,80.387993 52.264721,78.007317 
	C56.278973,75.962509 60.528046,76.343452 64.358299,79.175629 
	C69.226212,82.775085 70.037872,90.291054 66.038193,95.421486 
	C65.038162,96.704239 64.059296,98.003502 62.661003,99.645721 
	C61.503384,99.991547 60.755470,99.986824 59.962811,99.663223 
	C59.275784,98.900063 58.633503,98.455788 57.592285,98.009308 
	C56.129707,98.008835 55.066063,98.010574 54.002419,98.012314 
	C54.118618,97.441017 54.234818,96.869728 54.423954,95.876678 
	C55.300362,95.303177 56.098099,95.101906 56.908276,95.008041 
	C60.967087,94.537788 64.136086,91.464821 63.974274,88.122337 
	C63.807583,84.679077 60.218281,80.599480 57.341461,81.227730 
	C53.524960,82.061172 50.761032,84.249321 50.940228,88.827553 
	C50.994083,90.203453 50.335701,91.607224 50.003609,92.998230 
z"/>
<path fill="#F8CF4F" opacity="1.000000" stroke="none" 
	d="
M54.056854,98.365135 
	C55.066063,98.010574 56.129707,98.008835 57.637131,98.328529 
	C58.723129,99.094009 59.365345,99.538055 60.007557,99.982109 
	C60.755470,99.986824 61.503384,99.991547 62.625229,99.995758 
	C67.688171,103.467003 69.987343,98.533295 73.628075,97.034470 
	C73.984108,99.033325 73.986374,101.071556 73.978378,103.545181 
	C67.131104,103.049179 59.824398,103.890015 54.056854,98.365135 
z"/>
<path fill="#FCE46A" opacity="1.000000" stroke="none" 
	d="
M50.124168,93.282959 
	C50.335701,91.607224 50.994083,90.203453 50.940228,88.827553 
	C50.761032,84.249321 53.524960,82.061172 57.341461,81.227730 
	C60.218281,80.599480 63.807583,84.679077 63.974274,88.122337 
	C64.136086,91.464821 60.967087,94.537788 56.908276,95.008041 
	C56.098099,95.101906 55.300362,95.303177 54.246002,95.739380 
	C53.822006,96.026199 53.648895,96.028557 53.143822,95.855469 
	C52.548401,95.790886 52.284950,95.901749 52.021496,96.012611 
	C52.021496,96.012611 52.007275,96.005417 52.009109,96.017258 
	C51.422207,95.208626 50.833469,94.388161 50.124168,93.282959 
z"/>
<path fill="#F8CF4F" opacity="1.000000" stroke="none" 
	d="
M52.255219,96.016830 
	C52.284950,95.901749 52.548401,95.790886 52.884148,95.853004 
	C52.956440,96.025986 52.488941,96.021057 52.255219,96.016830 
z"/>
<path fill="#EF6C7E" opacity="1.000000" stroke="none" 
	d="
M95.001404,103.015915 
	C95.002586,102.572639 95.003777,102.129364 95.007065,101.354080 
	C95.009178,101.022079 95.002769,101.004532 95.376434,101.003799 
	C96.499115,100.999496 97.248116,100.995934 98.406601,100.996696 
	C105.720284,100.110291 111.836098,97.947060 114.989304,90.992874 
	C114.998924,90.999168 114.999298,90.998932 114.999298,90.998932 
	C116.243965,89.206993 117.488625,87.415047 118.869370,85.315346 
	C119.559044,84.834198 120.112656,84.660812 120.832153,84.241425 
	C121.165230,83.996559 121.332413,83.997688 121.750381,84.000473 
	C120.359383,87.433472 118.717590,90.864807 117.042061,94.649567 
	C114.575623,96.982887 112.142929,98.962784 109.037811,101.000381 
	C107.577240,101.707413 106.789093,102.356743 106.000938,103.006073 
	C105.558861,103.008591 105.116776,103.011108 103.940727,103.017693 
	C100.471642,103.019814 97.736519,103.017860 95.001404,103.015915 
z"/>
<path fill="#EB6473" opacity="1.000000" stroke="none" 
	d="
M94.570236,103.012497 
	C97.736519,103.017860 100.471642,103.019814 103.609177,103.020432 
	C100.928886,107.734108 96.056313,106.557724 91.634003,106.683472 
	C90.012550,106.729584 88.376221,106.252754 86.303619,106.032349 
	C85.832664,105.632202 85.804771,105.214157 85.738907,104.487061 
	C88.513641,103.788353 91.326355,103.398712 94.570236,103.012497 
z"/>
<path fill="#EB6473" opacity="1.000000" stroke="none" 
	d="
M106.188789,103.246353 
	C106.789093,102.356743 107.577240,101.707413 108.688202,101.038834 
	C108.132896,101.841934 107.254768,102.664284 106.188789,103.246353 
z"/>
<path fill="#FE85A0" opacity="1.000000" stroke="none" 
	d="
M114.994278,88.000160 
	C114.995995,88.750015 114.997704,89.499878 114.999359,90.624329 
	C114.999298,90.998932 114.998924,90.999168 114.626892,91.001724 
	C109.286476,94.583748 104.757408,99.056519 97.950905,98.660706 
	C96.395035,96.837868 94.799004,95.431610 93.398735,93.851837 
	C89.647606,89.619881 90.286133,83.057709 94.783951,78.728737 
	C98.663773,74.994553 105.815735,74.882019 109.318443,78.966988 
	C111.607979,81.637123 113.129021,84.966225 114.994278,88.000160 
M94.458260,89.720451 
	C95.812744,91.147118 96.962067,92.884079 98.560875,93.941246 
	C103.041489,96.903931 109.688019,93.420906 109.997055,88.113274 
	C110.287849,83.118980 107.238060,79.248741 102.834572,79.023918 
	C98.122208,78.783333 94.268661,83.214828 94.458260,89.720451 
z"/>
<path fill="#FF7F97" opacity="1.000000" stroke="none" 
	d="
M115.274712,87.745636 
	C113.129021,84.966225 111.607979,81.637123 109.318443,78.966988 
	C105.815735,74.882019 98.663773,74.994553 94.783951,78.728737 
	C90.286133,83.057709 89.647606,89.619881 93.398735,93.851837 
	C94.799004,95.431610 96.395035,96.837868 97.950378,98.993149 
	C97.998344,100.106163 97.997734,100.549263 97.997131,100.992371 
	C97.248116,100.995934 96.499115,100.999496 95.375626,101.001831 
	C93.795250,99.290611 92.701187,97.486969 91.362473,95.888184 
	C87.353539,91.100494 87.037903,83.841415 90.734245,78.863495 
	C94.649590,73.590630 101.375702,71.776428 107.553841,74.326851 
	C113.401138,76.740685 116.362511,81.612938 115.274712,87.745636 
z"/>
<path fill="#FBD859" opacity="1.000000" stroke="none" 
	d="
M59.962811,99.663223 
	C59.365345,99.538055 58.723129,99.094009 58.036064,98.330742 
	C58.633503,98.455788 59.275784,98.900063 59.962811,99.663223 
z"/>
<path fill="#FD798F" opacity="1.000000" stroke="none" 
	d="
M98.406601,100.996704 
	C97.997734,100.549263 97.998344,100.106163 97.999474,99.330612 
	C104.757408,99.056519 109.286476,94.583748 114.617279,90.995430 
	C111.836098,97.947060 105.720284,100.110291 98.406601,100.996704 
z"/>
<path fill="#FF8CAA" opacity="1.000000" stroke="none" 
	d="
M94.305801,89.363792 
	C94.268661,83.214828 98.122208,78.783333 102.834572,79.023918 
	C107.238060,79.248741 110.287849,83.118980 109.997055,88.113274 
	C109.688019,93.420906 103.041489,96.903931 98.560875,93.941246 
	C96.962067,92.884079 95.812744,91.147118 94.305801,89.363792 
z"/>
</svg>