<svg version="1.1" id="Layer_1" xmlns="http://www.w3.org/2000/svg" xmlns:xlink="http://www.w3.org/1999/xlink" x="0px" y="0px"
	 width="100%" viewBox="0 0 130 157" enable-background="new 0 0 130 157" xml:space="preserve">
<path fill="#FDFDFD" opacity="1.000000" stroke="none" 
	d="
M131.000000,53.000000 
	C131.000000,88.302971 131.000000,123.105934 131.000000,157.954453 
	C87.734848,157.954453 44.469631,157.954453 1.102209,157.954453 
	C1.102209,105.780602 1.102209,53.560940 1.102209,1.170639 
	C44.332779,1.170639 87.666336,1.170639 131.000000,1.170639 
	C131.000000,18.196642 131.000000,35.348320 131.000000,53.000000 
M22.010420,111.776794 
	C22.357618,113.176727 22.704815,114.576668 22.971109,116.754143 
	C23.271444,118.767670 23.571779,120.781197 23.197716,122.984871 
	C16.217665,127.903137 16.238657,132.029633 23.413197,136.436981 
	C25.371176,137.639786 27.554760,138.577133 29.749424,139.276779 
	C48.108177,145.129425 66.948151,145.949722 85.820473,143.256607 
	C94.393623,142.033218 103.000687,139.568344 111.003281,136.247177 
	C118.797249,133.012573 118.653572,127.894005 111.570000,122.178986 
	C112.248383,115.410484 112.929817,108.642288 113.604530,101.873421 
	C115.165802,86.210304 116.723816,70.546867 118.675209,54.058990 
	C118.793526,50.735401 118.911835,47.411808 119.685036,43.828857 
	C120.634865,41.275978 121.584694,38.723099 122.808365,35.296967 
	C122.351616,32.413200 125.065880,28.883902 120.546783,26.161880 
	C116.217613,25.485661 111.888435,24.809441 106.811226,23.946331 
	C106.077225,23.612665 105.352409,23.011116 104.607834,22.985569 
	C93.667557,22.610191 82.724648,22.311512 71.248466,21.732866 
	C70.524979,21.426962 69.801483,21.121058 68.749619,20.255949 
	C66.838295,18.835789 64.926971,17.415630 62.732094,15.382685 
	C56.487114,9.450255 49.539928,5.361084 40.457291,7.044941 
	C31.081873,8.783078 24.609211,14.811286 18.242853,22.153759 
	C15.920104,24.195086 13.597356,26.236414 10.727227,28.270275 
	C10.431457,28.450653 10.135686,28.631031 9.065639,28.743584 
	C7.440051,29.864473 4.321750,31.164106 4.431094,32.077248 
	C5.141560,38.010361 3.953283,44.736717 9.863591,49.830635 
	C10.323282,51.856979 10.782972,53.883320 11.152250,56.719452 
	C12.300241,63.505035 13.448232,70.290619 14.058177,77.595749 
	C7.449740,90.146469 8.742031,95.161514 19.695177,99.915092 
	C20.499342,103.628426 21.303507,107.341766 22.010420,111.776794 
z"/>
<path fill="#486EB4" opacity="1.000000" stroke="none" 
	d="
M9.891127,49.009041 
	C3.953283,44.736717 5.141560,38.010361 4.431094,32.077248 
	C4.321750,31.164106 7.440051,29.864473 9.522923,28.863441 
	C9.980207,28.983297 10.117788,29.155291 10.005154,29.411064 
	C9.445478,30.357729 8.998437,31.048620 8.299295,31.899317 
	C11.042759,33.022697 14.038322,33.986275 17.463690,34.959068 
	C38.073547,36.960552 58.291142,37.379414 78.509865,35.887432 
	C85.698936,35.356937 92.828201,34.016003 100.371033,32.901588 
	C107.698540,31.327311 115.161072,31.650055 121.062759,26.722075 
	C125.065880,28.883902 122.351616,32.413200 122.306412,35.684204 
	C119.845345,37.135269 117.394638,37.775444 116.033653,39.354710 
	C113.517540,42.274368 111.639771,45.744133 109.016045,48.960831 
	C105.036308,49.333462 101.536606,49.730007 97.591789,50.087696 
	C90.872177,50.498116 84.600197,51.283192 78.322693,51.330200 
	C62.912804,51.445610 47.500362,51.220970 31.634283,51.085365 
	C28.489386,50.989162 25.799158,50.940723 22.795483,50.642075 
	C18.285067,49.930927 14.088097,49.469986 9.891127,49.009041 
z"/>
<path fill="#2C4B96" opacity="1.000000" stroke="none" 
	d="
M118.283157,54.883564 
	C116.723816,70.546867 115.165802,86.210304 113.604530,101.873421 
	C112.929817,108.642288 112.248383,115.410484 111.446396,122.958359 
	C110.206337,132.471161 110.060364,132.770111 102.112381,134.671158 
	C98.459740,135.544830 94.695709,135.952835 90.985146,136.060333 
	C91.346138,127.448090 91.561691,119.337845 92.112137,111.250381 
	C92.481163,105.828453 93.542870,100.452896 93.892731,95.030655 
	C94.214203,90.048508 93.997894,85.031654 94.112473,79.769943 
	C94.474655,79.027878 94.742859,78.545959 95.354431,78.006622 
	C101.198196,70.683380 106.698578,63.417553 112.541077,56.069214 
	C114.683182,55.618992 116.483170,55.251278 118.283157,54.883564 
z"/>
<path fill="#F2B46B" opacity="1.000000" stroke="none" 
	d="
M90.982193,136.572006 
	C94.695709,135.952835 98.459740,135.544830 102.112381,134.671158 
	C110.060364,132.770111 110.206337,132.471161 111.497337,123.420334 
	C118.653572,127.894005 118.797249,133.012573 111.003281,136.247177 
	C103.000687,139.568344 94.393623,142.033218 85.820473,143.256607 
	C66.948151,145.949722 48.108177,145.129425 29.749424,139.276779 
	C27.554760,138.577133 25.371176,137.639786 23.413197,136.436981 
	C16.238657,132.029633 16.217665,127.903137 23.669243,123.256073 
	C24.906033,130.568634 29.917698,132.907745 36.209568,134.393921 
	C38.276566,134.931229 40.046684,135.232574 42.162899,135.700531 
	C58.625904,138.909668 74.788895,138.783218 90.982193,136.572006 
z"/>
<path fill="#4EB691" opacity="1.000000" stroke="none" 
	d="
M109.496078,48.984741 
	C111.639771,45.744133 113.517540,42.274368 116.033653,39.354710 
	C117.394638,37.775444 119.845345,37.135269 122.169487,36.120834 
	C121.584694,38.723099 120.634865,41.275978 119.037277,44.061653 
	C115.462891,48.168320 112.536263,52.042187 109.354614,56.091888 
	C104.745628,60.796459 100.391663,65.325195 95.685303,69.919540 
	C85.492798,75.719437 75.957657,82.089531 65.721947,86.999008 
	C56.531258,91.407257 46.570660,94.210327 36.539085,97.776520 
	C34.070759,98.192101 32.013046,98.552650 29.496113,98.915924 
	C25.888514,98.969131 22.740128,99.019608 19.591743,99.070084 
	C8.742031,95.161514 7.449740,90.146469 14.495384,77.619858 
	C15.265163,79.176331 15.597735,80.708702 15.653552,82.428299 
	C11.762773,89.560867 12.348047,92.093399 18.452717,94.575104 
	C22.220470,94.531158 25.637003,94.317635 29.466202,94.101364 
	C32.222515,93.722908 34.566166,93.347191 37.300491,92.947067 
	C38.804588,92.615883 39.927063,92.338448 41.030071,91.997971 
	C62.352070,85.416336 82.711494,77.043541 99.013527,60.600456 
	C99.793625,59.563770 100.429077,58.792503 101.398163,57.962730 
	C104.319885,54.931061 106.907982,51.957897 109.496078,48.984741 
z"/>
<path fill="#EAAE41" opacity="1.000000" stroke="none" 
	d="
M11.274609,28.277742 
	C13.597356,26.236414 15.920104,24.195086 18.820095,22.206047 
	C22.174191,27.742716 26.356537,26.153650 30.372709,24.249840 
	C35.439526,21.847982 40.289135,19.700401 45.359196,24.390314 
	C45.923687,24.912481 48.973831,24.130419 49.249592,23.367252 
	C51.916958,15.985313 51.817829,15.950813 59.543011,16.001789 
	C60.700493,16.009426 61.858101,15.998051 63.015648,15.995470 
	C64.926971,17.415630 66.838295,18.835789 68.747818,20.874632 
	C63.781300,26.435490 57.886208,21.571709 52.484623,23.509083 
	C53.655590,23.677959 54.826553,23.846838 56.052994,24.356194 
	C56.404881,26.797646 56.701298,28.898619 56.581924,31.009224 
	C53.547207,31.338911 50.922619,31.962297 48.310581,31.913521 
	C43.433647,31.822449 38.560375,31.093102 33.693409,31.164326 
	C32.116360,31.187405 30.563782,32.882671 28.632339,33.878220 
	C27.518606,33.959774 26.772545,33.976158 25.666084,33.822159 
	C20.870846,33.096123 16.436003,32.540470 11.999981,31.663191 
	C11.718717,30.584690 11.438629,29.827814 11.152046,28.867441 
	C11.145551,28.663946 11.274609,28.277742 11.274609,28.277742 
z"/>
<path fill="#F9CA68" opacity="1.000000" stroke="none" 
	d="
M62.873871,15.689077 
	C61.858101,15.998051 60.700493,16.009426 59.543011,16.001789 
	C51.817829,15.950813 51.916958,15.985313 49.249592,23.367252 
	C48.973831,24.130419 45.923687,24.912481 45.359196,24.390314 
	C40.289135,19.700401 35.439526,21.847982 30.372709,24.249840 
	C26.356537,26.153650 22.174191,27.742716 19.101412,22.031883 
	C24.609211,14.811286 31.081873,8.783078 40.457291,7.044941 
	C49.539928,5.361084 56.487114,9.450255 62.873871,15.689077 
z"/>
<path fill="#4C71B6" opacity="1.000000" stroke="none" 
	d="
M15.930307,82.241074 
	C15.597735,80.708702 15.265163,79.176331 14.764406,77.360077 
	C13.448232,70.290619 12.300241,63.505035 11.574741,56.329006 
	C16.003658,56.969074 20.010084,57.999588 24.224026,59.131519 
	C24.703472,59.404976 24.891994,59.643066 24.979202,60.389915 
	C26.325371,71.923111 27.689453,83.013611 29.053535,94.104111 
	C25.637003,94.317635 22.220470,94.531158 18.510548,94.116608 
	C17.454874,89.739380 16.692591,85.990227 15.930307,82.241074 
z"/>
<path fill="#DF942C" opacity="1.000000" stroke="none" 
	d="
M55.997517,24.015715 
	C54.826553,23.846838 53.655590,23.677959 52.484623,23.509083 
	C57.886208,21.571709 63.781300,26.435490 68.912010,21.154234 
	C69.801483,21.121058 70.524979,21.426962 71.753265,22.190069 
	C84.025124,23.142588 95.792198,23.637905 107.559265,24.133221 
	C111.888435,24.809441 116.217613,25.485661 120.804771,26.441978 
	C115.161072,31.650055 107.698540,31.327311 99.929520,32.849148 
	C97.041809,32.843449 94.981865,32.746761 92.856262,32.537971 
	C92.559700,32.240192 92.333878,32.254154 91.766838,32.591602 
	C90.933105,32.706238 90.445656,32.697029 89.765060,32.500591 
	C89.053520,32.195683 88.535141,32.077999 87.789383,31.676514 
	C82.568581,28.688795 77.404137,27.959393 71.627487,30.027096 
	C68.842560,28.999851 66.426094,27.990152 63.794853,26.701897 
	C61.052559,25.620798 58.525040,24.818256 55.997517,24.015715 
z"/>
<path fill="#4E71B4" opacity="1.000000" stroke="none" 
	d="
M35.912689,134.157959 
	C29.917698,132.907745 24.906033,130.568634 24.006443,123.160995 
	C23.571779,120.781197 23.271444,118.767670 23.434010,116.361572 
	C26.589222,115.633011 29.281532,115.297020 32.235832,114.977890 
	C32.672440,115.004318 32.847061,115.013885 33.004932,115.449036 
	C33.963020,121.969063 34.937855,128.063507 35.912689,134.157959 
z"/>
<path fill="#4E72B6" opacity="1.000000" stroke="none" 
	d="
M19.643459,99.492584 
	C22.740128,99.019608 25.888514,98.969131 29.527775,99.328888 
	C30.680347,103.155457 31.342045,106.571793 31.605118,110.064987 
	C28.173553,110.446266 25.140612,110.750679 22.107672,111.055099 
	C21.303507,107.341766 20.499342,103.628426 19.643459,99.492584 
z"/>
<path fill="#173283" opacity="1.000000" stroke="none" 
	d="
M24.016510,59.030102 
	C20.010084,57.999588 16.003658,56.969074 11.619947,55.924110 
	C10.782972,53.883320 10.323282,51.856979 9.877359,49.419838 
	C14.088097,49.469986 18.285067,49.930927 22.806850,51.050941 
	C23.426613,54.150047 23.721561,56.590073 24.016510,59.030102 
z"/>
<path fill="#707994" opacity="1.000000" stroke="none" 
	d="
M107.185242,24.039776 
	C95.792198,23.637905 84.025124,23.142588 72.020210,22.320936 
	C82.724648,22.311512 93.667557,22.610191 104.607834,22.985569 
	C105.352409,23.011116 106.077225,23.612665 107.185242,24.039776 
z"/>
<path fill="#0D2260" opacity="1.000000" stroke="none" 
	d="
M109.609634,55.916054 
	C112.536263,52.042187 115.462891,48.168320 118.709831,44.191338 
	C118.911835,47.411808 118.793526,50.735401 118.479187,54.471275 
	C116.483170,55.251278 114.683182,55.618992 112.109840,56.016521 
	C110.760872,56.002907 110.185249,55.959480 109.609634,55.916054 
z"/>
<path fill="#173283" opacity="1.000000" stroke="none" 
	d="
M22.059046,111.415947 
	C25.140612,110.750679 28.173553,110.446266 31.596264,110.112259 
	C31.986032,110.082664 31.917374,110.149857 31.942791,110.549187 
	C31.970089,112.286018 31.971966,113.623528 31.973843,114.961029 
	C29.281532,115.297020 26.589222,115.633011 23.474463,115.972794 
	C22.704815,114.576668 22.357618,113.176727 22.059046,111.415947 
z"/>
<path fill="#486EB4" opacity="1.000000" stroke="none" 
	d="
M11.000917,28.274010 
	C11.274609,28.277742 11.145551,28.663946 10.892265,28.893845 
	C10.465250,29.134256 10.291519,29.144773 10.117788,29.155291 
	C10.117788,29.155291 9.980207,28.983297 9.910061,28.897354 
	C10.135686,28.631031 10.431457,28.450653 11.000917,28.274010 
z"/>
<path fill="#163283" opacity="1.000000" stroke="none" 
	d="
M101.064537,58.021236 
	C100.429077,58.792503 99.793625,59.563770 98.720581,60.384937 
	C96.319893,59.990589 94.261780,58.918293 92.408318,59.198700 
	C72.671394,62.184696 52.902489,63.029053 33.012100,60.332272 
	C32.685665,57.003792 32.387310,54.068455 32.088951,51.133121 
	C47.500362,51.220970 62.912804,51.445610 78.322693,51.330200 
	C84.600197,51.283192 90.872177,50.498116 97.580750,50.514507 
	C98.949768,53.362549 95.596771,57.602173 101.064537,58.021236 
z"/>
<path fill="#109AD5" opacity="1.000000" stroke="none" 
	d="
M92.921921,32.650070 
	C94.981865,32.746761 97.041809,32.843449 99.543259,32.992584 
	C92.828201,34.016003 85.698936,35.356937 78.509865,35.887432 
	C58.291142,37.379414 38.073547,36.960552 17.740238,34.672421 
	C20.400148,34.248550 23.213314,34.120548 26.026482,33.992542 
	C26.772545,33.976158 27.518606,33.959774 28.956631,33.965660 
	C30.092148,34.047543 30.535706,34.107147 31.307983,34.419380 
	C40.413311,34.604881 49.189919,34.537750 58.379246,34.398247 
	C60.186909,34.337601 61.581852,34.349331 63.081215,34.495243 
	C63.465710,34.531967 63.745785,34.434509 64.470779,34.275562 
	C67.610619,34.083042 70.305534,33.952011 73.405632,33.882446 
	C74.895767,33.856628 75.980713,33.769348 77.433533,33.745087 
	C79.015198,33.579247 80.229012,33.350391 81.844452,33.209141 
	C84.162155,33.133766 86.078232,32.970791 88.323395,32.861080 
	C89.087730,32.838837 89.522972,32.763332 89.958214,32.687824 
	C90.445656,32.697029 90.933105,32.706238 91.960052,32.676392 
	C92.499550,32.637341 92.921921,32.650070 92.921921,32.650070 
z"/>
<path fill="#244AA4" opacity="1.000000" stroke="none" 
	d="
M31.634283,51.085365 
	C32.387310,54.068455 32.685665,57.003792 32.978245,60.455345 
	C32.972466,60.971561 32.929600,61.223221 32.539665,61.124481 
	C29.765522,60.666237 27.381319,60.306725 24.997114,59.947216 
	C24.891994,59.643066 24.703472,59.404976 24.224026,59.131519 
	C23.721561,56.590073 23.426613,54.150047 23.120296,51.301147 
	C25.799158,50.940723 28.489386,50.989162 31.634283,51.085365 
z"/>
<path fill="#10266E" opacity="1.000000" stroke="none" 
	d="
M101.398163,57.962730 
	C95.596771,57.602173 98.949768,53.362549 98.025864,50.553364 
	C101.536606,49.730007 105.036308,49.333462 109.016037,48.960827 
	C106.907982,51.957897 104.319885,54.931061 101.398163,57.962730 
z"/>
<path fill="#4092B4" opacity="1.000000" stroke="none" 
	d="
M25.666084,33.822159 
	C23.213314,34.120548 20.400148,34.248550 17.310432,34.663204 
	C14.038322,33.986275 11.042759,33.022697 8.641413,31.934200 
	C10.157474,31.867792 11.079316,31.926304 12.001159,31.984814 
	C16.436003,32.540470 20.870846,33.096123 25.666084,33.822159 
z"/>
<path fill="#E8AD40" opacity="1.000000" stroke="none" 
	d="
M11.999981,31.663191 
	C11.079316,31.926304 10.157474,31.867792 8.893513,31.774399 
	C8.998437,31.048620 9.445478,30.357729 10.005154,29.411064 
	C10.291519,29.144773 10.465250,29.134256 10.898762,29.097340 
	C11.438629,29.827814 11.718717,30.584690 11.999981,31.663191 
z"/>
<path fill="#486DB3" opacity="1.000000" stroke="none" 
	d="
M90.985146,136.060333 
	C74.788895,138.783218 58.625904,138.909668 42.205254,135.230988 
	C40.933704,127.605721 39.965893,120.616615 38.985245,113.421158 
	C38.972401,113.214806 39.018398,112.798439 39.396667,112.842606 
	C47.667637,109.505547 56.138615,107.043472 63.317230,102.527199 
	C74.029068,95.788063 83.830025,87.601082 94.018509,80.030090 
	C93.997894,85.031654 94.214203,90.048508 93.892731,95.030655 
	C93.542870,100.452896 92.481163,105.828453 92.112137,111.250381 
	C91.561691,119.337845 91.346138,127.448090 90.985146,136.060333 
z"/>
<path fill="#183484" opacity="1.000000" stroke="none" 
	d="
M94.112473,79.769943 
	C83.830025,87.601082 74.029068,95.788063 63.317230,102.527199 
	C56.138615,107.043472 47.667637,109.505547 39.388710,112.461899 
	C39.042313,110.763084 39.082142,109.489143 39.472008,108.104843 
	C53.862782,102.679550 67.275810,96.143799 79.160278,86.870239 
	C84.890556,82.398857 90.243614,77.444054 95.800850,73.095078 
	C95.559830,75.009354 95.285446,76.536697 95.011063,78.064041 
	C94.742859,78.545959 94.474655,79.027878 94.112473,79.769943 
z"/>
<path fill="#112870" opacity="1.000000" stroke="none" 
	d="
M95.354431,78.006622 
	C95.285446,76.536697 95.559830,75.009354 95.870430,72.746986 
	C95.950325,71.292618 95.994011,70.573280 96.037704,69.853935 
	C100.391663,65.325195 104.745628,60.796459 109.354614,56.091888 
	C110.185249,55.959480 110.760872,56.002907 111.767723,56.099030 
	C106.698578,63.417553 101.198196,70.683380 95.354431,78.006622 
z"/>
<path fill="#78A6E3" opacity="1.000000" stroke="none" 
	d="
M38.998085,113.627518 
	C39.965893,120.616615 40.933704,127.605721 41.859158,135.064362 
	C40.046684,135.232574 38.276566,134.931229 36.209568,134.393921 
	C34.937855,128.063507 33.963020,121.969063 33.351547,115.288391 
	C35.475971,114.343948 37.237026,113.985733 38.998085,113.627518 
z"/>
<path fill="#486EB4" opacity="1.000000" stroke="none" 
	d="
M33.006321,60.848488 
	C52.902489,63.029053 72.671394,62.184696 92.408318,59.198700 
	C94.261780,58.918293 96.319893,59.990589 98.575935,60.650360 
	C82.711494,77.043541 62.352070,85.416336 41.030071,91.997971 
	C39.927063,92.338448 38.804588,92.615883 37.293900,92.535156 
	C35.574284,81.839508 34.251942,71.531364 32.929600,61.223221 
	C32.929600,61.223221 32.972466,60.971561 33.006321,60.848488 
z"/>
<path fill="#476EB2" opacity="1.000000" stroke="none" 
	d="
M95.685303,69.919540 
	C95.994011,70.573280 95.950325,71.292618 95.837059,72.360054 
	C90.243614,77.444054 84.890556,82.398857 79.160278,86.870239 
	C67.275810,96.143799 53.862782,102.679550 39.263577,108.067825 
	C38.705109,108.141174 38.284061,108.132912 38.228409,107.680145 
	C37.765072,104.058754 37.357380,100.890129 36.949692,97.721497 
	C46.570660,94.210327 56.531258,91.407257 65.721947,86.999008 
	C75.957657,82.089531 85.492798,75.719437 95.685303,69.919540 
z"/>
<path fill="#78A8E6" opacity="1.000000" stroke="none" 
	d="
M32.539665,61.124481 
	C34.251942,71.531364 35.574284,81.839508 36.903221,92.559563 
	C34.566166,93.347191 32.222515,93.722908 29.466202,94.101364 
	C27.689453,83.013611 26.325371,71.923111 24.979202,60.389915 
	C27.381319,60.306725 29.765522,60.666237 32.539665,61.124481 
z"/>
<path fill="#76A6E3" opacity="1.000000" stroke="none" 
	d="
M36.539082,97.776520 
	C37.357380,100.890129 37.765072,104.058754 37.932442,107.907341 
	C35.767208,109.108154 33.842293,109.629005 31.917374,110.149857 
	C31.917374,110.149857 31.986032,110.082664 31.994888,110.035393 
	C31.342045,106.571793 30.680347,103.155457 29.986990,99.326164 
	C32.013046,98.552650 34.070759,98.192101 36.539082,97.776520 
z"/>
<path fill="#DDEDEC" opacity="1.000000" stroke="none" 
	d="
M15.653551,82.428299 
	C16.692591,85.990227 17.454874,89.739380 18.159328,93.947029 
	C12.348047,92.093399 11.762773,89.560867 15.653551,82.428299 
z"/>
<path fill="#E8AD40" opacity="1.000000" stroke="none" 
	d="
M30.979263,34.166748 
	C30.535706,34.107147 30.092148,34.047543 29.324299,33.900494 
	C30.563782,32.882671 32.116360,31.187405 33.693409,31.164326 
	C38.560375,31.093102 43.433647,31.822449 48.310581,31.913521 
	C50.922619,31.962297 53.547207,31.338911 56.800972,31.273205 
	C61.649330,32.935448 61.801563,28.471872 64.009628,26.980453 
	C66.426094,27.990152 68.842560,28.999851 71.658279,30.352940 
	C72.371834,31.737883 72.686142,32.779434 73.000450,33.820984 
	C70.305534,33.952011 67.610619,34.083042 64.206596,34.198112 
	C63.323929,34.241783 63.150364,34.301422 62.976795,34.361061 
	C61.581852,34.349331 60.186909,34.337601 57.930038,34.269115 
	C48.371830,34.197159 39.675549,34.181953 30.979263,34.166748 
z"/>
<path fill="#E9AC3C" opacity="1.000000" stroke="none" 
	d="
M63.794853,26.701897 
	C61.801563,28.471872 61.649330,32.935448 57.216763,31.263569 
	C56.701298,28.898619 56.404881,26.797646 56.052994,24.356194 
	C58.525040,24.818256 61.052559,25.620798 63.794853,26.701897 
z"/>
<path fill="#E9AC3C" opacity="1.000000" stroke="none" 
	d="
M73.405632,33.882446 
	C72.686142,32.779434 72.371834,31.737883 72.026733,30.370485 
	C77.404137,27.959393 82.568581,28.688795 87.781662,31.888577 
	C88.001312,32.384445 87.994301,32.807816 87.994301,32.807816 
	C86.078232,32.970791 84.162155,33.133766 81.454208,33.172939 
	C79.463440,33.260113 78.264549,33.471092 77.065666,33.682068 
	C75.980713,33.769348 74.895767,33.856628 73.405632,33.882446 
z"/>
<path fill="#E5AB40" opacity="1.000000" stroke="none" 
	d="
M88.323395,32.861080 
	C87.994301,32.807816 88.001312,32.384445 88.009033,32.172382 
	C88.535141,32.077999 89.053520,32.195683 89.765060,32.500595 
	C89.522972,32.763332 89.087730,32.838837 88.323395,32.861080 
z"/>
<path fill="#E5AB40" opacity="1.000000" stroke="none" 
	d="
M92.856262,32.537971 
	C92.921921,32.650070 92.499550,32.637341 92.306335,32.552551 
	C92.333878,32.254154 92.559700,32.240192 92.856262,32.537971 
z"/>
<path fill="#254AA3" opacity="1.000000" stroke="none" 
	d="
M31.942791,110.549187 
	C33.842293,109.629005 35.767208,109.108154 37.988094,108.360107 
	C38.284061,108.132912 38.705109,108.141174 38.913540,108.178192 
	C39.082142,109.489143 39.042313,110.763084 39.010441,112.417725 
	C39.018398,112.798439 38.972401,113.214806 38.985245,113.421158 
	C37.237026,113.985733 35.475971,114.343948 33.368298,114.862808 
	C32.847061,115.013885 32.672440,115.004318 32.235832,114.977890 
	C31.971966,113.623528 31.970089,112.286018 31.942791,110.549187 
z"/>
<path fill="#4092B4" opacity="1.000000" stroke="none" 
	d="
M31.307983,34.419380 
	C39.675549,34.181953 48.371830,34.197159 57.517319,34.341492 
	C49.189919,34.537750 40.413311,34.604881 31.307983,34.419380 
z"/>
<path fill="#E5AB40" opacity="1.000000" stroke="none" 
	d="
M77.433533,33.745087 
	C78.264549,33.471092 79.463440,33.260113 81.052567,33.085339 
	C80.229012,33.350391 79.015198,33.579247 77.433533,33.745087 
z"/>
<path fill="#4092B4" opacity="1.000000" stroke="none" 
	d="
M63.081215,34.495243 
	C63.150364,34.301422 63.323929,34.241783 63.761677,34.259598 
	C63.745785,34.434509 63.465710,34.531967 63.081215,34.495243 
z"/>
</svg>