<svg version="1.1" id="Layer_1" xmlns="http://www.w3.org/2000/svg" xmlns:xlink="http://www.w3.org/1999/xlink" x="0px" y="0px"
	 width="100%" viewBox="0 0 166 148" enable-background="new 0 0 166 148" xml:space="preserve">
<path fill="#FEFEFD" opacity="1.000000" stroke="none" 
	d="
M167.000000,28.999998 
	C167.000000,68.971840 167.000000,108.943672 167.000000,148.957764 
	C111.733818,148.957764 56.467598,148.957764 1.100688,148.957764 
	C1.100688,99.768707 1.100688,50.537148 1.100688,1.152792 
	C56.333019,1.152792 111.666458,1.152792 167.000000,1.152792 
	C167.000000,8.072267 167.000000,15.067350 166.645905,22.550900 
	C162.532883,19.733255 158.773956,16.427145 154.773911,12.853812 
	C148.515106,7.991857 144.012970,7.754290 138.448334,11.880267 
	C132.763138,16.625271 127.388901,21.244267 121.634460,25.839500 
	C118.548157,25.030939 115.868690,24.134699 113.131310,23.480909 
	C102.092606,20.844450 91.858070,20.852278 82.102104,28.603800 
	C69.772690,38.400032 56.234859,46.667526 43.807365,56.350494 
	C32.728096,64.982979 22.450819,74.644768 11.541578,84.017250 
	C10.441788,85.414825 9.620037,86.647476 8.524796,88.129105 
	C7.867993,90.577118 7.484680,92.776161 7.036489,95.372437 
	C8.411298,100.696419 10.103048,105.565926 11.237308,110.562004 
	C13.481929,120.448898 19.859140,126.217888 28.994610,129.671387 
	C42.170139,134.652130 55.238171,139.919769 68.448616,144.803864 
	C71.779617,146.035400 75.477386,146.274918 79.380669,147.042511 
	C80.501022,146.995361 81.247307,146.876007 82.315323,146.759705 
	C83.417427,146.410736 84.197800,146.058716 85.323685,145.679504 
	C91.888298,141.556122 98.419708,137.859085 104.265083,133.285294 
	C118.923065,121.815971 133.559067,110.220352 144.530807,94.893890 
	C149.868500,87.437645 154.526871,79.569679 155.028717,69.620743 
	C154.794098,65.160316 154.409821,61.060600 154.095581,56.589821 
	C153.005737,53.357777 151.845840,50.496796 151.000061,47.430565 
	C156.542755,41.150211 161.771378,35.075104 167.000000,28.999998 
z"/>
<path fill="#064683" opacity="1.000000" stroke="none" 
	d="
M167.000000,28.600002 
	C161.771378,35.075104 156.542755,41.150211 150.749954,47.193375 
	C147.974365,44.494164 145.762970,41.826889 143.949738,39.122852 
	C147.514572,40.512463 150.078964,39.495903 152.321381,37.133202 
	C154.581482,34.751865 156.851913,32.380352 159.435333,30.042040 
	C160.622604,30.582376 161.492340,31.085205 162.997345,31.955297 
	C162.545151,29.510920 162.232025,27.818321 162.231567,26.052277 
	C164.029465,25.652552 165.514740,25.326275 167.000000,24.999998 
	C167.000000,26.066669 167.000000,27.133339 167.000000,28.600002 
z"/>
<path fill="#0F72B7" opacity="1.000000" stroke="none" 
	d="
M167.000000,24.666664 
	C165.514740,25.326275 164.029465,25.652552 161.965973,25.845913 
	C158.565292,22.811693 155.742844,19.910387 153.295807,16.984413 
	C154.679688,16.884830 155.688156,16.809914 157.245667,16.694210 
	C156.294968,15.171329 155.654999,14.146182 155.015030,13.121035 
	C158.773956,16.427145 162.532883,19.733255 166.645905,23.019684 
	C167.000000,23.444445 167.000000,23.888889 167.000000,24.666664 
z"/>
<path fill="#F58C53" opacity="1.000000" stroke="none" 
	d="
M11.819618,83.852318 
	C22.450819,74.644768 32.728096,64.982979 43.807365,56.350494 
	C56.234859,46.667526 69.772690,38.400032 82.102104,28.603800 
	C91.858070,20.852278 102.092606,20.844450 113.131310,23.480909 
	C115.868690,24.134699 118.548157,25.030939 121.789764,26.004402 
	C122.511322,26.431852 122.674950,26.685118 123.021393,27.210865 
	C123.837555,27.636511 124.448486,27.804153 125.031113,27.985319 
	C125.002800,27.998842 124.998100,27.936266 125.149567,28.213367 
	C125.889473,28.646414 126.477905,28.802359 127.040512,28.945248 
	C127.014687,28.932190 127.044907,28.882708 127.057068,29.231998 
	C130.964249,33.139668 135.021698,36.538185 138.717026,40.293076 
	C144.578323,46.248814 145.550934,50.287788 141.226105,57.190380 
	C137.214050,63.593781 132.509277,69.800652 127.081650,75.026505 
	C117.895767,83.870895 107.768227,91.727821 98.280396,100.270676 
	C88.202690,109.344650 77.198135,114.751221 63.403324,110.211945 
	C44.854187,104.108223 27.193171,96.201408 11.819618,83.852318 
M94.500328,27.793770 
	C81.248428,33.319679 71.598946,43.786045 60.667538,52.707954 
	C79.444122,43.712376 96.548805,30.945095 119.416367,28.456888 
	C110.479858,25.271057 102.898308,25.336435 94.500328,27.793770 
M91.930191,46.702595 
	C92.319023,51.945629 95.336983,54.642803 100.109009,54.012062 
	C104.372162,53.448582 107.309761,49.935158 105.777565,46.033142 
	C104.946510,43.916733 102.198502,41.842102 99.900894,41.174530 
	C96.197502,40.098503 93.166077,41.850910 91.930191,46.702595 
z"/>
<path fill="#E05B31" opacity="1.000000" stroke="none" 
	d="
M11.541578,84.017250 
	C27.193171,96.201408 44.854187,104.108223 63.403324,110.211945 
	C77.198135,114.751221 88.202690,109.344650 98.280396,100.270676 
	C107.768227,91.727821 117.895767,83.870895 127.081650,75.026505 
	C132.509277,69.800652 137.214050,63.593781 141.226105,57.190380 
	C145.550934,50.287788 144.578323,46.248814 138.717026,40.293076 
	C135.021698,36.538185 130.964249,33.139668 127.419945,29.249577 
	C133.030960,32.331783 138.291275,35.745701 143.551575,39.159615 
	C145.762970,41.826889 147.974365,44.494164 150.435852,47.398624 
	C151.845840,50.496796 153.005737,53.357777 153.816986,56.840889 
	C150.561874,62.896614 148.776566,69.502914 144.543961,73.549362 
	C130.448563,87.024826 115.692093,99.841347 100.725395,112.356003 
	C95.139694,117.026596 88.277466,120.170555 81.594467,124.004608 
	C77.428558,122.815559 73.494781,122.007263 69.932014,120.384453 
	C54.715343,113.453407 39.563145,106.375946 24.483828,99.150703 
	C18.633059,96.347313 12.213834,94.151260 8.798285,87.880119 
	C9.620037,86.647476 10.441788,85.414825 11.541578,84.017250 
z"/>
<path fill="#F05A2C" opacity="1.000000" stroke="none" 
	d="
M79.006607,146.970322 
	C75.477386,146.274918 71.779617,146.035400 68.448616,144.803864 
	C55.238171,139.919769 42.170139,134.652130 28.994610,129.671387 
	C19.859140,126.217888 13.481929,120.448898 11.237308,110.562004 
	C10.103048,105.565926 8.411298,100.696419 7.390432,95.414154 
	C25.013796,103.437836 42.129059,112.007492 59.454178,120.129509 
	C71.060280,125.570450 77.365700,134.471069 79.006607,146.970322 
z"/>
<path fill="#D35027" opacity="1.000000" stroke="none" 
	d="
M154.879044,69.981461 
	C154.526871,79.569679 149.868500,87.437645 144.530807,94.893890 
	C133.559067,110.220352 118.923065,121.815971 104.265083,133.285294 
	C98.419708,137.859085 91.888298,141.556122 85.325897,145.260986 
	C85.244789,135.921936 87.845352,127.944458 94.713318,121.799500 
	C113.553619,104.942551 132.401276,88.093719 151.307693,71.311157 
	C152.193558,70.524803 153.674988,70.409355 154.879044,69.981461 
z"/>
<path fill="#036CB6" opacity="1.000000" stroke="none" 
	d="
M143.949738,39.122856 
	C138.291275,35.745701 133.030960,32.331783 127.407776,28.900288 
	C127.044907,28.882708 127.014687,28.932190 126.901375,28.662376 
	C126.191406,28.240463 125.594757,28.088366 124.998100,27.936266 
	C124.998100,27.936266 125.002800,27.998842 124.856567,27.707619 
	C124.078941,27.261887 123.447548,27.107376 122.816154,26.952866 
	C122.674950,26.685118 122.511322,26.431852 122.169968,26.028164 
	C127.388901,21.244267 132.763138,16.625271 138.823303,12.003750 
	C141.012329,12.356933 142.515457,12.712642 144.016037,13.419880 
	C146.576813,15.882342 148.949081,18.303297 151.749649,20.029224 
	C155.640381,22.426985 159.316177,24.705000 159.117828,30.004532 
	C156.851913,32.380352 154.581482,34.751865 152.321381,37.133202 
	C150.078964,39.495903 147.514572,40.512463 143.949738,39.122856 
z"/>
<path fill="#DC3B19" opacity="1.000000" stroke="none" 
	d="
M79.380669,147.042511 
	C77.365700,134.471069 71.060280,125.570450 59.454178,120.129509 
	C42.129059,112.007492 25.013796,103.437836 7.455309,95.016907 
	C7.484680,92.776161 7.867993,90.577118 8.524796,88.129105 
	C12.213834,94.151260 18.633059,96.347313 24.483828,99.150703 
	C39.563145,106.375946 54.715343,113.453407 69.932014,120.384453 
	C73.494781,122.007263 77.428558,122.815559 81.593849,124.472015 
	C81.995239,132.215851 81.994423,139.486252 81.993599,146.756653 
	C81.247307,146.876007 80.501022,146.995361 79.380669,147.042511 
z"/>
<path fill="#C53E1E" opacity="1.000000" stroke="none" 
	d="
M82.315323,146.759705 
	C81.994423,139.486252 81.995239,132.215851 81.996674,124.478043 
	C88.277466,120.170555 95.139694,117.026596 100.725395,112.356003 
	C115.692093,99.841347 130.448563,87.024826 144.543961,73.549362 
	C148.776566,69.502914 150.561874,62.896614 153.746948,57.211952 
	C154.409821,61.060600 154.794098,65.160316 155.028717,69.620743 
	C153.674988,70.409355 152.193558,70.524803 151.307693,71.311157 
	C132.401276,88.093719 113.553619,104.942551 94.713318,121.799500 
	C87.845352,127.944458 85.244789,135.921936 84.980385,145.288193 
	C84.197800,146.058716 83.417427,146.410736 82.315323,146.759705 
z"/>
<path fill="#5EA3D2" opacity="1.000000" stroke="none" 
	d="
M144.018570,13.068352 
	C142.515457,12.712642 141.012329,12.356933 139.134247,11.877741 
	C144.012970,7.754290 148.515106,7.991857 154.773911,12.853813 
	C155.654999,14.146182 156.294968,15.171329 157.245667,16.694210 
	C155.688156,16.809914 154.679688,16.884830 153.007477,16.794634 
	C149.568695,15.442466 146.793625,14.255409 144.018570,13.068352 
z"/>
<path fill="#022A5B" opacity="1.000000" stroke="none" 
	d="
M144.016037,13.419882 
	C146.793625,14.255409 149.568695,15.442466 152.632065,16.819300 
	C155.742844,19.910387 158.565292,22.811693 161.653336,25.919361 
	C162.232025,27.818321 162.545151,29.510920 162.997345,31.955297 
	C161.492340,31.085205 160.622604,30.582376 159.435333,30.042038 
	C159.316177,24.705000 155.640381,22.426985 151.749649,20.029224 
	C148.949081,18.303297 146.576813,15.882342 144.016037,13.419882 
z"/>
<path fill="#FBC2A1" opacity="1.000000" stroke="none" 
	d="
M94.868134,27.628519 
	C102.898308,25.336435 110.479858,25.271057 119.416367,28.456888 
	C96.548805,30.945095 79.444122,43.712376 60.667538,52.707954 
	C71.598946,43.786045 81.248428,33.319679 94.868134,27.628519 
z"/>
<path fill="#FCC612" opacity="1.000000" stroke="none" 
	d="
M91.960312,46.295444 
	C93.166077,41.850910 96.197502,40.098503 99.900894,41.174530 
	C102.198502,41.842102 104.946510,43.916733 105.777565,46.033142 
	C107.309761,49.935158 104.372162,53.448582 100.109009,54.012062 
	C95.336983,54.642803 92.319023,51.945629 91.960312,46.295444 
M94.014015,47.527203 
	C94.213783,50.909748 96.313431,52.438419 99.334694,51.863136 
	C100.981033,51.549656 103.024223,50.136780 103.650848,48.685421 
	C104.129417,47.576981 102.859703,44.421196 102.025597,44.285946 
	C99.716347,43.911503 97.215721,44.572876 94.824173,45.008430 
	C94.471169,45.072720 94.299637,46.133434 94.014015,47.527203 
z"/>
<path fill="#E05B31" opacity="1.000000" stroke="none" 
	d="
M125.149567,28.213367 
	C125.594757,28.088366 126.191406,28.240463 126.927200,28.675434 
	C126.477905,28.802359 125.889473,28.646414 125.149567,28.213367 
z"/>
<path fill="#E05B31" opacity="1.000000" stroke="none" 
	d="
M123.021393,27.210865 
	C123.447548,27.107376 124.078941,27.261887 124.884872,27.694096 
	C124.448486,27.804153 123.837555,27.636511 123.021393,27.210865 
z"/>
<path fill="#F6904E" opacity="1.000000" stroke="none" 
	d="
M94.029083,47.130173 
	C94.299637,46.133434 94.471169,45.072720 94.824173,45.008430 
	C97.215721,44.572876 99.716347,43.911503 102.025597,44.285946 
	C102.859703,44.421196 104.129417,47.576981 103.650848,48.685421 
	C103.024223,50.136780 100.981033,51.549656 99.334694,51.863136 
	C96.313431,52.438419 94.213783,50.909748 94.029083,47.130173 
z"/>
</svg>