<svg version="1.1" id="Layer_1" xmlns="http://www.w3.org/2000/svg" xmlns:xlink="http://www.w3.org/1999/xlink" x="0px" y="0px"
	 width="100%" viewBox="0 0 145 157" enable-background="new 0 0 145 157" xml:space="preserve">
<path fill="#FEFCFC" opacity="1.000000" stroke="none" 
	d="
M146.000000,73.000000 
	C146.000000,101.666664 146.000000,129.833328 146.000000,158.000000 
	C97.666664,158.000000 49.333332,158.000000 1.000000,158.000000 
	C1.000000,105.666664 1.000000,53.333332 1.000000,1.000000 
	C49.333332,1.000000 97.666664,1.000000 146.000000,1.000000 
	C146.000000,24.833334 146.000000,48.666668 146.000000,73.000000 
M48.914917,110.066002 
	C50.043613,116.704811 50.961044,123.391891 52.458981,129.946320 
	C52.805920,131.464417 55.135090,132.529495 56.552135,133.803040 
	C57.182671,132.026352 58.473652,130.192413 58.325439,128.483246 
	C57.783939,122.238815 56.762608,116.036003 56.780872,109.704933 
	C64.823280,110.560165 72.865692,111.415405 80.873055,113.065918 
	C79.491035,119.709572 78.009125,126.334763 76.775482,133.005844 
	C76.272247,135.727127 72.691048,139.538208 77.441765,141.012314 
	C81.885803,142.391251 82.033730,137.465637 82.746185,134.826187 
	C84.810623,127.178040 86.319031,119.379814 88.650597,112.298416 
	C88.760201,120.065834 88.916176,127.833054 88.951187,135.600800 
	C88.961708,137.934891 88.368652,140.926331 91.679153,140.716324 
	C92.958916,140.635147 95.015961,137.722534 95.076393,136.040848 
	C95.385094,127.450157 95.157021,118.840187 95.854645,110.155807 
	C96.529350,110.753128 97.691330,111.271530 97.802834,111.960068 
	C98.833992,118.327011 99.916656,124.703262 100.469910,131.121155 
	C100.686310,133.631348 99.647537,136.600876 103.236404,136.853760 
	C106.860565,137.109146 107.049095,133.769897 106.745560,131.458206 
	C105.692444,123.437859 104.218231,115.472801 103.697769,107.401436 
	C104.497574,108.185501 105.692528,108.827576 106.033501,109.776505 
	C108.370338,116.279953 110.408577,122.892563 112.833603,129.361069 
	C113.391693,130.849716 115.079163,131.914978 116.246902,133.175079 
	C117.146980,131.674179 118.237312,130.247803 118.866837,128.640900 
	C119.181343,127.838120 118.812698,126.648331 118.482315,125.731102 
	C115.758652,118.169533 112.971436,110.630867 110.779747,102.943596 
	C111.514427,102.295601 112.249107,101.647606 113.818115,101.065338 
	C120.262077,100.943108 122.150841,99.246429 122.194878,93.454681 
	C122.206169,91.969658 122.062126,90.483452 122.585007,88.688522 
	C123.821236,87.852112 125.111015,87.084358 126.285164,86.168365 
	C135.022324,79.352203 137.791382,70.955696 133.855515,62.241154 
	C132.240738,58.665825 129.947418,55.396957 128.605652,51.744965 
	C135.028610,46.172943 135.902695,39.904835 130.938446,31.501293 
	C128.191452,26.851147 124.861732,22.545235 121.837044,17.293940 
	C120.755150,12.906452 119.673264,8.518965 118.398766,3.350374 
	C112.510254,5.726804 107.252083,7.848845 101.107872,10.005426 
	C91.594551,11.350153 81.964188,12.154291 72.598763,14.182084 
	C61.885521,16.501705 57.289326,22.456228 56.460819,32.281315 
	C49.757042,36.568794 43.053261,40.856270 36.602154,44.205601 
	C38.652626,33.853054 36.091450,24.399242 30.705721,15.627718 
	C29.941591,14.383211 27.874517,13.938713 26.410500,13.123939 
	C26.211277,14.495733 25.510477,16.036415 25.905052,17.208273 
	C27.188551,21.020147 25.594526,23.667233 22.964476,26.015751 
	C20.476801,28.237131 19.450417,30.613403 21.064280,33.912811 
	C23.033369,37.938446 21.481373,40.239666 16.963486,40.008907 
	C16.710516,37.936893 16.466864,35.863682 16.200659,33.793369 
	C16.066929,32.753338 16.256821,31.139690 15.677286,30.774660 
	C11.684057,28.259441 13.518241,25.527189 15.062543,22.693077 
	C16.581440,19.905582 18.025425,17.077269 19.835615,13.632550 
	C4.353141,16.510662 -2.220805,40.415035 7.881282,53.864643 
	C5.144612,65.413200 11.819402,76.645821 23.931065,80.840172 
	C26.494064,85.772491 31.445034,86.014755 36.043278,87.820816 
	C36.493778,90.259102 36.944279,92.697395 36.711811,95.415100 
	C20.006422,100.677132 15.623989,114.366638 13.731949,129.530350 
	C13.525826,131.182297 15.570385,133.115067 16.571003,134.917587 
	C17.768679,133.256027 19.446688,131.757309 20.075434,129.902847 
	C22.092501,123.953606 23.221897,117.657051 25.695969,111.927238 
	C27.081491,108.718430 30.447006,106.364563 32.920383,103.625473 
	C33.257065,103.948578 33.593742,104.271683 33.930420,104.594795 
	C32.348083,108.198204 30.259966,111.673058 29.303654,115.435585 
	C27.918610,120.884895 27.118095,126.521370 26.617374,132.127060 
	C26.505808,133.376099 28.676708,134.829025 29.796724,136.188095 
	C30.795115,134.899689 32.168049,133.744766 32.687920,132.285843 
	C33.221668,130.787964 32.676239,128.939011 33.028835,127.337410 
	C34.652756,119.961044 35.038776,112.002708 42.020916,107.820122 
	C41.327045,114.912498 40.587307,122.000854 39.963371,129.099380 
	C39.734905,131.698654 39.996223,134.705399 43.341625,134.416931 
	C44.464638,134.320099 45.859596,131.126663 46.186954,129.189240 
	C47.305260,122.570793 48.003925,115.881432 48.914917,110.066002 
z"/>
<path fill="#F7BA85" opacity="1.000000" stroke="none" 
	d="
M36.349480,45.143753 
	C43.053261,40.856270 49.757042,36.568794 57.160034,32.105698 
	C67.361588,28.467163 77.041557,26.799286 87.138641,29.493799 
	C87.137901,32.099590 86.993408,34.252754 87.094322,36.394356 
	C87.547760,46.016895 91.056862,53.701633 100.730446,57.789085 
	C100.444969,63.441029 100.116013,68.709518 99.616623,74.074684 
	C99.234238,74.335648 99.076256,74.541382 98.611252,74.809082 
	C97.538582,74.716560 96.826897,74.603516 95.988274,74.193542 
	C89.675247,71.902191 83.489166,69.907768 77.239395,67.511589 
	C77.061928,65.496475 76.948151,63.883114 77.175903,62.136730 
	C81.605827,60.100037 84.412361,57.077553 83.699783,52.400368 
	C83.018776,47.930447 79.872841,44.982010 75.440742,44.257885 
	C71.151329,43.557076 68.264107,46.321033 66.232132,49.721073 
	C63.708477,53.943825 65.280655,57.706081 70.986572,62.408302 
	C70.666748,63.848125 70.406319,64.952209 69.678467,66.046204 
	C64.503601,66.348381 59.796150,66.660645 55.026192,66.563461 
	C54.918636,64.503632 54.873596,62.853237 55.149612,61.033401 
	C60.307991,58.678394 62.491703,54.494503 60.675945,49.934113 
	C59.548176,47.101662 56.019798,44.368305 52.982563,43.364380 
	C48.964085,42.036121 45.706764,44.843399 43.834072,48.563046 
	C41.688007,52.825680 42.960915,56.343983 48.076855,61.479916 
	C47.973164,64.249748 47.851807,66.580292 47.398941,68.981613 
	C44.331474,71.231438 41.595516,73.410500 38.444061,75.644409 
	C35.836445,75.722603 33.644329,75.745941 31.397396,75.338387 
	C30.215014,68.599663 29.087444,62.291832 28.264799,55.837929 
	C31.162977,52.175823 33.756229,48.659790 36.349480,45.143753 
z"/>
<path fill="#C62422" opacity="1.000000" stroke="none" 
	d="
M80.908096,112.270638 
	C72.865692,111.415405 64.823280,110.560165 56.142677,109.516022 
	C53.702087,108.549751 51.899693,107.772392 49.878380,106.724533 
	C48.103615,105.975304 46.547771,105.496582 44.945213,104.679909 
	C42.397263,101.273201 39.896019,98.204445 37.394779,95.135681 
	C36.944279,92.697395 36.493778,90.259102 36.427620,87.406631 
	C38.078339,86.674423 39.342583,86.347610 40.611446,86.039833 
	C47.665390,84.328804 47.873211,83.988510 46.299782,77.026199 
	C46.940956,76.786087 47.303654,76.641594 47.851765,76.852516 
	C52.009686,80.046112 53.055447,79.621468 54.587822,74.832001 
	C60.006023,75.295578 64.999039,75.647736 70.002792,76.379082 
	C70.346939,80.505600 72.864029,81.168800 75.835403,81.341370 
	C74.241295,87.950134 75.229729,90.444969 81.406227,91.051270 
	C87.149399,91.615028 93.064606,90.426140 99.138565,90.251511 
	C103.909966,93.995964 108.446884,97.497787 112.983795,100.999619 
	C112.249107,101.647606 111.514427,102.295601 110.129776,102.964691 
	C108.300163,102.140335 107.166725,101.219604 105.932930,100.462387 
	C100.435188,97.088257 94.932953,93.681053 87.685539,94.874573 
	C85.600510,94.487320 83.829941,94.236053 81.752686,93.868301 
	C80.617607,93.510170 79.789200,93.268524 78.625626,92.872253 
	C76.678963,92.941948 75.067459,93.166252 73.455963,93.390564 
	C73.883911,95.001465 73.869446,96.963936 74.819740,98.159729 
	C78.153313,102.354515 81.258842,106.531311 80.908096,112.270638 
M56.807049,94.769882 
	C53.257366,93.265121 49.707680,91.760361 46.309059,90.319633 
	C45.980381,95.933846 50.077274,100.191322 56.897720,100.755951 
	C62.591854,101.227325 67.941483,96.576302 68.407669,91.339134 
	C64.956673,92.468147 61.276897,93.671997 56.807049,94.769882 
z"/>
<path fill="#FEC999" opacity="1.000000" stroke="none" 
	d="
M87.107880,29.035849 
	C77.041557,26.799286 67.361588,28.467163 57.494415,31.991106 
	C57.289326,22.456228 61.885521,16.501705 72.598763,14.182084 
	C81.964188,12.154291 91.594551,11.350153 101.799835,10.273840 
	C108.926094,13.056218 115.360390,15.570184 121.794693,18.084152 
	C124.861732,22.545235 128.191452,26.851147 130.938446,31.501293 
	C135.902695,39.904835 135.028610,46.172943 127.987442,51.725685 
	C125.496239,50.126122 123.623260,48.545841 121.777611,46.502266 
	C123.396500,30.168419 113.373840,14.101262 101.029060,14.640261 
	C103.459221,17.779585 105.773087,20.271378 107.459648,23.132902 
	C108.480019,24.864149 109.603844,28.150879 108.805016,29.025867 
	C106.661011,31.374294 107.547348,33.131512 108.115417,35.164814 
	C106.221054,34.714455 104.732185,34.328350 103.214104,33.544437 
	C102.330681,31.356241 101.922562,29.020798 100.533485,27.883945 
	C97.188179,25.146069 94.289490,22.530556 95.197006,17.643772 
	C95.347130,16.835402 94.736382,15.885727 94.075569,13.630425 
	C92.314003,15.901162 90.843025,17.138416 90.241554,18.708708 
	C88.958084,22.059578 88.125313,25.583078 87.107880,29.035849 
z"/>
<path fill="#B42929" opacity="1.000000" stroke="none" 
	d="
M37.053295,95.275391 
	C39.896019,98.204445 42.397263,101.273201 44.664494,104.800316 
	C43.623547,105.830956 42.816612,106.403244 42.009678,106.975533 
	C35.038776,112.002708 34.652756,119.961044 33.028835,127.337410 
	C32.676239,128.939011 33.221668,130.787964 32.687920,132.285843 
	C32.168049,133.744766 30.795115,134.899689 29.796726,136.188095 
	C28.676708,134.829025 26.505808,133.376099 26.617374,132.127060 
	C27.118095,126.521370 27.918610,120.884895 29.303654,115.435585 
	C30.259966,111.673058 32.348083,108.198204 33.930420,104.594795 
	C33.593742,104.271683 33.257065,103.948578 32.920383,103.625473 
	C30.447006,106.364563 27.081491,108.718430 25.695969,111.927238 
	C23.221897,117.657051 22.092501,123.953606 20.075434,129.902847 
	C19.446688,131.757309 17.768679,133.256027 16.571003,134.917587 
	C15.570385,133.115067 13.525826,131.182297 13.731949,129.530350 
	C15.623989,114.366638 20.006422,100.677132 37.053295,95.275391 
z"/>
<path fill="#DC2E2E" opacity="1.000000" stroke="none" 
	d="
M36.475819,44.674675 
	C33.756229,48.659790 31.162977,52.175823 27.963173,55.685089 
	C24.664013,50.799774 20.365635,48.889824 14.840677,48.654778 
	C12.472811,44.837490 15.960025,43.171356 17.109688,40.760181 
	C21.481373,40.239666 23.033369,37.938446 21.064280,33.912811 
	C19.450417,30.613403 20.476801,28.237131 22.964476,26.015751 
	C25.594526,23.667233 27.188551,21.020147 25.905052,17.208273 
	C25.510477,16.036415 26.211277,14.495733 26.410500,13.123940 
	C27.874517,13.938713 29.941591,14.383211 30.705721,15.627718 
	C36.091450,24.399242 38.652626,33.853054 36.475819,44.674675 
z"/>
<path fill="#BD2525" opacity="1.000000" stroke="none" 
	d="
M14.982645,48.985008 
	C20.365635,48.889824 24.664013,50.799774 27.658249,55.831161 
	C29.087444,62.291832 30.215014,68.599663 31.033962,75.498055 
	C28.336803,77.475410 25.948265,78.862213 23.559729,80.249016 
	C11.819402,76.645821 5.144612,65.413200 8.186619,53.313866 
	C10.655519,51.503731 12.819082,50.244370 14.982645,48.985008 
z"/>
<path fill="#F6B984" opacity="1.000000" stroke="none" 
	d="
M121.750275,46.965561 
	C123.623260,48.545841 125.496239,50.126122 127.665985,51.847542 
	C129.947418,55.396957 132.240738,58.665825 133.855515,62.241154 
	C137.791382,70.955696 135.022324,79.352203 126.285164,86.168365 
	C125.111015,87.084358 123.821236,87.852112 121.984993,88.694633 
	C117.900375,85.756920 114.415764,82.813103 111.131271,79.606369 
	C120.996307,71.544655 123.310944,63.630928 119.812553,50.805237 
	C120.600571,49.345341 121.175415,48.155453 121.750275,46.965561 
z"/>
<path fill="#E93637" opacity="1.000000" stroke="none" 
	d="
M14.840677,48.654781 
	C12.819082,50.244370 10.655519,51.503731 8.179006,52.914558 
	C-2.220805,40.415035 4.353141,16.510662 19.835615,13.632550 
	C18.025425,17.077269 16.581440,19.905582 15.062543,22.693077 
	C13.518241,25.527189 11.684057,28.259441 15.677286,30.774660 
	C16.256821,31.139690 16.066929,32.753338 16.200659,33.793369 
	C16.466864,35.863682 16.710516,37.936893 17.036587,40.384544 
	C15.960025,43.171356 12.472811,44.837490 14.840677,48.654781 
z"/>
<path fill="#CE3939" opacity="1.000000" stroke="none" 
	d="
M80.890579,112.668274 
	C81.258842,106.531311 78.153313,102.354515 74.819740,98.159729 
	C73.869446,96.963936 73.883911,95.001465 73.455963,93.390564 
	C75.067459,93.166252 76.678963,92.941948 78.671570,93.217705 
	C82.050339,99.692009 85.047997,105.666245 88.045654,111.640480 
	C86.319031,119.379814 84.810623,127.178040 82.746185,134.826187 
	C82.033730,137.465637 81.885803,142.391251 77.441765,141.012314 
	C72.691048,139.538208 76.272247,135.727127 76.775482,133.005844 
	C78.009125,126.334763 79.491035,119.709572 80.890579,112.668274 
z"/>
<path fill="#B32627" opacity="1.000000" stroke="none" 
	d="
M88.348129,111.969452 
	C85.047997,105.666245 82.050339,99.692009 79.006744,93.372330 
	C79.789200,93.268524 80.617607,93.510170 82.045380,94.022369 
	C88.625893,98.180946 93.160851,103.200218 95.116692,110.236954 
	C95.157021,118.840187 95.385094,127.450157 95.076393,136.040848 
	C95.015961,137.722534 92.958916,140.635147 91.679153,140.716324 
	C88.368652,140.926331 88.961708,137.934891 88.951187,135.600800 
	C88.916176,127.833054 88.760201,120.065834 88.348129,111.969452 
z"/>
<path fill="#CE3A3A" opacity="1.000000" stroke="none" 
	d="
M95.485672,110.196381 
	C93.160851,103.200218 88.625893,98.180946 82.352066,94.138855 
	C83.829941,94.236053 85.600510,94.487320 88.000305,95.014359 
	C93.387772,99.355667 98.145996,103.421181 102.904228,107.486702 
	C104.218231,115.472801 105.692444,123.437859 106.745560,131.458206 
	C107.049095,133.769897 106.860565,137.109146 103.236404,136.853760 
	C99.647537,136.600876 100.686310,133.631348 100.469910,131.121155 
	C99.916656,124.703262 98.833992,118.327011 97.802834,111.960068 
	C97.691330,111.271530 96.529350,110.753128 95.485672,110.196381 
z"/>
<path fill="#B22424" opacity="1.000000" stroke="none" 
	d="
M103.300995,107.444069 
	C98.145996,103.421181 93.387772,99.355667 88.314774,95.150360 
	C94.932953,93.681053 100.435188,97.088257 105.932930,100.462387 
	C107.166725,101.219604 108.300163,102.140335 109.841637,103.035522 
	C112.971436,110.630867 115.758652,118.169533 118.482315,125.731102 
	C118.812698,126.648331 119.181343,127.838120 118.866837,128.640900 
	C118.237312,130.247803 117.146980,131.674179 116.246902,133.175079 
	C115.079163,131.914978 113.391693,130.849716 112.833603,129.361069 
	C110.408577,122.892563 108.370338,116.279953 106.033501,109.776505 
	C105.692528,108.827576 104.497574,108.185501 103.300995,107.444069 
z"/>
<path fill="#E99E69" opacity="1.000000" stroke="none" 
	d="
M110.931160,79.869278 
	C114.415764,82.813103 117.900375,85.756920 121.687210,88.849266 
	C122.062126,90.483452 122.206169,91.969658 122.194878,93.454681 
	C122.150841,99.246429 120.262077,100.943108 113.400955,101.032478 
	C108.446884,97.497787 103.909966,93.995964 99.340584,89.973839 
	C102.222847,86.678848 105.137566,83.904160 108.333527,80.973785 
	C109.386894,80.501823 110.159027,80.185555 110.931160,79.869278 
z"/>
<path fill="#DB2F2F" opacity="1.000000" stroke="none" 
	d="
M23.745396,80.544594 
	C25.948265,78.862213 28.336803,77.475410 31.088776,75.928947 
	C33.644329,75.745941 35.836445,75.722603 38.837975,75.779678 
	C41.772018,76.280670 43.896660,76.701248 46.021297,77.121826 
	C47.873211,83.988510 47.665390,84.328804 40.611446,86.039833 
	C39.342583,86.347610 38.078339,86.674423 36.416016,86.993896 
	C31.445034,86.014755 26.494064,85.772491 23.745396,80.544594 
z"/>
<path fill="#D03E3E" opacity="1.000000" stroke="none" 
	d="
M42.015297,107.397827 
	C42.816612,106.403244 43.623547,105.830956 44.711205,105.138260 
	C46.547771,105.496582 48.103615,105.975304 49.733315,107.009331 
	C49.492348,108.116135 49.177525,108.667633 48.862694,109.219131 
	C48.003925,115.881432 47.305260,122.570793 46.186954,129.189240 
	C45.859596,131.126663 44.464638,134.320099 43.341625,134.416931 
	C39.996223,134.705399 39.734905,131.698654 39.963371,129.099380 
	C40.587307,122.000854 41.327045,114.912498 42.015297,107.397827 
z"/>
<path fill="#B32828" opacity="1.000000" stroke="none" 
	d="
M48.888809,109.642563 
	C49.177525,108.667633 49.492348,108.116135 49.952240,107.279831 
	C51.899693,107.772392 53.702087,108.549751 55.713261,109.572304 
	C56.762608,116.036003 57.783939,122.238815 58.325439,128.483246 
	C58.473652,130.192413 57.182671,132.026352 56.552135,133.803040 
	C55.135090,132.529495 52.805920,131.464417 52.458981,129.946320 
	C50.961044,123.391891 50.043613,116.704811 48.888809,109.642563 
z"/>
<path fill="#FFDBB9" opacity="1.000000" stroke="none" 
	d="
M121.815872,17.689045 
	C115.360390,15.570184 108.926094,13.056218 102.242851,10.256569 
	C107.252083,7.848845 112.510254,5.726804 118.398766,3.350374 
	C119.673264,8.518965 120.755150,12.906452 121.815872,17.689045 
z"/>
<path fill="#DC2E2D" opacity="1.000000" stroke="none" 
	d="
M87.138641,29.493799 
	C88.125313,25.583078 88.958084,22.059578 90.241554,18.708708 
	C90.843025,17.138416 92.314003,15.901162 94.075569,13.630425 
	C94.736382,15.885727 95.347130,16.835402 95.197006,17.643772 
	C94.289490,22.530556 97.188179,25.146069 100.533485,27.883945 
	C101.922562,29.020798 102.330681,31.356241 103.096863,33.942482 
	C102.110565,38.792587 104.193916,40.503719 108.212326,41.102669 
	C109.700150,43.814167 110.864586,46.371296 111.630806,48.948475 
	C105.464935,48.965546 102.223137,52.119640 100.686966,57.405624 
	C91.056862,53.701633 87.547760,46.016895 87.094322,36.394356 
	C86.993408,34.252754 87.137901,32.099590 87.138641,29.493799 
z"/>
<path fill="#BD2423" opacity="1.000000" stroke="none" 
	d="
M100.730446,57.789085 
	C102.223137,52.119640 105.464935,48.965546 112.019577,48.965012 
	C115.070847,49.666080 117.335121,50.370659 119.599388,51.075237 
	C123.310944,63.630928 120.996307,71.544655 111.131271,79.606369 
	C110.159027,80.185555 109.386894,80.501823 108.286682,80.612144 
	C105.285774,78.594887 102.612946,76.783592 99.943268,74.717346 
	C99.893303,74.300934 99.840187,74.139465 99.787064,73.978004 
	C100.116013,68.709518 100.444969,63.441029 100.730446,57.789085 
z"/>
<path fill="#DB2B2A" opacity="1.000000" stroke="none" 
	d="
M99.940117,74.972290 
	C102.612946,76.783592 105.285774,78.594887 108.005447,80.767822 
	C105.137566,83.904160 102.222847,86.678848 99.106094,89.731201 
	C93.064606,90.426140 87.149399,91.615028 81.406227,91.051270 
	C75.229729,90.444969 74.241295,87.950134 76.081818,81.175804 
	C76.653084,80.099808 76.831734,79.546844 77.396164,78.998558 
	C83.893028,77.498978 90.004120,75.994720 96.115219,74.490479 
	C96.826897,74.603516 97.538582,74.716560 98.846832,74.889206 
	C99.443405,74.948814 99.940117,74.972290 99.940117,74.972290 
z"/>
<path fill="#F8F4F1" opacity="1.000000" stroke="none" 
	d="
M71.045967,62.072563 
	C65.280655,57.706081 63.708477,53.943825 66.232132,49.721073 
	C68.264107,46.321033 71.151329,43.557076 75.440742,44.257885 
	C79.872841,44.982010 83.018776,47.930447 83.699783,52.400368 
	C84.412361,57.077553 81.605827,60.100037 76.760040,62.170364 
	C74.350426,62.248867 72.698196,62.160713 71.045967,62.072563 
M70.093727,55.531338 
	C71.997070,58.297665 74.698677,59.358940 77.277359,57.180305 
	C78.549026,56.105927 79.489410,52.935066 78.804787,51.684696 
	C77.965393,50.151695 74.475433,48.369167 73.545090,48.951824 
	C71.776840,50.059223 71.013489,52.771187 70.093727,55.531338 
z"/>
<path fill="#F9F5F2" opacity="1.000000" stroke="none" 
	d="
M48.059193,61.040627 
	C42.960915,56.343983 41.688007,52.825680 43.834072,48.563046 
	C45.706764,44.843399 48.964085,42.036121 52.982563,43.364380 
	C56.019798,44.368305 59.548176,47.101662 60.675945,49.934113 
	C62.491703,54.494503 60.307991,58.678394 54.724007,61.051788 
	C52.004623,61.173294 50.031910,61.106960 48.059193,61.040627 
M53.915302,47.606632 
	C51.919411,48.318184 49.608677,48.642605 48.059052,49.902882 
	C47.271805,50.543137 47.272137,53.240406 47.970200,54.336926 
	C48.802818,55.644814 50.846741,57.057896 52.215523,56.921059 
	C53.839794,56.758671 56.400543,55.148907 56.578491,53.887489 
	C56.840595,52.029587 55.354649,49.925087 53.915302,47.606632 
z"/>
<path fill="#E89D6A" opacity="1.000000" stroke="none" 
	d="
M69.992050,75.999901 
	C64.999039,75.647736 60.006023,75.295578 54.615513,74.459488 
	C54.508244,71.641335 54.798473,69.307114 55.088699,66.972900 
	C59.796150,66.660645 64.503601,66.348381 69.701981,66.495110 
	C70.125961,69.969368 70.059006,72.984634 69.992050,75.999901 
z"/>
<path fill="#B1211F" opacity="1.000000" stroke="none" 
	d="
M70.002792,76.379082 
	C70.059006,72.984634 70.125961,69.969368 70.169403,66.505203 
	C70.406319,64.952209 70.666748,63.848125 70.986572,62.408302 
	C72.698196,62.160713 74.350426,62.248867 76.418518,62.303383 
	C76.948151,63.883114 77.061928,65.496475 77.141006,67.967957 
	C77.074333,72.215347 77.042358,75.604622 77.010391,78.993889 
	C76.831734,79.546844 76.653084,80.099808 76.228020,80.818329 
	C72.864029,81.168800 70.346939,80.505600 70.002792,76.379082 
z"/>
<path fill="#E89A69" opacity="1.000000" stroke="none" 
	d="
M77.396164,78.998558 
	C77.042358,75.604622 77.074333,72.215347 77.204697,68.369705 
	C83.489166,69.907768 89.675247,71.902191 95.988274,74.193542 
	C90.004120,75.994720 83.893028,77.498978 77.396164,78.998558 
z"/>
<path fill="#B22220" opacity="1.000000" stroke="none" 
	d="
M55.026188,66.563461 
	C54.798473,69.307114 54.508244,71.641335 54.190323,74.348068 
	C53.055447,79.621468 52.009686,80.046112 47.898365,76.455017 
	C47.749851,73.438347 47.740150,71.174591 47.730453,68.910835 
	C47.851807,66.580292 47.973164,64.249748 48.076855,61.479916 
	C50.031910,61.106960 52.004623,61.173294 54.402946,61.221237 
	C54.873596,62.853237 54.918636,64.503632 55.026188,66.563461 
z"/>
<path fill="#E69364" opacity="1.000000" stroke="none" 
	d="
M47.398941,68.981613 
	C47.740150,71.174591 47.749851,73.438347 47.712948,76.099609 
	C47.303654,76.641594 46.940956,76.786087 46.299782,77.026199 
	C43.896660,76.701248 41.772018,76.280670 39.253471,75.724823 
	C41.595516,73.410500 44.331474,71.231438 47.398941,68.981613 
z"/>
<path fill="#E89A69" opacity="1.000000" stroke="none" 
	d="
M99.943268,74.717346 
	C99.940117,74.972290 99.443405,74.948814 99.207825,74.868690 
	C99.076256,74.541382 99.234238,74.335648 99.616631,74.074684 
	C99.840187,74.139465 99.893303,74.300934 99.943268,74.717346 
z"/>
<path fill="#771111" opacity="1.000000" stroke="none" 
	d="
M57.202087,94.822868 
	C61.276897,93.671997 64.956673,92.468147 68.407669,91.339134 
	C67.941483,96.576302 62.591854,101.227325 56.897720,100.755951 
	C50.077274,100.191322 45.980381,95.933846 46.309059,90.319633 
	C49.707680,91.760361 53.257366,93.265121 57.202087,94.822868 
z"/>
<path fill="#E83332" opacity="1.000000" stroke="none" 
	d="
M119.812553,50.805237 
	C117.335121,50.370659 115.070847,49.666080 112.417801,48.944962 
	C110.864586,46.371296 109.700150,43.814167 108.298141,40.771515 
	C108.214012,38.600353 108.367462,36.914711 108.520905,35.229069 
	C107.547348,33.131512 106.661011,31.374294 108.805016,29.025867 
	C109.603844,28.150879 108.480019,24.864149 107.459648,23.132902 
	C105.773087,20.271378 103.459221,17.779585 101.029060,14.640261 
	C113.373840,14.101262 123.396500,30.168419 121.777603,46.502262 
	C121.175415,48.155453 120.600571,49.345341 119.812553,50.805237 
z"/>
<path fill="#F5AD7D" opacity="1.000000" stroke="none" 
	d="
M108.115417,35.164814 
	C108.367462,36.914711 108.214012,38.600353 107.974762,40.617149 
	C104.193916,40.503719 102.110565,38.792587 103.126068,34.340294 
	C104.732185,34.328350 106.221054,34.714455 108.115417,35.164814 
z"/>
<path fill="#4C3734" opacity="1.000000" stroke="none" 
	d="
M69.963272,55.174057 
	C71.013489,52.771187 71.776840,50.059223 73.545090,48.951824 
	C74.475433,48.369167 77.965393,50.151695 78.804787,51.684696 
	C79.489410,52.935066 78.549026,56.105927 77.277359,57.180305 
	C74.698677,59.358940 71.997070,58.297665 69.963272,55.174057 
z"/>
<path fill="#54403E" opacity="1.000000" stroke="none" 
	d="
M54.264286,47.766129 
	C55.354649,49.925087 56.840595,52.029587 56.578491,53.887489 
	C56.400543,55.148907 53.839794,56.758671 52.215523,56.921059 
	C50.846741,57.057896 48.802818,55.644814 47.970200,54.336926 
	C47.272137,53.240406 47.271805,50.543137 48.059052,49.902882 
	C49.608677,48.642605 51.919411,48.318184 54.264286,47.766129 
z"/>
</svg>