<svg version="1.1" id="Layer_1" xmlns="http://www.w3.org/2000/svg" xmlns:xlink="http://www.w3.org/1999/xlink" x="0px" y="0px"
	 width="100%" viewBox="0 0 265 568" enable-background="new 0 0 265 568" xml:space="preserve">
<path fill="#FFFFFF" opacity="1.000000" stroke="none" 
	d="
M1.000002,544.000000 
	C1.000000,363.057678 1.000000,182.115372 1.000000,1.086529 
	C89.247421,1.086529 177.494965,1.086529 266.000000,1.086529 
	C266.000000,178.357346 266.000000,355.714813 265.761292,533.463806 
	C265.273499,533.622498 265.095032,533.344360 264.886353,532.692078 
	C259.453064,523.130371 251.788895,517.068115 241.109375,514.659546 
	C240.359665,512.873779 239.683685,511.434387 238.926498,509.664032 
	C234.583801,500.984741 227.227936,499.952423 218.678528,500.952637 
	C217.560181,501.303467 216.778564,501.647369 215.677002,502.011383 
	C214.930664,502.036499 214.504288,502.041504 214.032135,501.784882 
	C213.917618,501.360138 213.848862,501.196991 213.843002,500.595154 
	C212.656647,486.789825 211.407394,473.423187 210.252563,459.667389 
	C210.080414,456.057861 209.813873,452.837433 209.546158,449.602997 
	C205.328430,450.468262 201.665298,451.219757 198.001465,451.504395 
	C198.000504,437.214417 197.934921,423.390747 198.049820,409.568634 
	C198.075745,406.448273 196.475464,404.799774 194.617233,402.487305 
	C190.768402,397.697571 186.567184,392.258209 185.368530,386.491974 
	C183.604904,378.007904 184.339645,369.004486 184.408386,360.117676 
	C188.207443,359.330994 191.608246,358.648987 195.411423,357.997681 
	C197.500015,357.520782 199.186249,357.013184 201.117462,356.431854 
	C198.708191,329.666626 196.334549,303.297394 193.912292,276.387817 
	C191.968857,276.926758 190.445724,277.349182 188.477234,277.764893 
	C183.690155,278.130798 179.348450,278.503448 175.004196,278.437317 
	C175.004425,274.840698 175.007172,271.682892 175.469727,268.457062 
	C176.722198,267.249512 178.105988,266.155731 178.198380,264.962006 
	C178.492950,261.155304 178.722580,257.249329 178.162079,253.503708 
	C177.786911,250.996643 176.026245,248.696884 174.918701,245.817657 
	C174.971024,229.357956 174.990189,213.384933 175.405960,197.297958 
	C177.885376,196.840042 179.968185,196.496109 182.440826,196.189682 
	C185.865967,196.272629 186.681305,194.907288 186.346832,191.870682 
	C185.135071,180.868927 184.097824,169.844650 183.219604,158.810974 
	C182.832336,153.945572 182.984558,149.037216 183.051483,143.934265 
	C183.233109,143.543503 183.255112,143.366837 183.604980,143.168549 
	C184.628052,142.647720 185.323257,142.148483 186.302032,141.668823 
	C186.993500,140.662659 187.843170,139.579712 187.719299,138.622772 
	C187.442963,136.487823 186.349625,134.440567 186.190308,132.312576 
	C185.920624,128.710419 186.364868,125.046593 185.978485,121.465950 
	C185.846481,120.242699 184.120316,119.191475 182.867096,117.911652 
	C180.019714,115.901001 177.465576,113.869560 174.013855,115.399780 
	C174.337112,108.289330 174.667465,101.638313 175.339722,95.019974 
	C176.765747,95.380669 177.849884,95.708672 179.047363,96.332794 
	C180.485428,96.528564 181.810104,96.428207 183.377350,96.323547 
	C183.952423,96.234283 184.204636,96.043289 184.479980,95.700562 
	C184.583405,95.654839 184.755997,95.508690 185.053116,95.366974 
	C188.317551,92.777679 186.951187,90.740448 184.404755,89.494537 
	C180.348434,87.509880 176.078339,85.962204 171.950287,83.852173 
	C172.367828,82.529083 172.733734,81.583557 173.445053,80.816849 
	C176.582382,82.005501 179.374298,83.015320 182.273453,84.063934 
	C183.690994,68.611725 167.879318,49.837677 149.642960,45.006508 
	C147.567810,44.362926 145.838074,43.888145 144.105835,43.138237 
	C144.080338,42.496426 144.057358,42.129734 144.329254,41.719170 
	C145.302124,41.125568 145.980103,40.575840 146.709244,39.707481 
	C146.243088,38.221611 145.725754,37.054367 145.159622,35.542877 
	C142.406418,33.507919 139.702011,31.817205 136.764221,29.754539 
	C136.425156,27.332422 136.319458,25.282259 136.213760,23.232096 
	C136.093323,23.229900 135.972870,23.227703 135.852432,23.225508 
	C135.549789,25.391582 135.247147,27.557657 134.558456,29.791895 
	C128.195480,30.724909 124.088936,33.632366 123.128647,40.311222 
	C123.133987,42.427486 128.354980,40.000069 125.347374,43.864990 
	C118.919044,46.418137 112.886063,48.994835 106.527557,51.707474 
	C103.073891,54.870647 99.945740,57.897884 96.519096,61.073494 
	C90.343849,68.811684 86.934616,77.288986 86.649666,87.153595 
	C85.867622,89.203812 85.385643,91.098351 84.791550,93.376831 
	C84.767380,97.895233 88.055710,98.280075 91.129990,99.356537 
	C91.865829,99.711601 92.428467,99.828781 93.294662,100.124565 
	C94.059990,100.372169 94.521751,100.441185 94.842407,100.615082 
	C94.701302,100.719978 94.759605,101.066750 94.794708,101.459602 
	C94.889160,102.902245 94.948509,103.952042 94.873657,105.389420 
	C94.652039,109.675606 94.564621,113.574196 94.413956,117.624786 
	C94.350723,117.776787 94.102676,117.993309 93.798531,118.021164 
	C93.119125,118.424744 92.743866,118.800461 92.368607,119.176178 
	C92.855995,119.454010 93.343376,119.731850 93.906540,120.462906 
	C93.892097,124.295532 93.801880,127.674950 93.489464,131.335068 
	C93.166725,133.552704 93.066177,135.489624 92.631714,137.638809 
	C91.527710,138.029343 90.757622,138.207626 90.066055,138.250275 
	C90.144577,138.114609 90.048790,137.816116 89.964279,137.655853 
	C89.742935,137.287018 89.559494,137.134506 89.264740,136.571991 
	C89.200027,130.765625 89.200027,125.425323 89.200027,119.648499 
	C85.993141,121.739395 85.308212,129.082458 86.517876,139.473145 
	C86.242577,139.882751 86.156990,140.062225 85.791183,140.327148 
	C85.359550,140.938507 85.208145,141.464417 84.968132,142.364197 
	C87.384041,144.514313 89.888573,146.290527 92.864510,148.401062 
	C92.759224,150.164307 92.599876,152.632919 92.466301,155.102936 
	C91.696762,169.332458 90.933334,183.562317 90.084549,198.230499 
	C88.311317,225.096054 86.621353,251.523148 84.592094,278.216888 
	C83.477531,293.363098 82.697632,308.242462 81.928467,323.122345 
	C81.313248,335.024353 80.711082,346.927002 80.010742,359.253448 
	C79.189011,370.769104 78.434677,381.859100 77.735817,392.952606 
	C76.494820,412.652069 75.287468,432.353668 73.994400,452.478271 
	C72.886261,468.564789 71.849762,484.227386 70.427643,499.993958 
	C68.100700,500.414276 66.170036,500.848938 64.216072,501.025238 
	C57.838921,501.600586 52.840374,504.293030 49.521973,510.266998 
	C48.508476,511.618805 47.751705,512.807922 46.756783,514.227478 
	C44.974289,516.941589 43.429943,519.425354 41.591164,522.091187 
	C39.570328,523.213196 37.869534,524.204224 36.113220,525.084534 
	C27.101967,529.600952 18.076406,534.088867 8.720634,538.717651 
	C5.923613,540.565735 3.461809,542.282898 1.000002,544.000000 
z"/>
<path fill="#FDFDFD" opacity="1.000000" stroke="none" 
	d="
M266.000000,543.000000 
	C266.000000,551.654053 266.000000,560.308044 266.000000,568.962280 
	C177.666656,568.962402 89.333328,568.962402 1.000000,568.962402 
	C1.000000,564.265015 1.000000,559.605164 1.280748,554.678589 
	C4.696216,555.534058 7.830936,556.656311 11.369413,557.909790 
	C19.723598,558.743347 27.670204,559.493164 35.625687,560.132690 
	C41.762348,560.626038 48.048740,560.303467 54.026489,561.526672 
	C70.589027,564.915833 86.387688,562.144409 102.397331,556.947876 
	C110.518097,557.363647 118.267174,557.718567 126.473869,558.169800 
	C134.288040,557.510010 141.644592,556.753967 149.236099,556.297607 
	C153.127396,557.342651 156.771164,558.518311 160.446136,558.625671 
	C161.958694,558.669922 163.538406,556.415222 165.262390,555.022095 
	C165.579834,554.538025 165.722427,554.238098 166.122650,554.045044 
	C166.559052,554.203247 166.737823,554.254517 167.179535,554.578003 
	C181.614960,558.475281 195.595749,557.669006 209.477188,553.230774 
	C211.176865,552.687378 213.159882,553.030212 215.317841,553.251526 
	C221.635178,553.653137 227.652954,553.955078 233.652603,553.743530 
	C235.135651,553.691284 236.559891,551.970703 238.431274,551.034790 
	C249.104752,552.426941 258.935730,552.377319 266.000000,543.000000 
z"/>
<path fill="#A5A5A5" opacity="1.000000" stroke="none" 
	d="
M266.000000,542.550049 
	C258.935730,552.377319 249.104752,552.426941 238.438477,550.648926 
	C237.122116,544.855591 232.255264,543.034058 228.489075,539.950562 
	C227.784500,539.577087 227.362823,539.220032 227.129669,538.584717 
	C228.824371,537.582947 230.330536,536.859436 232.209244,536.205261 
	C236.547791,537.417969 240.471115,538.747559 244.488052,539.668884 
	C255.350815,542.160461 261.285858,540.162415 264.987122,533.020935 
	C265.095032,533.344360 265.273499,533.622498 265.761292,533.927673 
	C266.000000,536.700012 266.000000,539.400024 266.000000,542.550049 
z"/>
<path fill="#747579" opacity="1.000000" stroke="none" 
	d="
M10.965657,557.778564 
	C7.830936,556.656311 4.696216,555.534058 1.280748,554.205933 
	C1.000000,550.969421 1.000000,547.938782 1.000002,544.454102 
	C3.461809,542.282898 5.923613,540.565735 8.710545,539.118652 
	C7.347307,546.123962 12.126752,551.115540 19.595364,549.988953 
	C23.145166,549.453552 26.561224,548.031433 30.171463,547.342896 
	C30.706736,548.725464 31.108414,549.776001 31.091381,550.874634 
	C22.868868,549.658569 16.542915,552.642517 10.965657,557.778564 
z"/>
<path fill="#E93543" opacity="1.000000" stroke="none" 
	d="
M175.006729,278.876099 
	C179.348450,278.503448 183.690155,278.130798 188.498734,278.234772 
	C189.664612,288.897430 190.292450,299.089020 191.078934,309.268341 
	C192.333481,325.505493 193.693588,341.734528 195.009064,357.966980 
	C191.608246,358.648987 188.207443,359.330994 183.992737,360.082336 
	C178.815216,360.489685 174.451569,360.827667 169.940277,360.820557 
	C164.660294,344.550293 159.000778,328.769562 154.585892,312.647949 
	C151.766418,302.352234 150.788239,291.552246 149.403519,280.846924 
	C158.217255,280.102386 166.611984,279.489258 175.006729,278.876099 
M170.844177,349.790771 
	C171.537582,348.118958 172.405869,346.485413 172.787079,344.745178 
	C172.870239,344.365570 171.205994,343.126709 170.358856,343.138916 
	C169.270767,343.154602 168.195129,344.034210 167.114136,344.541626 
	C168.108170,346.199799 169.102219,347.857971 170.844177,349.790771 
z"/>
<path fill="#F8F6F6" opacity="1.000000" stroke="none" 
	d="
M175.004196,278.437317 
	C166.611984,279.489258 158.217255,280.102386 149.159943,280.733521 
	C148.341843,280.662354 148.186340,280.573120 148.022858,280.092346 
	C147.675751,277.096283 147.203201,274.500946 147.023972,271.885468 
	C146.584442,265.471344 145.998093,259.048431 145.987534,252.628204 
	C145.971634,242.963669 146.039627,233.272324 146.743393,223.641449 
	C147.340942,215.464142 148.888550,207.356277 150.258636,199.110016 
	C150.661957,198.927460 150.822449,198.852570 151.425934,198.850098 
	C159.582413,198.418991 167.295883,197.915451 175.009338,197.411926 
	C174.990189,213.384933 174.971024,229.357956 174.555466,245.749542 
	C172.077881,246.052597 169.996674,245.937088 167.526779,245.786041 
	C165.348938,247.398788 162.233475,248.890610 162.017151,250.724442 
	C161.344284,256.428589 161.770676,262.262390 161.770676,268.561829 
	C165.513275,268.391113 168.783203,268.241974 172.411011,268.208740 
	C173.515900,268.391449 174.262924,268.458252 175.009933,268.525055 
	C175.007172,271.682892 175.004425,274.840698 175.004196,278.437317 
z"/>
<path fill="#F9F8F8" opacity="1.000000" stroke="none" 
	d="
M170.087936,361.165649 
	C174.451569,360.827667 178.815216,360.489685 183.594482,360.187012 
	C184.339645,369.004486 183.604904,378.007904 185.368530,386.491974 
	C186.567184,392.258209 190.768402,397.697571 194.617233,402.487305 
	C196.475464,404.799774 198.075745,406.448273 198.049820,409.568634 
	C197.934921,423.390747 198.000504,437.214417 197.650696,451.704285 
	C193.873993,452.954620 190.447388,453.538116 186.688934,454.067444 
	C185.910507,453.981293 185.463913,453.949280 184.803894,453.662964 
	C181.709961,451.310272 178.829453,449.211914 175.964752,446.638062 
	C175.987045,425.416473 176.532349,404.649078 175.712799,383.935730 
	C175.418991,376.509735 171.831924,369.214020 169.830109,361.684204 
	C169.912292,361.509521 170.087936,361.165649 170.087936,361.165649 
z"/>
<path fill="#841319" opacity="1.000000" stroke="none" 
	d="
M80.103119,358.829346 
	C80.711082,346.927002 81.313248,335.024353 81.928467,323.122345 
	C82.697632,308.242462 83.477531,293.363098 84.950684,278.392395 
	C89.121735,278.950562 92.594894,279.599854 96.044571,280.699890 
	C96.019539,288.759094 96.017998,296.367584 95.650162,303.945374 
	C93.630371,304.230804 90.563362,304.504425 90.552376,304.869965 
	C90.480072,307.274231 91.265213,309.486115 94.516243,309.005615 
	C95.000458,308.934052 95.504654,308.997711 95.999481,309.467529 
	C95.999359,325.301727 96.035248,340.667419 95.948486,356.032410 
	C95.938942,357.722717 95.226303,359.409058 94.405518,361.146362 
	C91.368553,360.931610 88.765831,360.667725 85.850311,360.258484 
	C83.726051,359.685242 81.914589,359.257294 80.103119,358.829346 
z"/>
<path fill="#BEBEBE" opacity="1.000000" stroke="none" 
	d="
M30.037865,547.010925 
	C26.561224,548.031433 23.145166,549.453552 19.595364,549.988953 
	C12.126752,551.115540 7.347307,546.123962 9.045761,538.987671 
	C18.076406,534.088867 27.101967,529.600952 36.113220,525.084534 
	C37.869534,524.204224 39.570328,523.213196 41.821007,522.389771 
	C51.503643,521.133118 60.625473,519.075684 70.355347,521.113525 
	C74.502563,522.131409 78.256020,523.067322 81.754379,524.295166 
	C78.517448,525.288086 75.485725,525.828491 72.567894,526.735352 
	C69.673836,527.634888 66.894478,528.903442 63.756397,530.026001 
	C62.966553,530.369507 62.485130,530.697205 62.001705,531.011230 
	C61.999702,530.997559 62.023338,531.012085 61.700760,531.047729 
	C60.922539,531.717346 60.466892,532.351318 59.777641,532.997009 
	C59.544033,533.008667 59.076252,533.013794 58.700321,533.011353 
	C56.219742,534.014832 54.115089,535.020752 52.005951,536.012695 
	C52.001461,535.998657 52.021641,536.021362 51.651539,536.017456 
	C49.192001,537.017761 47.102566,538.022034 45.007271,539.013184 
	C45.001408,539.000000 45.020325,539.023743 44.635979,539.019653 
	C40.502407,541.008728 36.753189,543.001892 32.778889,545.112000 
	C32.360001,545.501465 32.166191,545.773987 31.658119,546.015503 
	C30.896641,546.335266 30.449425,546.685974 30.001732,547.017212 
	C30.001251,546.997681 30.037861,547.010925 30.037865,547.010925 
z"/>
<path fill="#CFCFCF" opacity="1.000000" stroke="none" 
	d="
M264.886353,532.692078 
	C261.285858,540.162415 255.350815,542.160461 244.488052,539.668884 
	C240.471115,538.747559 236.547791,537.417969 231.871033,536.115967 
	C227.241898,533.849487 223.343033,531.704285 219.399323,529.645020 
	C215.858521,527.796021 213.914902,525.026855 214.209518,520.662598 
	C216.263107,518.635742 218.159225,516.893555 220.445480,515.094727 
	C227.612717,511.615997 234.398590,513.743164 241.183090,515.005920 
	C251.788895,517.068115 259.453064,523.130371 264.886353,532.692078 
z"/>
<path fill="#AEAEB0" opacity="1.000000" stroke="none" 
	d="
M80.010742,359.253418 
	C81.914589,359.257294 83.726051,359.685242 85.805359,360.772827 
	C86.048790,389.657410 86.050331,417.882355 85.956818,446.106995 
	C85.948174,448.716217 85.334740,451.323486 84.596542,453.962006 
	C82.845863,453.832428 81.500771,453.672455 79.839348,453.349182 
	C77.704025,452.808685 75.885033,452.431519 74.066040,452.054352 
	C75.287468,432.353668 76.494820,412.652069 77.735817,392.952606 
	C78.434677,381.859100 79.189011,370.769104 80.010742,359.253418 
z"/>
<path fill="#E93543" opacity="1.000000" stroke="none" 
	d="
M175.405960,197.297958 
	C167.295883,197.915451 159.582413,198.418991 151.437531,198.468826 
	C152.096817,194.210358 152.867172,190.274353 154.358459,186.633652 
	C156.269348,181.968582 158.760468,177.541153 161.156769,173.317429 
	C162.375900,173.652863 163.439850,173.682220 164.503784,173.711578 
	C164.003372,171.807571 163.502945,169.903580 163.133667,167.687927 
	C164.849991,164.936188 166.435181,162.496078 168.387512,160.046616 
	C170.165604,159.689453 171.576569,159.341644 173.363434,159.002045 
	C178.727173,159.750702 179.364212,164.088440 179.782028,167.590363 
	C180.912628,177.066315 181.342926,186.625809 182.050995,196.152176 
	C179.968185,196.496109 177.885376,196.840042 175.405960,197.297958 
z"/>
<path fill="#AEAEB0" opacity="1.000000" stroke="none" 
	d="
M96.068054,280.249146 
	C92.594894,279.599854 89.121735,278.950562 85.289993,278.125732 
	C86.621353,251.523148 88.311317,225.096054 90.475769,198.258820 
	C94.833023,196.815552 97.954742,202.127625 102.049164,199.563354 
	C102.020943,200.963150 102.010445,201.981583 101.583298,203.000183 
	C96.133530,202.453400 95.990486,205.810928 95.990036,209.390488 
	C95.987099,232.859039 95.955635,256.327606 95.976357,279.906647 
	C96.019226,280.017151 96.068054,280.249146 96.068054,280.249146 
z"/>
<path fill="#B3212A" opacity="1.000000" stroke="none" 
	d="
M185.017319,453.917297 
	C185.463913,453.949280 185.910507,453.981293 186.921799,454.326538 
	C195.043716,456.445343 202.600937,458.250916 210.158142,460.056519 
	C211.407394,473.423187 212.656647,486.789825 213.558655,500.779297 
	C211.520920,502.193848 209.830414,502.985596 208.139923,503.777344 
	C207.426758,501.882324 206.342010,500.037781 206.076294,498.081940 
	C205.488113,493.752777 205.311554,489.367706 204.966583,484.606323 
	C204.072632,476.701447 200.786484,470.654572 193.122345,468.743683 
	C188.631882,467.624115 183.735458,468.132843 178.801727,467.664124 
	C177.721146,467.288055 176.860474,467.156952 175.843658,466.656158 
	C175.124039,462.738922 174.560577,459.191376 174.407501,455.477875 
	C178.217697,454.847046 181.617508,454.382172 185.017319,453.917297 
z"/>
<path fill="#C5212A" opacity="1.000000" stroke="none" 
	d="
M144.108322,43.413361 
	C145.838074,43.888145 147.567810,44.362926 149.641296,45.210285 
	C149.985016,45.582863 149.997284,45.990269 149.575180,45.997002 
	C140.711029,46.124989 139.248184,48.500729 143.014267,56.395729 
	C143.337982,63.195705 143.667953,69.563255 143.539871,76.015213 
	C139.070404,76.320526 135.058975,76.541428 130.647156,76.640427 
	C126.562187,76.850998 122.877625,77.183472 119.107765,77.072952 
	C116.649673,67.525269 117.363762,58.946690 125.054832,52.647644 
	C129.574951,48.945637 135.007370,46.357540 140.371262,43.225677 
	C141.844818,43.259743 142.976578,43.336552 144.108322,43.413361 
z"/>
<path fill="#841319" opacity="1.000000" stroke="none" 
	d="
M102.066879,199.181976 
	C97.954742,202.127625 94.833023,196.815552 90.559052,197.820374 
	C90.933334,183.562317 91.696762,169.332458 92.466301,155.102936 
	C92.599876,152.632919 92.759224,150.164307 92.864510,148.401062 
	C89.888573,146.290527 87.384041,144.514313 85.192909,142.220810 
	C85.694672,141.216248 85.883041,140.728973 86.071411,140.241699 
	C86.156990,140.062225 86.242577,139.882751 86.849777,139.429642 
	C88.255997,139.178574 89.140594,139.201157 90.017258,139.516510 
	C90.007309,140.199799 90.005295,140.590332 89.879272,141.282806 
	C90.285378,142.754318 90.815506,143.923859 91.782539,146.057312 
	C92.998230,143.336136 93.521248,142.165421 94.268387,140.990387 
	C94.492493,140.986053 94.940765,140.981277 95.362473,140.988449 
	C97.189980,140.997589 98.595764,140.999542 100.001892,141.469971 
	C101.051964,160.877533 97.755348,179.964447 101.981049,198.889069 
	C102.026176,198.981094 102.066879,199.181976 102.066879,199.181976 
z"/>
<path fill="#7E1017" opacity="1.000000" stroke="none" 
	d="
M73.994400,452.478271 
	C75.885033,452.431519 77.704025,452.808685 79.794518,453.856873 
	C80.044014,465.994568 79.926453,477.462250 80.044716,488.927490 
	C80.095528,493.853088 79.248116,499.091492 83.642853,503.050659 
	C84.158264,503.514954 83.914215,505.997040 83.455734,506.188721 
	C77.950020,508.490692 80.659187,513.263611 79.637260,516.956055 
	C76.268806,515.938416 73.269905,514.957397 70.225212,513.573120 
	C70.302963,510.133087 70.426506,507.096283 70.671913,503.655579 
	C70.800270,502.131104 70.806763,501.010529 70.813263,499.889984 
	C71.849762,484.227386 72.886261,468.564789 73.994400,452.478271 
z"/>
<path fill="#DB2D36" opacity="1.000000" stroke="none" 
	d="
M195.411423,357.997681 
	C193.693588,341.734528 192.333481,325.505493 191.078934,309.268341 
	C190.292450,299.089020 189.664612,288.897430 188.944092,278.241455 
	C190.445724,277.349182 191.968857,276.926758 193.912292,276.387817 
	C196.334549,303.297394 198.708191,329.666626 201.117462,356.431854 
	C199.186249,357.013184 197.500015,357.520782 195.411423,357.997681 
z"/>
<path fill="#9E1B22" opacity="1.000000" stroke="none" 
	d="
M140.029449,43.268417 
	C135.007370,46.357540 129.574951,48.945637 125.054832,52.647644 
	C117.363762,58.946690 116.649673,67.525269 118.775764,77.235329 
	C116.030815,78.304398 113.532562,78.768105 110.674927,79.176300 
	C109.599945,79.248070 108.884354,79.375359 108.121521,79.004486 
	C108.049423,74.723679 108.154343,70.934624 107.968201,67.159927 
	C107.711670,61.958118 107.235283,56.767147 106.853081,51.571533 
	C112.886063,48.994835 118.919044,46.418137 125.745972,43.901100 
	C128.062607,43.628696 129.585312,43.296631 131.551239,42.977829 
	C134.672791,43.083527 137.351120,43.175972 140.029449,43.268417 
z"/>
<path fill="#F8F6F6" opacity="1.000000" stroke="none" 
	d="
M174.997818,94.987289 
	C174.667465,101.638313 174.337112,108.289330 173.990387,115.465668 
	C173.974030,115.990990 173.946304,116.125496 173.593811,116.104187 
	C173.007416,116.111412 172.773529,116.139946 172.246933,116.136169 
	C170.565704,116.033142 169.177185,115.962425 167.508469,115.887863 
	C166.553436,115.584969 165.878601,115.285934 164.988678,114.635483 
	C162.167664,113.902306 159.561752,113.520538 156.968460,112.661697 
	C156.982941,105.446304 156.984787,98.707985 157.420425,91.964767 
	C163.568756,92.969002 169.283279,93.978142 174.997818,94.987289 
z"/>
<path fill="#DB2D36" opacity="1.000000" stroke="none" 
	d="
M182.440842,196.189682 
	C181.342926,186.625809 180.912628,177.066315 179.782028,167.590363 
	C179.364212,164.088440 178.727173,159.750702 173.371918,158.606186 
	C172.344086,156.791306 171.683670,155.380478 170.981064,153.615540 
	C168.600388,150.162003 169.795441,147.091080 171.472351,144.013184 
	C175.584824,144.053467 179.238327,144.100906 182.891846,144.148361 
	C182.984558,149.037216 182.832336,153.945572 183.219604,158.810974 
	C184.097824,169.844650 185.135071,180.868927 186.346832,191.870682 
	C186.681305,194.907288 185.865967,196.272629 182.440842,196.189682 
z"/>
<path fill="#A51B23" opacity="1.000000" stroke="none" 
	d="
M183.051483,143.934265 
	C179.238327,144.100906 175.584824,144.053467 171.041153,143.999344 
	C168.218933,144.243591 166.111404,144.082703 164.385681,144.817947 
	C157.531281,147.738312 150.796127,150.938553 144.010315,153.564392 
	C144.005875,148.092316 144.007919,143.090942 144.477524,138.069092 
	C155.334335,138.366287 165.741470,138.436035 176.099869,139.182251 
	C178.575684,139.360626 180.889038,141.793961 183.277115,143.190155 
	C183.255112,143.366837 183.233109,143.543503 183.051483,143.934265 
z"/>
<path fill="#6E161B" opacity="1.000000" stroke="none" 
	d="
M92.991096,99.945969 
	C92.428467,99.828781 91.865829,99.711601 91.105515,98.984558 
	C89.241066,95.096825 90.600502,93.134247 93.617851,91.655136 
	C104.343941,86.397179 115.814049,84.152840 127.576393,82.912277 
	C129.434723,82.716286 131.204788,81.683548 133.422333,80.945312 
	C135.212357,80.868942 136.595718,80.884941 138.214996,81.192619 
	C140.306595,81.302620 142.162262,81.120941 144.427185,80.862061 
	C146.215958,80.888977 147.595505,80.993111 149.080261,81.477776 
	C149.874435,82.223289 150.526764,82.789116 151.257935,82.922371 
	C159.041061,84.340790 166.921799,85.338722 174.596008,87.195099 
	C178.990219,88.258057 183.663910,89.955162 184.755997,95.508690 
	C184.755997,95.508690 184.583405,95.654839 184.213211,95.584427 
	C183.606949,95.785301 183.370880,96.056580 183.134796,96.327850 
	C181.810104,96.428207 180.485428,96.528564 179.093903,95.979889 
	C177.076050,93.887215 175.293304,92.093826 173.145004,91.060242 
	C163.636154,86.485336 153.496048,84.723228 142.620331,84.740921 
	C136.133713,84.934311 130.015945,85.264641 123.463928,85.558899 
	C118.358459,86.407173 113.687241,87.291519 108.641281,88.155067 
	C104.518135,89.490532 100.769730,90.846794 96.646729,92.284119 
	C95.760765,94.565102 95.249405,96.765015 94.475067,98.996735 
	C93.805084,99.334351 93.398087,99.640160 92.991096,99.945969 
z"/>
<path fill="#A5A5A5" opacity="1.000000" stroke="none" 
	d="
M70.550049,504.059509 
	C70.426506,507.096283 70.302963,510.133087 70.087585,513.811951 
	C69.921616,514.621948 69.847481,514.789917 69.418213,515.020020 
	C68.359856,515.516418 67.683487,516.003418 66.949188,516.376404 
	C60.339752,519.733459 50.096714,518.502563 46.994938,513.997070 
	C47.751705,512.807922 48.508476,511.618805 49.890701,510.208923 
	C51.584938,509.248596 52.788998,508.646088 53.699894,507.746674 
	C58.560783,502.947052 64.172066,501.809204 70.550049,504.059509 
z"/>
<path fill="#87171D" opacity="1.000000" stroke="none" 
	d="
M86.949722,86.997917 
	C86.934616,77.288986 90.343849,68.811684 96.945709,61.107979 
	C98.446793,62.322533 99.830215,63.623241 99.892365,64.984291 
	C100.145981,70.537491 99.995476,76.109138 99.678543,81.857468 
	C97.202011,82.908836 95.040779,83.776733 92.530266,84.727753 
	C90.437225,85.539879 88.693474,86.268898 86.949722,86.997917 
z"/>
<path fill="#AEAEB0" opacity="1.000000" stroke="none" 
	d="
M97.021324,92.203049 
	C100.769730,90.846794 104.518135,89.490532 108.637985,88.571465 
	C109.010201,91.230576 109.010971,93.452492 108.612350,95.799957 
	C103.826492,95.801384 102.530998,98.161095 102.864700,102.200218 
	C103.104996,105.108826 102.911491,108.053268 102.911491,111.243263 
	C105.730553,111.243263 107.873184,111.243263 110.013855,111.600296 
	C110.013519,112.908844 110.015129,113.860367 109.609787,114.896004 
	C105.474602,115.571091 101.746368,116.162048 98.012680,116.316772 
	C97.106110,112.227097 100.237793,107.461769 95.007858,105.001831 
	C94.948509,103.952042 94.889160,102.902245 95.175301,101.406372 
	C96.161758,99.936272 97.230301,98.959030 97.348595,97.877831 
	C97.551796,96.020401 97.162125,94.098114 97.021324,92.203049 
z"/>
<path fill="#90151B" opacity="1.000000" stroke="none" 
	d="
M99.993851,81.673996 
	C99.995476,76.109138 100.145981,70.537491 99.892365,64.984291 
	C99.830215,63.623241 98.446793,62.322533 97.244217,60.959602 
	C99.945740,57.897884 103.073891,54.870647 106.527557,51.707474 
	C107.235283,56.767147 107.711670,61.958118 107.968201,67.159927 
	C108.154343,70.934624 108.049423,74.723679 107.812401,79.165298 
	C105.031624,80.440834 102.512733,81.057411 99.993851,81.673996 
z"/>
<path fill="#A2A1A1" opacity="1.000000" stroke="none" 
	d="
M220.055328,515.151306 
	C218.159225,516.893555 216.263107,518.635742 213.859177,520.710083 
	C212.236679,522.703308 211.122025,524.364380 209.700104,525.975647 
	C209.191544,525.875488 208.990250,525.825073 208.782593,525.456787 
	C204.161453,519.560303 197.306229,518.889099 191.200531,516.772827 
	C192.932587,515.711792 194.461075,514.899902 196.361023,514.103149 
	C198.159851,513.744080 199.587234,513.369751 201.390930,513.024292 
	C202.511948,512.942810 203.256668,512.832397 204.420746,512.776733 
	C208.064240,512.507568 211.288376,512.183594 214.628128,511.847992 
	C214.425552,508.239380 214.251724,505.142944 214.077896,502.046509 
	C214.504288,502.041504 214.930664,502.036499 215.684799,502.469543 
	C216.137314,507.392609 214.666916,512.404358 220.055328,515.151306 
z"/>
<path fill="#751319" opacity="1.000000" stroke="none" 
	d="
M183.604980,143.168549 
	C180.889038,141.793961 178.575684,139.360626 176.099869,139.182251 
	C165.741470,138.436035 155.334335,138.366287 144.009048,138.042557 
	C134.720184,138.374710 126.367348,138.712936 117.576736,139.035034 
	C113.763878,139.357590 110.388802,139.696289 106.594788,140.026184 
	C104.117752,140.345413 102.059654,140.673462 100.001556,141.001511 
	C98.595764,140.999542 97.189980,140.997589 95.375015,140.736069 
	C94.973869,140.308105 94.981895,140.139709 95.308716,139.940155 
	C96.095497,139.289825 96.563484,138.670639 97.496208,138.042511 
	C104.210655,137.684418 110.456619,137.229660 116.710854,137.008911 
	C128.421387,136.595566 140.137466,136.341202 151.848648,135.944229 
	C152.913956,135.908127 153.960495,135.318665 155.448776,134.978760 
	C157.904282,135.018539 159.926773,135.065735 162.057129,135.474854 
	C164.783356,135.890198 167.401733,135.943649 170.448547,135.987991 
	C173.680862,136.238647 176.484726,136.498428 179.561829,136.780609 
	C180.186203,136.901169 180.537338,136.999329 181.000580,137.424255 
	C182.747940,139.050430 184.383194,140.349838 186.018448,141.649246 
	C185.323257,142.148483 184.628052,142.647720 183.604980,143.168549 
z"/>
<path fill="#DB2D36" opacity="1.000000" stroke="none" 
	d="
M149.997284,45.990269 
	C149.997284,45.990269 149.985016,45.582863 149.986694,45.379089 
	C167.879318,49.837677 183.690994,68.611725 182.273453,84.063934 
	C179.374298,83.015320 176.582382,82.005501 173.271729,80.621178 
	C172.109970,79.995888 171.466934,79.745102 170.948608,79.143478 
	C171.376678,77.868675 171.680054,76.944702 172.388123,76.012375 
	C178.172897,75.646797 179.162369,74.670570 176.374512,70.215408 
	C173.010635,64.839760 168.949356,59.682232 164.301010,55.393818 
	C160.163147,51.576366 154.812622,49.073383 149.997284,45.990269 
z"/>
<path fill="#EBEBEC" opacity="1.000000" stroke="none" 
	d="
M170.823898,79.494308 
	C171.466934,79.745102 172.109970,79.995888 172.926331,80.442352 
	C172.733734,81.583557 172.367828,82.529083 171.556030,83.778191 
	C163.731750,83.086929 156.353394,82.092087 148.975037,81.097244 
	C147.595505,80.993111 146.215958,80.888977 144.010620,80.727959 
	C141.449570,80.747696 139.714325,80.824326 137.979065,80.900955 
	C136.595718,80.884941 135.212357,80.868942 133.097198,80.840500 
	C131.916260,80.764999 131.467133,80.701935 131.017365,80.314331 
	C131.027008,78.913963 131.037277,77.838142 131.047546,76.762329 
	C135.058975,76.541428 139.070404,76.320526 143.967743,76.109421 
	C153.510406,77.244240 162.167145,78.369270 170.823898,79.494308 
z"/>
<path fill="#C8C8C8" opacity="1.000000" stroke="none" 
	d="
M142.989197,84.877869 
	C153.496048,84.723228 163.636154,86.485336 173.145004,91.060242 
	C175.293304,92.093826 177.076050,93.887215 178.980530,95.683769 
	C177.849884,95.708672 176.765747,95.380669 175.339722,95.019974 
	C169.283279,93.978142 163.568756,92.969002 156.957336,91.950409 
	C151.703964,91.951302 147.347458,91.961655 142.994354,91.531624 
	C142.994873,89.020111 142.992035,86.948990 142.989197,84.877869 
z"/>
<path fill="#A5A5A5" opacity="1.000000" stroke="none" 
	d="
M219.015289,500.945770 
	C227.227936,499.952423 234.583801,500.984741 238.615967,509.896362 
	C230.213043,515.357483 219.563187,509.458008 219.015289,500.945770 
z"/>
<path fill="#DB2D36" opacity="1.000000" stroke="none" 
	d="
M210.252563,459.667358 
	C202.600937,458.250916 195.043716,456.445343 187.253632,454.380676 
	C190.447388,453.538116 193.873993,452.954620 197.651398,452.171173 
	C201.665298,451.219757 205.328430,450.468262 209.546158,449.602997 
	C209.813873,452.837433 210.080414,456.057861 210.252563,459.667358 
z"/>
<path fill="#86262B" opacity="1.000000" stroke="none" 
	d="
M131.017990,80.638878 
	C131.467133,80.701935 131.916260,80.764999 132.690536,80.932869 
	C131.204788,81.683548 129.434723,82.716286 127.576393,82.912277 
	C115.814049,84.152840 104.343941,86.397179 93.617851,91.655136 
	C90.600502,93.134247 89.241066,95.096825 90.932312,98.746666 
	C88.055710,98.280075 84.767380,97.895233 85.113327,93.261124 
	C88.074341,91.329338 90.601448,89.897202 93.498833,88.341797 
	C99.584259,86.511574 105.299400,84.804604 111.440613,83.109604 
	C118.250450,82.294006 124.634216,81.466446 131.017990,80.638878 
z"/>
<path fill="#C5212A" opacity="1.000000" stroke="none" 
	d="
M175.469727,268.457062 
	C174.262924,268.458252 173.515900,268.391449 172.398453,267.734375 
	C172.023666,263.145905 171.739044,259.122711 172.092911,255.156464 
	C172.454697,251.101456 171.269699,248.057327 167.915482,245.821594 
	C169.996674,245.937088 172.077881,246.052597 174.522308,246.236237 
	C176.026245,248.696884 177.786911,250.996643 178.162079,253.503708 
	C178.722580,257.249329 178.492950,261.155304 178.198380,264.962006 
	C178.105988,266.155731 176.722198,267.249512 175.469727,268.457062 
z"/>
<path fill="#90151B" opacity="1.000000" stroke="none" 
	d="
M155.015747,134.986176 
	C153.960495,135.318665 152.913956,135.908127 151.848648,135.944229 
	C140.137466,136.341202 128.421387,136.595566 116.710854,137.008911 
	C110.456619,137.229660 104.210655,137.684418 97.173347,138.065582 
	C95.920471,138.722168 95.455193,139.346725 94.989914,139.971298 
	C94.981895,140.139709 94.973869,140.308105 94.953308,140.728897 
	C94.940765,140.981277 94.492493,140.986053 93.862953,140.982117 
	C92.156708,140.979080 91.079994,140.979965 90.003281,140.980850 
	C90.005295,140.590332 90.007309,140.199799 90.055817,139.304504 
	C90.102318,138.799728 89.987534,138.385925 89.987534,138.385925 
	C90.757622,138.207626 91.527710,138.029343 92.839645,137.674194 
	C93.604431,137.324036 93.821495,137.143692 94.421700,136.984070 
	C95.588051,136.961517 96.365402,136.911194 97.395844,136.871475 
	C98.086830,136.674530 98.524712,136.466965 99.305328,136.265625 
	C100.315910,136.123245 100.983749,135.974609 102.102570,135.892136 
	C103.149956,135.863068 103.746361,135.767822 104.654404,135.722870 
	C105.595917,135.810196 106.225784,135.847244 107.266144,135.936539 
	C109.478149,135.707169 111.279671,135.425552 113.405090,135.091858 
	C114.485352,134.636017 115.241714,134.232239 116.180923,134.143951 
	C117.303520,134.610565 118.243256,134.761673 119.465210,134.951019 
	C120.120544,134.944061 120.493675,134.898849 121.298294,134.848541 
	C123.864548,134.523666 125.999321,134.203903 128.417572,133.913239 
	C129.082672,133.950989 129.464294,133.959625 130.301468,134.017944 
	C133.195023,134.075668 135.633026,134.083710 138.412811,134.081573 
	C139.798523,133.800537 140.842468,133.529694 142.294952,133.214233 
	C143.791199,133.066864 144.878922,132.964111 146.190216,133.179352 
	C147.423431,133.577896 148.433044,133.658463 149.776367,133.732178 
	C151.193726,133.622208 152.277405,133.519073 153.665985,133.647949 
	C154.319183,134.248703 154.667465,134.617432 155.015747,134.986176 
z"/>
<path fill="#99171E" opacity="1.000000" stroke="none" 
	d="
M214.032135,501.784912 
	C214.251724,505.142944 214.425552,508.239380 214.628128,511.847992 
	C211.288376,512.183594 208.064240,512.507568 204.419373,512.328491 
	C204.000961,506.731201 203.883102,501.633057 204.044876,496.543762 
	C204.167313,492.691772 204.646622,488.851135 204.967117,485.005432 
	C205.311554,489.367706 205.488113,493.752777 206.076294,498.081940 
	C206.342010,500.037781 207.426758,501.882324 208.139923,503.777344 
	C209.830414,502.985596 211.520920,502.193848 213.495758,501.217957 
	C213.848862,501.196991 213.917618,501.360138 214.032135,501.784912 
z"/>
<path fill="#E5E5E6" opacity="1.000000" stroke="none" 
	d="
M180.888458,137.097488 
	C180.537338,136.999329 180.186203,136.901169 179.574432,136.328400 
	C179.224457,132.533707 179.410919,129.175980 178.964096,125.904747 
	C178.559814,122.944931 180.743576,119.206329 176.013763,115.910545 
	C176.013763,121.879234 176.141998,126.633698 175.923447,131.372162 
	C175.868958,132.553986 174.695831,133.684204 174.023529,134.381577 
	C173.988907,127.991844 173.967606,122.058670 173.946304,116.125496 
	C173.946304,116.125496 173.974030,115.990990 173.997498,115.925102 
	C177.465576,113.869560 180.019714,115.901001 182.828415,118.374458 
	C183.042542,123.879539 183.175217,128.778351 182.939301,133.659348 
	C182.882431,134.835678 181.604736,135.953018 180.888458,137.097488 
z"/>
<path fill="#949293" opacity="1.000000" stroke="none" 
	d="
M218.678528,500.952637 
	C219.563187,509.458008 230.213043,515.357483 238.697174,510.227295 
	C239.683685,511.434387 240.359665,512.873779 241.109375,514.659546 
	C234.398590,513.743164 227.612717,511.615997 220.445480,515.094727 
	C214.666916,512.404358 216.137314,507.392609 216.004745,502.449463 
	C216.778564,501.647369 217.560181,501.303467 218.678528,500.952637 
z"/>
<path fill="#949293" opacity="1.000000" stroke="none" 
	d="
M46.756790,514.227478 
	C50.096714,518.502563 60.339752,519.733459 66.949188,516.376404 
	C67.683487,516.003418 68.359856,515.516418 69.503677,515.447205 
	C69.950043,517.551941 69.955826,519.291809 69.961601,521.031616 
	C60.625473,519.075684 51.503643,521.133118 42.115437,522.207642 
	C43.429943,519.425354 44.974289,516.941589 46.756790,514.227478 
z"/>
<path fill="#86262B" opacity="1.000000" stroke="none" 
	d="
M149.080261,81.477776 
	C156.353394,82.092087 163.731750,83.086929 171.504364,84.155746 
	C176.078339,85.962204 180.348434,87.509880 184.404755,89.494537 
	C186.951187,90.740448 188.317551,92.777679 185.053116,95.366974 
	C183.663910,89.955162 178.990219,88.258057 174.596008,87.195099 
	C166.921799,85.338722 159.041061,84.340790 151.257935,82.922371 
	C150.526764,82.789116 149.874435,82.223289 149.080261,81.477776 
z"/>
<path fill="#C63D44" opacity="1.000000" stroke="none" 
	d="
M181.000580,137.424255 
	C181.604736,135.953018 182.882431,134.835678 182.939301,133.659348 
	C183.175217,128.778351 183.042542,123.879539 183.083832,118.524460 
	C184.120316,119.191475 185.846481,120.242699 185.978485,121.465950 
	C186.364868,125.046593 185.920624,128.710419 186.190308,132.312576 
	C186.349625,134.440567 187.442963,136.487823 187.719299,138.622772 
	C187.843170,139.579712 186.993500,140.662659 186.302032,141.668823 
	C184.383194,140.349838 182.747940,139.050430 181.000580,137.424255 
z"/>
<path fill="#CC222B" opacity="1.000000" stroke="none" 
	d="
M134.944504,29.723732 
	C135.247147,27.557657 135.549789,25.391582 135.852432,23.225508 
	C135.972870,23.227703 136.093323,23.229900 136.213760,23.232096 
	C136.319458,25.282259 136.425156,27.332422 136.610489,30.065636 
	C137.572189,32.880241 137.956009,35.604965 139.522980,36.921101 
	C140.464432,37.711868 143.251053,36.305862 145.208420,35.887123 
	C145.725754,37.054367 146.243088,38.221611 146.311707,39.678200 
	C141.241470,39.605293 136.619949,39.243042 131.997482,38.477081 
	C132.979202,35.290157 133.961853,32.506947 134.944504,29.723732 
z"/>
<path fill="#99171E" opacity="1.000000" stroke="none" 
	d="
M134.558456,29.791897 
	C133.961853,32.506947 132.979202,35.290157 131.579315,38.512810 
	C128.483780,39.292866 125.805458,39.633484 123.127129,39.974102 
	C124.088936,33.632366 128.195480,30.724909 134.558456,29.791897 
z"/>
<path fill="#C63D44" opacity="1.000000" stroke="none" 
	d="
M97.142746,136.860855 
	C96.365402,136.911194 95.588051,136.961517 94.353287,136.567352 
	C93.834473,134.433365 93.773071,132.743866 93.711670,131.054367 
	C93.801880,127.674950 93.892097,124.295532 94.023613,120.134171 
	C94.077507,118.899261 94.090088,118.446281 94.102676,117.993309 
	C94.102676,117.993309 94.350723,117.776787 94.668274,117.607315 
	C95.320518,117.395180 95.655220,117.352509 96.098381,117.487854 
	C96.366684,117.905190 96.579498,118.080009 96.888756,118.638710 
	C97.002396,125.011673 97.072571,130.936264 97.142746,136.860855 
z"/>
<path fill="#B8575D" opacity="1.000000" stroke="none" 
	d="
M90.066055,138.250275 
	C89.987534,138.385925 90.102318,138.799728 90.063759,139.011734 
	C89.140594,139.201157 88.255997,139.178574 87.039490,139.199509 
	C85.308212,129.082458 85.993141,121.739395 89.200027,119.648499 
	C89.200027,125.425323 89.200027,130.765625 89.232132,136.809723 
	C89.264236,137.513519 89.573181,137.880783 89.573181,137.880783 
	C89.573181,137.880783 90.048790,137.816116 90.048790,137.816116 
	C90.048790,137.816116 90.144577,138.114609 90.066055,138.250275 
z"/>
<path fill="#949293" opacity="1.000000" stroke="none" 
	d="
M70.671913,503.655579 
	C64.172066,501.809204 58.560783,502.947052 53.699894,507.746674 
	C52.788998,508.646088 51.584938,509.248596 50.147427,510.046204 
	C52.840374,504.293030 57.838921,501.600586 64.216072,501.025238 
	C66.170036,500.848938 68.100700,500.414276 70.427643,499.993958 
	C70.806763,501.010529 70.800270,502.131104 70.671913,503.655579 
z"/>
<path fill="#86262B" opacity="1.000000" stroke="none" 
	d="
M123.128647,40.311222 
	C125.805458,39.633484 128.483780,39.292866 131.580261,38.916519 
	C136.619949,39.243042 141.241470,39.605293 146.260529,39.996826 
	C145.980103,40.575840 145.302124,41.125568 144.064682,41.448723 
	C137.734848,38.628517 133.266800,39.256500 131.108017,42.964569 
	C129.585312,43.296631 128.062607,43.628696 126.141312,43.924652 
	C128.354980,40.000069 123.133987,42.427486 123.128647,40.311222 
z"/>
<path fill="#EC3645" opacity="1.000000" stroke="none" 
	d="
M145.159622,35.542877 
	C143.251053,36.305862 140.464432,37.711868 139.522980,36.921101 
	C137.956009,35.604965 137.572189,32.880241 136.843872,30.437590 
	C139.702011,31.817205 142.406418,33.507919 145.159622,35.542877 
z"/>
<path fill="#A5A5A5" opacity="1.000000" stroke="none" 
	d="
M95.989914,117.309837 
	C95.655220,117.352509 95.320518,117.395180 94.731506,117.455322 
	C94.564621,113.574196 94.652039,109.675606 94.873657,105.389420 
	C100.237793,107.461769 97.106110,112.227097 97.677383,116.421295 
	C96.894997,117.077980 96.442459,117.193909 95.989914,117.309837 
z"/>
<path fill="#C8C8C8" opacity="1.000000" stroke="none" 
	d="
M93.128555,88.465065 
	C90.601448,89.897202 88.074341,91.329338 85.225449,92.877182 
	C85.385643,91.098351 85.867622,89.203812 86.649666,87.153595 
	C88.693474,86.268898 90.437225,85.539879 92.564606,85.205017 
	C93.008339,86.554466 93.068443,87.509766 93.128555,88.465065 
z"/>
<path fill="#CECECE" opacity="1.000000" stroke="none" 
	d="
M131.551239,42.977829 
	C133.266800,39.256500 137.734848,38.628517 143.769806,41.492599 
	C144.057358,42.129734 144.080338,42.496426 144.105835,43.138237 
	C142.976578,43.336552 141.844818,43.259743 140.371262,43.225677 
	C137.351120,43.175972 134.672791,43.083527 131.551239,42.977829 
z"/>
<path fill="#A5A5A5" opacity="1.000000" stroke="none" 
	d="
M96.646729,92.284119 
	C97.162125,94.098114 97.551796,96.020401 97.348595,97.877831 
	C97.230301,98.959030 96.161758,99.936272 95.140198,101.013519 
	C94.759605,101.066750 94.701302,100.719978 94.781487,100.228317 
	C94.820465,99.479424 94.779251,99.222176 94.738045,98.964928 
	C95.249405,96.765015 95.760765,94.565102 96.646729,92.284119 
z"/>
<path fill="#F8F6F6" opacity="1.000000" stroke="none" 
	d="
M93.489471,131.335068 
	C93.773071,132.743866 93.834473,134.433365 93.964279,136.539581 
	C93.821495,137.143692 93.604431,137.324036 93.173561,137.461945 
	C93.066177,135.489624 93.166725,133.552704 93.489471,131.335068 
z"/>
<path fill="#F8F6F6" opacity="1.000000" stroke="none" 
	d="
M93.798523,118.021164 
	C94.090088,118.446281 94.077507,118.899261 93.947845,119.680962 
	C93.343376,119.731850 92.855995,119.454010 92.368607,119.176178 
	C92.743866,118.800461 93.119125,118.424744 93.798523,118.021164 
z"/>
<path fill="#86262B" opacity="1.000000" stroke="none" 
	d="
M94.475067,98.996735 
	C94.779251,99.222176 94.820465,99.479424 94.922592,100.123428 
	C94.521751,100.441185 94.059990,100.372169 93.294662,100.124565 
	C93.398087,99.640160 93.805084,99.334351 94.475067,98.996735 
z"/>
<path fill="#90151B" opacity="1.000000" stroke="none" 
	d="
M85.791183,140.327148 
	C85.883041,140.728973 85.694672,141.216248 85.281525,141.846924 
	C85.208145,141.464417 85.359550,140.938507 85.791183,140.327148 
z"/>
<path fill="#F8F6F6" opacity="1.000000" stroke="none" 
	d="
M89.964279,137.655853 
	C90.048790,137.816116 89.573181,137.880783 89.573181,137.880783 
	C89.573181,137.880783 89.264236,137.513519 89.296844,137.275787 
	C89.559494,137.134506 89.742935,137.287018 89.964279,137.655853 
z"/>
<path fill="#86262B" opacity="1.000000" stroke="none" 
	d="
M183.377350,96.323555 
	C183.370880,96.056580 183.606949,95.785301 184.109787,95.630150 
	C184.204636,96.043289 183.952423,96.234283 183.377350,96.323555 
z"/>
<path fill="#898A8B" opacity="1.000000" stroke="none" 
	d="
M11.369415,557.909790 
	C16.542915,552.642517 22.868868,549.658569 31.428719,550.873047 
	C36.210468,552.579651 40.105583,554.783081 44.287506,556.004761 
	C54.851555,559.090881 65.666862,558.568604 76.244568,556.301575 
	C82.776253,554.901733 89.519524,552.977478 95.210709,549.651123 
	C99.674271,547.042297 105.160820,543.805664 105.364304,536.802490 
	C105.641663,535.745056 105.691246,534.908813 106.051926,534.053467 
	C106.570587,534.024780 106.778152,534.015259 107.317513,534.038208 
	C108.672462,534.759949 109.695618,535.449341 110.700928,536.126648 
	C107.114861,543.092407 101.276344,548.626160 102.025635,556.887024 
	C86.387688,562.144409 70.589027,564.915833 54.026489,561.526672 
	C48.048740,560.303467 41.762348,560.626038 35.625687,560.132690 
	C27.670204,559.493164 19.723598,558.743347 11.369415,557.909790 
z"/>
<path fill="#838385" opacity="1.000000" stroke="none" 
	d="
M208.788956,525.774658 
	C208.990250,525.825073 209.191544,525.875488 209.696762,526.377563 
	C210.424118,533.703735 214.853943,538.328247 219.038330,543.393799 
	C217.646317,546.480591 216.326370,549.223694 215.009430,552.215698 
	C215.012421,552.464600 215.011597,552.962402 215.011597,552.962402 
	C213.159882,553.030212 211.176865,552.687378 209.477188,553.230774 
	C195.595749,557.669006 181.614960,558.475281 167.214478,554.229248 
	C167.656036,552.738098 168.325607,551.867859 169.356293,551.154907 
	C171.495850,551.485046 173.452850,552.229004 175.023727,551.737976 
	C185.083771,548.593079 195.142212,545.397217 204.995377,541.673523 
	C207.086975,540.883118 209.959869,537.428223 209.580811,535.934998 
	C209.004105,533.663025 205.981155,531.936523 203.840073,530.168457 
	C202.737991,529.258362 201.296448,528.759277 200.375519,527.978638 
	C203.424820,527.180115 206.106888,526.477417 208.788956,525.774658 
z"/>
<path fill="#727276" opacity="1.000000" stroke="none" 
	d="
M102.397331,556.947876 
	C101.276344,548.626160 107.114861,543.092407 110.700928,536.126648 
	C109.695618,535.449341 108.672462,534.759949 107.562073,533.757751 
	C114.024429,532.215881 114.400948,531.041260 110.075882,525.539124 
	C109.594147,524.926392 109.326515,524.145264 109.317596,523.355286 
	C112.857559,525.020447 116.039497,526.772583 119.078224,528.790894 
	C117.943535,530.357666 116.952049,531.658386 115.798058,533.253052 
	C115.791412,537.437134 126.082283,546.547546 130.945007,547.472900 
	C129.282623,551.237610 127.649437,554.655518 126.016251,558.073486 
	C118.267174,557.718567 110.518097,557.363647 102.397331,556.947876 
z"/>
<path fill="#858588" opacity="1.000000" stroke="none" 
	d="
M126.473877,558.169800 
	C127.649437,554.655518 129.282623,551.237610 131.264679,547.274658 
	C134.772034,545.808838 137.883942,544.649780 141.099533,544.020752 
	C146.477493,542.968628 152.053452,542.524475 155.476990,536.914551 
	C156.469421,536.479370 157.202667,536.190857 157.926773,536.270569 
	C157.932053,538.772217 157.946487,540.905640 157.610535,543.033569 
	C156.500900,543.689331 155.741608,544.350525 154.631775,545.068481 
	C153.658234,546.198975 152.274384,547.537354 152.540344,548.302063 
	C153.889557,552.181641 151.542236,554.073425 149.001144,555.997864 
	C141.644592,556.753967 134.288040,557.510010 126.473877,558.169800 
z"/>
<path fill="#747579" opacity="1.000000" stroke="none" 
	d="
M215.317841,553.251526 
	C215.011597,552.962402 215.012421,552.464600 215.394836,552.223389 
	C223.754349,553.963196 228.792923,549.304443 228.771973,539.966980 
	C232.255264,543.034058 237.122116,544.855591 238.018372,550.631165 
	C236.559891,551.970703 235.135651,553.691284 233.652603,553.743530 
	C227.652954,553.955078 221.635178,553.653137 215.317841,553.251526 
z"/>
<path fill="#7B7C7E" opacity="1.000000" stroke="none" 
	d="
M149.236099,556.297607 
	C151.542236,554.073425 153.889557,552.181641 152.540344,548.302063 
	C152.274384,547.537354 153.658234,546.198975 154.642609,545.452271 
	C157.240875,554.814331 158.431564,555.790039 165.025391,553.982666 
	C165.042694,553.987976 165.063980,554.017273 165.050293,554.314880 
	C165.053574,554.810364 165.070557,555.008240 165.087555,555.206177 
	C163.538406,556.415222 161.958694,558.669922 160.446136,558.625671 
	C156.771164,558.518311 153.127396,557.342651 149.236099,556.297607 
z"/>
<path fill="#727276" opacity="1.000000" stroke="none" 
	d="
M168.995148,550.997559 
	C168.325607,551.867859 167.656036,552.738098 166.951538,553.957031 
	C166.737823,554.254517 166.559052,554.203247 165.920715,554.042603 
	C165.461121,553.933289 165.063980,554.017273 165.063980,554.017273 
	C165.063980,554.017273 165.042694,553.987976 165.037994,553.614319 
	C165.013123,552.504517 164.992966,551.768311 165.123337,550.728027 
	C169.382202,547.245667 170.502686,543.358582 168.450272,538.743103 
	C170.890778,539.222412 172.953262,539.587585 174.986069,540.307800 
	C172.969315,544.107727 170.982239,547.552612 168.995148,550.997559 
z"/>
<path fill="#838385" opacity="1.000000" stroke="none" 
	d="
M165.050293,554.314880 
	C165.063980,554.017273 165.461121,553.933289 165.663071,553.935669 
	C165.722427,554.238098 165.579834,554.538025 165.262390,555.022095 
	C165.070557,555.008240 165.053574,554.810364 165.050293,554.314880 
z"/>
<path fill="#7B7C7E" opacity="1.000000" stroke="none" 
	d="
M219.110352,543.050110 
	C214.853943,538.328247 210.424118,533.703735 210.004028,526.427368 
	C211.122025,524.364380 212.236679,522.703308 213.701691,520.994690 
	C213.914902,525.026855 215.858521,527.796021 219.399323,529.645020 
	C223.343033,531.704285 227.241898,533.849487 231.498505,536.046631 
	C230.330536,536.859436 228.824371,537.582947 226.756470,538.596680 
	C223.833282,540.274658 221.471817,541.662354 219.110352,543.050110 
z"/>
<path fill="#AEAEB0" opacity="1.000000" stroke="none" 
	d="
M219.038315,543.393799 
	C221.471817,541.662354 223.833282,540.274658 226.567947,538.875000 
	C227.362823,539.220032 227.784500,539.577087 228.489075,539.950562 
	C228.792923,549.304443 223.754349,553.963196 215.391846,551.974487 
	C216.326370,549.223694 217.646317,546.480591 219.038315,543.393799 
z"/>
<path fill="#CECECE" opacity="1.000000" stroke="none" 
	d="
M105.136520,537.023682 
	C105.160820,543.805664 99.674271,547.042297 95.210709,549.651123 
	C89.519524,552.977478 82.776253,554.901733 76.244568,556.301575 
	C65.666862,558.568604 54.851555,559.090881 44.287506,556.004761 
	C40.105583,554.783081 36.210468,552.579651 31.847427,550.824890 
	C31.108414,549.776001 30.706736,548.725464 30.171459,547.342896 
	C30.037861,547.010925 30.001251,546.997681 30.309227,547.142151 
	C31.068924,546.873291 31.520645,546.459900 31.972376,546.046570 
	C32.166191,545.773987 32.360001,545.501465 33.024887,545.117920 
	C33.495964,545.006958 33.988171,545.012573 34.080414,545.179443 
	C34.435497,545.222107 34.698341,545.097839 35.135036,544.666748 
	C38.546036,542.581238 41.783184,540.802490 45.020325,539.023743 
	C45.020325,539.023743 45.001408,539.000000 45.387337,539.013794 
	C47.856060,538.025574 49.938854,537.023499 52.021645,536.021362 
	C52.021641,536.021362 52.001461,535.998657 52.374275,536.010864 
	C54.856812,535.019958 56.966530,534.016846 59.076252,533.013794 
	C59.076252,533.013794 59.544033,533.008667 60.042049,532.877380 
	C61.034496,532.168091 61.528927,531.590088 62.023346,531.012085 
	C62.023338,531.012085 61.999702,530.997559 62.305565,530.990295 
	C63.095894,530.658752 63.580353,530.334473 64.064819,530.010132 
	C66.894478,528.903442 69.673836,527.634888 72.567894,526.735352 
	C75.485725,525.828491 78.517448,525.288086 82.111404,524.258301 
	C83.819710,524.343933 84.915894,524.758484 86.211227,525.392456 
	C86.794350,525.663940 87.178337,525.715942 87.816277,525.755310 
	C88.369751,525.894592 88.669266,526.046570 89.022278,526.507812 
	C90.374397,527.252441 91.673019,527.687805 93.297638,528.092468 
	C94.052086,528.137512 94.480545,528.213257 94.998329,528.541809 
	C95.375633,529.235779 95.663605,529.676819 96.023384,530.450562 
	C99.108963,532.863342 102.122742,534.943542 105.136520,537.023682 
z"/>
<path fill="#CC222B" opacity="1.000000" stroke="none" 
	d="
M169.940277,360.820557 
	C170.087936,361.165649 169.912292,361.509521 169.387817,361.612976 
	C163.907776,362.122742 158.952194,362.529053 153.552582,362.850525 
	C150.404373,362.777191 147.700211,362.788696 144.996918,362.344055 
	C144.997925,334.936890 144.998062,307.985840 145.371429,280.929810 
	C146.506729,280.711182 147.268784,280.597565 148.030853,280.483917 
	C148.186340,280.573120 148.341843,280.662354 148.740936,280.864960 
	C150.788239,291.552246 151.766418,302.352234 154.585892,312.647949 
	C159.000778,328.769562 164.660294,344.550293 169.940277,360.820557 
z"/>
<path fill="#DB2D36" opacity="1.000000" stroke="none" 
	d="
M170.470215,349.653442 
	C169.102219,347.857971 168.108170,346.199799 167.114136,344.541626 
	C168.195129,344.034210 169.270767,343.154602 170.358856,343.138916 
	C171.205994,343.126709 172.870239,344.365570 172.787079,344.745178 
	C172.405869,346.485413 171.537582,348.118958 170.470215,349.653442 
z"/>
<path fill="#EBEBEC" opacity="1.000000" stroke="none" 
	d="
M148.022858,280.092346 
	C147.268784,280.597565 146.506729,280.711182 144.914185,280.849121 
	C140.059067,280.842529 136.034454,280.811584 132.007629,280.326355 
	C132.005478,253.082367 132.005524,226.292740 132.455994,199.401886 
	C136.602905,199.155930 140.299408,199.011154 144.419067,198.955841 
	C146.566727,199.102768 148.291260,199.160217 150.015778,199.217682 
	C148.888550,207.356277 147.340942,215.464142 146.743393,223.641449 
	C146.039627,233.272324 145.971634,242.963669 145.987534,252.628204 
	C145.998093,259.048431 146.584442,265.471344 147.023972,271.885468 
	C147.203201,274.500946 147.675751,277.096283 148.022858,280.092346 
z"/>
<path fill="#CE222B" opacity="1.000000" stroke="none" 
	d="
M150.258636,199.110016 
	C148.291260,199.160217 146.566727,199.102768 144.419678,198.496292 
	C143.999252,183.633591 144.001389,169.319931 144.008438,154.763489 
	C144.013351,154.520721 144.016785,154.035095 144.016785,154.035095 
	C150.796127,150.938553 157.531281,147.738312 164.385681,144.817947 
	C166.111404,144.082703 168.218933,144.243591 170.582184,144.006500 
	C169.795441,147.091080 168.600388,150.162003 170.662323,153.781311 
	C169.597290,156.219467 168.808838,158.137726 168.020386,160.055984 
	C166.435181,162.496078 164.849991,164.936188 162.854218,167.892242 
	C161.962967,169.942581 161.482285,171.476959 161.001587,173.011337 
	C158.760468,177.541153 156.269348,181.968582 154.358459,186.633652 
	C152.867172,190.274353 152.096817,194.210358 150.994507,198.396423 
	C150.822449,198.852570 150.661957,198.927460 150.258636,199.110016 
z"/>
<path fill="#850303" opacity="1.000000" stroke="none" 
	d="
M167.526779,245.786041 
	C171.269699,248.057327 172.454697,251.101456 172.092911,255.156464 
	C171.739044,259.122711 172.023666,263.145905 172.040558,267.618469 
	C168.783203,268.241974 165.513275,268.391113 161.770676,268.561829 
	C161.770676,262.262390 161.344284,256.428589 162.017151,250.724442 
	C162.233475,248.890610 165.348938,247.398788 167.526779,245.786041 
z"/>
<path fill="#F2F2F2" opacity="1.000000" stroke="none" 
	d="
M153.996613,362.935394 
	C158.952194,362.529053 163.907776,362.122742 169.305634,361.787628 
	C171.831924,369.214020 175.418991,376.509735 175.712799,383.935730 
	C176.532349,404.649078 175.987045,425.416473 175.628006,446.569885 
	C173.877625,445.848663 172.284210,444.891968 171.115509,443.562012 
	C165.696991,437.395660 160.396362,431.125702 155.001892,424.562439 
	C154.275696,422.824371 153.601135,421.416656 153.237839,419.726166 
	C153.699417,417.649963 153.976868,415.856781 153.980240,414.063049 
	C154.012253,397.020538 153.997742,379.977966 153.996613,362.935394 
z"/>
<path fill="#C8C8C8" opacity="1.000000" stroke="none" 
	d="
M155.053528,424.892822 
	C160.396362,431.125702 165.696991,437.395660 171.115509,443.562012 
	C172.284210,444.891968 173.877625,445.848663 175.612183,447.045441 
	C178.829453,449.211914 181.709961,451.310272 184.803894,453.662964 
	C181.617508,454.382172 178.217697,454.847046 174.002365,455.370880 
	C167.145294,455.724243 161.103729,456.018646 155.044540,455.819702 
	C155.035782,445.181824 155.044647,435.037323 155.053528,424.892822 
z"/>
<path fill="#B1B0B2" opacity="1.000000" stroke="none" 
	d="
M85.002136,453.931641 
	C85.334740,451.323486 85.948174,448.716217 85.956818,446.106995 
	C86.050331,417.882355 86.048790,389.657410 86.118149,360.918182 
	C88.765831,360.667725 91.368553,360.931610 94.473572,361.320801 
	C94.975861,361.446075 95.061470,361.810822 95.043655,362.218475 
	C95.811417,364.151733 96.596992,365.677307 97.128670,367.506897 
	C96.214287,369.580292 95.063156,371.328583 94.985657,373.123199 
	C94.756348,378.432648 94.951042,383.760437 94.989746,389.544556 
	C94.981506,411.733246 94.963417,433.458466 94.513046,455.235352 
	C92.052673,455.221619 90.024582,455.156219 87.694427,454.979614 
	C86.595612,454.556122 85.798874,454.243896 85.002136,453.931641 
z"/>
<path fill="#90151B" opacity="1.000000" stroke="none" 
	d="
M95.061470,361.810822 
	C95.061470,361.810822 94.975861,361.446075 94.907814,361.271667 
	C95.226303,359.409058 95.938942,357.722717 95.948486,356.032410 
	C96.035248,340.667419 95.999359,325.301727 96.269562,309.238220 
	C96.365326,307.018829 96.190887,305.497437 96.016449,303.976074 
	C96.017998,296.367584 96.019539,288.759094 96.044571,280.699890 
	C96.068054,280.249146 96.019226,280.017151 96.411308,279.997528 
	C98.867691,280.004364 100.931999,280.030823 103.260452,280.152710 
	C104.039787,280.435699 104.554955,280.623230 105.049042,281.256561 
	C105.351624,308.481689 105.675285,335.261047 105.544052,362.093567 
	C101.746597,362.034760 98.404037,361.922791 95.061470,361.810822 
z"/>
<path fill="#751319" opacity="1.000000" stroke="none" 
	d="
M95.650162,303.945374 
	C96.190887,305.497437 96.365326,307.018829 96.269684,308.769501 
	C95.504654,308.997711 95.000458,308.934052 94.516243,309.005615 
	C91.265213,309.486115 90.480072,307.274231 90.552376,304.869965 
	C90.563362,304.504425 93.630371,304.230804 95.650162,303.945374 
z"/>
<path fill="#6E161B" opacity="1.000000" stroke="none" 
	d="
M86.012085,525.172974 
	C84.915894,524.758484 83.819710,524.343933 82.366501,523.966309 
	C78.256020,523.067322 74.502563,522.131409 70.355347,521.113525 
	C69.955826,519.291809 69.950043,517.551941 69.858810,515.385010 
	C69.847481,514.789917 69.921616,514.621948 70.133377,514.215210 
	C73.269905,514.957397 76.268806,515.938416 80.030991,516.966125 
	C82.859077,517.349976 84.923866,517.687134 86.991997,518.454468 
	C87.004066,520.896484 87.012810,522.908386 86.768021,524.978760 
	C86.347023,525.082581 86.179558,525.127747 86.012085,525.172974 
z"/>
<path fill="#B5B2B4" opacity="1.000000" stroke="none" 
	d="
M33.988171,545.012573 
	C33.988171,545.012573 33.495964,545.006958 33.249966,545.001038 
	C36.753189,543.001892 40.502407,541.008728 44.635979,539.019653 
	C41.783184,540.802490 38.546036,542.581238 34.891991,544.676880 
	C34.475094,544.993713 33.988171,545.012573 33.988171,545.012573 
z"/>
<path fill="#B5B2B4" opacity="1.000000" stroke="none" 
	d="
M51.651543,536.017456 
	C49.938854,537.023499 47.856060,538.025574 45.393196,539.026978 
	C47.102566,538.022034 49.192001,537.017761 51.651543,536.017456 
z"/>
<path fill="#B5B2B4" opacity="1.000000" stroke="none" 
	d="
M58.700321,533.011353 
	C56.966530,534.016846 54.856812,535.019958 52.378761,536.024841 
	C54.115089,535.020752 56.219742,534.014832 58.700321,533.011353 
z"/>
<path fill="#B5B2B4" opacity="1.000000" stroke="none" 
	d="
M61.700768,531.047729 
	C61.528927,531.590088 61.034496,532.168091 60.275658,532.865723 
	C60.466892,532.351318 60.922539,531.717346 61.700768,531.047729 
z"/>
<path fill="#B5B2B4" opacity="1.000000" stroke="none" 
	d="
M63.756393,530.026001 
	C63.580353,530.334473 63.095894,530.658752 62.307571,531.003967 
	C62.485130,530.697205 62.966553,530.369507 63.756393,530.026001 
z"/>
<path fill="#747579" opacity="1.000000" stroke="none" 
	d="
M31.658112,546.015503 
	C31.520645,546.459900 31.068924,546.873291 30.309706,547.161682 
	C30.449425,546.685974 30.896641,546.335266 31.658112,546.015503 
z"/>
<path fill="#841319" opacity="1.000000" stroke="none" 
	d="
M86.988663,518.024292 
	C84.923866,517.687134 82.859077,517.349976 80.400543,517.002747 
	C80.659187,513.263611 77.950020,508.490692 83.455734,506.188721 
	C83.914215,505.997040 84.158264,503.514954 83.642853,503.050659 
	C79.248116,499.091492 80.095528,493.853088 80.044716,488.927490 
	C79.926453,477.462250 80.044014,465.994568 80.110847,454.020203 
	C81.500771,453.672455 82.845863,453.832428 84.596542,453.962006 
	C85.798874,454.243896 86.595612,454.556122 87.695496,455.441650 
	C88.001511,467.006989 88.004372,477.999023 87.600029,488.996552 
	C86.140816,489.887756 85.088814,490.773438 84.036804,491.659119 
	C85.360962,492.443573 86.685112,493.228027 88.006332,494.480347 
	C88.001869,502.632935 88.000328,510.317688 87.746208,518.006042 
	C87.325310,518.014526 87.156990,518.019409 86.988663,518.024292 
z"/>
<path fill="#B3212A" opacity="1.000000" stroke="none" 
	d="
M168.387512,160.046616 
	C168.808838,158.137726 169.597290,156.219467 170.704498,154.135437 
	C171.683670,155.380478 172.344086,156.791306 172.996002,158.597992 
	C171.576569,159.341644 170.165604,159.689453 168.387512,160.046616 
z"/>
<path fill="#DB2D36" opacity="1.000000" stroke="none" 
	d="
M161.156784,173.317429 
	C161.482285,171.476959 161.962967,169.942581 162.723083,168.203888 
	C163.502945,169.903580 164.003372,171.807571 164.503784,173.711578 
	C163.439850,173.682220 162.375900,173.652863 161.156784,173.317429 
z"/>
<path fill="#B9B8B9" opacity="1.000000" stroke="none" 
	d="
M105.070122,280.810760 
	C104.554955,280.623230 104.039787,280.435699 103.261673,279.679535 
	C102.999161,255.633835 103.022552,232.156723 102.956718,208.679840 
	C102.951408,206.785690 102.333298,204.893234 101.999947,203.000000 
	C102.010445,201.981583 102.020943,200.963150 102.049164,199.563354 
	C102.066879,199.181976 102.026176,198.981094 102.396591,198.975388 
	C104.177284,198.936081 105.587570,198.902496 107.444336,198.961517 
	C110.926979,199.034012 113.963127,199.013885 117.386665,199.080231 
	C118.551964,199.293304 119.329887,199.419907 120.084229,199.927658 
	C118.706261,213.145935 116.652191,225.957764 116.186737,238.827057 
	C115.682793,252.760559 116.660599,266.747650 117.026993,280.821869 
	C117.061821,280.932343 117.029678,281.161774 116.577087,281.066284 
	C112.439713,280.917480 108.754913,280.864105 105.070122,280.810760 
z"/>
<path fill="#B5B2B4" opacity="1.000000" stroke="none" 
	d="
M101.583298,203.000183 
	C102.333298,204.893234 102.951408,206.785690 102.956718,208.679840 
	C103.022552,232.156723 102.999161,255.633835 102.997520,279.584106 
	C100.931999,280.030823 98.867691,280.004364 96.368439,279.887024 
	C95.955635,256.327606 95.987099,232.859039 95.990036,209.390488 
	C95.990486,205.810928 96.133530,202.453400 101.583298,203.000183 
z"/>
<path fill="#A51B23" opacity="1.000000" stroke="none" 
	d="
M155.062180,456.313049 
	C161.103729,456.018646 167.145294,455.724243 173.591980,455.536835 
	C174.560577,459.191376 175.124039,462.738922 175.618835,466.925659 
	C170.246078,469.693481 164.249664,470.986938 162.990280,477.991333 
	C162.999390,477.998779 162.978897,477.981995 162.622757,478.049866 
	C161.753494,478.909790 160.899597,479.654083 160.780838,480.501404 
	C159.775467,487.674896 158.594833,494.845032 158.077484,502.059937 
	C157.533188,509.650696 155.750839,512.996460 148.215408,513.926453 
	C141.248154,514.786255 134.082047,514.034607 126.992157,513.570435 
	C126.653870,510.195007 126.062202,507.243530 126.044258,504.288513 
	C125.949165,488.628479 125.998222,472.967590 126.440681,457.223938 
	C129.590744,457.061859 132.297455,456.982849 135.467255,456.977570 
	C142.307617,456.805237 148.684906,456.559143 155.062180,456.313049 
z"/>
<path fill="#751319" opacity="1.000000" stroke="none" 
	d="
M204.966583,484.606323 
	C204.646622,488.851135 204.167313,492.691772 204.044876,496.543762 
	C203.883102,501.633057 204.000961,506.731201 204.000000,512.273804 
	C203.256668,512.832397 202.511948,512.942810 201.385422,512.556152 
	C201.004135,502.605835 200.837982,493.148407 201.067810,483.700623 
	C201.205170,478.053528 198.488251,474.217743 193.662064,472.583679 
	C189.720032,471.248962 185.246292,471.484680 180.688202,471.043762 
	C179.578751,471.377838 178.789383,471.692230 177.634949,472.041016 
	C167.259109,475.539612 164.015289,480.030487 164.010284,490.436798 
	C164.005722,499.911774 164.002945,509.386780 163.630920,518.956177 
	C162.504623,519.046753 161.746796,519.042969 160.992432,518.567993 
	C160.997269,515.601501 160.878159,513.099182 161.020828,510.611847 
	C161.644806,499.733612 159.294296,488.674744 162.978897,477.981995 
	C162.978897,477.981995 162.999390,477.998779 163.295959,477.854492 
	C168.735580,474.443176 173.878616,471.176147 179.021652,467.909119 
	C183.735458,468.132843 188.631882,467.624115 193.122345,468.743683 
	C200.786484,470.654572 204.072632,476.701447 204.966583,484.606323 
z"/>
<path fill="#87171D" opacity="1.000000" stroke="none" 
	d="
M178.801727,467.664124 
	C173.878616,471.176147 168.735580,474.443176 163.286865,477.847046 
	C164.249664,470.986938 170.246078,469.693481 175.774979,467.295349 
	C176.860474,467.156952 177.721146,467.288055 178.801727,467.664124 
z"/>
<path fill="#EC3645" opacity="1.000000" stroke="none" 
	d="
M149.575180,45.997002 
	C154.812622,49.073383 160.163147,51.576366 164.301010,55.393818 
	C168.949356,59.682232 173.010635,64.839760 176.374512,70.215408 
	C179.162369,74.670570 178.172897,75.646797 172.070160,75.870026 
	C161.905167,69.145119 152.462830,62.554207 143.020508,55.963299 
	C139.248184,48.500729 140.711029,46.124989 149.575180,45.997002 
z"/>
<path fill="#CE222B" opacity="1.000000" stroke="none" 
	d="
M143.014267,56.395729 
	C152.462830,62.554207 161.905167,69.145119 171.665466,75.878372 
	C171.680054,76.944702 171.376678,77.868675 170.948608,79.143478 
	C162.167145,78.369270 153.510406,77.244240 144.425781,76.025009 
	C143.667953,69.563255 143.337982,63.195705 143.014267,56.395729 
z"/>
<path fill="#E5E5E6" opacity="1.000000" stroke="none" 
	d="
M131.017365,80.314331 
	C124.634216,81.466446 118.250450,82.294006 111.431961,82.722900 
	C111.009598,81.293419 111.021957,80.262611 111.034317,79.231812 
	C113.532562,78.768105 116.030815,78.304398 118.861061,77.678322 
	C122.877625,77.183472 126.562187,76.850998 130.647156,76.640427 
	C131.037277,77.838142 131.027008,78.913963 131.017365,80.314331 
z"/>
<path fill="#90151B" opacity="1.000000" stroke="none" 
	d="
M106.997856,198.868896 
	C105.587570,198.902496 104.177284,198.936081 102.351463,198.883362 
	C97.755348,179.964447 101.051964,160.877533 100.001892,141.469971 
	C102.059654,140.673462 104.117752,140.345413 106.590210,140.490891 
	C107.002342,160.265915 107.000099,179.567398 106.997856,198.868896 
z"/>
<path fill="#751319" opacity="1.000000" stroke="none" 
	d="
M89.879272,141.282806 
	C91.079994,140.979965 92.156708,140.979080 93.638840,140.986450 
	C93.521248,142.165421 92.998230,143.336136 91.782539,146.057312 
	C90.815506,143.923859 90.285378,142.754318 89.879272,141.282806 
z"/>
<path fill="#CFCFCF" opacity="1.000000" stroke="none" 
	d="
M110.674927,79.176292 
	C111.021957,80.262611 111.009598,81.293419 111.005890,82.710938 
	C105.299400,84.804604 99.584259,86.511574 93.498833,88.341797 
	C93.068443,87.509766 93.008339,86.554466 92.913887,85.121902 
	C95.040779,83.776733 97.202011,82.908836 99.678543,81.857460 
	C102.512733,81.057411 105.031624,80.440834 107.859634,79.663452 
	C108.884354,79.375359 109.599945,79.248070 110.674927,79.176292 
z"/>
<path fill="#EBEBEC" opacity="1.000000" stroke="none" 
	d="
M142.990967,91.972015 
	C147.347458,91.961655 151.703964,91.951302 156.523544,91.955307 
	C156.984787,98.707985 156.982941,105.446304 156.510223,112.750053 
	C150.694916,113.165085 145.350479,113.014679 140.003387,112.404846 
	C140.001984,105.637314 140.003265,99.329201 140.319839,92.973877 
	C141.420425,92.608452 142.205688,92.290230 142.990967,91.972015 
z"/>
<path fill="#86262B" opacity="1.000000" stroke="none" 
	d="
M140.006042,112.864281 
	C145.350479,113.014679 150.694916,113.165085 156.497589,113.227127 
	C159.561752,113.520538 162.167664,113.902306 164.834961,114.909996 
	C164.300217,115.695679 163.704071,115.855446 162.729202,116.016693 
	C161.849319,116.071892 161.348160,116.125603 160.455200,116.093689 
	C158.755142,115.995018 157.446899,115.981972 155.738510,115.976074 
	C154.809647,116.049652 154.280945,116.116074 153.476196,116.017853 
	C151.787979,115.866806 150.375793,115.880394 148.584854,115.908661 
	C147.451614,115.962685 146.697144,116.002029 145.540726,116.011406 
	C143.798294,116.010307 142.457809,116.039192 140.721222,116.028633 
	C139.530304,116.015457 138.735458,116.041725 137.569366,116.031029 
	C136.210785,116.065186 135.223450,116.136299 133.879364,116.154457 
	C132.322418,116.651146 131.122253,117.200783 129.722443,117.772545 
	C129.522812,117.794670 129.151566,117.641129 128.926971,117.331818 
	C126.456367,116.762215 124.210342,116.501923 121.624619,116.198730 
	C120.606674,116.171654 119.928421,116.187485 118.924950,116.176636 
	C117.773445,116.762886 116.947174,117.375824 115.894882,117.663223 
	C114.405975,117.199509 113.143097,117.061340 111.504105,116.939636 
	C110.377205,117.015671 109.626404,117.075233 108.501167,117.094086 
	C106.770264,117.404373 105.413803,117.755371 103.652420,118.066635 
	C102.709091,118.090950 102.170700,118.154999 101.312180,118.169846 
	C100.352486,118.159378 99.712914,118.198112 98.705521,118.188622 
	C97.840233,118.157043 97.342766,118.173691 96.845299,118.190338 
	C96.579498,118.080009 96.366684,117.905190 96.098381,117.487854 
	C96.442459,117.193909 96.894997,117.077980 97.682838,116.857529 
	C101.746368,116.162048 105.474602,115.571091 110.019928,114.937027 
	C115.251724,114.413139 119.666420,113.932358 124.542938,113.490196 
	C130.005188,113.307312 135.005615,113.085800 140.006042,112.864281 
z"/>
<path fill="#C63D44" opacity="1.000000" stroke="none" 
	d="
M174.036865,134.838135 
	C174.695831,133.684204 175.868958,132.553986 175.923447,131.372162 
	C176.141998,126.633698 176.013763,121.879234 176.013763,115.910545 
	C180.743576,119.206329 178.559814,122.944931 178.964096,125.904747 
	C179.410919,129.175980 179.224457,132.533707 179.301208,136.305969 
	C176.484726,136.498428 173.680862,136.238647 170.304443,135.715088 
	C169.109222,134.926178 168.486511,134.401031 167.877579,133.491150 
	C167.857117,127.368179 167.822891,121.629944 167.788681,115.891708 
	C169.177185,115.962425 170.565704,116.033142 171.993774,116.396194 
	C171.731949,122.371895 171.378937,128.054153 171.255951,133.741394 
	C171.248474,134.086761 173.067627,134.471634 174.036865,134.838135 
z"/>
<path fill="#CFCFCF" opacity="1.000000" stroke="none" 
	d="
M167.508469,115.887863 
	C167.822891,121.629944 167.857117,127.368179 167.659058,133.540100 
	C167.426773,133.973770 167.007126,134.129074 166.570435,134.062515 
	C165.059082,133.062607 163.106628,132.173248 163.057266,131.188507 
	C162.804443,126.144264 163.041870,121.075447 163.107941,116.015213 
	C163.704071,115.855446 164.300217,115.695679 165.050064,115.261398 
	C165.878601,115.285934 166.553436,115.584969 167.508469,115.887863 
z"/>
<path fill="#B5B2B4" opacity="1.000000" stroke="none" 
	d="
M174.023529,134.381577 
	C173.067627,134.471634 171.248474,134.086761 171.255951,133.741394 
	C171.378937,128.054153 171.731949,122.371895 172.286499,116.428505 
	C172.773529,116.139946 173.007416,116.111412 173.593811,116.104187 
	C173.967606,122.058670 173.988907,127.991844 174.023529,134.381577 
z"/>
<path fill="#A11921" opacity="1.000000" stroke="none" 
	d="
M120.107803,199.546524 
	C119.329887,199.419907 118.551964,199.293304 117.440315,198.665344 
	C117.404381,196.052048 117.951744,193.941162 117.960648,191.828018 
	C118.034790,174.235977 118.009666,156.643509 118.014511,139.051178 
	C126.367348,138.712936 134.720184,138.374710 143.541504,138.063019 
	C144.007919,143.090942 144.005875,148.092316 144.010315,153.564392 
	C144.016785,154.035095 144.013351,154.520721 143.706635,154.904572 
	C130.435043,167.055664 123.914993,182.123306 120.776207,199.166092 
	C120.406319,199.379959 120.257057,199.463242 120.107803,199.546524 
z"/>
<path fill="#B9B8B9" opacity="1.000000" stroke="none" 
	d="
M124.081116,113.451569 
	C119.666420,113.932358 115.251724,114.413139 110.426880,114.852905 
	C110.015129,113.860367 110.013519,112.908844 110.439461,111.516388 
	C111.918831,110.056038 113.583145,109.189728 113.884819,107.982826 
	C114.389313,105.964523 113.794922,103.698494 114.073326,101.590935 
	C114.601936,97.589302 112.935143,95.733948 109.011734,95.674408 
	C109.010971,93.452492 109.010201,91.230576 109.012726,88.592262 
	C113.687241,87.291519 118.358459,86.407173 123.493073,86.058525 
	C124.335686,91.735527 124.714920,96.876839 125.026581,102.399933 
	C124.666374,106.338333 124.373749,109.894951 124.081116,113.451569 
z"/>
<path fill="#BEBEBE" opacity="1.000000" stroke="none" 
	d="
M125.094154,102.018143 
	C124.714920,96.876839 124.335686,91.735527 123.927315,86.094597 
	C130.015945,85.264641 136.133713,84.934311 142.620331,84.740921 
	C142.992035,86.948990 142.994873,89.020111 142.994354,91.531624 
	C142.205688,92.290230 141.420425,92.608452 139.950317,92.999191 
	C134.541702,96.053856 129.817932,99.036003 125.094154,102.018143 
z"/>
<path fill="#86262B" opacity="1.000000" stroke="none" 
	d="
M138.214996,81.192627 
	C139.714325,80.824326 141.449570,80.747696 143.601379,80.805168 
	C142.162262,81.120941 140.306595,81.302620 138.214996,81.192627 
z"/>
<path fill="#4C0708" opacity="1.000000" stroke="none" 
	d="
M108.612350,95.799957 
	C112.935143,95.733948 114.601936,97.589302 114.073326,101.590935 
	C113.794922,103.698494 114.389313,105.964523 113.884819,107.982826 
	C113.583145,109.189728 111.918831,110.056038 110.441422,111.159348 
	C107.873184,111.243263 105.730553,111.243263 102.911491,111.243263 
	C102.911491,108.053268 103.104996,105.108826 102.864700,102.200218 
	C102.530998,98.161095 103.826492,95.801384 108.612350,95.799957 
z"/>
<path fill="#562910" opacity="1.000000" stroke="none" 
	d="
M178.000000,472.006622 
	C178.789383,471.692230 179.578751,471.377838 180.941467,471.316528 
	C193.312592,473.634430 195.996994,476.811249 195.995087,488.708069 
	C195.993713,497.168060 195.991440,505.628021 195.989563,514.088013 
	C194.461075,514.899902 192.932587,515.711792 190.785919,516.794800 
	C186.128799,517.775330 182.089874,518.484741 178.035461,518.712036 
	C178.013336,502.822205 178.006668,487.414398 178.000000,472.006622 
z"/>
<path fill="#CECECE" opacity="1.000000" stroke="none" 
	d="
M178.050934,519.194153 
	C182.089874,518.484741 186.128799,517.775330 190.582352,517.043945 
	C197.306229,518.889099 204.161453,519.560303 208.782593,525.456787 
	C206.106888,526.477417 203.424820,527.180115 200.015305,527.996704 
	C191.197159,532.057983 183.106461,536.005371 175.015747,539.952820 
	C172.953262,539.587585 170.890778,539.222412 168.288208,538.484009 
	C165.849762,536.056335 163.951416,534.001709 162.089264,531.607422 
	C163.235443,529.856140 164.116989,528.143799 165.500732,527.092468 
	C168.882751,524.522827 172.497009,522.258972 176.296661,519.834717 
	C177.067352,519.596375 177.559143,519.395264 178.050934,519.194153 
z"/>
<path fill="#530E11" opacity="1.000000" stroke="none" 
	d="
M196.361023,514.103149 
	C195.991440,505.628021 195.993713,497.168060 195.995087,488.708069 
	C195.996994,476.811249 193.312592,473.634430 181.261551,471.296906 
	C185.246292,471.484680 189.720032,471.248962 193.662064,472.583679 
	C198.488251,474.217743 201.205170,478.053528 201.067810,483.700623 
	C200.837982,493.148407 201.004135,502.605835 201.009094,512.527344 
	C199.587234,513.369751 198.159851,513.744080 196.361023,514.103149 
z"/>
<path fill="#99171E" opacity="1.000000" stroke="none" 
	d="
M117.576736,139.035034 
	C118.009666,156.643509 118.034790,174.235977 117.960648,191.828018 
	C117.951744,193.941162 117.404381,196.052048 117.052933,198.578857 
	C113.963127,199.013885 110.926979,199.034012 107.444336,198.961517 
	C107.000099,179.567398 107.002342,160.265915 107.009155,140.499695 
	C110.388802,139.696289 113.763878,139.357590 117.576736,139.035034 
z"/>
<path fill="#C63D44" opacity="1.000000" stroke="none" 
	d="
M162.729202,116.016693 
	C163.041870,121.075447 162.804443,126.144264 163.057266,131.188507 
	C163.106628,132.173248 165.059082,133.062607 166.316681,134.339203 
	C164.982819,134.825958 163.466034,134.969452 161.949249,135.112930 
	C159.926773,135.065735 157.904282,135.018539 155.448776,134.978760 
	C154.667465,134.617432 154.319183,134.248703 153.714630,133.230392 
	C153.556335,127.114716 153.654282,121.648613 153.752228,116.182503 
	C154.280945,116.116074 154.809647,116.049652 155.725922,116.449455 
	C156.113464,122.465530 156.113464,128.015381 156.113464,133.565216 
	C156.752930,133.806686 157.392380,134.048141 158.031845,134.289597 
	C158.962280,132.896149 160.583755,131.555634 160.695328,130.099442 
	C161.049057,125.482628 160.839066,120.822624 160.847015,116.179321 
	C161.348160,116.125603 161.849319,116.071892 162.729202,116.016693 
z"/>
<path fill="#90151B" opacity="1.000000" stroke="none" 
	d="
M162.057129,135.474854 
	C163.466034,134.969452 164.982819,134.825958 166.753357,134.405762 
	C167.007126,134.129074 167.426773,133.973770 167.645294,133.924835 
	C168.486511,134.401031 169.109222,134.926178 169.876007,135.724213 
	C167.401733,135.943649 164.783356,135.890198 162.057129,135.474854 
z"/>
<path fill="#841319" opacity="1.000000" stroke="none" 
	d="
M95.308716,139.940155 
	C95.455193,139.346725 95.920471,138.722168 96.708603,138.074539 
	C96.563484,138.670639 96.095497,139.289825 95.308716,139.940155 
z"/>
<path fill="#B8575D" opacity="1.000000" stroke="none" 
	d="
M121.964310,116.241638 
	C124.210342,116.501923 126.456367,116.762215 128.739929,117.709808 
	C125.722961,123.441460 126.433395,128.642227 128.134094,133.884125 
	C125.999321,134.203903 123.864548,134.523666 121.484146,134.474106 
	C121.480453,128.150391 121.722382,122.196014 121.964310,116.241638 
z"/>
<path fill="#CFCFCF" opacity="1.000000" stroke="none" 
	d="
M153.476196,116.017853 
	C153.654282,121.648613 153.556335,127.114716 153.409729,132.998383 
	C152.277405,133.519073 151.193726,133.622208 149.688263,133.289551 
	C149.165512,127.200500 149.064560,121.547249 148.963593,115.893982 
	C150.375793,115.880394 151.787979,115.866806 153.476196,116.017853 
z"/>
<path fill="#A2A1A1" opacity="1.000000" stroke="none" 
	d="
M104.057343,118.106369 
	C105.413803,117.755371 106.770264,117.404373 108.533020,117.549461 
	C108.946274,122.492607 109.130653,126.950378 108.863213,131.380890 
	C108.770500,132.916809 107.557152,134.385101 106.855652,135.884293 
	C106.225784,135.847244 105.595917,135.810196 104.603699,135.287964 
	C104.180016,129.237320 104.118683,123.671837 104.057343,118.106369 
z"/>
<path fill="#B8575D" opacity="1.000000" stroke="none" 
	d="
M129.922089,117.750427 
	C131.122253,117.200783 132.322418,116.651146 133.853241,116.579010 
	C134.782150,121.879494 135.307709,126.713860 136.060989,131.512482 
	C136.167648,132.191895 137.383163,132.697235 138.083420,133.485321 
	C138.081375,133.687500 138.071030,134.091751 138.071030,134.091751 
	C135.633026,134.083710 133.195023,134.075668 130.436829,133.623291 
	C130.051788,128.036102 129.986938,122.893265 129.922089,117.750427 
z"/>
<path fill="#CFCFCF" opacity="1.000000" stroke="none" 
	d="
M141.117310,116.068069 
	C142.457809,116.039192 143.798294,116.010307 145.599182,116.472595 
	C146.028595,122.262955 145.997604,127.562157 145.966629,132.861359 
	C144.878922,132.964111 143.791199,133.066864 142.297684,132.763412 
	C141.633682,126.927498 141.375504,121.497780 141.117310,116.068069 
z"/>
<path fill="#A5A5A5" opacity="1.000000" stroke="none" 
	d="
M111.880211,116.923172 
	C113.143097,117.061340 114.405975,117.199509 115.810989,118.124557 
	C115.968109,123.883774 115.983086,128.856125 115.998070,133.828461 
	C115.241714,134.232239 114.485352,134.636017 113.035660,134.842575 
	C112.188286,128.737976 112.034248,122.830574 111.880211,116.923172 
z"/>
<path fill="#C63D44" opacity="1.000000" stroke="none" 
	d="
M111.504105,116.939636 
	C112.034248,122.830574 112.188286,128.737976 112.711761,134.894653 
	C111.279671,135.425552 109.478149,135.707169 107.266144,135.936539 
	C107.557152,134.385101 108.770500,132.916809 108.863213,131.380890 
	C109.130653,126.950378 108.946274,122.492607 108.907471,117.590164 
	C109.626404,117.075233 110.377205,117.015671 111.504105,116.939636 
z"/>
<path fill="#C63D44" opacity="1.000000" stroke="none" 
	d="
M140.721222,116.028633 
	C141.375504,121.497780 141.633682,126.927498 141.889145,132.808029 
	C140.842468,133.529694 139.798523,133.800537 138.412811,134.081573 
	C138.071030,134.091751 138.081375,133.687500 138.098572,132.990051 
	C138.057373,126.884399 137.998993,121.476189 137.940628,116.067986 
	C138.735458,116.041725 139.530304,116.015457 140.721222,116.028633 
z"/>
<path fill="#AEAEB0" opacity="1.000000" stroke="none" 
	d="
M121.624619,116.198730 
	C121.722382,122.196014 121.480453,128.150391 121.052658,134.479202 
	C120.493675,134.898849 120.120544,134.944061 119.422935,134.490021 
	C119.149033,128.061630 119.199608,122.132469 119.250175,116.203316 
	C119.928421,116.187485 120.606674,116.171654 121.624619,116.198730 
z"/>
<path fill="#898A8B" opacity="1.000000" stroke="none" 
	d="
M129.722443,117.772552 
	C129.986938,122.893265 130.051788,128.036102 129.981277,133.573608 
	C129.464294,133.959625 129.082672,133.950989 128.417572,133.913239 
	C126.433395,128.642227 125.722961,123.441460 128.964523,118.019119 
	C129.151566,117.641129 129.522812,117.794670 129.722443,117.772552 
z"/>
<path fill="#C63D44" opacity="1.000000" stroke="none" 
	d="
M118.924950,116.176636 
	C119.199608,122.132469 119.149033,128.061630 119.140732,134.451782 
	C118.243256,134.761673 117.303520,134.610565 116.180923,134.143951 
	C115.983086,128.856125 115.968109,123.883774 116.037018,118.450096 
	C116.947174,117.375824 117.773445,116.762886 118.924950,116.176636 
z"/>
<path fill="#A2A1A1" opacity="1.000000" stroke="none" 
	d="
M99.073334,118.236847 
	C99.712914,118.198112 100.352486,118.159378 101.366241,118.615219 
	C101.710808,124.681862 101.681206,130.253922 101.651596,135.825989 
	C100.983749,135.974609 100.315910,136.123245 99.302406,135.776398 
	C98.995605,129.599548 99.034470,123.918205 99.073334,118.236847 
z"/>
<path fill="#C63D44" opacity="1.000000" stroke="none" 
	d="
M146.190216,133.179352 
	C145.997604,127.562157 146.028595,122.262955 146.001114,116.502563 
	C146.697144,116.002029 147.451614,115.962685 148.584839,115.908661 
	C149.064560,121.547249 149.165512,127.200500 149.354568,133.296387 
	C148.433044,133.658463 147.423431,133.577896 146.190216,133.179352 
z"/>
<path fill="#7B7C7E" opacity="1.000000" stroke="none" 
	d="
M98.705521,118.188629 
	C99.034470,123.918205 98.995605,129.599548 98.959663,135.770142 
	C98.524712,136.466965 98.086830,136.674530 97.395844,136.871475 
	C97.072571,130.936264 97.002396,125.011673 96.888756,118.638718 
	C97.342766,118.173691 97.840233,118.157043 98.705521,118.188629 
z"/>
<path fill="#C63D44" opacity="1.000000" stroke="none" 
	d="
M102.102577,135.892151 
	C101.681206,130.253922 101.710808,124.681862 101.686356,118.664421 
	C102.170700,118.154999 102.709091,118.090950 103.652420,118.066635 
	C104.118683,123.671837 104.180016,129.237320 104.292053,135.237701 
	C103.746361,135.767822 103.149956,135.863068 102.102577,135.892151 
z"/>
<path fill="#838385" opacity="1.000000" stroke="none" 
	d="
M95.951584,530.117920 
	C95.663605,529.676819 95.375633,529.235779 95.197754,528.239502 
	C98.549614,526.158386 101.791367,524.632385 105.427521,523.133911 
	C106.867805,523.255005 107.913689,523.348633 108.959579,523.442261 
	C109.326515,524.145264 109.594147,524.926392 110.075882,525.539124 
	C114.400948,531.041260 114.024429,532.215881 107.230286,533.725342 
	C106.778152,534.015259 106.570587,534.024780 105.846436,533.799438 
	C102.203766,532.415710 99.077682,531.266846 95.951584,530.117920 
z"/>
<path fill="#BEBEBE" opacity="1.000000" stroke="none" 
	d="
M96.023392,530.450562 
	C99.077682,531.266846 102.203766,532.415710 105.535339,533.818604 
	C105.691246,534.908813 105.641663,535.745056 105.364304,536.802490 
	C102.122742,534.943542 99.108963,532.863342 96.023392,530.450562 
z"/>
<path fill="#858588" opacity="1.000000" stroke="none" 
	d="
M174.986069,540.307800 
	C183.106461,536.005371 191.197159,532.057983 199.648071,528.092468 
	C201.296448,528.759277 202.737991,529.258362 203.840073,530.168457 
	C205.981155,531.936523 209.004105,533.663025 209.580811,535.934998 
	C209.959869,537.428223 207.086975,540.883118 204.995377,541.673523 
	C195.142212,545.397217 185.083771,548.593079 175.023727,551.737976 
	C173.452850,552.229004 171.495850,551.485046 169.356277,551.154907 
	C170.982239,547.552612 172.969315,544.107727 174.986069,540.307800 
z"/>
<path fill="#87171D" opacity="1.000000" stroke="none" 
	d="
M109.317596,523.355286 
	C107.913689,523.348633 106.867805,523.255005 105.411064,522.738770 
	C104.667923,520.537903 104.335640,518.759705 104.223625,516.692749 
	C111.598305,512.181091 119.471291,514.680969 127.003502,513.992676 
	C134.082047,514.034607 141.248154,514.786255 148.215408,513.926453 
	C155.750839,512.996460 157.533188,509.650696 158.077484,502.059937 
	C158.594833,494.845032 159.775467,487.674896 160.780838,480.501404 
	C160.899597,479.654083 161.753494,478.909790 162.622757,478.049866 
	C159.294296,488.674744 161.644806,499.733612 161.020828,510.611847 
	C160.878159,513.099182 160.997269,515.601501 160.591110,518.682861 
	C158.401199,519.499146 156.606934,519.983154 154.832443,519.919189 
	C142.144791,519.461731 130.069183,521.420288 119.221436,528.524780 
	C116.039497,526.772583 112.857559,525.020447 109.317596,523.355286 
z"/>
<path fill="#CECECE" opacity="1.000000" stroke="none" 
	d="
M155.217804,537.061157 
	C152.053452,542.524475 146.477493,542.968628 141.099533,544.020752 
	C137.883942,544.649780 134.772034,545.808838 131.293869,546.927856 
	C126.082283,546.547546 115.791412,537.437134 116.164124,533.242798 
	C118.195938,532.258301 119.825394,531.768066 121.182251,530.867310 
	C131.161194,524.242554 140.907257,525.968689 150.386246,531.807190 
	C152.335846,533.007996 153.624512,535.281860 155.217804,537.061157 
z"/>
<path fill="#A2A1A1" opacity="1.000000" stroke="none" 
	d="
M155.477005,536.914551 
	C153.624512,535.281860 152.335846,533.007996 150.386246,531.807190 
	C140.907257,525.968689 131.161194,524.242554 121.182251,530.867310 
	C119.825394,531.768066 118.195938,532.258301 116.326630,532.948853 
	C116.952049,531.658386 117.943535,530.357666 119.078217,528.790894 
	C130.069183,521.420288 142.144791,519.461731 154.832443,519.919189 
	C156.606934,519.983154 158.401199,519.499146 160.587631,519.153931 
	C161.746796,519.042969 162.504623,519.046753 164.084595,519.010010 
	C168.610397,519.270325 172.314087,519.571167 176.017776,519.872009 
	C172.497009,522.258972 168.882751,524.522827 165.500732,527.092468 
	C164.116989,528.143799 163.235443,529.856140 161.746445,531.643188 
	C160.223587,533.313232 159.079742,534.607727 157.935913,535.902283 
	C157.202667,536.190857 156.469421,536.479370 155.477005,536.914551 
z"/>
<path fill="#7B7C7E" opacity="1.000000" stroke="none" 
	d="
M157.926758,536.270569 
	C159.079742,534.607727 160.223587,533.313232 161.710236,531.982910 
	C163.951416,534.001709 165.849762,536.056335 167.910187,538.369995 
	C170.502686,543.358582 169.382202,547.245667 164.829483,550.569336 
	C162.243698,548.156250 160.102295,545.597595 157.960907,543.039001 
	C157.946487,540.905640 157.932053,538.772217 157.926758,536.270569 
z"/>
<path fill="#949293" opacity="1.000000" stroke="none" 
	d="
M157.610535,543.033569 
	C160.102295,545.597595 162.243698,548.156250 164.678955,550.873535 
	C164.992966,551.768311 165.013123,552.504517 165.020691,553.609009 
	C158.431564,555.790039 157.240875,554.814331 154.993164,545.395508 
	C155.741608,544.350525 156.500900,543.689331 157.610535,543.033569 
z"/>
<path fill="#751319" opacity="1.000000" stroke="none" 
	d="
M104.003357,516.981445 
	C104.335640,518.759705 104.667923,520.537903 105.016670,522.711304 
	C101.791367,524.632385 98.549614,526.158386 95.108429,527.986694 
	C94.480545,528.213257 94.052086,528.137512 93.121681,527.811462 
	C91.402756,527.106873 90.185768,526.652710 88.968781,526.198486 
	C88.669266,526.046570 88.369751,525.894592 87.704300,525.528381 
	C87.232758,525.182861 87.127151,525.051575 87.021545,524.920227 
	C87.012810,522.908386 87.004066,520.896484 86.991997,518.454468 
	C87.156990,518.019409 87.325310,518.014526 88.111984,518.164429 
	C92.488564,517.888672 96.246788,517.458130 100.404572,517.018860 
	C101.870537,517.000610 102.936943,516.991028 104.003357,516.981445 
z"/>
<path fill="#BEBEBE" opacity="1.000000" stroke="none" 
	d="
M89.022278,526.507812 
	C90.185768,526.652710 91.402756,527.106873 92.795685,527.842102 
	C91.673019,527.687805 90.374397,527.252441 89.022278,526.507812 
z"/>
<path fill="#BEBEBE" opacity="1.000000" stroke="none" 
	d="
M86.768021,524.978760 
	C87.127151,525.051575 87.232758,525.182861 87.450340,525.541016 
	C87.178337,525.715942 86.794350,525.663940 86.211227,525.392456 
	C86.179558,525.127747 86.347023,525.082581 86.768021,524.978760 
z"/>
<path fill="#BEBEBE" opacity="1.000000" stroke="none" 
	d="
M34.080414,545.179443 
	C33.988171,545.012573 34.475094,544.993713 34.718140,544.983643 
	C34.698341,545.097839 34.435497,545.222107 34.080414,545.179443 
z"/>
<path fill="#C41F28" opacity="1.000000" stroke="none" 
	d="
M132.009827,280.780670 
	C136.034454,280.811584 140.059067,280.842529 144.540939,280.954102 
	C144.998062,307.985840 144.997925,334.936890 144.539230,362.428833 
	C139.726379,363.058197 135.372116,363.146606 130.692993,363.140594 
	C129.920822,362.993347 129.473511,362.940521 129.022995,362.469330 
	C126.202065,346.100677 123.110931,330.192230 120.661301,314.185608 
	C118.987511,303.248535 118.208649,292.174561 117.029678,281.161774 
	C117.029678,281.161774 117.061821,280.932343 117.485687,280.906677 
	C122.609650,280.847595 127.309738,280.814117 132.009827,280.780670 
z"/>
<path fill="#EBEBEC" opacity="1.000000" stroke="none" 
	d="
M131.017838,363.235046 
	C135.372116,363.146606 139.726379,363.058197 144.538345,362.884949 
	C147.700211,362.788696 150.404373,362.777191 153.552582,362.850525 
	C153.997742,379.977966 154.012253,397.020538 153.980240,414.063049 
	C153.976868,415.856781 153.699417,417.649963 152.972412,419.525513 
	C149.233551,413.445648 145.966919,407.334442 142.942291,401.105713 
	C140.520218,396.117798 138.392181,390.987061 136.102997,385.522583 
	C135.661743,383.379395 135.244202,381.634979 134.841812,379.887085 
	C133.564102,374.337128 132.292068,368.785828 131.017838,363.235046 
z"/>
<path fill="#E5E5E6" opacity="1.000000" stroke="none" 
	d="
M132.007629,280.326355 
	C127.309738,280.814117 122.609650,280.847595 117.450859,280.796204 
	C116.660599,266.747650 115.682793,252.760559 116.186737,238.827057 
	C116.652191,225.957764 118.706261,213.145935 120.084229,199.927658 
	C120.257057,199.463242 120.406319,199.379959 121.227005,199.264160 
	C125.267479,199.322128 128.636520,199.412613 132.005569,199.503098 
	C132.005524,226.292740 132.005478,253.082367 132.007629,280.326355 
z"/>
<path fill="#C41F28" opacity="1.000000" stroke="none" 
	d="
M132.455994,199.401886 
	C128.636520,199.412613 125.267479,199.322128 121.447632,199.133575 
	C123.914993,182.123306 130.435043,167.055664 143.701721,155.147339 
	C144.001389,169.319931 143.999252,183.633591 143.996521,198.406830 
	C140.299408,199.011154 136.602905,199.155930 132.455994,199.401886 
z"/>
<path fill="#C3C3C3" opacity="1.000000" stroke="none" 
	d="
M136.133636,385.919739 
	C138.392181,390.987061 140.520218,396.117798 142.942291,401.105713 
	C145.966919,407.334442 149.233551,413.445648 152.661133,419.808258 
	C153.601135,421.416656 154.275696,422.824371 155.001892,424.562439 
	C155.044647,435.037323 155.035782,445.181824 155.044540,455.819702 
	C148.684906,456.559143 142.307617,456.805237 135.465881,456.515778 
	C135.000931,434.498962 134.972382,413.017578 135.049225,391.536591 
	C135.055954,389.663025 135.755768,387.791962 136.133636,385.919739 
z"/>
<path fill="#B9B8B9" opacity="1.000000" stroke="none" 
	d="
M95.043655,362.218475 
	C98.404037,361.922791 101.746597,362.034760 105.919266,362.249237 
	C110.167641,362.624084 113.585915,362.896423 116.950104,363.543335 
	C116.264565,365.957611 115.071388,368.001343 115.086220,370.036316 
	C115.296997,398.969421 115.671333,427.901337 115.558762,456.898743 
	C110.072273,456.680573 105.033180,456.397156 99.627197,456.029663 
	C97.821976,455.691589 96.383652,455.437622 94.945328,455.183685 
	C94.963417,433.458466 94.981506,411.733246 95.390373,389.582581 
	C96.848793,389.114807 97.916435,389.072510 99.364235,389.165466 
	C103.939240,389.300690 108.134087,389.300690 112.706253,389.300690 
	C112.706253,384.266266 112.865120,379.514130 112.629898,374.781555 
	C112.532616,372.824371 111.590714,370.909149 110.938187,368.752075 
	C110.638832,368.216522 110.355484,368.106476 109.738800,367.988892 
	C108.662117,367.518402 107.840027,367.258209 106.741180,366.716736 
	C103.437134,366.691284 100.409851,366.947113 97.382576,367.202911 
	C96.596992,365.677307 95.811417,364.151733 95.043655,362.218475 
z"/>
<path fill="#90151B" opacity="1.000000" stroke="none" 
	d="
M94.513046,455.235352 
	C96.383652,455.437622 97.821976,455.691589 99.628944,456.490234 
	C99.984703,477.032471 100.307503,497.029999 100.005020,517.027588 
	C96.246788,517.458130 92.488564,517.888672 88.364563,518.160828 
	C88.000328,510.317688 88.001869,502.632935 88.349899,494.419983 
	C91.222107,491.870728 89.971962,490.380646 88.007240,488.991058 
	C88.004372,477.999023 88.001511,467.006989 87.997574,455.552917 
	C90.024582,455.156219 92.052673,455.221619 94.513046,455.235352 
M96.222282,486.604004 
	C95.987335,484.786316 95.752396,482.968658 95.517448,481.150970 
	C94.372093,481.698151 92.438278,482.038025 92.229645,482.831482 
	C91.611359,485.183044 92.463417,487.061432 96.222282,486.604004 
z"/>
<path fill="#6E161B" opacity="1.000000" stroke="none" 
	d="
M97.128670,367.506897 
	C100.409851,366.947113 103.437134,366.691284 106.575829,367.036926 
	C99.977348,369.237915 98.113892,373.724487 98.923973,380.118744 
	C99.294678,383.044800 98.985115,386.057037 98.984070,389.030212 
	C97.916435,389.072510 96.848793,389.114807 95.380524,389.119080 
	C94.951042,383.760437 94.756348,378.432648 94.985657,373.123199 
	C95.063156,371.328583 96.214287,369.580292 97.128670,367.506897 
z"/>
<path fill="#9D1920" opacity="1.000000" stroke="none" 
	d="
M117.004196,363.168732 
	C113.585915,362.896423 110.167641,362.624084 106.374153,362.196045 
	C105.675285,335.261047 105.351624,308.481689 105.049042,281.256561 
	C108.754913,280.864105 112.439713,280.917480 116.577095,281.066284 
	C118.208649,292.174561 118.987511,303.248535 120.661301,314.185608 
	C123.110931,330.192230 126.202065,346.100677 128.564072,362.544678 
	C124.406960,363.081818 120.705574,363.125275 117.004196,363.168732 
z"/>
<path fill="#751319" opacity="1.000000" stroke="none" 
	d="
M87.600029,488.996552 
	C89.971962,490.380646 91.222107,491.870728 88.352829,493.952118 
	C86.685112,493.228027 85.360962,492.443573 84.036804,491.659119 
	C85.088814,490.773438 86.140816,489.887756 87.600029,488.996552 
z"/>
<path fill="#BEBEBE" opacity="1.000000" stroke="none" 
	d="
M116.950104,363.543335 
	C120.705574,363.125275 124.406960,363.081818 128.567261,362.963013 
	C129.473511,362.940521 129.920822,362.993347 130.692993,363.140594 
	C132.292068,368.785828 133.564102,374.337128 134.841812,379.887085 
	C135.244202,381.634979 135.661743,383.379395 136.102997,385.522583 
	C135.755768,387.791962 135.055954,389.663025 135.049225,391.536591 
	C134.972382,413.017578 135.000931,434.498962 135.002777,456.442017 
	C132.297455,456.982849 129.590744,457.061859 125.993179,457.141296 
	C122.070282,457.039032 119.038223,456.936310 116.006172,456.833557 
	C115.671333,427.901337 115.296997,398.969421 115.086220,370.036316 
	C115.071388,368.001343 116.264565,365.957611 116.950104,363.543335 
z"/>
<path fill="#9D1920" opacity="1.000000" stroke="none" 
	d="
M115.558762,456.898743 
	C119.038223,456.936310 122.070282,457.039032 125.549835,457.224365 
	C125.998222,472.967590 125.949165,488.628479 126.044258,504.288513 
	C126.062202,507.243530 126.653870,510.195007 126.992157,513.570435 
	C119.471291,514.680969 111.598305,512.181091 104.223625,516.692749 
	C102.936943,516.991028 101.870537,517.000610 100.404572,517.018921 
	C100.307503,497.029999 99.984703,477.032471 99.995850,456.574341 
	C105.033180,456.397156 110.072273,456.680573 115.558762,456.898743 
z"/>
<path fill="#5B2D15" opacity="1.000000" stroke="none" 
	d="
M176.296661,519.834717 
	C172.314087,519.571167 168.610397,519.270325 164.453049,518.915649 
	C164.002945,509.386780 164.005722,499.911774 164.010284,490.436798 
	C164.015289,480.030487 167.259109,475.539612 177.634949,472.041016 
	C178.006668,487.414398 178.013336,502.822205 178.035461,518.712036 
	C177.559143,519.395264 177.067352,519.596375 176.296661,519.834717 
z"/>
<path fill="#E5E5E6" opacity="1.000000" stroke="none" 
	d="
M125.026581,102.399933 
	C129.817932,99.036003 134.541702,96.053856 139.635010,93.046402 
	C140.003265,99.329201 140.001984,105.637314 140.003387,112.404861 
	C135.005615,113.085800 130.005188,113.307312 124.542938,113.490196 
	C124.373749,109.894951 124.666374,106.338333 125.026581,102.399933 
z"/>
<path fill="#CFCFCF" opacity="1.000000" stroke="none" 
	d="
M160.455200,116.093689 
	C160.839066,120.822624 161.049057,125.482628 160.695328,130.099442 
	C160.583755,131.555634 158.962280,132.896149 158.031845,134.289597 
	C157.392380,134.048141 156.752930,133.806686 156.113464,133.565216 
	C156.113464,128.015381 156.113464,122.465530 156.126068,116.442299 
	C157.446899,115.981972 158.755142,115.995018 160.455200,116.093689 
z"/>
<path fill="#B5B2B4" opacity="1.000000" stroke="none" 
	d="
M137.569366,116.031029 
	C137.998993,121.476189 138.057373,126.884399 138.100616,132.787872 
	C137.383163,132.697235 136.167648,132.191895 136.060989,131.512482 
	C135.307709,126.713860 134.782150,121.879494 134.210022,116.631973 
	C135.223450,116.136299 136.210785,116.065186 137.569366,116.031029 
z"/>
<path fill="#4C0708" opacity="1.000000" stroke="none" 
	d="
M99.364227,389.165466 
	C98.985115,386.057037 99.294678,383.044800 98.923973,380.118744 
	C98.113892,373.724487 99.977348,369.237915 106.852600,367.318176 
	C107.840027,367.258209 108.662117,367.518402 109.853416,368.186371 
	C110.442062,368.828888 110.712166,368.955811 111.032944,368.974854 
	C111.590714,370.909149 112.532616,372.824371 112.629898,374.781555 
	C112.865120,379.514130 112.706253,384.266266 112.706253,389.300690 
	C108.134087,389.300690 103.939240,389.300690 99.364227,389.165466 
z"/>
<path fill="#6E161B" opacity="1.000000" stroke="none" 
	d="
M110.938187,368.752075 
	C110.712166,368.955811 110.442062,368.828888 110.108017,368.396667 
	C110.355484,368.106476 110.638832,368.216522 110.938187,368.752075 
z"/>
<path fill="#7E1017" opacity="1.000000" stroke="none" 
	d="
M95.839745,486.743286 
	C92.463417,487.061432 91.611359,485.183044 92.229645,482.831482 
	C92.438278,482.038025 94.372093,481.698151 95.517448,481.150970 
	C95.752396,482.968658 95.987335,484.786316 95.839745,486.743286 
z"/>
</svg>