<svg version="1.1" id="Layer_1" xmlns="http://www.w3.org/2000/svg" xmlns:xlink="http://www.w3.org/1999/xlink" x="0px" y="0px"
	 width="100%" viewBox="0 0 154 156" enable-background="new 0 0 154 156" xml:space="preserve">
<path fill="#FFFEFD" opacity="1.000000" stroke="none" 
	d="
M1.000000,67.000000 
	C1.000000,45.015949 1.000000,23.031902 1.000000,1.023926 
	C52.280159,1.023926 103.560326,1.023926 154.920258,1.023926 
	C154.920258,52.909019 154.920258,104.818207 154.920258,156.863693 
	C103.666893,156.863693 52.333504,156.863693 1.000000,156.863693 
	C1.000000,132.568863 1.000000,108.253090 1.320672,83.583435 
	C7.960601,94.717957 18.918922,100.466988 30.141495,106.392944 
	C38.528370,112.172691 46.731018,117.676498 55.095467,123.451775 
	C56.521294,125.151390 57.785332,126.579544 58.795990,128.274017 
	C57.748322,131.703384 56.954029,134.866425 56.097412,138.468811 
	C55.714581,147.585419 57.014038,149.625092 64.270111,151.453323 
	C65.850655,151.851547 67.582848,152.229935 69.151711,151.994507 
	C77.120071,150.798782 85.057655,149.398026 93.466507,148.106888 
	C98.854210,147.768768 103.784752,147.431610 108.707932,147.008743 
	C118.714935,146.149200 121.542473,141.897507 118.762177,131.657501 
	C117.864075,128.521378 116.928276,125.760323 116.064056,122.657784 
	C117.646835,120.225357 119.140068,118.121155 120.672493,116.045883 
	C125.803253,109.097595 130.948029,102.159653 136.365936,95.010834 
	C140.775269,85.806870 145.224167,76.938393 148.930359,67.769684 
	C151.612305,61.134895 152.813049,54.078743 150.019608,46.637360 
	C148.815674,44.160587 147.591949,42.040749 146.216415,39.578846 
	C143.654526,38.084328 141.274170,36.863243 138.824524,35.802086 
	C137.008255,35.015301 135.101959,34.436302 133.193176,33.433022 
	C132.434479,31.719193 131.718384,30.337086 130.974030,28.638420 
	C130.322510,27.871279 129.699219,27.420696 128.823395,26.872898 
	C128.103699,26.511335 127.636543,26.246986 126.994011,25.614943 
	C125.133286,24.754589 123.439171,23.827873 121.764465,23.861717 
	C118.509056,23.927504 115.264526,24.532322 111.852371,24.625891 
	C109.784386,23.234232 107.879532,22.130526 105.531967,20.986689 
	C102.707703,21.038467 100.326157,21.130379 97.795357,20.930500 
	C96.099525,19.392445 94.552956,18.146175 92.988136,16.639042 
	C92.308472,16.259901 91.647057,16.141624 90.705994,15.873140 
	C89.632057,15.477597 88.837753,15.232264 87.842911,14.656474 
	C82.398117,13.543113 78.169304,15.658957 75.173523,19.641483 
	C73.430428,21.958717 71.916168,21.711111 69.601990,20.631073 
	C66.551788,19.951864 63.760677,19.495184 60.588448,18.961231 
	C55.811089,19.018774 53.256325,21.758957 50.891998,25.074514 
	C50.055882,26.247023 48.281647,26.750559 46.685299,27.371645 
	C45.586964,27.202600 44.739037,27.221424 43.527924,27.212624 
	C36.692314,28.302919 32.408607,32.235313 30.363522,38.216778 
	C29.450697,40.886604 28.157986,41.043293 25.774601,40.484161 
	C23.450418,40.793556 21.394762,41.294937 18.978069,41.837616 
	C18.391369,42.243553 18.165703,42.608185 17.969738,42.959042 
	C17.999437,42.945267 17.948179,42.904522 17.593697,42.767494 
	C11.141006,45.581776 9.969797,50.970757 10.030922,57.364388 
	C7.745960,59.935612 5.552544,62.157185 3.088226,64.533195 
	C2.211551,65.458420 1.605776,66.229210 1.000000,67.000000 
z"/>
<path fill="#E39D3A" opacity="1.000000" stroke="none" 
	d="
M29.957270,106.117004 
	C18.918922,100.466988 7.960601,94.717957 1.320672,83.114777 
	C1.000000,77.977905 1.000000,72.955818 1.000000,67.466858 
	C1.605776,66.229210 2.211551,65.458420 3.259566,64.710358 
	C3.701807,64.733093 4.062287,65.059814 4.055995,65.459091 
	C4.940374,68.620285 5.155397,71.927925 6.857101,74.034767 
	C10.861483,78.992493 15.575501,83.377045 20.005871,88.360855 
	C22.876715,92.855896 25.863800,96.908035 28.543406,101.154213 
	C29.424248,102.550018 29.508665,104.448425 29.957270,106.117004 
z"/>
<path fill="#F2CF95" opacity="1.000000" stroke="none" 
	d="
M60.969570,19.038504 
	C63.760677,19.495184 66.551788,19.951864 69.675705,20.991039 
	C77.837059,31.044271 80.614250,42.482731 82.393501,54.058681 
	C80.076294,49.574650 78.077957,45.217655 76.031082,40.530510 
	C75.653839,39.134277 75.325134,38.068199 74.867462,36.668106 
	C71.941391,31.947096 69.225182,27.503885 66.258324,23.234869 
	C65.822968,22.608435 64.196373,22.809891 63.120956,22.628286 
	C62.955204,23.816299 62.295803,25.222466 62.707951,26.155092 
	C64.635986,30.517960 66.859329,34.750332 69.012543,39.366806 
	C69.999290,41.170460 70.950638,42.636635 71.922386,44.480366 
	C76.576576,58.584126 81.210373,72.310333 85.501373,86.025314 
	C84.468239,85.998619 83.777901,85.983147 83.058075,85.579842 
	C79.699554,76.792595 76.370514,68.393188 72.993752,59.637150 
	C68.431534,51.448708 63.843693,43.657974 59.426754,35.771523 
	C56.146053,29.913839 55.682163,24.174816 60.969570,19.038504 
z"/>
<path fill="#F3D093" opacity="1.000000" stroke="none" 
	d="
M105.974678,21.026821 
	C107.879532,22.130526 109.784386,23.234232 111.738297,24.941883 
	C116.543404,42.518234 114.726524,59.767685 113.612305,76.979492 
	C112.811005,76.966209 112.352417,76.946518 111.907364,76.462997 
	C111.917480,63.680794 111.914055,51.362415 111.937599,38.622269 
	C110.572090,33.465096 112.180611,27.604753 106.495842,23.629250 
	C103.618340,29.282749 105.719757,34.134869 106.954849,39.445198 
	C107.261719,42.672737 107.684135,45.445248 107.831963,48.232323 
	C108.278618,56.653313 108.671036,65.078407 108.921959,73.506737 
	C108.947998,74.381332 107.886497,75.288315 107.218880,75.714279 
	C105.740135,64.514618 104.394348,53.777901 102.923820,43.058289 
	C102.864296,42.624451 101.626671,42.352226 100.587715,42.002945 
	C99.539116,41.997639 98.840736,41.994083 98.103821,41.620705 
	C98.023926,40.508366 97.982574,39.765850 98.300613,38.955429 
	C101.000557,36.450996 100.393570,35.188450 97.082657,34.661640 
	C97.030930,33.889053 97.005188,33.447334 96.994354,32.754982 
	C97.017479,32.337170 97.025696,32.169987 97.350418,31.975946 
	C98.449066,31.630507 99.231216,31.311924 100.291672,30.767925 
	C102.371552,27.370615 104.173119,24.198717 105.974678,21.026821 
z"/>
<path fill="#F3BF68" opacity="1.000000" stroke="none" 
	d="
M146.368210,39.920906 
	C147.591949,42.040749 148.815674,44.160587 149.727768,46.885227 
	C147.096771,54.354527 145.046799,61.325253 142.392044,68.057495 
	C138.816406,77.124939 134.774750,86.008629 130.674011,95.182327 
	C128.929718,97.925537 127.444489,100.457596 125.595268,102.997368 
	C123.579193,102.853813 120.692711,105.314705 121.046616,100.624565 
	C122.732437,95.493156 124.376106,90.744850 126.382477,86.038040 
	C131.158188,88.055916 131.886551,85.395073 132.131012,81.626076 
	C135.576965,72.883469 138.864532,64.440681 142.403992,55.746029 
	C142.870377,52.959469 146.278290,50.145363 141.873138,47.707012 
	C140.827301,46.271690 139.908829,45.133095 139.143036,43.680515 
	C141.653214,42.217987 144.010712,41.069447 146.368210,39.920906 
z"/>
<path fill="#F2CF94" opacity="1.000000" stroke="none" 
	d="
M88.043457,14.986931 
	C88.837753,15.232264 89.632057,15.477597 90.471161,16.152197 
	C89.347008,18.231014 87.175804,19.898615 87.205116,21.526588 
	C87.280159,25.693752 88.334297,29.843285 88.999390,34.368530 
	C89.329781,36.157055 89.657661,37.576912 89.985184,39.417118 
	C92.268517,54.573845 94.552200,69.310226 96.497681,84.032608 
	C95.475250,84.000267 94.791023,83.981926 94.076744,83.638229 
	C94.025200,82.877274 94.003708,82.441658 93.943451,81.602180 
	C92.619186,76.115616 91.333694,71.032921 90.044312,65.527390 
	C89.571449,62.509884 89.343773,59.842556 88.588371,57.334148 
	C86.301720,49.740974 82.968491,42.357632 81.605904,34.617405 
	C79.782806,24.261244 80.515984,16.946873 88.043457,14.986931 
z"/>
<path fill="#E4A142" opacity="1.000000" stroke="none" 
	d="
M30.141495,106.392944 
	C29.508665,104.448425 29.424248,102.550018 28.543406,101.154213 
	C25.863800,96.908035 22.876715,92.855896 20.300999,88.481895 
	C21.385395,88.510864 22.178135,88.786148 23.126621,89.355789 
	C31.180262,96.104256 39.078152,102.558372 47.130257,109.312561 
	C51.180038,112.746979 55.075607,115.881332 59.084328,119.272034 
	C59.467587,120.017700 59.737686,120.507027 59.603287,120.997955 
	C57.777084,121.726471 56.355377,122.453392 54.933670,123.180313 
	C46.731018,117.676498 38.528370,112.172691 30.141495,106.392944 
z"/>
<path fill="#E1B064" opacity="1.000000" stroke="none" 
	d="
M87.842911,14.656473 
	C80.515984,16.946873 79.782806,24.261244 81.605904,34.617405 
	C82.968491,42.357632 86.301720,49.740974 88.588371,57.334148 
	C89.343773,59.842556 89.571449,62.509884 89.852570,65.785912 
	C88.774551,66.984566 87.884384,67.501862 86.740234,67.793793 
	C85.954308,66.378990 85.422348,65.189537 84.882545,63.695480 
	C84.838120,62.986271 84.801529,62.581665 84.825760,61.853798 
	C84.556900,61.020588 84.227226,60.510647 83.885033,59.695690 
	C83.838181,58.985134 83.803833,58.579594 83.826706,57.849457 
	C83.546364,57.017174 83.208817,56.509491 82.863029,55.696938 
	C82.807320,54.989952 82.759842,54.587837 82.712364,54.185722 
	C80.614250,42.482731 77.837059,31.044271 69.934792,21.213570 
	C71.916168,21.711111 73.430428,21.958717 75.173523,19.641483 
	C78.169304,15.658957 82.398117,13.543113 87.842911,14.656473 
z"/>
<path fill="#E4A142" opacity="1.000000" stroke="none" 
	d="
M130.933105,94.971176 
	C134.774750,86.008629 138.816406,77.124939 142.392044,68.057495 
	C145.046799,61.325253 147.096771,54.354527 149.707962,47.242157 
	C152.813049,54.078743 151.612305,61.134895 148.930359,67.769684 
	C145.224167,76.938393 140.775269,85.806870 136.305725,94.677307 
	C134.289047,94.690849 132.611069,94.831017 130.933105,94.971176 
z"/>
<path fill="#E1AA56" opacity="1.000000" stroke="none" 
	d="
M113.955017,76.973076 
	C114.726524,59.767685 116.543404,42.518234 111.901428,25.229839 
	C115.264526,24.532322 118.509056,23.927504 121.764465,23.861717 
	C123.439171,23.827873 125.133286,24.754589 126.634033,25.660170 
	C120.196953,28.964516 119.436913,34.625481 118.980873,40.558296 
	C118.123466,51.712570 117.113190,62.855095 116.119408,74.367950 
	C116.058678,76.484131 116.045029,78.234879 116.007324,80.380722 
	C115.646255,82.851776 115.309242,84.927727 114.653931,87.002930 
	C113.911736,87.003960 113.487831,87.005753 113.048027,86.589241 
	C113.339752,83.104980 113.647385,80.039032 113.955017,76.973076 
z"/>
<path fill="#F2C375" opacity="1.000000" stroke="none" 
	d="
M19.339106,41.796318 
	C21.394762,41.294937 23.450418,40.793556 25.850105,40.762772 
	C26.464659,41.492451 26.735184,41.751537 27.003288,42.383827 
	C27.000616,43.503979 27.000366,44.250923 26.623770,45.007912 
	C25.672075,46.287071 24.500685,47.644024 24.671501,48.803185 
	C24.887434,50.268517 26.196499,51.572765 27.031357,53.353996 
	C28.677422,59.855526 30.326185,65.949554 31.667183,71.906174 
	C29.931990,71.153114 28.504564,70.537476 27.018963,69.578003 
	C26.606060,68.689606 26.368866,67.986267 25.879293,67.623848 
	C15.557428,59.982910 13.685101,54.190395 17.948179,42.904522 
	C17.948179,42.904522 17.999437,42.945267 18.250563,42.830910 
	C18.780827,42.409809 19.059967,42.103065 19.339106,41.796318 
z"/>
<path fill="#E2A549" opacity="1.000000" stroke="none" 
	d="
M126.019775,85.996544 
	C124.376106,90.744850 122.732437,95.493156 120.707458,100.634827 
	C119.874382,101.050537 119.422623,101.072891 118.981094,100.707306 
	C119.326752,98.842117 119.662186,97.364868 120.148270,95.819206 
	C120.298927,95.750801 120.373009,95.321808 120.373009,95.321808 
	C120.373009,95.321808 119.998543,95.018242 120.000549,95.010452 
	C120.002563,95.002670 119.983276,95.000954 120.133850,94.662476 
	C126.021614,74.441284 132.935410,54.810200 133.235764,33.764744 
	C135.101959,34.436302 137.008255,35.015301 138.824524,35.802086 
	C141.274170,36.863243 143.654526,38.084328 146.216415,39.578842 
	C144.010712,41.069447 141.653214,42.217987 138.865662,43.892773 
	C134.296982,58.278194 130.158386,72.137367 126.019775,85.996544 
z"/>
<path fill="#F3C984" opacity="1.000000" stroke="none" 
	d="
M116.166481,74.002502 
	C117.113190,62.855095 118.123466,51.712570 118.980873,40.558296 
	C119.436913,34.625481 120.196953,28.964516 126.809418,26.027866 
	C127.636543,26.246986 128.103699,26.511335 128.609253,27.161053 
	C123.607002,30.416813 125.349937,35.773659 124.053406,40.422401 
	C124.042747,41.887054 124.052834,42.953327 124.038773,44.456589 
	C122.959747,54.595181 121.904877,64.296783 120.456329,73.998848 
	C118.763931,74.000374 117.465210,74.001442 116.166481,74.002502 
z"/>
<path fill="#E1B166" opacity="1.000000" stroke="none" 
	d="
M60.588448,18.961231 
	C55.682163,24.174816 56.146053,29.913839 59.426754,35.771523 
	C63.843693,43.657974 68.431534,51.448708 72.583191,59.639210 
	C71.129135,60.005543 70.037926,60.013184 68.649223,59.848557 
	C63.697376,51.704224 59.205284,43.630009 54.290150,35.822102 
	C52.808205,33.467960 50.151360,31.853428 47.890556,29.611118 
	C47.477501,28.734598 47.206604,28.147053 46.935703,27.559509 
	C48.281647,26.750559 50.055882,26.247023 50.891998,25.074514 
	C53.256325,21.758957 55.811089,19.018774 60.588448,18.961231 
z"/>
<path fill="#E49D38" opacity="1.000000" stroke="none" 
	d="
M130.674026,95.182327 
	C132.611069,94.831017 134.289047,94.690849 136.027222,94.884216 
	C130.948029,102.159653 125.803253,109.097595 120.672493,116.045883 
	C119.140068,118.121155 117.646835,120.225357 115.775330,122.795532 
	C114.257545,124.521843 113.100075,125.768913 111.537155,127.011353 
	C108.763161,127.340057 106.394615,127.673393 104.060455,127.624260 
	C105.062134,123.824776 106.029434,120.407761 107.233017,116.816826 
	C107.644699,116.094543 107.820107,115.546181 108.268555,114.999207 
	C108.723602,115.000595 108.905602,115.000595 109.070633,115.400810 
	C108.596016,118.364113 108.138351,120.927200 107.573059,124.093025 
	C109.795151,121.957443 111.369431,120.444443 113.272720,118.932007 
	C114.391800,118.277733 115.181870,117.622887 115.981651,116.724579 
	C115.991364,116.481110 116.016472,115.994438 116.008179,115.995544 
	C115.999893,115.996643 115.999886,116.016304 116.301735,115.865471 
	C119.722145,111.472977 122.840706,107.231316 125.959259,102.989655 
	C127.444489,100.457596 128.929718,97.925537 130.674026,95.182327 
z"/>
<path fill="#E4A54B" opacity="1.000000" stroke="none" 
	d="
M118.724480,132.032547 
	C121.542473,141.897507 118.714935,146.149200 108.707932,147.008743 
	C103.784752,147.431610 98.854210,147.768768 93.464981,147.723175 
	C93.002281,146.535034 93.001602,145.768417 93.188782,144.735229 
	C95.252747,143.315842 97.128845,142.163025 99.007454,141.267670 
	C99.015335,141.696777 99.020706,141.868439 98.916382,142.351166 
	C103.327370,145.994644 112.973206,142.622894 115.013199,136.587006 
	C115.057487,134.794922 115.090218,133.417038 115.484146,132.029633 
	C116.805061,132.024246 117.764771,132.028397 118.724480,132.032547 
z"/>
<path fill="#E4A142" opacity="1.000000" stroke="none" 
	d="
M93.000916,145.001785 
	C93.001602,145.768417 93.002281,146.535034 93.004494,147.685364 
	C85.057655,149.398026 77.120071,150.798782 69.151711,151.994507 
	C67.582848,152.229935 65.850655,151.851547 64.270111,151.453323 
	C57.014038,149.625092 55.714581,147.585419 56.448322,138.458862 
	C57.564247,138.007172 58.266941,138.004791 58.849304,138.314850 
	C58.802986,140.091385 58.877003,141.555450 58.966312,143.398361 
	C61.757046,148.587479 75.081978,150.069107 79.214767,145.894196 
	C79.710106,145.585526 79.898628,145.323135 80.413277,145.008621 
	C84.884071,145.012909 88.942490,145.007355 93.000916,145.001785 
z"/>
<path fill="#E2AD5C" opacity="1.000000" stroke="none" 
	d="
M27.005711,42.010620 
	C26.735184,41.751537 26.464659,41.492451 26.118629,40.954758 
	C28.157986,41.043293 29.450697,40.886604 30.363522,38.216778 
	C32.408607,32.235313 36.692314,28.302919 43.483669,27.531826 
	C37.006504,34.043972 36.422321,40.621918 41.944092,49.369843 
	C41.989182,50.130402 42.013088,50.565304 41.690651,51.001545 
	C40.882992,51.011787 40.421673,51.020699 39.712132,50.914131 
	C38.993969,50.522350 38.524033,50.246052 37.901672,49.670052 
	C34.168068,46.917110 30.586889,44.463863 27.005711,42.010620 
z"/>
<path fill="#F3C67A" opacity="1.000000" stroke="none" 
	d="
M133.193176,33.433022 
	C132.935410,54.810200 126.021614,74.441284 119.885544,94.657639 
	C119.486656,94.991264 118.989655,94.980919 118.992790,94.581055 
	C119.660339,91.115898 120.324753,88.050621 121.035446,84.606644 
	C124.025414,71.159866 126.969116,58.091793 129.951599,44.622349 
	C129.995911,43.147530 130.001419,42.074078 130.018982,40.543167 
	C130.354797,36.375465 130.678543,32.665222 131.002289,28.954979 
	C131.718384,30.337086 132.434479,31.719193 133.193176,33.433022 
z"/>
<path fill="#FEEFB3" opacity="1.000000" stroke="none" 
	d="
M88.996895,33.999866 
	C88.334297,29.843285 87.280159,25.693752 87.205116,21.526588 
	C87.175804,19.898615 89.347008,18.231014 90.750793,16.302406 
	C91.647057,16.141624 92.308472,16.259901 92.985184,17.035320 
	C94.344948,22.462576 95.689430,27.232691 97.033905,32.002804 
	C97.025696,32.169987 97.017479,32.337170 96.584305,32.753479 
	C93.771866,33.335022 91.384377,33.667446 88.996895,33.999866 
z"/>
<path fill="#E4A54B" opacity="1.000000" stroke="none" 
	d="
M17.593697,42.767494 
	C13.685101,54.190395 15.557428,59.982910 25.879293,67.623848 
	C26.368866,67.986267 26.606060,68.689606 26.979572,69.617798 
	C26.998358,70.001419 26.921339,70.078850 26.558901,70.072769 
	C25.468655,70.040482 24.740847,70.014267 23.862061,69.684067 
	C20.138536,67.269951 16.565989,65.159805 12.995562,63.022278 
	C12.997681,62.994888 13.002509,62.940155 13.002092,62.527931 
	C12.639004,60.078377 14.275030,56.912891 10.122468,57.014740 
	C9.969797,50.970757 11.141006,45.581776 17.593697,42.767494 
z"/>
<path fill="#E49D38" opacity="1.000000" stroke="none" 
	d="
M55.095467,123.451782 
	C56.355377,122.453392 57.777084,121.726471 59.902206,121.143173 
	C63.064823,123.194748 65.524033,125.102707 68.125687,127.298706 
	C69.515923,129.034561 70.763710,130.482391 71.816689,132.202301 
	C70.044861,133.329712 68.467842,134.185059 66.568878,135.033615 
	C65.520271,134.658493 64.793594,134.290176 64.021164,133.587494 
	C62.333389,131.504669 60.691380,129.756180 59.049366,128.007690 
	C57.785332,126.579544 56.521294,125.151390 55.095467,123.451782 
z"/>
<path fill="#F0CB8C" opacity="1.000000" stroke="none" 
	d="
M41.922905,49.044193 
	C36.422321,40.621918 37.006504,34.043972 43.846855,27.559450 
	C44.739037,27.221424 45.586964,27.202600 46.685299,27.371643 
	C47.206604,28.147053 47.477501,28.734598 47.876236,29.904110 
	C47.998783,30.680813 47.993504,30.875549 47.593628,31.055908 
	C42.519741,31.158852 42.714939,34.303238 43.342728,37.500046 
	C43.646957,39.049232 44.440235,40.502380 44.638023,42.074532 
	C43.483601,44.448097 42.703251,46.746143 41.922905,49.044193 
z"/>
<path fill="#FEEB9F" opacity="1.000000" stroke="none" 
	d="
M130.974030,28.638420 
	C130.678543,32.665222 130.354797,36.375465 129.641205,40.501369 
	C127.525635,40.619362 125.799889,40.321693 124.074150,40.024025 
	C125.349937,35.773659 123.607002,30.416813 128.861816,27.258266 
	C129.699219,27.420696 130.322510,27.871279 130.974030,28.638420 
z"/>
<path fill="#E2AD5C" opacity="1.000000" stroke="none" 
	d="
M58.795990,128.274017 
	C60.691380,129.756180 62.333389,131.504669 63.651890,133.615997 
	C62.205200,135.304749 61.082020,136.630646 59.711456,137.966278 
	C59.464073,137.976013 58.969635,138.002396 58.969635,138.002396 
	C58.266941,138.004791 57.564247,138.007172 56.510643,138.019516 
	C56.954029,134.866425 57.748322,131.703384 58.795990,128.274017 
z"/>
<path fill="#F3D296" opacity="1.000000" stroke="none" 
	d="
M97.350418,31.975946 
	C95.689430,27.232691 94.344948,22.462576 93.003426,17.296185 
	C94.552956,18.146175 96.099525,19.392445 97.672531,21.229265 
	C98.470421,24.877657 99.241890,27.935497 100.013359,30.993340 
	C99.231216,31.311924 98.449066,31.630507 97.350418,31.975946 
z"/>
<path fill="#E1B064" opacity="1.000000" stroke="none" 
	d="
M100.291672,30.767925 
	C99.241890,27.935497 98.470421,24.877657 97.821777,21.521053 
	C100.326157,21.130379 102.707703,21.038467 105.531967,20.986687 
	C104.173119,24.198717 102.371552,27.370615 100.291672,30.767925 
z"/>
<path fill="#E39D3A" opacity="1.000000" stroke="none" 
	d="
M10.030922,57.364388 
	C14.275030,56.912891 12.639004,60.078377 12.589289,62.539509 
	C9.472029,63.662144 6.767158,64.360977 4.062287,65.059814 
	C4.062287,65.059814 3.701807,64.733093 3.530467,64.555923 
	C5.552544,62.157185 7.745960,59.935612 10.030922,57.364388 
z"/>
<path fill="#E2AD5C" opacity="1.000000" stroke="none" 
	d="
M118.762177,131.657501 
	C117.764771,132.028397 116.805061,132.024246 115.438286,131.659088 
	C114.003479,130.182159 112.975739,129.066238 111.945175,127.716736 
	C111.942352,127.483162 111.942596,127.015984 111.942596,127.015991 
	C113.100075,125.768913 114.257545,124.521843 115.703743,123.137016 
	C116.928276,125.760323 117.864075,128.521378 118.762177,131.657501 
z"/>
<path fill="#E4A54B" opacity="1.000000" stroke="none" 
	d="
M18.978069,41.837616 
	C19.059967,42.103065 18.780827,42.409809 18.220863,42.844688 
	C18.165703,42.608185 18.391369,42.243553 18.978069,41.837616 
z"/>
<path fill="#F4BD63" opacity="1.000000" stroke="none" 
	d="
M4.055995,65.459091 
	C6.767158,64.360977 9.472029,63.662144 12.589705,62.951733 
	C13.002509,62.940155 12.997681,62.994888 12.997865,63.393005 
	C12.997890,64.535324 12.997732,65.279526 12.597586,66.017532 
	C7.647914,66.157158 8.342020,68.948097 10.004013,71.266060 
	C11.586660,73.473366 13.978538,75.100456 16.175930,77.268829 
	C18.248529,79.313049 20.159834,81.071083 22.055346,83.226639 
	C22.349993,85.436584 22.660433,87.249008 22.970873,89.061432 
	C22.178135,88.786148 21.385395,88.510864 20.297525,88.114548 
	C15.575501,83.377045 10.861483,78.992493 6.857101,74.034767 
	C5.155397,71.927925 4.940374,68.620285 4.055995,65.459091 
z"/>
<path fill="#FDF3CC" opacity="1.000000" stroke="none" 
	d="
M84.764946,62.177063 
	C84.801529,62.581665 84.838120,62.986271 84.651962,63.921150 
	C85.204765,66.364021 85.980316,68.276619 86.778099,70.490479 
	C86.810066,71.194305 86.819794,71.596886 86.582382,72.270355 
	C86.887810,78.349976 87.440376,84.158707 87.684036,89.821526 
	C86.864822,88.462585 86.354500,87.249565 85.844170,86.036537 
	C81.210373,72.310333 76.576576,58.584126 72.089859,44.172668 
	C73.517822,42.611835 74.798714,41.736252 76.079613,40.860664 
	C78.077957,45.217655 80.076294,49.574650 82.393501,54.058681 
	C82.759842,54.587837 82.807320,54.989952 82.660248,55.873371 
	C82.900307,56.961136 83.334900,57.567593 83.769493,58.174049 
	C83.803833,58.579594 83.838181,58.985134 83.675392,59.867554 
	C83.907158,60.955307 84.336052,61.566185 84.764946,62.177063 
z"/>
<path fill="#E3B36C" opacity="1.000000" stroke="none" 
	d="
M68.946709,60.020828 
	C70.037926,60.013184 71.129135,60.005543 72.630913,59.995838 
	C76.370514,68.393188 79.699554,76.792595 83.074127,85.969879 
	C83.786850,89.843529 84.454041,92.939316 84.776787,95.995422 
	C83.617355,94.969887 82.802368,93.984024 81.985046,92.602158 
	C80.980026,89.135979 79.977356,86.065804 78.940414,82.633026 
	C75.586327,74.853905 72.266518,67.437363 68.946709,60.020828 
z"/>
<path fill="#FEEFB3" opacity="1.000000" stroke="none" 
	d="
M68.977150,39.029331 
	C66.859329,34.750332 64.635986,30.517960 62.707951,26.155092 
	C62.295803,25.222466 62.955204,23.816299 63.120956,22.628286 
	C64.196373,22.809891 65.822968,22.608435 66.258324,23.234869 
	C69.225182,27.503885 71.941391,31.947096 74.477722,36.667194 
	C72.470360,37.676643 70.723755,38.352989 68.977150,39.029331 
z"/>
<path fill="#F3CB84" opacity="1.000000" stroke="none" 
	d="
M85.121239,96.035095 
	C84.454041,92.939316 83.786850,89.843529 83.103607,86.357712 
	C83.777901,85.983147 84.468239,85.998619 85.501373,86.025314 
	C86.354500,87.249565 86.864822,88.462585 87.719681,90.120636 
	C89.030090,90.381912 89.995956,90.198174 91.246094,90.252563 
	C92.018898,92.660133 92.507431,94.829575 92.992264,97.452362 
	C92.968750,100.926422 92.948921,103.947144 92.581795,106.911179 
	C91.472862,105.344185 90.918472,103.670349 89.891739,102.369232 
	C88.849617,101.048622 87.341293,100.095894 86.032570,98.700508 
	C86.027832,98.231247 86.027664,98.043533 86.002518,97.585724 
	C85.692108,96.888786 85.406677,96.461937 85.121239,96.035095 
z"/>
<path fill="#FDF0C1" opacity="1.000000" stroke="none" 
	d="
M69.012543,39.366806 
	C70.723755,38.352989 72.470360,37.676643 74.606697,37.001213 
	C75.325134,38.068199 75.653839,39.134277 76.031082,40.530510 
	C74.798714,41.736252 73.517822,42.611835 72.069458,43.795116 
	C70.950638,42.636635 69.999290,41.170460 69.012543,39.366806 
z"/>
<path fill="#FDF4CE" opacity="1.000000" stroke="none" 
	d="
M96.835892,84.046608 
	C94.552200,69.310226 92.268517,54.573845 90.425926,39.418259 
	C92.920654,38.994560 94.974289,38.990067 97.256058,38.999657 
	C97.484192,39.013748 97.941223,39.023338 97.941223,39.023338 
	C97.982574,39.765850 98.023926,40.508366 98.111679,42.035866 
	C98.442688,44.949112 98.887794,47.070095 98.984627,49.206860 
	C99.450790,59.492863 99.822998,69.783127 100.175758,80.493378 
	C100.116875,82.621788 100.110794,84.328705 99.838150,86.154144 
	C99.058678,86.828102 98.545769,87.383522 97.883522,87.628036 
	C97.434753,86.226959 97.135323,85.136780 96.835892,84.046608 
z"/>
<path fill="#FDF2C8" opacity="1.000000" stroke="none" 
	d="
M107.329613,76.180275 
	C107.886497,75.288315 108.947998,74.381332 108.921959,73.506737 
	C108.671036,65.078407 108.278618,56.653313 107.831963,48.232323 
	C107.684135,45.445248 107.261719,42.672737 107.372322,39.446510 
	C109.156746,39.014309 110.533691,39.029171 111.910637,39.044033 
	C111.914055,51.362415 111.917480,63.680794 111.652786,76.732376 
	C110.933121,79.333420 110.481575,81.201248 109.692001,83.027855 
	C108.687813,82.917778 108.021652,82.848930 107.309425,82.477486 
	C107.213692,81.769379 107.164024,81.363861 107.158951,80.559677 
	C107.245567,78.834091 107.287590,77.507187 107.329613,76.180275 
z"/>
<path fill="#E4B367" opacity="1.000000" stroke="none" 
	d="
M107.218880,75.714279 
	C107.287590,77.507187 107.245567,78.834091 106.756165,80.578690 
	C105.250648,81.021873 104.192513,81.047371 103.096069,80.802109 
	C103.032936,80.350754 103.008110,80.170151 102.988907,79.521599 
	C102.308998,66.703995 101.623466,54.354351 100.937943,42.004700 
	C101.626671,42.352226 102.864296,42.624451 102.923820,43.058289 
	C104.394348,53.777901 105.740135,64.514618 107.218880,75.714279 
z"/>
<path fill="#F3D296" opacity="1.000000" stroke="none" 
	d="
M100.587708,42.002945 
	C101.623466,54.354351 102.308998,66.703995 102.642365,79.525970 
	C101.602989,80.022820 100.915779,80.047348 100.228561,80.071877 
	C99.822998,69.783127 99.450790,59.492863 98.984627,49.206860 
	C98.887794,47.070095 98.442688,44.949112 98.150223,42.405693 
	C98.840736,41.994083 99.539116,41.997639 100.587708,42.002945 
z"/>
<path fill="#F2C579" opacity="1.000000" stroke="none" 
	d="
M110.030029,83.069084 
	C110.481575,81.201248 110.933121,79.333420 111.639252,77.196198 
	C112.352417,76.946518 112.811005,76.966209 113.612305,76.979492 
	C113.647385,80.039032 113.339752,83.104980 113.016685,87.001251 
	C112.315422,92.215172 111.629585,96.598763 110.576401,101.031479 
	C108.506973,101.374657 106.804901,101.668724 105.074722,101.530411 
	C105.688774,96.728363 106.330925,92.358704 107.267998,88.258652 
	C107.864922,90.819931 108.166924,93.111626 108.468925,95.403313 
	C108.989296,95.389359 109.509659,95.375397 110.030029,95.361435 
	C110.030029,91.263985 110.030029,87.166534 110.030029,83.069084 
z"/>
<path fill="#FDEEB0" opacity="1.000000" stroke="none" 
	d="
M111.937599,38.622269 
	C110.533691,39.029171 109.156746,39.014309 107.362328,38.998138 
	C105.719757,34.134869 103.618340,29.282749 106.495842,23.629250 
	C112.180611,27.604753 110.572090,33.465096 111.937599,38.622269 
z"/>
<path fill="#FDF0C1" opacity="1.000000" stroke="none" 
	d="
M97.027916,38.985569 
	C94.974289,38.990067 92.920654,38.994560 90.426285,38.997917 
	C89.657661,37.576912 89.329781,36.157055 88.999390,34.368530 
	C91.384377,33.667446 93.771866,33.335022 96.569397,33.004108 
	C97.005188,33.447334 97.030930,33.889053 97.047424,35.060310 
	C97.034760,36.855087 97.031342,37.920330 97.027916,38.985569 
z"/>
<path fill="#F3D296" opacity="1.000000" stroke="none" 
	d="
M97.256058,38.999657 
	C97.031342,37.920330 97.034760,36.855087 97.073410,35.391178 
	C100.393570,35.188450 101.000557,36.450996 98.300613,38.955429 
	C97.941223,39.023338 97.484192,39.013748 97.256058,38.999657 
z"/>
<path fill="#F3C270" opacity="1.000000" stroke="none" 
	d="
M126.382477,86.038040 
	C130.158386,72.137367 134.296982,58.278194 138.712982,44.206760 
	C139.908829,45.133095 140.827301,46.271690 141.728348,48.045494 
	C141.102036,51.087879 140.493149,53.495056 139.622696,56.149124 
	C136.548065,64.263542 133.708740,72.122032 130.988174,80.021400 
	C130.827515,80.487892 131.622406,81.283463 131.972626,81.925896 
	C131.886551,85.395073 131.158188,88.055916 126.382477,86.038040 
z"/>
<path fill="#FDEEB0" opacity="1.000000" stroke="none" 
	d="
M132.131012,81.626076 
	C131.622406,81.283463 130.827515,80.487892 130.988174,80.021400 
	C133.708740,72.122032 136.548065,64.263542 140.000397,56.182762 
	C141.143799,55.978970 141.647949,55.988434 142.152100,55.997894 
	C138.864532,64.440681 135.576965,72.883469 132.131012,81.626076 
z"/>
<path fill="#F4BB5E" opacity="1.000000" stroke="none" 
	d="
M125.595276,102.997375 
	C122.840706,107.231316 119.722145,111.472977 116.298889,115.491188 
	C116.323853,113.844185 116.653511,112.420624 117.009125,110.708557 
	C117.011528,109.550819 116.987961,108.681602 116.969513,107.442596 
	C117.640045,105.080292 118.305450,103.087769 118.970856,101.095245 
	C119.422623,101.072891 119.874382,101.050537 120.665298,101.017929 
	C120.692711,105.314705 123.579193,102.853813 125.595276,102.997375 
z"/>
<path fill="#FEE992" opacity="1.000000" stroke="none" 
	d="
M142.403992,55.746025 
	C141.647949,55.988434 141.143799,55.978970 140.261963,55.935867 
	C140.493149,53.495056 141.102036,51.087879 141.855713,48.342224 
	C146.278290,50.145363 142.870377,52.959469 142.403992,55.746025 
z"/>
<path fill="#F3C97F" opacity="1.000000" stroke="none" 
	d="
M100.175758,80.493378 
	C100.915779,80.047348 101.602989,80.022820 102.636749,79.993927 
	C103.008110,80.170151 103.032936,80.350754 103.066269,81.261948 
	C103.038803,88.322174 103.002831,94.651817 102.609344,101.059532 
	C101.522705,102.602180 100.793579,104.066750 100.120796,105.418137 
	C99.032288,103.873421 98.019463,102.436104 96.997513,100.649155 
	C96.666054,99.197243 96.343742,98.094948 96.025414,96.563660 
	C95.388527,92.077629 94.747665,88.020599 94.106804,83.963577 
	C94.791023,83.981926 95.475250,84.000267 96.497681,84.032608 
	C97.135323,85.136780 97.434753,86.226959 97.839691,87.981766 
	C98.196243,91.304108 98.447281,93.961823 98.832375,98.038658 
	C101.828552,93.314003 101.473862,89.727715 100.104713,86.035622 
	C100.110794,84.328705 100.116875,82.621788 100.175758,80.493378 
z"/>
<path fill="#E3B36B" opacity="1.000000" stroke="none" 
	d="
M86.829529,71.999458 
	C86.819794,71.596886 86.810066,71.194305 86.857635,70.132217 
	C86.941360,68.988182 86.967789,68.503662 86.994217,68.019150 
	C87.884384,67.501862 88.774551,66.984566 89.856461,66.208755 
	C91.333694,71.032921 92.619186,76.115616 93.548370,81.600922 
	C92.136902,82.005310 91.081741,82.007103 89.961288,81.623810 
	C88.873840,78.158974 87.851685,75.079216 86.829529,71.999458 
z"/>
<path fill="#E2AD5C" opacity="1.000000" stroke="none" 
	d="
M90.026573,82.008888 
	C91.081741,82.007103 92.136902,82.005310 93.587143,82.004791 
	C94.003708,82.441658 94.025200,82.877274 94.076744,83.638229 
	C94.747665,88.020599 95.388527,92.077629 95.646843,96.566696 
	C94.508179,96.998840 93.752075,96.998932 92.995964,96.999023 
	C92.507431,94.829575 92.018898,92.660133 91.251808,89.839325 
	C90.657692,86.794937 90.342133,84.401909 90.026573,82.008888 
z"/>
<path fill="#F4C16C" opacity="1.000000" stroke="none" 
	d="
M23.126621,89.355789 
	C22.660433,87.249008 22.349993,85.436584 22.392796,83.309982 
	C28.163679,86.994225 33.581318,90.992630 39.197071,95.268242 
	C40.719784,96.496887 41.988262,97.541283 43.379955,98.381615 
	C46.952332,100.538734 50.402832,103.401863 55.298286,101.105675 
	C56.364292,101.500824 57.142895,101.770576 57.980141,102.379974 
	C60.705051,106.144394 63.371323,109.569176 65.599808,112.995743 
	C61.940220,112.426941 58.697727,111.951599 55.502762,111.257462 
	C52.633381,110.634056 49.816231,109.770241 46.976040,109.012482 
	C39.078152,102.558372 31.180262,96.104256 23.126621,89.355789 
z"/>
<path fill="#F4BD65" opacity="1.000000" stroke="none" 
	d="
M47.130257,109.312553 
	C49.816231,109.770241 52.633381,110.634056 55.502762,111.257462 
	C58.697727,111.951599 61.940220,112.426941 65.898697,113.145432 
	C68.097069,115.194412 69.558777,117.095505 70.664703,119.149353 
	C66.529671,119.206642 62.750423,119.111168 58.971172,119.015701 
	C55.075607,115.881332 51.180038,112.746979 47.130257,109.312553 
z"/>
<path fill="#F4BB5E" opacity="1.000000" stroke="none" 
	d="
M59.084328,119.272034 
	C62.750423,119.111168 66.529671,119.206642 70.962067,119.303024 
	C73.061783,120.883324 74.508347,122.462708 75.970451,124.367355 
	C76.006447,125.126694 76.026901,125.560760 75.628036,125.996643 
	C72.800224,126.335854 70.391731,126.673264 67.983238,127.010666 
	C65.524033,125.102707 63.064823,123.194748 60.306702,121.141571 
	C59.737686,120.507027 59.467587,120.017700 59.084328,119.272034 
z"/>
<path fill="#F2CF95" opacity="1.000000" stroke="none" 
	d="
M86.740234,67.793793 
	C86.967789,68.503662 86.941360,68.988182 86.835403,69.830956 
	C85.980316,68.276619 85.204765,66.364021 84.659805,64.225754 
	C85.422348,65.189537 85.954308,66.378990 86.740234,67.793793 
z"/>
<path fill="#F2CF95" opacity="1.000000" stroke="none" 
	d="
M84.825760,61.853798 
	C84.336052,61.566185 83.907158,60.955307 83.687904,60.172569 
	C84.227226,60.510647 84.556900,61.020588 84.825760,61.853798 
z"/>
<path fill="#F2CF95" opacity="1.000000" stroke="none" 
	d="
M83.826706,57.849453 
	C83.334900,57.567593 82.900307,56.961136 82.668488,56.178246 
	C83.208817,56.509491 83.546364,57.017174 83.826706,57.849453 
z"/>
<path fill="#F2C375" opacity="1.000000" stroke="none" 
	d="
M114.972229,87.003685 
	C115.309242,84.927727 115.646255,82.851776 116.391129,80.384918 
	C117.825226,80.005585 118.851479,80.017159 119.874222,80.387009 
	C119.605865,82.149811 119.341011,83.554314 118.769943,85.239334 
	C118.309464,88.680420 118.155190,91.840996 118.000458,95.000778 
	C118.000000,95.000000 118.002136,95.004532 117.782623,95.110458 
	C117.289848,95.414528 117.102737,95.674667 116.631966,95.997421 
	C115.523933,95.993172 114.785736,95.988304 114.040771,95.566422 
	C114.346741,92.434166 114.659485,89.718925 114.972229,87.003685 
z"/>
<path fill="#E5A950" opacity="1.000000" stroke="none" 
	d="
M114.653931,87.002930 
	C114.659485,89.718925 114.346741,92.434166 114.017380,95.940834 
	C113.233589,98.330101 114.403412,101.321167 110.943756,100.982361 
	C111.629585,96.598763 112.315422,92.215172 113.032593,87.419556 
	C113.487831,87.005753 113.911736,87.003960 114.653931,87.002930 
z"/>
<path fill="#F3CB84" opacity="1.000000" stroke="none" 
	d="
M119.877731,80.028725 
	C118.851479,80.017159 117.825226,80.005585 116.415176,79.989822 
	C116.045029,78.234879 116.058678,76.484131 116.119408,74.367950 
	C117.465210,74.001442 118.763931,74.000374 120.454178,74.378967 
	C120.523033,76.515327 120.200378,78.272026 119.877731,80.028725 
z"/>
<path fill="#F3C882" opacity="1.000000" stroke="none" 
	d="
M31.974951,72.043587 
	C30.326185,65.949554 28.677422,59.855526 27.315987,53.485786 
	C28.375875,53.505104 29.148434,53.800125 29.980862,54.393520 
	C30.629269,55.156834 31.217804,55.621773 31.884804,56.428024 
	C38.975510,64.846100 45.987755,72.922852 53.047062,81.334473 
	C54.709236,83.652290 56.324345,85.635254 57.801643,87.449020 
	C59.143890,86.429649 60.086212,85.713997 61.330891,85.153130 
	C63.757729,89.201317 65.882210,93.094719 67.850250,97.293663 
	C66.426765,97.760094 65.100952,98.238533 63.904686,98.017105 
	C61.249905,97.525726 58.660084,96.683411 55.883343,95.691971 
	C52.152996,91.757759 48.682495,88.010818 44.982906,84.505676 
	C41.807617,81.497284 38.370411,78.765335 34.904167,75.635086 
	C33.831184,74.253876 32.903069,73.148735 31.974951,72.043587 
z"/>
<path fill="#FEEB9F" opacity="1.000000" stroke="none" 
	d="
M29.920994,54.095146 
	C29.148434,53.800125 28.375875,53.505104 27.318687,53.078289 
	C26.196499,51.572765 24.887434,50.268517 24.671501,48.803185 
	C24.500685,47.644024 25.672075,46.287071 26.818386,45.276634 
	C29.284451,47.336815 31.179554,49.138309 32.722427,50.992851 
	C31.553797,52.062317 30.737394,53.078732 29.920994,54.095146 
z"/>
<path fill="#F3C882" opacity="1.000000" stroke="none" 
	d="
M33.074657,50.939804 
	C31.179554,49.138309 29.284451,47.336815 27.194733,45.266594 
	C27.000366,44.250923 27.000616,43.503979 27.003288,42.383827 
	C30.586889,44.463863 34.168068,46.917110 37.551659,49.710442 
	C36.240921,50.364956 35.127766,50.679379 33.779442,50.982231 
	C33.544266,50.970661 33.074657,50.939804 33.074657,50.939804 
z"/>
<path fill="#E4A54B" opacity="1.000000" stroke="none" 
	d="
M31.667183,71.906174 
	C32.903069,73.148735 33.831184,74.253876 34.886467,76.059555 
	C35.009666,78.160995 35.005707,79.561897 34.701317,80.819778 
	C31.907705,77.144119 29.414524,73.611488 26.921341,70.078850 
	C26.921339,70.078850 26.998358,70.001419 27.037750,69.961624 
	C28.504564,70.537476 29.931990,71.153114 31.667183,71.906174 
z"/>
<path fill="#F3BF68" opacity="1.000000" stroke="none" 
	d="
M110.576401,101.031479 
	C114.403412,101.321167 113.233589,98.330101 114.024147,96.357849 
	C114.785736,95.988304 115.523933,95.993172 116.851601,95.891693 
	C117.715141,95.587631 117.902161,95.327362 118.002136,95.004532 
	C118.002136,95.004532 118.000000,95.000000 118.247665,94.996986 
	C118.495331,94.993973 118.989655,94.980919 118.989655,94.980919 
	C118.989655,94.980919 119.486656,94.991264 119.734970,94.996109 
	C119.983276,95.000954 120.002563,95.002670 120.006332,95.227684 
	C120.010101,95.452698 119.997620,95.887611 119.997620,95.887611 
	C119.662186,97.364868 119.326752,98.842117 118.981087,100.707306 
	C118.305450,103.087769 117.640045,105.080292 116.691841,107.523529 
	C116.236374,108.965683 116.063705,109.957123 115.661438,110.950989 
	C115.431847,110.953430 114.973625,110.983536 114.580811,110.988159 
	C113.140427,110.989616 112.092857,110.986458 111.038177,110.578354 
	C111.237267,107.985352 111.443466,105.797279 111.649673,103.609215 
	C111.244339,103.580727 110.838997,103.552238 110.433662,103.523758 
	C109.620941,107.348442 108.808220,111.173126 107.995499,114.997818 
	C107.820107,115.546181 107.644699,116.094543 107.030701,116.556580 
	C105.737961,116.309837 104.883820,116.149422 104.035080,115.570129 
	C104.394600,110.755104 104.748718,106.358955 105.102829,101.962799 
	C106.804901,101.668724 108.506973,101.374657 110.576401,101.031479 
z"/>
<path fill="#F3C67A" opacity="1.000000" stroke="none" 
	d="
M120.148270,95.819206 
	C119.997620,95.887611 120.010101,95.452698 120.004318,95.235474 
	C119.998543,95.018242 120.373009,95.321808 120.373009,95.321808 
	C120.373009,95.321808 120.298927,95.750801 120.148270,95.819206 
z"/>
<path fill="#FDF0C1" opacity="1.000000" stroke="none" 
	d="
M119.874222,80.387009 
	C120.200378,78.272026 120.523033,76.515327 120.847847,74.378510 
	C121.904877,64.296783 122.959747,54.595181 124.413422,44.456772 
	C126.512428,44.354549 128.212631,44.689137 129.912811,45.023720 
	C126.969116,58.091793 124.025414,71.159866 120.716309,84.615852 
	C119.925995,84.988785 119.501076,84.973801 119.076157,84.958824 
	C119.341011,83.554314 119.605865,82.149811 119.874222,80.387009 
z"/>
<path fill="#FDEEB0" opacity="1.000000" stroke="none" 
	d="
M129.951614,44.622353 
	C128.212631,44.689137 126.512428,44.354549 124.437576,44.019779 
	C124.052834,42.953327 124.042747,41.887054 124.053406,40.422401 
	C125.799889,40.321693 127.525635,40.619362 129.629150,40.958832 
	C130.001419,42.074078 129.995911,43.147530 129.951614,44.622353 
z"/>
<path fill="#F2CF95" opacity="1.000000" stroke="none" 
	d="
M68.649223,59.848557 
	C72.266518,67.437363 75.586327,74.853905 78.585419,82.676407 
	C76.864655,84.658165 75.464607,86.233971 73.514381,88.429001 
	C72.885338,85.758179 72.443474,83.882080 71.999199,81.597404 
	C71.869049,80.208260 71.959610,79.132683 71.580460,78.261536 
	C66.748955,67.160606 61.850086,56.089001 56.847679,44.691238 
	C55.507023,42.875717 54.287033,41.378895 53.055214,39.520332 
	C51.358334,36.462486 49.673279,33.766384 47.988224,31.070284 
	C47.993504,30.875549 47.998783,30.680813 48.018387,30.193085 
	C50.151360,31.853428 52.808205,33.467960 54.290150,35.822102 
	C59.205284,43.630009 63.697376,51.704224 68.649223,59.848557 
z"/>
<path fill="#E4982F" opacity="1.000000" stroke="none" 
	d="
M111.537148,127.011353 
	C111.942596,127.015984 111.942352,127.483162 111.833420,127.931396 
	C111.522903,128.642258 111.268188,128.834503 110.667763,128.985672 
	C109.916656,129.342850 109.458145,129.670715 108.694916,130.141693 
	C106.263039,133.193268 104.135887,136.101730 102.004364,139.005096 
	C102.000000,139.000000 102.010101,139.008804 101.687668,139.027374 
	C100.578476,139.700699 99.791710,140.355453 99.004944,141.010208 
	C97.128845,142.163025 95.252747,143.315842 93.188782,144.735229 
	C88.942490,145.007355 84.884071,145.012909 80.207687,144.747253 
	C78.729820,144.311752 77.869919,144.147461 76.758194,143.977631 
	C76.338707,143.981186 76.171036,143.990280 75.705353,143.844894 
	C73.595673,142.145126 71.784004,140.599869 69.985291,139.038727 
	C69.998253,139.022873 70.012024,138.984970 69.949188,138.649597 
	C68.960670,137.834442 68.034981,137.354675 67.074440,136.568817 
	C66.989998,135.855270 66.940414,135.447845 66.890823,135.040405 
	C68.467842,134.185059 70.044861,133.329712 72.161652,132.259399 
	C76.563171,134.825150 80.424911,137.605865 84.751251,140.721115 
	C84.837761,138.775818 84.900719,137.360046 85.300247,135.967590 
	C86.085457,136.001526 86.534088,136.012161 87.024902,136.325195 
	C88.049385,136.746460 89.031700,136.865295 90.234726,136.883453 
	C90.726974,136.586029 90.916138,136.328705 91.321747,135.985199 
	C92.082458,135.626572 92.544365,135.293549 93.361580,134.912613 
	C94.483315,132.914627 95.249748,130.964569 96.290977,129.266479 
	C96.934891,131.259796 97.304016,133.001099 97.673141,134.742401 
	C98.092178,134.759903 98.511215,134.777405 98.930252,134.794891 
	C99.288666,133.531174 99.647079,132.267456 100.257492,131.170761 
	C101.338776,131.223495 102.168068,131.109192 103.119247,130.699570 
	C103.502785,129.605072 103.764427,128.805893 104.026077,128.006729 
	C106.394615,127.673393 108.763161,127.340057 111.537148,127.011353 
z"/>
<path fill="#F4BA5A" opacity="1.000000" stroke="none" 
	d="
M111.045288,110.983292 
	C112.092857,110.986458 113.140427,110.989616 114.444977,111.331879 
	C114.115883,114.091141 113.529800,116.511292 112.943726,118.931442 
	C111.369431,120.444443 109.795151,121.957443 107.573059,124.093025 
	C108.138351,120.927200 108.596016,118.364113 109.325241,115.203934 
	C110.079636,113.398987 110.562469,112.191139 111.045288,110.983292 
z"/>
<path fill="#F3B654" opacity="1.000000" stroke="none" 
	d="
M104.060455,127.624260 
	C103.764427,128.805893 103.502785,129.605072 102.834274,130.437668 
	C102.941429,125.649864 103.455444,120.828636 103.984299,116.003174 
	C103.999130,115.998955 104.029671,115.989006 104.029671,115.989006 
	C104.883820,116.149422 105.737961,116.309837 106.794426,116.730499 
	C106.029434,120.407761 105.062134,123.824776 104.060455,127.624260 
z"/>
<path fill="#E9A644" opacity="1.000000" stroke="none" 
	d="
M111.038177,110.578354 
	C110.562469,112.191139 110.079636,113.398987 109.342201,114.803711 
	C108.905602,115.000595 108.723602,115.000595 108.268547,114.999207 
	C108.808220,111.173126 109.620941,107.348442 110.433662,103.523758 
	C110.838997,103.552238 111.244339,103.580727 111.649673,103.609215 
	C111.443466,105.797279 111.237267,107.985352 111.038177,110.578354 
z"/>
<path fill="#E5A74C" opacity="1.000000" stroke="none" 
	d="
M113.272728,118.932007 
	C113.529800,116.511292 114.115883,114.091141 114.837799,111.327263 
	C114.973625,110.983536 115.431847,110.953430 115.934898,110.969269 
	C116.619690,110.989098 116.801437,110.993080 116.983170,110.997070 
	C116.653511,112.420624 116.323853,113.844185 115.997040,115.642021 
	C115.999886,116.016304 115.999893,115.996643 115.839218,116.078171 
	C115.609978,116.262383 115.461304,116.424438 115.486115,116.457909 
	C115.624886,116.645119 115.805565,116.801277 115.971939,116.968040 
	C115.181870,117.622887 114.391800,118.277733 113.272728,118.932007 
z"/>
<path fill="#F4BB5E" opacity="1.000000" stroke="none" 
	d="
M115.981651,116.724579 
	C115.805565,116.801277 115.624886,116.645119 115.486115,116.457909 
	C115.461304,116.424438 115.609978,116.262383 115.847504,116.077072 
	C116.016472,115.994438 115.991364,116.481110 115.981651,116.724579 
z"/>
<path fill="#F3C882" opacity="1.000000" stroke="none" 
	d="
M110.960350,128.956360 
	C111.268188,128.834503 111.522903,128.642258 111.836243,128.164963 
	C112.975739,129.066238 114.003479,130.182159 115.077080,131.668610 
	C115.090218,133.417038 115.057487,134.794922 114.625404,136.592651 
	C111.143196,137.332352 108.060349,137.652191 105.124199,137.678452 
	C106.510063,135.579773 107.749222,133.774658 109.277954,131.830505 
	C110.031799,130.779755 110.496071,129.868057 110.960350,128.956360 
z"/>
<path fill="#F3C270" opacity="1.000000" stroke="none" 
	d="
M104.977501,137.972015 
	C108.060349,137.652191 111.143196,137.332352 114.613846,137.006866 
	C112.973206,142.622894 103.327370,145.994644 99.252548,142.303024 
	C100.468971,140.965469 101.239540,139.987137 102.010101,139.008804 
	C102.010101,139.008804 102.000000,139.000000 102.322334,138.983063 
	C103.422279,138.634750 104.199890,138.303375 104.977501,137.972015 
z"/>
<path fill="#E1AA56" opacity="1.000000" stroke="none" 
	d="
M101.687668,139.027374 
	C101.239540,139.987137 100.468971,140.965469 99.362244,141.991943 
	C99.020706,141.868439 99.015335,141.696777 99.007454,141.267670 
	C99.791710,140.355453 100.578476,139.700699 101.687668,139.027374 
z"/>
<path fill="#F3C270" opacity="1.000000" stroke="none" 
	d="
M69.972328,139.054596 
	C71.784004,140.599869 73.595673,142.145126 75.527740,144.170807 
	C74.183495,144.971283 72.650696,145.738464 71.266983,145.527557 
	C67.130341,144.897049 63.052082,143.883514 58.951023,143.019531 
	C58.877003,141.555450 58.802986,140.091385 58.849304,138.314850 
	C58.969635,138.002396 59.464073,137.976013 59.881233,138.284790 
	C61.842381,139.393982 63.309765,140.478836 64.950325,140.920685 
	C66.871635,141.438171 69.605499,143.115509 69.972328,139.054596 
z"/>
<path fill="#F4BD65" opacity="1.000000" stroke="none" 
	d="
M58.966312,143.398361 
	C63.052082,143.883514 67.130341,144.897049 71.266983,145.527557 
	C72.650696,145.738464 74.183495,144.971283 75.825745,144.325287 
	C76.171036,143.990280 76.338707,143.981186 76.870193,144.248749 
	C77.820755,145.017761 78.407478,145.510101 78.994202,146.002441 
	C75.081978,150.069107 61.757046,148.587479 58.966312,143.398361 
z"/>
<path fill="#E4A54B" opacity="1.000000" stroke="none" 
	d="
M79.214767,145.894196 
	C78.407478,145.510101 77.820755,145.017761 77.122017,144.254288 
	C77.869919,144.147461 78.729820,144.311752 79.795319,144.737411 
	C79.898628,145.323135 79.710106,145.585526 79.214767,145.894196 
z"/>
<path fill="#F2CF95" opacity="1.000000" stroke="none" 
	d="
M41.944088,49.369843 
	C42.703251,46.746143 43.483601,44.448097 44.892509,42.247154 
	C46.342007,43.239792 47.162937,44.135323 48.114368,45.323097 
	C49.150593,46.762539 50.056313,47.909733 51.004234,49.402992 
	C57.050491,60.157875 63.054554,70.566696 68.657089,80.982224 
	C66.179260,80.657326 64.102959,80.325706 61.845207,79.749237 
	C61.114201,79.244225 60.564644,78.984070 60.016968,78.590042 
	C60.018848,78.456177 60.013760,78.188461 59.990852,77.812119 
	C53.990963,68.623917 48.013981,59.812065 42.036995,51.000210 
	C42.013088,50.565304 41.989182,50.130402 41.944088,49.369843 
z"/>
<path fill="#F2CE8F" opacity="1.000000" stroke="none" 
	d="
M60.013756,78.188461 
	C60.013760,78.188461 60.018848,78.456177 59.815434,78.847702 
	C60.084190,81.158928 60.556366,83.078644 61.028534,84.998352 
	C60.086212,85.713997 59.143890,86.429649 57.801643,87.449020 
	C56.324345,85.635254 54.709236,83.652290 53.040649,80.958115 
	C52.357986,78.574562 52.033722,76.691483 51.048180,75.265411 
	C46.109760,68.119522 40.998207,61.093285 35.842705,53.741234 
	C35.163475,52.636246 34.589046,51.815025 34.014614,50.993797 
	C35.127766,50.679379 36.240921,50.364956 37.704086,50.010139 
	C38.524033,50.246052 38.993969,50.522350 39.760544,51.257553 
	C45.369469,59.784779 50.612835,67.900307 56.071522,75.868332 
	C56.851845,77.007370 58.673851,77.432785 60.013756,78.188461 
z"/>
<path fill="#E5B56E" opacity="1.000000" stroke="none" 
	d="
M59.990852,77.812119 
	C58.673851,77.432785 56.851845,77.007370 56.071522,75.868332 
	C50.612835,67.900307 45.369469,59.784779 40.008770,51.373035 
	C40.421673,51.020699 40.882992,51.011787 41.690651,51.001545 
	C48.013981,59.812065 53.990963,68.623917 59.990852,77.812119 
z"/>
<path fill="#F3CB84" opacity="1.000000" stroke="none" 
	d="
M118.769943,85.239334 
	C119.501076,84.973801 119.925995,84.988785 120.670044,84.994553 
	C120.324753,88.050621 119.660339,91.115898 118.992790,94.581055 
	C118.989655,94.980919 118.495331,94.993973 118.248123,94.997772 
	C118.155190,91.840996 118.309464,88.680420 118.769943,85.239334 
z"/>
<path fill="#F3C577" opacity="1.000000" stroke="none" 
	d="
M26.558903,70.072769 
	C29.414524,73.611488 31.907705,77.144119 34.844566,81.126480 
	C41.862453,88.044235 48.436665,94.512253 55.010880,100.980278 
	C50.402832,103.401863 46.952332,100.538734 43.379955,98.381615 
	C41.988262,97.541283 40.719784,96.496887 39.306755,94.979202 
	C38.225098,92.500183 37.583389,90.264519 36.175938,88.732201 
	C30.933828,83.024994 25.440254,77.548759 20.364546,71.958130 
	C21.796370,71.282967 22.904705,70.635513 24.013039,69.988052 
	C24.740847,70.014267 25.468655,70.040482 26.558903,70.072769 
z"/>
<path fill="#F4C16C" opacity="1.000000" stroke="none" 
	d="
M23.862062,69.684067 
	C22.904705,70.635513 21.796370,71.282967 20.128201,71.932823 
	C19.568369,71.935226 19.097073,71.878723 19.031052,71.549057 
	C16.975878,69.487495 14.986726,67.755615 12.997573,66.023727 
	C12.997732,65.279526 12.997890,64.535324 12.995745,63.420395 
	C16.565989,65.159805 20.138536,67.269951 23.862062,69.684067 
z"/>
<path fill="#F3B654" opacity="1.000000" stroke="none" 
	d="
M84.963684,135.944290 
	C84.900719,137.360046 84.837761,138.775818 84.751251,140.721115 
	C80.424911,137.605865 76.563171,134.825150 72.356461,131.987335 
	C70.763710,130.482391 69.515923,129.034561 68.125687,127.298706 
	C70.391731,126.673264 72.800224,126.335854 75.924835,126.151657 
	C77.748550,127.703796 78.755318,129.200134 79.989090,130.477158 
	C81.555519,132.098526 83.306114,133.541977 84.974274,135.282684 
	C84.971237,135.503220 84.963676,135.944290 84.963684,135.944290 
z"/>
<path fill="#F3C67A" opacity="1.000000" stroke="none" 
	d="
M69.985291,139.038727 
	C69.605499,143.115509 66.871635,141.438171 64.950325,140.920685 
	C63.309765,140.478836 61.842381,139.393982 60.128616,138.275055 
	C61.082020,136.630646 62.205200,135.304749 63.697651,133.950348 
	C64.793594,134.290176 65.520271,134.658493 66.568878,135.033615 
	C66.940414,135.447845 66.989998,135.855270 67.170135,136.884674 
	C68.204460,137.999405 69.108246,138.492188 70.012024,138.984970 
	C70.012024,138.984970 69.998253,139.022873 69.985291,139.038727 
z"/>
<path fill="#FEEFB3" opacity="1.000000" stroke="none" 
	d="
M47.983871,45.030853 
	C47.162937,44.135323 46.342007,43.239792 45.266586,42.171635 
	C44.440235,40.502380 43.646957,39.049232 43.342728,37.500046 
	C42.714939,34.303238 42.519741,31.158852 47.593628,31.055908 
	C49.673279,33.766384 51.358334,36.462486 52.863823,39.808418 
	C51.117462,41.982452 49.550667,43.506657 47.983871,45.030853 
z"/>
<path fill="#FEF0BB" opacity="1.000000" stroke="none" 
	d="
M19.097073,71.878723 
	C19.097073,71.878723 19.568369,71.935226 19.804714,71.960541 
	C25.440254,77.548759 30.933828,83.024994 36.175938,88.732201 
	C37.583389,90.264519 38.225098,92.500183 39.108643,94.702011 
	C33.581318,90.992630 28.163679,86.994225 22.408588,82.912460 
	C20.159834,81.071083 18.248529,79.313049 16.178120,76.913940 
	C17.045034,74.808159 18.071054,73.343437 19.097073,71.878723 
z"/>
<path fill="#FEE992" opacity="1.000000" stroke="none" 
	d="
M19.031052,71.549057 
	C18.071054,73.343437 17.045034,74.808159 16.016825,76.627754 
	C13.978538,75.100456 11.586660,73.473366 10.004013,71.266060 
	C8.342020,68.948097 7.647914,66.157158 12.597586,66.017532 
	C14.986726,67.755615 16.975878,69.487495 19.031052,71.549057 
z"/>
<path fill="#F2CF95" opacity="1.000000" stroke="none" 
	d="
M89.961288,81.623810 
	C90.342133,84.401909 90.657692,86.794937 90.967537,89.601196 
	C89.995956,90.198174 89.030090,90.381912 88.028580,90.266541 
	C87.440376,84.158707 86.887810,78.349976 86.582382,72.270355 
	C87.851685,75.079216 88.873840,78.158974 89.961288,81.623810 
z"/>
<path fill="#F2CC8B" opacity="1.000000" stroke="none" 
	d="
M62.026649,79.994087 
	C64.102959,80.325706 66.179260,80.657326 68.943909,81.117554 
	C70.422043,81.499443 71.211823,81.752716 72.001610,82.005981 
	C72.443474,83.882080 72.885338,85.758179 73.514381,88.429001 
	C75.464607,86.233971 76.864655,84.658165 78.619698,83.038994 
	C79.977356,86.065804 80.980026,89.135979 81.646133,92.656265 
	C80.510185,94.008202 79.710793,94.910042 79.812759,94.795006 
	C75.620483,93.706642 72.320854,92.850014 68.862267,91.692970 
	C66.477753,87.593063 64.252197,83.793579 62.026649,79.994087 
z"/>
<path fill="#F3C97F" opacity="1.000000" stroke="none" 
	d="
M69.021233,91.993393 
	C72.320854,92.850014 75.620483,93.706642 79.812759,94.795006 
	C79.710793,94.910042 80.510185,94.008202 81.648483,93.052261 
	C82.802368,93.984024 83.617355,94.969887 84.776787,95.995422 
	C85.406677,96.461937 85.692108,96.888786 85.749405,97.776360 
	C85.333824,98.821144 85.146385,99.405197 84.503304,99.992607 
	C80.382530,99.992447 76.717392,99.988945 72.894066,99.689423 
	C71.826797,97.920616 70.917725,96.447838 69.984467,94.658241 
	C69.647263,93.558746 69.334244,92.776070 69.021233,91.993393 
z"/>
<path fill="#E5A74C" opacity="1.000000" stroke="none" 
	d="
M92.992264,97.452362 
	C93.752075,96.998932 94.508179,96.998840 95.642860,96.995705 
	C96.343742,98.094948 96.666054,99.197243 96.988365,101.090118 
	C97.301666,105.257431 97.614975,108.634148 97.562836,112.007736 
	C96.462242,112.003685 95.727112,112.002762 94.886047,111.785339 
	C94.590591,111.293983 94.337387,111.103989 94.015808,110.644348 
	C93.650444,109.182518 93.289764,108.075188 92.929092,106.967857 
	C92.948921,103.947144 92.968750,100.926422 92.992264,97.452362 
z"/>
<path fill="#F3C270" opacity="1.000000" stroke="none" 
	d="
M92.581795,106.911179 
	C93.289764,108.075188 93.650444,109.182518 93.613678,110.645317 
	C92.146011,110.999741 91.075798,110.998703 89.853027,110.655273 
	C88.479370,106.535934 87.258263,102.758995 86.037148,98.982048 
	C87.341293,100.095894 88.849617,101.048622 89.891739,102.369232 
	C90.918472,103.670349 91.472862,105.344185 92.581795,106.911179 
z"/>
<path fill="#E5A950" opacity="1.000000" stroke="none" 
	d="
M86.032570,98.700508 
	C87.258263,102.758995 88.479370,106.535934 89.845078,111.015305 
	C89.318909,112.510368 88.648148,113.303001 87.710693,113.832993 
	C86.962868,111.380264 86.481735,109.190178 85.997025,106.604561 
	C85.648605,104.135773 85.303780,102.062515 84.958946,99.989258 
	C85.146385,99.405197 85.333824,98.821144 85.774384,98.046448 
	C86.027664,98.043533 86.027832,98.231247 86.032570,98.700508 
z"/>
<path fill="#F3D296" opacity="1.000000" stroke="none" 
	d="
M99.838150,86.154144 
	C101.473862,89.727715 101.828552,93.314003 98.832375,98.038658 
	C98.447281,93.961823 98.196243,91.304108 97.989029,88.292664 
	C98.545769,87.383522 99.058678,86.828102 99.838150,86.154144 
z"/>
<path fill="#E5A950" opacity="1.000000" stroke="none" 
	d="
M105.074722,101.530411 
	C104.748718,106.358955 104.394600,110.755104 104.035080,115.570129 
	C104.029671,115.989006 103.999130,115.998955 103.660095,116.000763 
	C102.888206,116.005882 102.455353,116.009178 102.012260,115.579178 
	C102.323631,110.424408 102.645241,105.702927 102.966858,100.981453 
	C103.002831,94.651817 103.038803,88.322174 103.104576,81.532700 
	C104.192513,81.047371 105.250648,81.021873 106.711563,80.977364 
	C107.164024,81.363861 107.213692,81.769379 107.179016,82.904984 
	C107.054138,85.086403 107.013603,86.537727 106.973076,87.989052 
	C106.330925,92.358704 105.688774,96.728363 105.074722,101.530411 
z"/>
<path fill="#F3D093" opacity="1.000000" stroke="none" 
	d="
M107.267998,88.258652 
	C107.013603,86.537727 107.054138,85.086403 107.225082,83.207581 
	C108.021652,82.848930 108.687813,82.917778 109.692001,83.027855 
	C110.030029,87.166534 110.030029,91.263985 110.030029,95.361435 
	C109.509659,95.375397 108.989296,95.389359 108.468925,95.403313 
	C108.166924,93.111626 107.864922,90.819931 107.267998,88.258652 
z"/>
<path fill="#E2A549" opacity="1.000000" stroke="none" 
	d="
M117.009132,110.708557 
	C116.801437,110.993080 116.619690,110.989098 116.164490,110.966827 
	C116.063705,109.957123 116.236374,108.965683 116.686722,107.893318 
	C116.987961,108.681602 117.011528,109.550819 117.009132,110.708557 
z"/>
<path fill="#F3BF68" opacity="1.000000" stroke="none" 
	d="
M102.609344,101.059532 
	C102.645241,105.702927 102.323631,110.424408 102.002213,115.574333 
	C102.002411,116.002785 101.987320,115.993111 101.590210,115.995827 
	C100.133858,115.988548 99.074615,115.978561 98.013596,115.731949 
	C98.011818,115.495331 98.007828,115.022087 98.001373,114.645187 
	C97.972702,113.515808 97.950493,112.763344 97.928284,112.010872 
	C97.614975,108.634148 97.301666,105.257431 96.997498,101.439743 
	C98.019463,102.436104 99.032288,103.873421 100.120796,105.418137 
	C100.793579,104.066750 101.522705,102.602180 102.609344,101.059532 
z"/>
<path fill="#E3AA55" opacity="1.000000" stroke="none" 
	d="
M55.298286,101.105675 
	C48.436665,94.512253 41.862453,88.044235 35.144989,81.269501 
	C35.005707,79.561897 35.009666,78.160995 35.031330,76.335617 
	C38.370411,78.765335 41.807617,81.497284 44.982906,84.505676 
	C48.682495,88.010818 52.152996,91.757759 56.013611,95.992683 
	C57.214130,98.027237 58.123955,99.468872 58.912857,101.154984 
	C58.501789,101.613075 58.211643,101.826698 57.921501,102.040329 
	C57.142895,101.770576 56.364292,101.500824 55.298286,101.105675 
z"/>
<path fill="#E5A74C" opacity="1.000000" stroke="none" 
	d="
M57.980141,102.379967 
	C58.211643,101.826698 58.501789,101.613075 59.208355,101.322296 
	C62.407253,104.168922 65.189735,107.092697 68.015427,110.361023 
	C70.710640,114.133270 73.362633,117.560982 76.115417,121.250870 
	C76.478020,122.008377 76.739830,122.503700 76.774521,123.113098 
	C76.349907,123.498817 76.152412,123.770462 75.954910,124.042099 
	C74.508347,122.462708 73.061783,120.883324 71.317848,119.150269 
	C69.558777,117.095505 68.097069,115.194412 66.336487,113.143639 
	C63.371323,109.569176 60.705051,106.144394 57.980141,102.379967 
z"/>
<path fill="#E8A23C" opacity="1.000000" stroke="none" 
	d="
M75.970451,124.367355 
	C76.152412,123.770462 76.349907,123.498817 77.042870,123.310516 
	C79.683243,126.253784 81.828148,129.113693 84.241669,132.185394 
	C84.665947,133.285507 84.821625,134.173813 84.977303,135.062134 
	C83.306114,133.541977 81.555519,132.098526 79.989090,130.477158 
	C78.755318,129.200134 77.748550,127.703796 76.344147,126.149849 
	C76.026901,125.560760 76.006447,125.126694 75.970451,124.367355 
z"/>
<path fill="#F3C67A" opacity="1.000000" stroke="none" 
	d="
M117.782623,95.110458 
	C117.902161,95.327362 117.715141,95.587631 117.221436,95.891068 
	C117.102737,95.674667 117.289848,95.414528 117.782623,95.110458 
z"/>
<path fill="#FDF1C7" opacity="1.000000" stroke="none" 
	d="
M35.947502,54.024994 
	C40.998207,61.093285 46.109760,68.119522 51.048180,75.265411 
	C52.033722,76.691483 52.357986,78.574562 52.993584,80.623260 
	C45.987755,72.922852 38.975510,64.846100 32.201614,56.284378 
	C33.609142,55.207943 34.778320,54.616467 35.947502,54.024994 
z"/>
<path fill="#F2C375" opacity="1.000000" stroke="none" 
	d="
M67.972214,110.016479 
	C65.189735,107.092697 62.407253,104.168922 59.329277,101.077827 
	C58.123955,99.468872 57.214130,98.027237 56.174042,96.284882 
	C58.660084,96.683411 61.249905,97.525726 63.904686,98.017105 
	C65.100952,98.238533 66.426765,97.760094 68.097778,97.298111 
	C68.501762,96.997025 68.997017,97.003647 69.040695,97.355927 
	C70.728615,101.133308 72.372864,104.558403 73.837143,108.310669 
	C71.762184,109.097374 69.867195,109.556931 67.972214,110.016479 
z"/>
<path fill="#E5B263" opacity="1.000000" stroke="none" 
	d="
M68.997025,97.003647 
	C68.997017,97.003647 68.501762,96.997025 68.254227,96.992577 
	C65.882210,93.094719 63.757729,89.201317 61.330894,85.153130 
	C60.556366,83.078644 60.084190,81.158928 59.813553,78.981567 
	C60.564644,78.984070 61.114201,79.244225 61.845203,79.749237 
	C64.252197,83.793579 66.477753,87.593063 68.862267,91.692970 
	C69.334244,92.776070 69.647263,93.558746 69.877594,94.921951 
	C69.528946,96.002869 69.262985,96.503258 68.997025,97.003647 
z"/>
<path fill="#FEEFB3" opacity="1.000000" stroke="none" 
	d="
M35.842701,53.741234 
	C34.778320,54.616467 33.609142,55.207943 32.123150,55.943062 
	C31.217804,55.621773 30.629269,55.156834 29.980864,54.393520 
	C30.737394,53.078732 31.553797,52.062317 32.722427,50.992851 
	C33.074657,50.939804 33.544266,50.970661 33.779442,50.982231 
	C34.589046,51.815025 35.163475,52.636246 35.842701,53.741234 
z"/>
<path fill="#FDF4CE" opacity="1.000000" stroke="none" 
	d="
M71.999199,81.597404 
	C71.211823,81.752716 70.422043,81.499443 69.345436,81.110847 
	C63.054554,70.566696 57.050491,60.157875 51.054642,49.042877 
	C53.031345,47.227776 54.999844,46.118858 56.968346,45.009941 
	C61.850086,56.089001 66.748955,67.160606 71.580460,78.261536 
	C71.959610,79.132683 71.869049,80.208260 71.999199,81.597404 
z"/>
<path fill="#FDF0C1" opacity="1.000000" stroke="none" 
	d="
M56.847679,44.691238 
	C54.999844,46.118858 53.031345,47.227776 51.012444,48.696815 
	C50.056313,47.909733 49.150593,46.762539 48.114372,45.323097 
	C49.550667,43.506657 51.117462,41.982452 52.875648,40.170162 
	C54.287033,41.378895 55.507023,42.875717 56.847679,44.691238 
z"/>
<path fill="#E9A644" opacity="1.000000" stroke="none" 
	d="
M100.005493,131.003738 
	C99.647079,132.267456 99.288666,133.531174 98.930252,134.794891 
	C98.511215,134.777405 98.092178,134.759903 97.673141,134.742401 
	C97.304016,133.001099 96.934891,131.259796 96.282074,128.834503 
	C95.982460,126.424706 95.966530,124.698875 95.959732,122.588554 
	C97.182983,120.673233 92.672783,116.911697 97.999687,117.416115 
	C98.655342,120.547127 99.314056,123.246788 100.089363,126.234299 
	C100.139130,128.016022 100.072311,129.509872 100.005493,131.003738 
z"/>
<path fill="#E8A23C" opacity="1.000000" stroke="none" 
	d="
M93.006271,134.960526 
	C92.544365,135.293549 92.082458,135.626572 91.310455,135.547302 
	C90.662308,132.088287 90.324265,129.041565 89.980392,125.586441 
	C89.636757,122.414505 89.298950,119.650963 89.318619,116.963257 
	C90.466301,119.019218 91.256493,120.999359 92.043793,123.397926 
	C92.362694,127.531082 92.684486,131.245804 93.006271,134.960526 
z"/>
<path fill="#E9A644" opacity="1.000000" stroke="none" 
	d="
M84.974274,135.282684 
	C84.821625,134.173813 84.665947,133.285507 84.392677,131.865662 
	C84.067566,129.650421 83.873863,127.964844 83.648315,126.283531 
	C83.452957,124.827148 83.221489,123.375618 83.287598,122.083725 
	C84.384514,123.494690 85.199799,124.743874 86.142342,126.306786 
	C86.842567,128.082703 87.415527,129.544907 87.822289,131.096924 
	C87.773735,131.460648 87.891388,131.734573 88.014076,132.244019 
	C88.019119,132.479568 88.016373,132.950729 88.008499,133.296875 
	C87.661324,134.436279 87.322029,135.229523 86.982727,136.022781 
	C86.534088,136.012161 86.085457,136.001526 85.300247,135.967590 
	C84.963676,135.944290 84.971237,135.503220 84.974274,135.282684 
z"/>
<path fill="#F3B654" opacity="1.000000" stroke="none" 
	d="
M93.361580,134.912613 
	C92.684486,131.245804 92.362694,127.531082 92.433685,123.404556 
	C93.867844,122.986183 94.909225,122.979622 95.950607,122.973053 
	C95.966530,124.698875 95.982460,126.424706 96.007278,128.582520 
	C95.249748,130.964569 94.483315,132.914627 93.361580,134.912613 
z"/>
<path fill="#E8A23C" opacity="1.000000" stroke="none" 
	d="
M100.257484,131.170761 
	C100.072311,129.509872 100.139130,128.016022 100.142960,125.859985 
	C100.715744,122.129578 101.351532,119.061340 101.987320,115.993111 
	C101.987320,115.993111 102.002411,116.002785 102.012459,116.007629 
	C102.455353,116.009178 102.888206,116.005882 103.645264,116.004990 
	C103.455444,120.828636 102.941429,125.649864 102.712387,130.733002 
	C102.168068,131.109192 101.338776,131.223495 100.257484,131.170761 
z"/>
<path fill="#F3B654" opacity="1.000000" stroke="none" 
	d="
M88.016373,132.950729 
	C88.016373,132.950729 88.019119,132.479568 88.010391,131.993591 
	C87.997276,131.340775 87.992882,131.173935 87.988495,131.007095 
	C87.415527,129.544907 86.842567,128.082703 86.539238,126.309387 
	C87.867989,125.997124 88.927109,125.995979 89.986221,125.994843 
	C90.324265,129.041565 90.662308,132.088287 91.011642,135.572906 
	C90.916138,136.328705 90.726974,136.586029 90.203491,136.552094 
	C89.306480,135.197815 88.661430,134.074280 88.016373,132.950729 
z"/>
<path fill="#E1AA56" opacity="1.000000" stroke="none" 
	d="
M105.124199,137.678452 
	C104.199890,138.303375 103.422279,138.634750 102.326706,138.988159 
	C104.135887,136.101730 106.263039,133.193268 108.694244,130.470383 
	C108.994995,131.093842 108.991692,131.531693 108.988388,131.969559 
	C107.749222,133.774658 106.510063,135.579773 105.124199,137.678452 
z"/>
<path fill="#E8A23C" opacity="1.000000" stroke="none" 
	d="
M88.008499,133.296875 
	C88.661430,134.074280 89.306480,135.197815 89.982773,136.652740 
	C89.031700,136.865295 88.049385,136.746460 87.024902,136.325195 
	C87.322029,135.229523 87.661324,134.436279 88.008499,133.296875 
z"/>
<path fill="#E2AD5C" opacity="1.000000" stroke="none" 
	d="
M109.277954,131.830505 
	C108.991692,131.531693 108.994995,131.093842 108.998962,130.327271 
	C109.458145,129.670715 109.916656,129.342850 110.667763,128.985672 
	C110.496071,129.868057 110.031799,130.779755 109.277954,131.830505 
z"/>
<path fill="#E2AD5C" opacity="1.000000" stroke="none" 
	d="
M69.949188,138.649597 
	C69.108246,138.492188 68.204460,137.999405 67.204987,137.190765 
	C68.034981,137.354675 68.960670,137.834442 69.949188,138.649597 
z"/>
<path fill="#F2C375" opacity="1.000000" stroke="none" 
	d="
M84.503304,99.992607 
	C85.303780,102.062515 85.648605,104.135773 85.596771,106.653709 
	C82.486938,107.393539 79.773758,107.688690 76.913040,107.672653 
	C75.527748,104.902786 74.290009,102.444115 73.052261,99.985443 
	C76.717392,99.988945 80.382530,99.992447 84.503304,99.992607 
z"/>
<path fill="#E3AA55" opacity="1.000000" stroke="none" 
	d="
M72.894066,99.689415 
	C74.290009,102.444115 75.527748,104.902786 77.048370,107.988510 
	C77.887177,110.077492 78.443108,111.539413 78.725128,113.005157 
	C78.268730,113.016258 78.086250,113.023537 77.619934,112.868591 
	C76.229767,111.132080 75.123436,109.557793 74.017113,107.983505 
	C72.372864,104.558403 70.728615,101.133308 69.040695,97.355927 
	C69.262985,96.503258 69.528946,96.002869 69.901779,95.238770 
	C70.917725,96.447838 71.826797,97.920616 72.894066,99.689415 
z"/>
<path fill="#F4BD63" opacity="1.000000" stroke="none" 
	d="
M95.959732,122.588554 
	C94.909225,122.979622 93.867844,122.986183 92.436569,122.986115 
	C91.256493,120.999359 90.466301,119.019218 89.210159,116.761169 
	C88.540268,116.237968 88.286331,116.066765 87.983871,115.656685 
	C87.982681,114.927696 87.980034,114.511665 87.977394,114.095642 
	C88.648148,113.303001 89.318909,112.510368 89.997620,111.357697 
	C91.075798,110.998703 92.146011,110.999741 93.618362,110.999817 
	C94.337387,111.103989 94.590591,111.293983 94.892548,112.159760 
	C96.005928,113.507820 97.006874,114.264954 98.007828,115.022087 
	C98.007828,115.022087 98.011818,115.495331 98.006950,115.986145 
	C98.002312,116.646233 98.002533,116.815498 98.002747,116.984764 
	C92.672783,116.911697 97.182983,120.673233 95.959732,122.588554 
z"/>
<path fill="#E9A644" opacity="1.000000" stroke="none" 
	d="
M98.001373,114.645187 
	C97.006874,114.264954 96.005928,113.507820 94.998474,112.376266 
	C95.727112,112.002762 96.462242,112.003685 97.562836,112.007736 
	C97.950493,112.763344 97.972702,113.515808 98.001373,114.645187 
z"/>
<path fill="#F3C06C" opacity="1.000000" stroke="none" 
	d="
M87.710693,113.832993 
	C87.980034,114.511665 87.982681,114.927696 87.546967,115.668320 
	C85.063614,116.001427 83.018623,116.009941 80.723618,115.845665 
	C79.982071,114.782364 79.490547,113.891853 78.999031,113.001343 
	C78.443108,111.539413 77.887177,110.077492 77.195923,108.299698 
	C79.773758,107.688690 82.486938,107.393539 85.600357,107.049240 
	C86.481735,109.190178 86.962868,111.380264 87.710693,113.832993 
z"/>
<path fill="#F4BA5A" opacity="1.000000" stroke="none" 
	d="
M97.999687,117.416115 
	C98.002533,116.815498 98.002312,116.646233 98.008728,116.222771 
	C99.074615,115.978561 100.133858,115.988548 101.590210,115.995827 
	C101.351532,119.061340 100.715744,122.129578 100.026367,125.572128 
	C99.314056,123.246788 98.655342,120.547127 97.999687,117.416115 
z"/>
<path fill="#F3BF68" opacity="1.000000" stroke="none" 
	d="
M73.837143,108.310669 
	C75.123436,109.557793 76.229767,111.132080 77.653206,113.237389 
	C78.663696,115.841988 79.357086,117.915565 79.725250,120.125488 
	C78.271568,120.504128 77.143097,120.746407 76.014633,120.988686 
	C73.362633,117.560982 70.710640,114.133270 68.015427,110.361023 
	C69.867195,109.556931 71.762184,109.097374 73.837143,108.310669 
z"/>
<path fill="#F4BA5A" opacity="1.000000" stroke="none" 
	d="
M76.115417,121.250870 
	C77.143097,120.746407 78.271568,120.504128 80.062088,120.128395 
	C81.175629,119.998001 81.627113,120.001060 82.306091,120.171265 
	C82.691055,120.866264 82.848518,121.394104 83.005981,121.921944 
	C83.221489,123.375618 83.452957,124.827148 83.648315,126.283531 
	C83.873863,127.964844 84.067566,129.650421 84.124069,131.653885 
	C81.828148,129.113693 79.683243,126.253784 77.269989,123.196442 
	C76.739830,122.503700 76.478020,122.008377 76.115417,121.250870 
z"/>
<path fill="#F4BB5E" opacity="1.000000" stroke="none" 
	d="
M83.287605,122.083725 
	C82.848518,121.394104 82.691055,120.866264 82.248116,119.827835 
	C81.632973,118.217651 81.303307,117.118057 80.973640,116.018456 
	C83.018623,116.009941 85.063614,116.001427 87.545502,115.981277 
	C88.286331,116.066765 88.540268,116.237968 88.852676,116.685349 
	C89.298950,119.650963 89.636757,122.414505 89.980392,125.586441 
	C88.927109,125.995979 87.867989,125.997124 86.411980,125.995667 
	C85.199799,124.743874 84.384514,123.494690 83.287605,122.083725 
z"/>
<path fill="#E8A23C" opacity="1.000000" stroke="none" 
	d="
M87.822289,131.096924 
	C87.992882,131.173935 87.997276,131.340775 88.005348,131.758041 
	C87.891388,131.734573 87.773735,131.460648 87.822289,131.096924 
z"/>
<path fill="#E9A644" opacity="1.000000" stroke="none" 
	d="
M80.723618,115.845665 
	C81.303307,117.118057 81.632973,118.217651 82.020615,119.660683 
	C81.627113,120.001060 81.175629,119.998001 80.387314,119.992035 
	C79.357086,117.915565 78.663696,115.841988 77.937042,113.399620 
	C78.086250,113.023537 78.268730,113.016258 78.725128,113.005157 
	C79.490547,113.891853 79.982071,114.782364 80.723618,115.845665 
z"/>
</svg>