<svg version="1.1" id="Layer_1" xmlns="http://www.w3.org/2000/svg" xmlns:xlink="http://www.w3.org/1999/xlink" x="0px" y="0px"
	 width="100%" viewBox="0 0 106 154" enable-background="new 0 0 106 154" xml:space="preserve">
<path fill="#FEFFFE" opacity="1.000000" stroke="none" 
	d="
M55.000000,155.000000 
	C36.666668,155.000000 18.833334,155.000000 1.000000,155.000000 
	C1.000000,103.666664 1.000000,52.333332 1.000000,1.000000 
	C36.333332,1.000000 71.666664,1.000000 107.000000,1.000000 
	C107.000000,52.333332 107.000000,103.666664 107.000000,155.000000 
	C89.833336,155.000000 72.666664,155.000000 55.000000,155.000000 
M23.757742,148.584900 
	C25.592129,147.054520 28.291451,145.885742 29.108946,143.930252 
	C32.388199,136.086105 35.084259,127.998161 38.165386,119.304947 
	C41.150097,112.665062 44.087330,106.003273 47.136940,99.393333 
	C49.028160,95.294174 51.705326,93.432602 56.685787,94.893501 
	C64.726906,97.252159 71.524200,94.366074 76.655701,87.995041 
	C80.514267,83.204445 84.315720,78.282684 87.440353,73.003662 
	C94.183655,61.610950 98.175735,49.279949 97.130463,35.866592 
	C95.537941,15.430754 80.409004,6.008621 60.440151,13.169291 
	C40.448494,23.497715 30.269875,41.378895 23.306377,61.659073 
	C22.653397,63.560787 23.031208,65.816437 22.298716,68.297913 
	C20.281641,74.613617 22.216240,79.773270 27.130707,83.869263 
	C31.215120,87.273453 33.940914,90.803612 30.079985,96.077911 
	C29.735170,96.548950 29.870161,97.371223 29.227612,98.401649 
	C23.468283,109.601776 17.460104,120.682922 12.029526,132.040253 
	C7.797994,140.889923 13.193568,148.650406 23.757742,148.584900 
z"/>
<path fill="#A0ED79" opacity="1.000000" stroke="none" 
	d="
M22.930428,67.907761 
	C23.031208,65.816437 22.653397,63.560787 23.306377,61.659073 
	C30.269875,41.378895 40.448494,23.497715 61.108757,13.409527 
	C62.430504,13.737544 63.092918,13.945245 63.735439,13.895569 
	C79.854774,12.649353 88.990395,23.607950 84.922775,39.733143 
	C82.153725,50.710449 78.328964,61.771740 72.895454,71.651047 
	C62.728207,90.137367 37.480034,87.001152 28.555902,77.082298 
	C26.196447,74.459846 24.779924,70.989029 22.930428,67.907761 
z"/>
<path fill="#44B227" opacity="1.000000" stroke="none" 
	d="
M22.614571,68.102837 
	C24.779924,70.989029 26.196447,74.459846 28.555902,77.082298 
	C37.480034,87.001152 62.728207,90.137367 72.895454,71.651047 
	C78.328964,61.771740 82.153725,50.710449 84.922775,39.733143 
	C88.990395,23.607950 79.854774,12.649353 63.735439,13.895569 
	C63.092918,13.945245 62.430504,13.737544 61.462990,13.415150 
	C80.409004,6.008621 95.537941,15.430754 97.130463,35.866592 
	C98.175735,49.279949 94.183655,61.610950 87.440353,73.003662 
	C84.315720,78.282684 80.514267,83.204445 76.655701,87.995041 
	C71.524200,94.366074 64.726906,97.252159 56.685787,94.893501 
	C51.705326,93.432602 49.028160,95.294174 47.136940,99.393333 
	C44.087330,106.003273 41.150097,112.665062 37.745304,119.654243 
	C36.877972,120.002960 36.430721,120.002373 36.032391,119.606400 
	C36.929012,114.994446 37.857903,110.792252 38.607399,106.558289 
	C40.134506,97.931595 37.708187,95.622055 29.782318,98.030373 
	C29.870161,97.371223 29.735170,96.548950 30.079985,96.077911 
	C33.940914,90.803612 31.215120,87.273453 27.130707,83.869263 
	C22.216240,79.773270 20.281641,74.613617 22.614571,68.102837 
z"/>
<path fill="#A1EC7B" opacity="1.000000" stroke="none" 
	d="
M29.504965,98.216011 
	C37.708187,95.622055 40.134506,97.931595 38.607399,106.558289 
	C37.857903,110.792252 36.929012,114.994446 35.771866,119.849052 
	C31.342016,129.896393 27.221611,139.305710 23.101204,148.715027 
	C13.193568,148.650406 7.797994,140.889923 12.029526,132.040253 
	C17.460104,120.682922 23.468283,109.601776 29.504965,98.216011 
M22.624956,139.107407 
	C23.402384,138.072906 24.639967,137.130249 24.868349,135.986145 
	C25.479746,132.923325 25.693800,129.776154 25.872259,126.651451 
	C25.878979,126.533806 23.150616,125.836716 22.919661,126.195908 
	C21.120329,128.994400 19.176455,131.842178 18.168251,134.962616 
	C17.345549,137.508911 18.254248,140.013992 22.624956,139.107407 
z"/>
<path fill="#5DBF41" opacity="1.000000" stroke="none" 
	d="
M23.429474,148.649963 
	C27.221611,139.305710 31.342016,129.896393 35.722946,120.244431 
	C36.430721,120.002373 36.877972,120.002960 37.660583,120.001953 
	C35.084259,127.998161 32.388199,136.086105 29.108946,143.930252 
	C28.291451,145.885742 25.592129,147.054520 23.429474,148.649963 
z"/>
<path fill="#F6FDF3" opacity="1.000000" stroke="none" 
	d="
M22.293386,139.266968 
	C18.254248,140.013992 17.345549,137.508911 18.168251,134.962616 
	C19.176455,131.842178 21.120329,128.994400 22.919661,126.195908 
	C23.150616,125.836716 25.878979,126.533806 25.872259,126.651451 
	C25.693800,129.776154 25.479746,132.923325 24.868349,135.986145 
	C24.639967,137.130249 23.402384,138.072906 22.293386,139.266968 
z"/>
</svg>