<svg version="1.1" id="Layer_1" xmlns="http://www.w3.org/2000/svg" xmlns:xlink="http://www.w3.org/1999/xlink" x="0px" y="0px"
	 width="100%" viewBox="0 0 142 136" enable-background="new 0 0 142 136" xml:space="preserve">
<path fill="#FFFFFD" opacity="1.000000" stroke="none" 
	d="
M68.000000,137.000000 
	C45.704887,137.000000 23.409775,137.000000 1.057331,137.000000 
	C1.057331,91.782532 1.057331,46.564968 1.057331,1.000000 
	C18.352682,1.000000 35.707684,1.000000 53.634033,1.439560 
	C54.750950,7.014398 53.865364,11.744267 49.995369,15.751739 
	C48.153603,16.442598 46.603531,17.093081 44.688107,17.695007 
	C40.096340,15.975923 35.869926,14.305392 31.976931,12.766647 
	C31.976931,17.427910 31.976931,22.212570 31.738483,27.252237 
	C29.295933,30.824669 27.091829,34.142094 24.465057,37.555191 
	C20.655411,37.497673 17.268431,37.344479 13.882006,37.190987 
	C15.799168,40.174316 17.715776,43.157944 19.652710,46.547531 
	C20.674244,52.296791 17.596642,56.021015 14.259361,59.867241 
	C11.793459,60.884155 9.653195,61.805248 7.329381,62.805332 
	C10.416629,64.856346 13.159991,66.678894 15.915649,68.930466 
	C15.206397,73.867950 14.484850,78.376396 13.482483,83.049774 
	C10.978640,85.272362 8.755618,87.330032 6.052291,89.832283 
	C10.283728,89.625328 13.781298,89.454262 17.442368,89.539024 
	C19.416603,90.819763 21.227341,91.844681 23.205297,93.180954 
	C24.650419,96.651855 25.928322,99.811386 27.087097,103.317116 
	C25.808191,106.234787 24.648411,108.806267 23.449375,111.464775 
	C27.219543,111.234818 30.622229,111.027267 34.344715,110.955063 
	C37.398136,113.403313 40.131760,115.716209 42.888100,118.452133 
	C42.573418,121.824257 42.236019,124.773361 41.888927,127.807175 
	C44.906609,126.005264 48.001480,124.157257 51.519630,122.281570 
	C57.350647,121.657234 62.010761,123.252060 65.955780,127.409706 
	C66.655807,130.863022 67.327904,133.931519 68.000000,137.000000 
z"/>
<path fill="#FFFFFD" opacity="1.000000" stroke="none" 
	d="
M56.000000,1.000001 
	C84.912834,1.000000 113.825676,1.000000 143.000000,1.000000 
	C143.000000,20.353443 143.000000,39.708061 142.601410,59.565144 
	C139.135910,59.043049 136.069016,58.018494 132.743027,56.786644 
	C131.026108,55.196770 129.568268,53.814194 128.109070,52.067921 
	C127.168480,48.125885 126.229286,44.547543 125.461990,40.574753 
	C126.110725,37.329510 126.587547,34.478710 127.139763,31.177181 
	C123.668663,31.770567 120.809792,32.259293 117.630905,32.596958 
	C114.558136,31.580217 111.805382,30.714535 108.886322,29.591141 
	C107.745529,28.573116 106.771049,27.812801 105.704269,26.754566 
	C104.733597,25.306547 103.855225,24.156448 102.935303,22.608286 
	C102.571838,19.005365 102.249916,15.800506 101.900513,12.322066 
	C96.609734,17.425453 90.869179,17.412603 84.720589,12.889174 
	C83.765495,9.939358 83.069794,7.265245 82.382225,4.622385 
	C80.166481,7.214616 78.092491,9.641005 75.624344,12.111498 
	C71.885895,11.970400 68.541603,11.785194 64.942093,11.386402 
	C61.791252,7.781877 58.895626,4.390940 56.000000,1.000001 
z"/>
<path fill="#FFFFFD" opacity="1.000000" stroke="none" 
	d="
M143.000000,92.000000 
	C143.000000,106.944176 143.000000,121.888344 143.000000,137.000000 
	C118.979362,137.000000 94.958344,137.000000 70.586586,136.687271 
	C72.232841,133.959244 74.229820,131.543930 76.593872,129.048355 
	C81.588531,128.441559 86.216125,127.915031 91.107002,127.598404 
	C93.712822,128.882812 96.055367,129.957336 98.369728,131.018921 
	C99.315475,127.695374 100.127998,124.839989 101.202225,121.796143 
	C101.852158,120.841537 102.240402,120.075394 102.912247,119.207283 
	C104.796494,118.046928 106.397141,116.988541 108.366150,115.909019 
	C110.166809,115.507828 111.599091,115.127769 113.458435,114.810608 
	C117.210014,115.296417 120.534546,115.719322 124.391296,116.209930 
	C121.821167,107.372208 127.174133,101.800705 132.728119,95.979904 
	C136.322815,94.502937 139.661407,93.251472 143.000000,92.000000 
z"/>
<path fill="#FFFFF8" opacity="1.000000" stroke="none" 
	d="
M143.000000,63.000004 
	C143.000000,72.020897 143.000000,81.041786 142.642426,90.549599 
	C139.894394,89.685738 137.503937,88.334961 135.085434,86.643082 
	C134.098129,84.523224 133.138870,82.744484 132.208069,80.576057 
	C132.544998,78.148514 132.853485,76.110664 133.394180,73.846619 
	C134.666412,71.736557 135.706421,69.852692 136.994476,67.735397 
	C139.161667,66.001305 141.080841,64.500656 143.000000,63.000004 
z"/>
<path fill="#FBF44C" opacity="1.000000" stroke="none" 
	d="
M55.666664,1.000001 
	C58.895626,4.390940 61.791252,7.781877 64.850029,11.770086 
	C63.051094,13.230957 61.089016,14.094557 58.869835,14.798132 
	C56.296486,12.360547 56.216949,14.258415 55.585045,16.004452 
	C53.504139,15.905090 51.895603,15.808225 50.287064,15.711360 
	C53.865364,11.744267 54.750950,7.014398 54.102692,1.439560 
	C54.444447,1.000000 54.888889,1.000000 55.666664,1.000001 
z"/>
<path fill="#FBF541" opacity="1.000000" stroke="none" 
	d="
M143.000000,62.625004 
	C141.080841,64.500656 139.161667,66.001305 136.619431,67.724594 
	C134.998291,64.296127 134.000198,60.645035 133.002106,56.993938 
	C136.069016,58.018494 139.135910,59.043049 142.601410,60.033802 
	C143.000000,60.750000 143.000000,61.500000 143.000000,62.625004 
z"/>
<path fill="#FBF641" opacity="1.000000" stroke="none" 
	d="
M135.113495,86.984192 
	C137.503937,88.334961 139.894394,89.685738 142.642426,91.018257 
	C143.000000,91.000000 143.000000,91.500000 143.000000,91.750000 
	C139.661407,93.251472 136.322815,94.502937 132.357086,95.898087 
	C131.154022,93.712692 130.578125,91.383614 130.026154,88.799591 
	C130.063293,88.374893 130.076508,88.205139 130.453476,87.981491 
	C132.249313,87.613129 133.681412,87.298660 135.113495,86.984192 
z"/>
<path fill="#FBF261" opacity="1.000000" stroke="none" 
	d="
M76.226807,129.128632 
	C74.229820,131.543930 72.232841,133.959244 70.117928,136.687271 
	C69.555557,137.000000 69.111107,137.000000 68.333328,137.000000 
	C67.327904,133.931519 66.655807,130.863022 66.239243,127.398041 
	C66.683670,126.995491 66.872559,126.989433 67.381897,126.985664 
	C68.130447,126.977997 68.558556,126.968033 69.235092,127.244034 
	C71.731285,128.062881 73.979042,128.595749 76.226807,129.128632 
z"/>
<path fill="#FAEB66" opacity="1.000000" stroke="none" 
	d="
M23.038076,92.869598 
	C21.227341,91.844681 19.416603,90.819763 17.247766,89.206406 
	C15.106793,87.110870 19.076334,82.466881 13.763302,82.884850 
	C14.484850,78.376396 15.206397,73.867950 15.938016,68.513023 
	C16.296972,66.437981 16.645859,65.209412 17.239471,64.261246 
	C18.976730,64.692123 20.469263,64.842606 21.975063,65.372757 
	C21.982121,66.510788 21.975908,67.269150 21.578415,68.108429 
	C19.609949,72.621574 18.361584,77.030281 21.935799,81.389008 
	C20.459787,83.566750 18.017153,85.492386 22.021492,87.475983 
	C22.358046,89.521797 22.698061,91.195702 23.038076,92.869598 
z"/>
<path fill="#FBF446" opacity="1.000000" stroke="none" 
	d="
M31.976931,26.997229 
	C31.976931,22.212570 31.976931,17.427910 31.976931,12.766647 
	C35.869926,14.305392 40.096340,15.975923 44.636238,18.057953 
	C43.627647,20.343212 42.305576,22.216976 40.636509,24.003014 
	C37.807587,22.449194 36.799122,23.143526 36.888077,26.110672 
	C35.006409,26.490036 33.491669,26.743631 31.976931,26.997229 
z"/>
<path fill="#FBEC62" opacity="1.000000" stroke="none" 
	d="
M31.738483,27.252237 
	C33.491669,26.743631 35.006409,26.490036 37.093575,26.429821 
	C37.787548,28.749022 37.909092,30.874840 37.815826,33.014408 
	C37.601025,33.028156 37.170601,33.035503 36.807022,33.049240 
	C33.637012,36.668709 30.830584,40.274445 27.671926,43.914047 
	C26.208254,43.604767 25.096813,43.261620 24.040642,42.530663 
	C24.359848,40.581734 24.623785,39.020626 24.887724,37.459515 
	C27.091829,34.142094 29.295933,30.824669 31.738483,27.252237 
z"/>
<path fill="#FAEA5F" opacity="1.000000" stroke="none" 
	d="
M21.961796,64.993088 
	C20.469263,64.842606 18.976730,64.692123 17.240246,63.864006 
	C16.192530,62.048050 15.388765,60.909737 14.585000,59.771420 
	C17.596642,56.021015 20.674244,52.296791 19.998436,46.486210 
	C20.873268,45.402077 21.422697,44.785229 22.288477,44.251003 
	C23.734909,45.890121 24.864988,47.446617 25.676573,49.162598 
	C22.688334,53.144917 19.890474,56.934067 22.009663,62.390575 
	C21.986614,63.506031 21.974205,64.249557 21.961796,64.993088 
z"/>
<path fill="#FBEC5C" opacity="1.000000" stroke="none" 
	d="
M40.983501,24.090740 
	C42.305576,22.216976 43.627647,20.343212 45.001595,18.106506 
	C46.603531,17.093081 48.153603,16.442598 49.995369,15.751739 
	C51.895603,15.808225 53.504139,15.905090 55.618351,16.382473 
	C55.850796,18.208435 55.577568,19.653879 54.897099,21.071264 
	C51.121357,22.116858 47.037148,22.104429 45.959496,26.754879 
	C45.954834,26.848263 46.003242,27.028887 45.666389,26.991638 
	C43.880856,25.999840 42.432178,25.045290 40.983501,24.090740 
z"/>
<path fill="#FBE158" opacity="1.000000" stroke="none" 
	d="
M67.061455,126.983376 
	C66.872559,126.989433 66.683670,126.995491 66.211319,127.013206 
	C62.010761,123.252060 57.350647,121.657234 51.384876,121.948280 
	C49.889091,120.094879 48.951340,118.547073 48.361641,116.943748 
	C49.143890,115.895630 49.578087,114.903023 50.391411,113.899612 
	C51.526779,113.846016 52.283016,113.803215 53.351814,113.837418 
	C54.089573,113.968613 54.514778,114.022820 54.741676,114.323868 
	C53.492146,115.143692 52.440918,115.716698 51.008812,116.497299 
	C56.074711,120.367188 61.238884,121.482826 66.907768,121.383575 
	C66.990128,123.536079 67.025787,125.259727 67.061455,126.983376 
z"/>
<path fill="#FBE158" opacity="1.000000" stroke="none" 
	d="
M42.865383,118.029114 
	C40.131760,115.716209 37.398136,113.403313 34.330956,110.588440 
	C33.331970,107.723137 32.666542,105.359787 32.000557,102.998093 
	C32.000000,102.999748 32.002247,102.994415 32.277138,103.192245 
	C33.705200,103.928871 34.858372,104.467659 36.040092,105.352234 
	C38.840630,108.584831 41.612621,111.471664 44.577774,114.559647 
	C45.819984,112.752518 46.449047,111.837379 47.348854,111.069092 
	C48.125092,112.063820 48.630585,112.911682 48.941460,114.053123 
	C47.827999,115.212090 46.909157,116.077477 45.687706,117.084503 
	C44.545189,117.493797 43.705288,117.761452 42.865383,118.029114 
z"/>
<path fill="#FBED66" opacity="1.000000" stroke="none" 
	d="
M32.001114,102.996445 
	C32.666542,105.359787 33.331970,107.723137 34.011154,110.453102 
	C30.622229,111.027267 27.219543,111.234818 23.449375,111.464775 
	C24.648411,108.806267 25.808191,106.234787 27.483122,103.323738 
	C29.332552,102.988258 30.666834,102.992355 32.001114,102.996445 
z"/>
<path fill="#FBF251" opacity="1.000000" stroke="none" 
	d="
M21.972126,44.168377 
	C21.422697,44.785229 20.873268,45.402077 19.978111,46.080246 
	C17.715776,43.157944 15.799168,40.174316 13.882006,37.190987 
	C17.268431,37.344479 20.655411,37.497673 24.465057,37.555191 
	C24.623785,39.020626 24.359848,40.581734 23.749115,42.554947 
	C22.925587,43.367493 22.448856,43.767933 21.972126,44.168377 
z"/>
<path fill="#FBED68" opacity="1.000000" stroke="none" 
	d="
M42.888100,118.452133 
	C43.705288,117.761452 44.545189,117.493797 46.024624,117.102554 
	C47.113968,116.985733 47.563774,116.992500 48.013584,116.999268 
	C48.951340,118.547073 49.889091,120.094879 50.961601,121.975967 
	C48.001480,124.157257 44.906609,126.005264 41.888927,127.807175 
	C42.236019,124.773361 42.573418,121.824257 42.888100,118.452133 
z"/>
<path fill="#FBE055" opacity="1.000000" stroke="none" 
	d="
M32.000557,102.998093 
	C30.666834,102.992355 29.332552,102.988258 27.602247,102.977547 
	C25.928322,99.811386 24.650419,96.651855 23.205297,93.180954 
	C22.698061,91.195702 22.358046,89.521797 22.412979,87.440216 
	C23.854576,87.054756 24.901224,87.076981 25.970627,87.321007 
	C25.993378,87.542816 26.016788,87.988152 25.762856,88.200378 
	C27.669987,92.601059 29.831055,96.789520 31.992779,101.314095 
	C31.996372,102.098274 31.999310,102.546349 32.002247,102.994415 
	C32.002247,102.994415 32.000000,102.999748 32.000557,102.998093 
z"/>
<path fill="#FBF34E" opacity="1.000000" stroke="none" 
	d="
M13.482482,83.049774 
	C19.076334,82.466881 15.106793,87.110870 17.084267,88.950577 
	C13.781298,89.454262 10.283728,89.625328 6.052291,89.832283 
	C8.755618,87.330032 10.978640,85.272362 13.482482,83.049774 
z"/>
<path fill="#FBF154" opacity="1.000000" stroke="none" 
	d="
M14.259361,59.867241 
	C15.388765,60.909737 16.192530,62.048050 16.995520,63.583603 
	C16.645859,65.209412 16.296972,66.437981 15.925721,68.084000 
	C13.159991,66.678894 10.416629,64.856346 7.329381,62.805332 
	C9.653195,61.805248 11.793459,60.884155 14.259361,59.867241 
z"/>
<path fill="#FBEA5F" opacity="1.000000" stroke="none" 
	d="
M109.052635,29.848850 
	C111.805382,30.714535 114.558136,31.580217 117.648514,32.990986 
	C119.396141,37.020622 120.420784,40.883831 125.290085,40.969204 
	C126.229286,44.547543 127.168480,48.125885 128.083862,52.531639 
	C128.369110,56.265236 128.678177,59.171410 128.629211,62.064808 
	C126.772537,61.420105 125.273865,60.788181 124.052277,59.947929 
	C122.560425,54.889648 120.881668,50.002674 118.922531,45.230808 
	C118.638115,44.538059 117.011368,44.396431 115.997353,43.625397 
	C115.674393,41.540150 115.359840,39.829281 114.904633,37.807808 
	C112.860207,34.947758 110.956421,32.398304 109.052635,29.848850 
z"/>
<path fill="#FBEC62" opacity="1.000000" stroke="none" 
	d="
M59.126934,14.958157 
	C61.089016,14.094557 63.051094,13.230957 65.105240,11.983673 
	C68.541603,11.785194 71.885895,11.970400 75.678055,12.454962 
	C77.750916,13.503019 79.375916,14.251719 81.001572,15.402754 
	C81.006851,16.877977 81.011482,17.950865 81.014359,19.400566 
	C80.997467,20.533113 80.982338,21.288843 80.651917,22.161030 
	C79.230797,22.109835 78.124977,21.942184 77.000504,21.375698 
	C76.191429,19.991970 75.387489,18.152956 74.612862,18.165226 
	C70.556595,18.229473 66.507774,18.762995 62.164070,19.047359 
	C60.956825,17.626928 60.041882,16.292543 59.126934,14.958157 
z"/>
<path fill="#FBEC62" opacity="1.000000" stroke="none" 
	d="
M84.979988,13.164879 
	C90.869179,17.412603 96.609734,17.425453 101.900513,12.322066 
	C102.249916,15.800506 102.571838,19.005365 102.558296,22.601196 
	C96.106712,20.882494 89.981781,18.797333 83.893112,16.611189 
	C83.460342,16.455799 83.293922,15.558580 83.310524,14.969084 
	C84.071594,14.342872 84.525787,13.753876 84.979988,13.164879 
z"/>
<path fill="#FBF051" opacity="1.000000" stroke="none" 
	d="
M128.987228,62.077587 
	C128.678177,59.171410 128.369110,56.265236 128.085251,52.895340 
	C129.568268,53.814194 131.026108,55.196770 132.743027,56.786644 
	C134.000198,60.645035 134.998291,64.296127 136.371399,67.958031 
	C135.706421,69.852692 134.666412,71.736557 133.000977,73.757355 
	C131.554306,70.868958 130.733017,67.843636 129.977493,64.503960 
	C129.691238,63.485603 129.339233,62.781593 128.987228,62.077587 
z"/>
<path fill="#FAE75D" opacity="1.000000" stroke="none" 
	d="
M83.003662,15.006298 
	C83.293922,15.558580 83.460342,16.455799 83.893112,16.611189 
	C89.981781,18.797333 96.106712,20.882494 102.599838,22.999260 
	C103.855225,24.156448 104.733597,25.306547 105.337410,26.740929 
	C102.070824,26.355053 99.078804,25.684895 96.040611,24.701788 
	C95.408035,23.951376 94.821617,23.513910 93.885162,22.935238 
	C89.362122,21.537270 85.189117,20.280510 81.016113,19.023752 
	C81.011482,17.950865 81.006851,16.877977 81.335327,15.403109 
	C82.113503,15.002851 82.558586,15.004574 83.003662,15.006298 
z"/>
<path fill="#FBF14E" opacity="1.000000" stroke="none" 
	d="
M125.461990,40.574753 
	C120.420784,40.883831 119.396141,37.020622 117.968536,33.142044 
	C120.809792,32.259293 123.668663,31.770567 127.139763,31.177181 
	C126.587547,34.478710 126.110725,37.329510 125.461990,40.574753 
z"/>
<path fill="#FBE051" opacity="1.000000" stroke="none" 
	d="
M96.086777,25.014736 
	C99.078804,25.684895 102.070824,26.355053 105.429710,27.038849 
	C106.771049,27.812801 107.745529,28.573116 108.886322,29.591139 
	C110.956421,32.398304 112.860207,34.947758 114.673218,38.041492 
	C113.721169,38.719856 112.859879,38.853939 111.965218,38.644264 
	C107.965797,32.493809 102.957886,28.032867 96.046539,25.762897 
	C96.050865,25.346771 96.068817,25.180752 96.086777,25.014736 
z"/>
<path fill="#FBF158" opacity="1.000000" stroke="none" 
	d="
M83.310532,14.969083 
	C82.558586,15.004574 82.113503,15.002851 81.334671,15.000772 
	C79.375916,14.251719 77.750916,13.503019 76.072205,12.410856 
	C78.092491,9.641005 80.166481,7.214616 82.382225,4.622385 
	C83.069794,7.265245 83.765495,9.939358 84.720589,12.889175 
	C84.525787,13.753876 84.071594,14.342872 83.310532,14.969083 
z"/>
<path fill="#FBF14F" opacity="1.000000" stroke="none" 
	d="
M130.002228,89.054527 
	C130.578125,91.383614 131.154022,93.712692 132.100967,96.123581 
	C127.174133,101.800705 121.821167,107.372208 124.391296,116.209930 
	C120.534546,115.719322 117.210014,115.296417 113.452759,114.457726 
	C113.703972,112.375710 114.387901,110.709488 115.410934,108.989624 
	C121.862259,103.966034 125.607635,97.608475 127.155731,89.625984 
	C127.947617,89.287376 128.529602,89.162415 129.334290,89.039932 
	C129.556992,89.042404 130.002228,89.054527 130.002228,89.054527 
z"/>
<path fill="#FAEA62" opacity="1.000000" stroke="none" 
	d="
M76.593872,129.048355 
	C73.979042,128.595749 71.731285,128.062881 69.366135,126.969391 
	C69.825432,125.596603 70.402122,124.784416 71.198181,124.263817 
	C72.623787,124.977097 73.941284,125.946655 75.017502,125.728111 
	C80.433784,124.628227 85.787102,123.218254 91.484451,121.925354 
	C92.541229,121.619812 93.276062,121.306053 94.268936,120.887573 
	C95.018097,120.522247 95.509224,120.261642 96.171478,120.229462 
	C96.895653,119.973816 97.448685,119.489738 98.251297,119.004066 
	C98.500877,119.002472 99.000031,118.999084 99.451782,119.003822 
	C100.811897,119.108795 101.720276,119.209023 102.628647,119.309250 
	C102.240402,120.075394 101.852158,120.841537 100.820969,121.809929 
	C97.066589,123.804291 93.955162,125.596405 90.843727,127.388512 
	C86.216125,127.915031 81.588531,128.441559 76.593872,129.048355 
z"/>
<path fill="#FBF053" opacity="1.000000" stroke="none" 
	d="
M91.107002,127.598404 
	C93.955162,125.596405 97.066589,123.804291 100.559273,121.998398 
	C100.127998,124.839989 99.315475,127.695374 98.369728,131.018921 
	C96.055367,129.957336 93.712822,128.882812 91.107002,127.598404 
z"/>
<path fill="#FAE65D" opacity="1.000000" stroke="none" 
	d="
M102.912247,119.207291 
	C101.720276,119.209023 100.811897,119.108795 99.599670,118.699585 
	C101.235168,116.907822 103.389008,115.629288 105.051826,113.883171 
	C106.626030,112.230095 107.685074,110.086456 109.312485,108.131592 
	C110.107964,108.157639 110.561623,108.210655 111.168289,108.536530 
	C110.213455,111.182983 109.105614,113.556564 107.997772,115.930145 
	C106.397141,116.988541 104.796494,118.046928 102.912247,119.207291 
z"/>
<path fill="#FAEA62" opacity="1.000000" stroke="none" 
	d="
M108.366150,115.909012 
	C109.105614,113.556564 110.213455,111.182983 111.358154,108.219299 
	C112.344887,107.429558 113.294762,107.229897 114.449387,107.223694 
	C114.793365,107.959190 114.932602,108.501228 115.071838,109.043266 
	C114.387901,110.709488 113.703972,112.375710 113.025703,114.394821 
	C111.599091,115.127769 110.166809,115.507828 108.366150,115.909012 
z"/>
<path fill="#FAEB5C" opacity="1.000000" stroke="none" 
	d="
M129.911743,64.818298 
	C130.733017,67.843636 131.554306,70.868958 132.768768,73.983551 
	C132.853485,76.110664 132.544998,78.148514 131.830841,80.635895 
	C130.660568,83.343300 129.895966,85.601173 129.103348,87.889473 
	C129.075333,87.919899 129.021515,87.982712 128.716446,87.864845 
	C126.930878,86.836220 125.450386,85.925461 123.953300,84.777435 
	C123.936714,84.540169 123.843063,84.073936 124.199692,83.884552 
	C125.333900,78.331848 126.111496,72.968544 127.046799,67.353943 
	C128.106918,66.341202 129.009323,65.579750 129.911743,64.818298 
z"/>
<path fill="#FBF14F" opacity="1.000000" stroke="none" 
	d="
M129.131363,87.859047 
	C129.895966,85.601173 130.660568,83.343300 131.802399,81.025589 
	C133.138870,82.744484 134.098129,84.523224 135.085434,86.643082 
	C133.681412,87.298660 132.249313,87.613129 130.212036,87.944397 
	C129.606857,87.961197 129.131363,87.859047 129.131363,87.859047 
z"/>
<path fill="#FBFAD8" opacity="1.000000" stroke="none" 
	d="
M58.869835,14.798132 
	C60.041882,16.292543 60.956825,17.626928 62.293159,19.335361 
	C63.120258,20.184044 63.525970,20.658680 63.853523,21.495926 
	C60.755772,22.558315 57.736179,23.258095 54.811188,23.604858 
	C55.038643,22.534334 55.171494,21.816830 55.304340,21.099325 
	C55.577568,19.653879 55.850796,18.208435 56.090721,16.384968 
	C56.216949,14.258415 56.296486,12.360547 58.869835,14.798132 
z"/>
<path fill="#FAEB5C" opacity="1.000000" stroke="none" 
	d="
M129.103348,87.889473 
	C129.131363,87.859047 129.606857,87.961197 129.848297,87.998291 
	C130.076508,88.205139 130.063293,88.374893 130.026154,88.799591 
	C130.002228,89.054527 129.556992,89.042404 129.324951,88.774986 
	C129.069107,88.332619 129.045303,88.157661 129.021515,87.982712 
	C129.021515,87.982712 129.075333,87.919899 129.103348,87.889473 
z"/>
<path fill="#FBF8B3" opacity="1.000000" stroke="none" 
	d="
M70.978813,123.972221 
	C70.402122,124.784416 69.825432,125.596603 69.117706,126.683434 
	C68.558556,126.968033 68.130447,126.977997 67.381897,126.985664 
	C67.025787,125.259727 66.990128,123.536079 66.938637,121.026329 
	C66.957535,119.524620 66.992256,118.809013 67.459198,118.063629 
	C69.909561,118.064568 71.927711,118.095291 73.944420,118.454506 
	C73.586906,119.805542 73.230827,120.828087 72.620911,121.995438 
	C71.904312,122.750900 71.441566,123.361565 70.978813,123.972221 
z"/>
<path fill="#EFE88B" opacity="1.000000" stroke="none" 
	d="
M26.016788,87.988159 
	C26.016788,87.988152 25.993378,87.542816 26.223957,87.099693 
	C25.598785,84.373459 24.743032,82.090340 23.928394,79.415222 
	C25.058292,75.038719 26.316214,71.023476 21.969698,68.027519 
	C21.975908,67.269150 21.982121,66.510788 21.975063,65.372757 
	C21.974205,64.249557 21.986614,63.506031 22.311813,62.246521 
	C24.412020,60.177654 26.199432,58.624767 28.019459,57.368149 
	C28.355482,58.159359 28.658890,58.654301 28.934399,59.344879 
	C28.906498,59.540512 28.904722,59.935734 28.880310,60.244076 
	C28.804295,60.958458 28.752691,61.364502 28.471367,62.030010 
	C28.165319,63.191128 28.088995,64.092781 27.940224,65.330093 
	C27.949121,67.115677 28.030462,68.565598 28.084488,70.350281 
	C28.099043,71.129753 28.140911,71.574455 28.099014,72.242546 
	C28.015247,72.465927 27.834723,72.907593 27.558329,73.182419 
	C28.189034,78.636887 29.096130,83.816528 29.654385,88.988289 
	C28.209291,88.649658 27.113039,88.318909 26.016788,87.988159 
z"/>
<path fill="#FBDC4D" opacity="1.000000" stroke="none" 
	d="
M21.578415,68.108429 
	C26.316214,71.023476 25.058292,75.038719 23.696072,79.563423 
	C22.985035,80.429550 22.547432,80.755463 22.109825,81.081375 
	C18.361584,77.030281 19.609949,72.621574 21.578415,68.108429 
z"/>
<path fill="#FBF9B6" opacity="1.000000" stroke="none" 
	d="
M21.935799,81.389008 
	C22.547432,80.755463 22.985035,80.429550 23.654961,79.955429 
	C24.743032,82.090340 25.598785,84.373459 26.201206,86.877884 
	C24.901224,87.076981 23.854576,87.054756 22.416439,87.068306 
	C18.017153,85.492386 20.459787,83.566750 21.935799,81.389008 
z"/>
<path fill="#FBFADE" opacity="1.000000" stroke="none" 
	d="
M40.636509,24.003014 
	C42.432178,25.045290 43.880856,25.999840 45.628914,27.337275 
	C43.295734,29.480326 40.663185,31.240492 38.030632,33.000660 
	C37.909092,30.874840 37.787548,28.749022 37.460503,26.304054 
	C36.799122,23.143526 37.807587,22.449194 40.636509,24.003014 
z"/>
<path fill="#FBF7A9" opacity="1.000000" stroke="none" 
	d="
M37.815830,33.014408 
	C40.663185,31.240492 43.295734,29.480326 45.965767,27.374523 
	C46.003242,27.028887 45.954834,26.848263 46.341194,26.851330 
	C49.390564,25.888891 52.053577,24.923386 54.716587,23.957878 
	C57.736179,23.258095 60.755772,22.558315 64.214821,21.608673 
	C68.682915,24.263206 72.857887,22.814995 77.019150,21.774534 
	C78.124977,21.942184 79.230797,22.109835 80.798630,22.453125 
	C82.443275,24.047165 83.625916,25.465569 84.442017,26.835913 
	C77.483566,24.105539 70.768257,24.473665 63.610661,25.970200 
	C54.967422,27.429604 48.253078,31.878481 41.493370,36.959946 
	C39.729233,37.330658 38.323597,37.678417 36.935822,37.609699 
	C37.025990,35.807312 37.098293,34.421410 37.170601,33.035503 
	C37.170601,33.035503 37.601025,33.028156 37.815830,33.014408 
z"/>
<path fill="#FBDE4F" opacity="1.000000" stroke="none" 
	d="
M36.807022,33.049240 
	C37.098293,34.421410 37.025990,35.807312 36.782257,37.896191 
	C34.395443,40.418037 32.180050,42.236908 29.639908,44.039772 
	C28.884825,43.975903 28.454493,43.928040 28.024158,43.880180 
	C30.830584,40.274445 33.637012,36.668709 36.807022,33.049240 
z"/>
<path fill="#FBF9C5" opacity="1.000000" stroke="none" 
	d="
M27.671928,43.914047 
	C28.454493,43.928040 28.884825,43.975903 29.655176,44.423157 
	C28.922586,46.290932 27.849979,47.759312 26.581705,49.171875 
	C26.386036,49.116055 25.995068,49.003109 25.995068,49.003109 
	C24.864988,47.446617 23.734909,45.890121 22.288477,44.251003 
	C22.448856,43.767933 22.925587,43.367493 23.693844,42.942764 
	C25.096813,43.261620 26.208254,43.604767 27.671928,43.914047 
z"/>
<path fill="#FADB4D" opacity="1.000000" stroke="none" 
	d="
M25.676573,49.162598 
	C25.995068,49.003109 26.386036,49.116055 26.636940,49.561928 
	C27.241877,51.999573 27.595911,53.991337 27.977142,56.241852 
	C28.031157,56.671970 28.057970,56.843334 28.059097,57.026936 
	C28.033411,57.039169 27.986845,57.071877 27.986845,57.071877 
	C26.199432,58.624767 24.412020,60.177654 22.322454,61.874596 
	C19.890474,56.934067 22.688334,53.144917 25.676573,49.162598 
z"/>
<path fill="#FBE157" opacity="1.000000" stroke="none" 
	d="
M54.811188,23.604858 
	C52.053577,24.923386 49.390564,25.888891 46.345856,26.757946 
	C47.037148,22.104429 51.121357,22.116858 54.897099,21.071264 
	C55.171494,21.816830 55.038643,22.534334 54.811188,23.604858 
z"/>
<path fill="#D3751E" opacity="1.000000" stroke="none" 
	d="
M73.945854,118.126007 
	C71.927711,118.095291 69.909561,118.064568 67.092316,117.983299 
	C62.508808,116.647507 58.724392,115.362267 54.939980,114.077026 
	C54.514778,114.022820 54.089573,113.968613 53.301155,113.525963 
	C52.304836,111.744110 51.671738,110.350700 51.352882,108.998909 
	C52.788040,109.095314 53.908947,109.150108 55.308662,109.212822 
	C56.038639,109.494522 56.489807,109.768303 57.020359,110.408165 
	C60.398079,111.241676 63.696415,111.709091 67.407501,112.159317 
	C70.199440,112.397003 72.578636,112.651863 75.390343,112.945305 
	C85.729698,112.173409 94.836143,109.686813 101.191307,100.866287 
	C101.686821,100.553062 101.872185,100.287003 102.276932,99.837387 
	C103.372597,98.464523 104.159943,97.213242 105.112976,95.631256 
	C106.126373,92.223511 106.974098,89.146484 108.108765,85.869446 
	C108.061401,84.934563 107.727081,84.199677 107.728683,83.311447 
	C114.579391,81.290024 116.473160,79.030167 117.020882,72.381912 
	C117.224762,69.907295 117.351295,67.426315 117.735107,64.954178 
	C118.252991,64.978577 118.548500,65.001709 118.914948,65.433327 
	C119.176529,68.939705 119.733948,72.071007 119.493698,75.139877 
	C118.437393,88.632637 111.560631,99.096466 101.539108,108.027573 
	C99.483047,109.235893 97.748131,110.417664 95.738190,111.766472 
	C95.292496,112.288788 95.121841,112.644058 94.979248,112.990189 
	C95.007309,112.981056 94.980629,112.928535 94.595337,112.841743 
	C90.415627,114.124687 86.621208,115.494423 82.429901,116.898270 
	C79.337296,117.330261 76.641571,117.728134 73.945854,118.126007 
z"/>
<path fill="#FCD13F" opacity="1.000000" stroke="none" 
	d="
M54.741676,114.323860 
	C58.724392,115.362267 62.508808,116.647507 66.660095,118.013077 
	C66.992256,118.809013 66.957535,119.524620 66.891945,120.597473 
	C61.238884,121.482826 56.074711,120.367188 51.008812,116.497299 
	C52.440918,115.716698 53.492146,115.143692 54.741676,114.323860 
z"/>
<path fill="#E18724" opacity="1.000000" stroke="none" 
	d="
M51.038635,108.957291 
	C51.671738,110.350700 52.304836,111.744110 52.988594,113.448975 
	C52.283016,113.803215 51.526779,113.846016 50.172733,113.859741 
	C49.574924,113.830666 49.136082,113.759544 49.136078,113.759544 
	C48.630585,112.911682 48.125092,112.063820 47.197083,110.779175 
	C44.904156,108.552589 43.033745,106.762794 40.972549,104.719849 
	C39.887009,103.655731 38.992256,102.844765 38.470085,102.019745 
	C40.885086,102.682838 42.927502,103.359970 45.137238,104.333878 
	C46.520302,105.103073 47.736050,105.575485 49.171177,106.151672 
	C49.672169,106.437645 49.874199,106.684883 50.098289,107.256714 
	C50.479504,107.996620 50.759071,108.476952 51.038635,108.957291 
z"/>
<path fill="#FBE25C" opacity="1.000000" stroke="none" 
	d="
M48.941460,114.053123 
	C49.136082,113.759544 49.574924,113.830666 49.793602,113.870544 
	C49.578087,114.903023 49.143890,115.895630 48.361641,116.943748 
	C47.563774,116.992500 47.113968,116.985733 46.327240,116.960907 
	C46.909157,116.077477 47.827999,115.212090 48.941460,114.053123 
z"/>
<path fill="#FBD343" opacity="1.000000" stroke="none" 
	d="
M41.163338,104.972992 
	C43.033745,106.762794 44.904156,108.552589 46.926334,110.632309 
	C46.449047,111.837379 45.819984,112.752518 44.577774,114.559647 
	C41.612621,111.471664 38.840630,108.584831 36.466278,105.350815 
	C38.297062,104.993416 39.730198,104.983208 41.163338,104.972992 
z"/>
<path fill="#FBE25C" opacity="1.000000" stroke="none" 
	d="
M40.972549,104.719849 
	C39.730198,104.983208 38.297062,104.993416 36.437737,105.005035 
	C34.858372,104.467659 33.705200,103.928871 32.277138,103.192245 
	C31.999310,102.546349 31.996372,102.098274 32.400917,101.309418 
	C33.895836,100.949928 34.983273,100.931221 36.370884,100.965363 
	C37.146542,101.356735 37.622021,101.695267 38.097504,102.033798 
	C38.992256,102.844765 39.887009,103.655731 40.972549,104.719849 
z"/>
<path fill="#FCD342" opacity="1.000000" stroke="none" 
	d="
M36.070709,100.912514 
	C34.983273,100.931221 33.895836,100.949928 32.400261,100.973312 
	C29.831055,96.789520 27.669987,92.601059 25.762854,88.200378 
	C27.113039,88.318909 28.209291,88.649658 29.928154,89.209984 
	C31.670172,91.322601 32.789577,93.205650 33.957947,95.397766 
	C34.372784,96.457657 34.738663,97.208466 35.195641,98.259750 
	C35.548065,99.344315 35.809387,100.128410 36.070709,100.912514 
z"/>
<path fill="#FBD549" opacity="1.000000" stroke="none" 
	d="
M116.005768,43.999779 
	C117.011368,44.396431 118.638115,44.538059 118.922531,45.230808 
	C120.881668,50.002674 122.560425,54.889648 123.768616,59.911728 
	C122.828568,60.025318 122.449257,59.966793 121.864685,59.647011 
	C120.389847,58.566467 119.120255,57.747169 117.604553,56.692749 
	C116.227165,53.727455 115.095894,50.997280 114.235748,48.053860 
	C115.006508,46.560333 115.506142,45.280056 116.005768,43.999779 
z"/>
<path fill="#FBFADE" opacity="1.000000" stroke="none" 
	d="
M122.069946,59.908264 
	C122.449257,59.966793 122.828568,60.025318 123.491531,60.120049 
	C125.273865,60.788181 126.772537,61.420105 128.629211,62.064808 
	C129.339233,62.781593 129.691238,63.485603 129.977493,64.503952 
	C129.009323,65.579750 128.106918,66.341202 126.745499,67.498802 
	C125.197533,68.979050 124.108574,70.063141 122.874451,70.765808 
	C122.509499,66.892342 122.289726,63.400303 122.069946,59.908264 
z"/>
<path fill="#FBF9C8" opacity="1.000000" stroke="none" 
	d="
M115.997360,43.625397 
	C115.506142,45.280056 115.006508,46.560333 113.991539,47.809185 
	C112.312195,45.868828 111.148186,43.959900 110.001877,41.719040 
	C110.059059,40.732777 110.098541,40.078445 110.445198,39.339695 
	C111.167778,39.166191 111.583183,39.077106 111.998589,38.988018 
	C112.859879,38.853939 113.721169,38.719856 114.813873,38.352089 
	C115.359840,39.829281 115.674393,41.540150 115.997360,43.625397 
z"/>
<path fill="#FCD848" opacity="1.000000" stroke="none" 
	d="
M84.808548,26.883972 
	C83.625916,25.465569 82.443275,24.047165 81.113922,22.336670 
	C80.982338,21.288843 80.997467,20.533113 81.014359,19.400566 
	C85.189117,20.280510 89.362122,21.537270 93.671280,23.211102 
	C92.231400,24.430117 90.655365,25.232056 88.712997,26.053970 
	C87.167290,26.343954 85.987923,26.613962 84.808548,26.883972 
z"/>
<path fill="#FCDB4D" opacity="1.000000" stroke="none" 
	d="
M77.000504,21.375698 
	C72.857887,22.814995 68.682915,24.263206 64.292984,21.246063 
	C63.525970,20.658680 63.120258,20.184044 62.585453,19.421406 
	C66.507774,18.762995 70.556595,18.229473 74.612862,18.165226 
	C75.387489,18.152956 76.191429,19.991970 77.000504,21.375698 
z"/>
<path fill="#FAF3A9" opacity="1.000000" stroke="none" 
	d="
M89.079338,26.033997 
	C90.655365,25.232056 92.231400,24.430117 94.021317,23.352312 
	C94.821617,23.513910 95.408035,23.951376 96.040611,24.701786 
	C96.068817,25.180752 96.050865,25.346771 96.006554,26.138954 
	C96.023544,27.518635 96.066895,28.272146 96.070267,29.266655 
	C96.030289,29.507652 95.995422,29.995098 95.627182,29.961128 
	C94.533081,29.777023 93.807228,29.626886 92.859009,29.242184 
	C91.450882,28.016409 90.265106,27.025202 89.079338,26.033997 
z"/>
<path fill="#FCD644" opacity="1.000000" stroke="none" 
	d="
M96.110252,29.025660 
	C96.066895,28.272146 96.023544,27.518635 96.020172,26.389065 
	C102.957886,28.032867 107.965797,32.493809 111.965218,38.644264 
	C111.583183,39.077106 111.167778,39.166191 110.168373,39.212193 
	C109.389565,39.115746 109.194748,39.062382 108.966415,38.662449 
	C105.884850,33.526749 101.912186,30.013798 96.110252,29.025660 
z"/>
<path fill="#FAEB5C" opacity="1.000000" stroke="none" 
	d="
M115.410950,108.989624 
	C114.932602,108.501228 114.793365,107.959190 114.389153,106.863899 
	C114.330620,105.165718 114.537064,104.020790 115.113838,102.879601 
	C117.324844,99.620193 119.165527,96.357056 121.273773,92.883865 
	C123.342834,91.729088 125.144333,90.784363 126.945831,89.839630 
	C125.607635,97.608475 121.862259,103.966034 115.410950,108.989624 
z"/>
<path fill="#FCFAE9" opacity="1.000000" stroke="none" 
	d="
M127.155731,89.625992 
	C125.144333,90.784363 123.342834,91.729088 121.025963,92.885590 
	C120.510590,93.097374 120.021919,93.179749 120.024155,92.789673 
	C121.340881,89.937958 122.655380,87.476326 123.969879,85.014702 
	C125.450386,85.925461 126.930878,86.836220 128.716446,87.864845 
	C129.045303,88.157661 129.069107,88.332619 129.102249,88.772507 
	C128.529602,89.162415 127.947617,89.287376 127.155731,89.625992 
z"/>
<path fill="#FAF29D" opacity="1.000000" stroke="none" 
	d="
M82.826782,116.864151 
	C86.621208,115.494423 90.415627,114.124687 94.592987,113.229080 
	C94.953552,114.478737 94.931183,115.254272 94.749847,116.358070 
	C94.397568,118.121651 94.204239,119.556976 94.010902,120.992294 
	C93.276062,121.306053 92.541229,121.619812 91.353035,121.721069 
	C90.693817,121.243271 90.429291,121.065010 90.077438,120.645966 
	C90.030159,119.879555 90.011566,119.440994 89.919846,118.813477 
	C89.550140,118.741013 89.253563,118.857498 88.574768,118.986099 
	C86.403969,118.286858 84.615372,117.575508 82.826782,116.864151 
M91.390732,119.496002 
	C91.390732,119.496002 91.515450,119.417671 91.390732,119.496002 
z"/>
<path fill="#FBDE4F" opacity="1.000000" stroke="none" 
	d="
M94.268936,120.887573 
	C94.204239,119.556976 94.397568,118.121651 95.134926,116.343918 
	C100.267830,114.878136 104.280975,113.004395 106.346436,108.063904 
	C107.470787,108.068634 108.220734,108.113602 108.970688,108.158569 
	C107.685074,110.086456 106.626030,112.230095 105.051826,113.883171 
	C103.389008,115.629288 101.235168,116.907822 99.147919,118.694847 
	C99.000031,118.999084 98.500877,119.002472 97.952927,119.022095 
	C96.936760,119.361488 96.468552,119.681252 96.000351,120.001022 
	C95.509224,120.261642 95.018097,120.522247 94.268936,120.887573 
z"/>
<path fill="#FBE459" opacity="1.000000" stroke="none" 
	d="
M90.106117,120.973801 
	C90.429291,121.065010 90.693817,121.243271 91.031097,121.712860 
	C85.787102,123.218254 80.433784,124.628227 75.017502,125.728111 
	C73.941284,125.946655 72.623787,124.977097 71.198181,124.263817 
	C71.441566,123.361565 71.904312,122.750900 72.803162,122.324097 
	C74.223839,122.816460 75.263870,123.504135 76.183655,123.369637 
	C80.841652,122.688461 85.468407,121.793694 90.106117,120.973801 
z"/>
<path fill="#FAE65D" opacity="1.000000" stroke="none" 
	d="
M96.171478,120.229454 
	C96.468552,119.681252 96.936760,119.361488 97.703346,119.023697 
	C97.448685,119.489738 96.895653,119.973816 96.171478,120.229454 
z"/>
<path fill="#F9F2AF" opacity="1.000000" stroke="none" 
	d="
M109.312492,108.131592 
	C108.220734,108.113602 107.470787,108.068634 105.938240,108.024223 
	C104.057182,108.016861 102.958725,108.008934 101.860260,108.001015 
	C111.560631,99.096466 118.437393,88.632637 119.493698,75.139877 
	C119.733948,72.071007 119.176529,68.939705 118.987724,65.026428 
	C118.609688,61.786438 118.230179,59.357155 117.850662,56.927872 
	C119.120255,57.747169 120.389847,58.566467 121.864693,59.647011 
	C122.289726,63.400303 122.509499,66.892342 122.835083,71.132492 
	C122.667824,75.553658 122.394768,79.226715 121.793922,83.074249 
	C119.798065,87.047630 116.444260,90.374008 117.971680,95.421646 
	C116.783569,98.110336 115.763542,100.493095 114.743515,102.875862 
	C114.537064,104.020790 114.330620,105.165718 114.184402,106.670441 
	C113.294762,107.229897 112.344887,107.429558 111.205154,107.946442 
	C110.561623,108.210655 110.107964,108.157639 109.312492,108.131592 
z"/>
<path fill="#FBDD51" opacity="1.000000" stroke="none" 
	d="
M122.121712,82.899765 
	C122.394768,79.226715 122.667824,75.553658 122.980255,71.513916 
	C124.108574,70.063141 125.197533,68.979050 126.587784,67.750092 
	C126.111496,72.968544 125.333900,78.331848 123.960480,83.779289 
	C122.950333,83.542198 122.536026,83.220985 122.121712,82.899765 
z"/>
<path fill="#FBF9CC" opacity="1.000000" stroke="none" 
	d="
M121.793922,83.074249 
	C122.536026,83.220985 122.950333,83.542198 123.603851,83.968674 
	C123.843063,84.073936 123.936714,84.540169 123.953293,84.777435 
	C122.655380,87.476326 121.340881,89.937958 119.914719,93.040466 
	C119.248619,94.159470 118.694191,94.637596 118.139755,95.115723 
	C116.444260,90.374008 119.798065,87.047630 121.793922,83.074249 
z"/>
<path fill="#FCD948" opacity="1.000000" stroke="none" 
	d="
M90.077438,120.645966 
	C85.468407,121.793694 80.841652,122.688461 76.183655,123.369637 
	C75.263870,123.504135 74.223839,122.816460 73.057007,122.179291 
	C73.230827,120.828087 73.586906,119.805542 73.944420,118.454498 
	C76.641571,117.728134 79.337296,117.330261 82.429901,116.898270 
	C84.615372,117.575508 86.403969,118.286858 88.833855,118.996666 
	C89.647758,118.997551 89.820366,118.999992 89.992973,119.002426 
	C90.011566,119.440994 90.030159,119.879555 90.077438,120.645966 
z"/>
<path fill="#5FD4C4" opacity="1.000000" stroke="none" 
	d="
M27.834723,72.907593 
	C27.834723,72.907593 28.015247,72.465927 28.443077,72.311729 
	C30.799986,72.523201 32.830917,73.471878 34.640877,73.155678 
	C43.428856,71.620415 52.157604,69.746124 61.014999,68.373299 
	C61.225719,69.800369 61.328770,70.846062 61.296124,72.229095 
	C61.067444,73.041595 60.974461,73.516739 60.457375,73.993446 
	C58.090954,74.263145 56.121281,74.405647 54.211105,74.821457 
	C46.517773,76.496185 38.842815,78.255348 30.996056,79.668350 
	C29.832268,77.204796 28.833494,75.056190 27.834723,72.907593 
z"/>
<path fill="#61DEBD" opacity="1.000000" stroke="none" 
	d="
M60.907333,67.991913 
	C52.157604,69.746124 43.428856,71.620415 34.640877,73.155678 
	C32.830917,73.471878 30.799986,72.523201 28.526844,72.088348 
	C28.140911,71.574455 28.099043,71.129753 28.361877,70.111748 
	C29.290228,69.050766 29.851759,68.265083 30.546854,68.120201 
	C40.606567,66.023407 50.684200,64.012581 60.876259,62.399597 
	C60.965763,64.542648 60.936546,66.267281 60.907333,67.991913 
z"/>
<path fill="#E79D24" opacity="1.000000" stroke="none" 
	d="
M27.558329,73.182419 
	C28.833494,75.056190 29.832268,77.204796 30.935795,79.928886 
	C31.051445,80.860298 31.062340,81.216217 30.803097,81.793610 
	C30.747349,82.553932 30.823982,83.430252 31.196293,83.582222 
	C40.342018,87.315460 49.578880,89.798676 59.474701,85.033096 
	C60.161240,84.938942 60.551876,84.869675 60.958603,85.171661 
	C60.987484,86.038246 61.000271,86.533569 60.899826,87.267288 
	C60.486748,87.937027 60.186897,88.368362 59.480515,88.833282 
	C53.073250,89.222343 47.073395,89.799149 41.071342,89.822937 
	C38.713181,89.832283 36.350121,88.604553 33.941498,87.624954 
	C33.315674,87.877502 32.171028,88.555672 32.256458,88.994179 
	C32.653179,91.030434 33.390789,93.000282 33.982063,95.017632 
	C33.957748,95.041367 33.908985,95.088699 33.908985,95.088699 
	C32.789577,93.205650 31.670172,91.322601 30.276997,89.217857 
	C29.096130,83.816528 28.189034,78.636887 27.558329,73.182419 
z"/>
<path fill="#73E0A6" opacity="1.000000" stroke="none" 
	d="
M60.757542,61.981171 
	C50.684200,64.012581 40.606567,66.023407 30.546854,68.120201 
	C29.851759,68.265083 29.290228,69.050766 28.389193,69.776978 
	C28.030462,68.565598 27.949121,67.115677 28.371105,65.332840 
	C39.425564,62.666023 49.976700,60.332134 60.665577,58.380432 
	C60.788063,59.835472 60.772804,60.908321 60.757542,61.981171 
z"/>
<path fill="#8BE594" opacity="1.000000" stroke="none" 
	d="
M60.527832,57.998245 
	C49.976700,60.332134 39.425564,62.666023 28.443550,64.997177 
	C28.088995,64.092781 28.165319,63.191128 28.920559,62.108681 
	C31.213167,61.728531 32.849083,61.637497 34.436848,61.311749 
	C42.928883,59.569527 51.408901,57.768726 59.965561,56.139233 
	C60.125912,56.496563 60.246368,56.681610 60.518181,57.123978 
	C60.600571,57.601105 60.564201,57.799675 60.527832,57.998245 
z"/>
<path fill="#B2EB74" opacity="1.000000" stroke="none" 
	d="
M28.904722,59.935734 
	C28.904722,59.935734 28.906498,59.540512 28.945311,58.992699 
	C28.985607,57.979118 28.987093,57.513351 29.405754,57.029602 
	C39.776627,55.000984 49.730324,52.990341 59.775291,51.347481 
	C59.842632,52.467918 59.818710,53.220570 59.374191,53.979431 
	C48.937305,55.969002 38.921013,57.952370 28.904722,59.935734 
z"/>
<path fill="#A3EA85" opacity="1.000000" stroke="none" 
	d="
M28.880310,60.244076 
	C38.921013,57.952370 48.937305,55.969002 59.455242,54.266579 
	C59.976646,54.745209 59.996399,54.942902 59.992142,55.353470 
	C59.968132,55.566349 59.893070,55.988174 59.893070,55.988174 
	C51.408901,57.768726 42.928883,59.569527 34.436848,61.311749 
	C32.849083,61.637497 31.213167,61.728531 29.150280,61.849213 
	C28.752691,61.364502 28.804295,60.958458 28.880310,60.244076 
z"/>
<path fill="#A3EA85" opacity="1.000000" stroke="none" 
	d="
M28.988577,57.047581 
	C28.987093,57.513351 28.985607,57.979118 28.973209,58.797066 
	C28.658890,58.654301 28.355482,58.159359 28.019459,57.368149 
	C27.986845,57.071877 28.033411,57.039169 28.284883,57.029156 
	C28.536356,57.019142 28.988577,57.047581 28.988577,57.047581 
z"/>
<path fill="#F8C94E" opacity="1.000000" stroke="none" 
	d="
M41.851875,36.936996 
	C48.253078,31.878481 54.967422,27.429604 63.475216,26.297441 
	C63.541935,27.301071 63.347691,27.971525 62.853737,28.785501 
	C59.952171,29.949968 57.098537,30.585102 54.806553,32.080856 
	C51.227829,34.416336 48.029690,37.334999 44.379742,40.063652 
	C43.227757,41.380859 42.461296,42.721069 41.482285,43.882046 
	C40.071228,45.555378 38.505775,47.098515 36.672905,48.769264 
	C35.559464,49.567883 34.779331,50.294453 33.837513,51.265560 
	C33.124939,51.661640 32.574051,51.813187 32.002777,51.593399 
	C35.272221,46.460373 38.562046,41.698685 41.851875,36.936996 
z"/>
<path fill="#F6BF49" opacity="1.000000" stroke="none" 
	d="
M63.153450,28.641979 
	C63.347691,27.971525 63.541935,27.301071 63.871620,26.303375 
	C70.768257,24.473665 77.483566,24.105539 84.442017,26.835911 
	C85.987923,26.613962 87.167290,26.343954 88.712997,26.053970 
	C90.265106,27.025202 91.450882,28.016409 92.825134,29.645187 
	C92.668808,31.534245 92.323997,32.785732 91.632118,33.986725 
	C88.653397,32.627571 86.021744,31.318918 83.119370,29.687187 
	C76.283577,29.123400 69.718513,28.882690 63.153450,28.641979 
z"/>
<path fill="#F9F395" opacity="1.000000" stroke="none" 
	d="
M41.493370,36.959946 
	C38.562046,41.698685 35.272221,46.460373 31.984138,51.842720 
	C31.985886,52.463383 31.965557,52.962254 31.676964,53.106091 
	C30.242229,54.160988 29.096087,55.072048 27.949945,55.983105 
	C27.595911,53.991337 27.241877,51.999573 26.832607,49.617748 
	C27.849979,47.759312 28.922586,46.290932 29.979927,44.439171 
	C32.180050,42.236908 34.395443,40.418037 36.764397,38.312672 
	C38.323597,37.678417 39.729233,37.330658 41.493370,36.959946 
z"/>
<path fill="#C8F068" opacity="1.000000" stroke="none" 
	d="
M27.977142,56.241852 
	C29.096087,55.072048 30.242229,54.160988 32.011883,53.254242 
	C37.712914,52.461372 42.842735,51.899418 47.849960,50.786083 
	C51.312695,50.016159 54.606167,48.485004 58.233181,47.297531 
	C58.649693,47.596855 58.808304,47.892658 59.015274,48.332024 
	C59.150150,48.665443 59.283157,48.813560 59.614639,49.243103 
	C59.739098,50.037415 59.711559,50.508556 59.684021,50.979698 
	C49.730324,52.990341 39.776627,55.000984 29.405754,57.029602 
	C28.988577,57.047581 28.536356,57.019142 28.310570,57.016922 
	C28.057970,56.843334 28.031157,56.671970 27.977142,56.241852 
z"/>
<path fill="#FDC33F" opacity="1.000000" stroke="none" 
	d="
M49.996643,106.997147 
	C49.874199,106.684883 49.672169,106.437645 49.186024,105.892525 
	C48.982498,105.356934 48.983505,105.184273 49.367348,104.843048 
	C53.193584,104.449936 56.657330,104.378609 60.070370,103.925438 
	C61.435383,103.744194 62.688648,102.721382 64.457108,102.050789 
	C70.747238,101.898468 76.873543,103.483429 82.178543,98.877945 
	C87.262962,95.566811 91.250420,90.983116 97.482071,90.087959 
	C98.447678,89.949265 99.159851,88.046265 100.219879,86.696556 
	C102.907623,86.312462 105.364723,86.190956 107.821823,86.069450 
	C106.974098,89.146484 106.126373,92.223511 104.789726,95.640236 
	C103.868759,95.993996 103.436722,96.008064 102.814613,95.772865 
	C102.316956,95.451691 101.872932,95.210129 101.721245,95.332100 
	C91.492142,103.557510 79.112503,107.004669 66.551628,111.008316 
	C63.060120,110.686340 60.000546,110.364204 56.940975,110.042076 
	C56.489807,109.768303 56.038639,109.494522 55.129288,108.895920 
	C53.112949,108.046455 51.554794,107.521797 49.996643,106.997147 
z"/>
<path fill="#FEBE39" opacity="1.000000" stroke="none" 
	d="
M66.983566,111.008156 
	C79.112503,107.004669 91.492142,103.557510 101.721245,95.332100 
	C101.872932,95.210129 102.316956,95.451691 102.676376,96.088806 
	C102.475014,97.755669 102.221817,98.857323 101.968613,99.958969 
	C101.872185,100.287003 101.686821,100.553062 100.827026,100.871536 
	C99.610344,101.131981 98.793304,101.074150 98.375824,101.454681 
	C92.125549,107.151749 84.819122,110.374283 76.400810,111.196472 
	C75.869209,111.248390 75.436531,112.313164 74.957825,112.906731 
	C72.578636,112.651863 70.199440,112.397003 67.408325,111.866356 
	C66.992119,111.396431 66.987839,111.202293 66.983566,111.008156 
z"/>
<path fill="#13100B" opacity="1.000000" stroke="none" 
	d="
M117.513107,64.948235 
	C117.351295,67.426315 117.224762,69.907295 117.020882,72.381912 
	C116.473160,79.030167 114.579391,81.290024 107.312469,83.326309 
	C101.373878,83.076111 96.187431,82.657715 91.228668,82.124680 
	C91.619637,81.730247 91.782913,81.450455 92.300842,80.916946 
	C96.545219,80.421165 100.432671,80.026283 104.325150,79.968117 
	C113.049065,79.837730 114.201134,78.773674 114.586746,69.586823 
	C114.689278,68.136749 114.663231,67.069061 114.743393,65.670219 
	C114.864990,64.875732 114.880371,64.412415 115.176323,63.922543 
	C115.625221,63.812569 115.793564,63.729141 116.264359,63.805752 
	C116.882233,64.293274 117.197670,64.620750 117.513107,64.948235 
z"/>
<path fill="#EB9620" opacity="1.000000" stroke="none" 
	d="
M91.000977,82.239326 
	C96.187431,82.657715 101.373878,83.076111 106.976547,83.479645 
	C107.727081,84.199677 108.061401,84.934563 108.108765,85.869446 
	C105.364723,86.190956 102.907623,86.312462 99.796211,86.712921 
	C95.115898,87.318130 91.089905,87.644394 86.819817,87.694817 
	C84.051071,86.606628 81.526413,85.794273 78.889229,84.717987 
	C78.530495,83.938309 78.284294,83.422554 78.441772,82.927414 
	C82.897285,82.711792 86.949135,82.475555 91.000977,82.239326 
z"/>
<path fill="#D68837" opacity="1.000000" stroke="none" 
	d="
M117.735107,64.954178 
	C117.197670,64.620750 116.882233,64.293274 116.243668,63.477112 
	C115.555779,61.973927 115.191017,60.959415 114.921967,59.592865 
	C113.675980,57.212219 112.334282,55.183609 110.736191,52.975296 
	C110.262947,52.221886 110.046104,51.648167 110.122574,50.875488 
	C109.985382,48.871380 109.813705,46.949383 109.063850,45.288414 
	C107.932869,42.783268 106.398148,40.460407 105.326843,38.167881 
	C106.387520,38.559563 107.156395,38.843426 107.980270,39.432892 
	C108.684914,40.509319 109.334549,41.280144 109.984177,42.050972 
	C111.148186,43.959900 112.312195,45.868828 113.720413,48.022434 
	C115.095894,50.997280 116.227165,53.727455 117.604553,56.692749 
	C118.230179,59.357155 118.609688,61.786438 118.916412,64.622620 
	C118.548500,65.001709 118.252991,64.978577 117.735107,64.954178 
z"/>
<path fill="#EBAB2C" opacity="1.000000" stroke="none" 
	d="
M75.390350,112.945305 
	C75.436531,112.313164 75.869209,111.248390 76.400810,111.196472 
	C84.819122,110.374283 92.125549,107.151749 98.375824,101.454681 
	C98.793304,101.074150 99.610344,101.131981 100.605820,100.980675 
	C94.836143,109.686813 85.729698,112.173409 75.390350,112.945305 
z"/>
<path fill="#FACF43" opacity="1.000000" stroke="none" 
	d="
M101.539108,108.027573 
	C102.958725,108.008934 104.057182,108.016861 105.563843,108.064461 
	C104.280975,113.004395 100.267830,114.878136 95.293884,116.015656 
	C94.931183,115.254272 94.953552,114.478737 94.978271,113.315872 
	C94.980629,112.928535 95.007309,112.981056 95.245483,112.838806 
	C95.660179,112.330849 95.836700,111.965141 96.013222,111.599434 
	C97.748131,110.417664 99.483047,109.235893 101.539108,108.027573 
z"/>
<path fill="#EBAB2C" opacity="1.000000" stroke="none" 
	d="
M66.551628,111.008316 
	C66.987839,111.202293 66.992119,111.396431 66.995575,111.883545 
	C63.696415,111.709091 60.398079,111.241676 57.020359,110.408165 
	C60.000546,110.364204 63.060120,110.686340 66.551628,111.008316 
z"/>
<path fill="#EBAB2C" opacity="1.000000" stroke="none" 
	d="
M50.098289,107.256714 
	C51.554794,107.521797 53.112949,108.046455 54.850479,108.888000 
	C53.908947,109.150108 52.788040,109.095314 51.352882,108.998909 
	C50.759071,108.476952 50.479504,107.996620 50.098289,107.256714 
z"/>
<path fill="#EBAB2C" opacity="1.000000" stroke="none" 
	d="
M102.276932,99.837387 
	C102.221817,98.857323 102.475014,97.755669 102.866455,96.338074 
	C103.436722,96.008064 103.868759,95.993996 104.624039,95.970947 
	C104.159943,97.213242 103.372597,98.464523 102.276932,99.837387 
z"/>
<path fill="#FAF29D" opacity="1.000000" stroke="none" 
	d="
M95.738190,111.766472 
	C95.836700,111.965141 95.660179,112.330849 95.217422,112.847946 
	C95.121841,112.644058 95.292496,112.288788 95.738190,111.766472 
z"/>
<path fill="#EBAB2C" opacity="1.000000" stroke="none" 
	d="
M36.370884,100.965363 
	C35.809387,100.128410 35.548065,99.344315 35.508282,98.225754 
	C36.165779,97.247307 36.601738,96.603333 37.364349,95.959984 
	C38.127312,95.973274 38.563614,95.985939 39.139877,96.300629 
	C41.213417,99.040581 43.146996,101.478516 45.052589,103.946304 
	C45.024597,103.976173 44.969921,104.037109 44.969921,104.037109 
	C42.927502,103.359970 40.885086,102.682838 38.470085,102.019745 
	C37.622021,101.695267 37.146542,101.356735 36.370884,100.965363 
z"/>
<path fill="#EBAB2C" opacity="1.000000" stroke="none" 
	d="
M48.984512,105.011620 
	C48.983505,105.184273 48.982498,105.356934 48.966640,105.788757 
	C47.736050,105.575485 46.520302,105.103073 45.137238,104.333878 
	C44.969921,104.037109 45.024597,103.976173 45.392441,103.970337 
	C46.835030,104.313545 47.909771,104.662582 48.984512,105.011620 
z"/>
<path fill="#E79D24" opacity="1.000000" stroke="none" 
	d="
M37.037697,95.959358 
	C36.601738,96.603333 36.165779,97.247307 35.417183,97.925285 
	C34.738663,97.208466 34.372784,96.457657 33.957947,95.397766 
	C33.908985,95.088699 33.957748,95.041367 34.302956,95.041496 
	C35.444878,95.353516 36.241589,95.665398 37.030594,95.983322 
	C37.022884,95.989357 37.037701,95.959358 37.037697,95.959358 
z"/>
<path fill="#F9EDA0" opacity="1.000000" stroke="none" 
	d="
M110.001877,41.719040 
	C109.334549,41.280144 108.684914,40.509319 108.249863,39.407135 
	C108.642952,39.053520 108.821442,39.031265 108.999924,39.009014 
	C109.194748,39.062382 109.389565,39.115746 109.861198,39.296608 
	C110.098541,40.078445 110.059059,40.732777 110.001877,41.719040 
z"/>
<path fill="#EAAF36" opacity="1.000000" stroke="none" 
	d="
M105.035034,38.060062 
	C106.398148,40.460407 107.932869,42.783268 109.063850,45.288414 
	C109.813705,46.949383 109.985382,48.871380 109.761826,50.868843 
	C107.742439,50.665379 106.377113,50.269596 104.928848,49.635078 
	C104.568802,49.216908 104.291687,49.037460 103.966583,48.586239 
	C103.856155,48.141392 103.793732,47.968319 103.908646,47.555183 
	C103.876335,46.461861 103.945831,45.323185 103.412155,44.801205 
	C99.670891,41.141922 95.805138,37.609928 91.979195,34.037220 
	C92.323997,32.785732 92.668808,31.534245 93.047493,29.879755 
	C93.807228,29.626886 94.533081,29.777023 95.642487,30.217907 
	C96.038193,30.679695 96.050339,30.850737 96.150177,31.230255 
	C96.415688,31.700205 96.657593,31.870817 97.263657,32.099102 
	C100.054153,34.185112 102.544594,36.122585 105.035034,38.060062 
z"/>
<path fill="#FCC835" opacity="1.000000" stroke="none" 
	d="
M105.326843,38.167881 
	C102.544594,36.122585 100.054153,34.185112 97.170944,31.895084 
	C96.599533,31.286610 96.360970,31.113024 96.062477,31.021776 
	C96.050339,30.850737 96.038193,30.679695 96.010735,30.251875 
	C95.995422,29.995098 96.030289,29.507652 96.070267,29.266655 
	C101.912186,30.013798 105.884850,33.526749 108.966415,38.662449 
	C108.821442,39.031265 108.642952,39.053520 108.194855,39.101532 
	C107.156395,38.843426 106.387520,38.559563 105.326843,38.167881 
z"/>
<path fill="#FAEA62" opacity="1.000000" stroke="none" 
	d="
M117.971680,95.421646 
	C118.694191,94.637596 119.248619,94.159470 119.912491,93.430542 
	C120.021919,93.179749 120.510590,93.097374 120.758400,93.095642 
	C119.165527,96.357056 117.324844,99.620193 115.113838,102.879601 
	C115.763542,100.493095 116.783569,98.110336 117.971680,95.421646 
z"/>
<path fill="#FBE459" opacity="1.000000" stroke="none" 
	d="
M89.919846,118.813477 
	C89.820366,118.999992 89.647758,118.997551 89.216064,118.984543 
	C89.253563,118.857498 89.550140,118.741013 89.919846,118.813477 
z"/>
<path fill="#FAEA62" opacity="1.000000" stroke="none" 
	d="
M91.453094,119.456833 
	C91.515450,119.417671 91.390732,119.496002 91.453094,119.456833 
z"/>
<path fill="#5FC6CA" opacity="1.000000" stroke="none" 
	d="
M31.073235,81.572136 
	C31.062340,81.216217 31.051445,80.860298 31.100811,80.243851 
	C38.842815,78.255348 46.517773,76.496185 54.211105,74.821457 
	C56.121281,74.405647 58.090954,74.263145 60.559731,74.342300 
	C61.111351,75.415009 61.136513,76.140434 60.883888,77.090088 
	C59.663723,78.977074 58.721340,80.639839 57.432671,82.420349 
	C48.302372,85.258202 39.651085,84.403976 31.073235,81.572136 
z"/>
<path fill="#151205" opacity="1.000000" stroke="none" 
	d="
M58.966915,48.188461 
	C58.808304,47.892658 58.649693,47.596855 57.826904,47.190186 
	C54.504879,46.592052 51.847034,46.104790 49.395782,45.322140 
	C54.575932,42.190407 59.209763,44.305050 63.928825,46.379128 
	C64.475914,48.875347 64.966171,50.998333 65.543716,53.573547 
	C65.608345,60.808788 65.585686,67.591797 65.246613,74.221489 
	C63.764069,73.342697 62.597942,72.617218 61.431820,71.891747 
	C61.328770,70.846062 61.225719,69.800369 61.014999,68.373299 
	C60.936546,66.267281 60.965763,64.542648 60.876259,62.399593 
	C60.772804,60.908321 60.788063,59.835472 60.665577,58.380436 
	C60.564201,57.799675 60.600571,57.601105 60.626812,56.897827 
	C60.416508,55.975609 60.216328,55.558102 60.016151,55.140591 
	C59.996399,54.942902 59.976646,54.745209 59.875839,54.260372 
	C59.818710,53.220570 59.842632,52.467918 59.775291,51.347481 
	C59.711559,50.508556 59.739098,50.037415 59.668495,49.065578 
	C59.446304,48.315952 59.245155,48.190479 58.966915,48.188461 
z"/>
<path fill="#2A3B36" opacity="1.000000" stroke="none" 
	d="
M61.296124,72.229095 
	C62.597942,72.617218 63.764069,73.342697 65.235504,74.618980 
	C65.371872,75.951492 65.202942,76.733200 64.652969,77.412231 
	C63.235176,77.161667 62.198421,77.013756 61.161671,76.865852 
	C61.136513,76.140434 61.111351,75.415009 60.983833,74.340736 
	C60.974461,73.516739 61.067444,73.041595 61.296124,72.229095 
z"/>
<path fill="#FDDD45" opacity="1.000000" stroke="none" 
	d="
M38.999920,95.998611 
	C38.563614,95.985939 38.127312,95.973274 37.364353,95.959984 
	C37.037701,95.959358 37.022884,95.989357 37.027618,95.613007 
	C36.017998,92.804497 35.003643,90.372337 33.989292,87.940178 
	C36.350121,88.604553 38.713181,89.832283 41.071342,89.822937 
	C47.073395,89.799149 53.073250,89.222343 59.580383,89.230469 
	C64.310669,92.024529 74.740685,89.391518 78.234985,85.057022 
	C78.661278,85.018494 78.831520,85.000198 79.001762,84.981911 
	C81.526413,85.794273 84.051071,86.606628 86.504562,87.847107 
	C80.443016,90.832085 74.422272,93.321388 68.482162,95.990143 
	C66.862907,96.717636 65.486237,97.985085 63.619133,98.949142 
	C60.496975,98.205132 57.753910,97.516701 54.931019,96.493385 
	C52.882332,94.896278 50.913475,93.634041 48.656525,92.187103 
	C48.536930,93.547684 48.437420,94.679794 48.365673,95.496033 
	C44.941395,95.679787 41.970657,95.839195 38.999920,95.998611 
z"/>
<path fill="#E8AC23" opacity="1.000000" stroke="none" 
	d="
M78.889229,84.717987 
	C78.831520,85.000198 78.661278,85.018494 77.889709,84.992577 
	C74.505119,83.029175 71.721863,81.109978 69.388008,79.500671 
	C66.451530,82.140266 63.732292,84.584579 61.013054,87.028893 
	C61.000271,86.533569 60.987484,86.038246 61.129829,84.894913 
	C62.534641,82.002899 63.784325,79.758896 65.034004,77.514900 
	C65.202942,76.733200 65.371872,75.951492 65.551918,74.772301 
	C65.585686,67.591797 65.608345,60.808788 66.026413,53.496376 
	C67.718384,52.943554 69.014938,52.920132 70.346390,53.366875 
	C71.208542,60.932087 72.035812,68.027145 72.897156,75.491608 
	C74.549423,77.935043 76.167618,80.009087 77.849838,82.288750 
	C77.913864,82.494377 78.038094,82.906799 78.038094,82.906799 
	C78.284294,83.422554 78.530495,83.938309 78.889229,84.717987 
z"/>
<path fill="#FDE946" opacity="1.000000" stroke="none" 
	d="
M60.899826,87.267288 
	C63.732292,84.584579 66.451530,82.140266 69.388008,79.500671 
	C71.721863,81.109978 74.505119,83.029175 77.633667,85.012817 
	C74.740685,89.391518 64.310669,92.024529 59.986916,89.196884 
	C60.186897,88.368362 60.486748,87.937027 60.899826,87.267288 
z"/>
<path fill="#222119" opacity="1.000000" stroke="none" 
	d="
M30.803097,81.793610 
	C39.651085,84.403976 48.302372,85.258202 57.482185,82.728516 
	C58.311584,83.631950 58.745190,84.344963 59.178795,85.057983 
	C49.578880,89.798676 40.342018,87.315460 31.196293,83.582222 
	C30.823982,83.430252 30.747349,82.553932 30.803097,81.793610 
z"/>
<path fill="#90908A" opacity="1.000000" stroke="none" 
	d="
M59.474701,85.033096 
	C58.745190,84.344963 58.311584,83.631950 57.828468,82.610764 
	C58.721340,80.639839 59.663723,78.977074 60.883888,77.090088 
	C62.198421,77.013756 63.235176,77.161667 64.652969,77.412231 
	C63.784325,79.758896 62.534641,82.002899 61.113735,84.523651 
	C60.551876,84.869675 60.161240,84.938942 59.474701,85.033096 
z"/>
<path fill="#EBAB2C" opacity="1.000000" stroke="none" 
	d="
M33.941498,87.624954 
	C35.003643,90.372337 36.017998,92.804497 37.035324,95.606964 
	C36.241589,95.665398 35.444878,95.353516 34.327271,95.017761 
	C33.390789,93.000282 32.653179,91.030434 32.256458,88.994179 
	C32.171028,88.555672 33.315674,87.877502 33.941498,87.624954 
z"/>
<path fill="#73E0A6" opacity="1.000000" stroke="none" 
	d="
M59.992142,55.353470 
	C60.216328,55.558102 60.416508,55.975609 60.508057,56.619270 
	C60.246368,56.681610 60.125912,56.496563 59.965561,56.139229 
	C59.893070,55.988174 59.968132,55.566349 59.992142,55.353470 
z"/>
<path fill="#F6F04A" opacity="1.000000" stroke="none" 
	d="
M63.871986,46.005894 
	C59.209763,44.305050 54.575932,42.190407 49.197289,45.563736 
	C45.215500,47.065605 41.638802,48.030491 37.794888,48.932320 
	C37.353855,48.811916 37.180035,48.754566 37.006214,48.697212 
	C38.505775,47.098515 40.071228,45.555378 41.482285,43.882046 
	C42.461296,42.721069 43.227757,41.380859 44.776436,40.147690 
	C46.929394,39.468189 48.343983,38.616459 49.869419,38.079800 
	C57.478065,35.403015 65.029663,32.501122 72.783890,30.330698 
	C76.090157,29.405264 79.841187,30.068798 83.390099,30.010265 
	C86.021744,31.318918 88.653397,32.627571 91.632118,33.986725 
	C95.805138,37.609928 99.670891,41.141922 103.412155,44.801205 
	C103.945831,45.323185 103.876335,46.461861 103.554237,47.553066 
	C101.643768,47.285568 100.303444,46.574371 98.879990,46.308739 
	C90.875244,44.814983 82.799774,42.707722 75.128799,47.618877 
	C73.722748,46.568260 72.437927,45.836716 70.726990,45.029274 
	C68.157906,45.304222 66.014946,45.655060 63.871986,46.005894 
z"/>
<path fill="#FFFCEF" opacity="1.000000" stroke="none" 
	d="
M83.119370,29.687187 
	C79.841187,30.068798 76.090157,29.405264 72.783890,30.330698 
	C65.029663,32.501122 57.478065,35.403015 49.869419,38.079800 
	C48.343983,38.616459 46.929394,39.468189 45.067001,40.090614 
	C48.029690,37.334999 51.227829,34.416336 54.806553,32.080856 
	C57.098537,30.585102 59.952171,29.949968 62.853737,28.785503 
	C69.718513,28.882690 76.283577,29.123400 83.119370,29.687187 
z"/>
<path fill="#DDF45F" opacity="1.000000" stroke="none" 
	d="
M38.062103,48.995377 
	C41.638802,48.030491 45.215500,47.065605 48.990692,45.859123 
	C51.847034,46.104790 54.504879,46.592052 57.569000,47.186661 
	C54.606167,48.485004 51.312695,50.016159 47.849960,50.786083 
	C42.842735,51.899418 37.712914,52.461372 32.300476,53.110405 
	C31.965557,52.962254 31.985886,52.463383 32.004524,52.214058 
	C32.574051,51.813187 33.124939,51.661640 34.190208,51.256042 
	C35.823765,50.333118 36.942932,49.664246 38.062103,48.995377 
z"/>
<path fill="#5E5232" opacity="1.000000" stroke="none" 
	d="
M37.794888,48.932320 
	C36.942932,49.664246 35.823765,50.333118 34.351898,51.011505 
	C34.779331,50.294453 35.559464,49.567883 36.672905,48.769264 
	C37.180035,48.754566 37.353855,48.811916 37.794888,48.932320 
z"/>
<path fill="#B2EB74" opacity="1.000000" stroke="none" 
	d="
M59.015274,48.332024 
	C59.245155,48.190479 59.446304,48.315952 59.516506,48.742405 
	C59.283157,48.813560 59.150150,48.665443 59.015274,48.332024 
z"/>
<path fill="#FCD143" opacity="1.000000" stroke="none" 
	d="
M63.998234,99.004730 
	C65.486237,97.985085 66.862907,96.717636 68.482162,95.990143 
	C74.422272,93.321388 80.443016,90.832085 86.748657,88.122940 
	C91.089905,87.644394 95.115898,87.318130 99.565552,86.975510 
	C99.159851,88.046265 98.447678,89.949265 97.482071,90.087959 
	C91.250420,90.983116 87.262962,95.566811 81.752274,98.830467 
	C75.387962,98.954071 69.693100,98.979401 63.998234,99.004730 
z"/>
<path fill="#FCD043" opacity="1.000000" stroke="none" 
	d="
M39.139877,96.300629 
	C41.970657,95.839195 44.941395,95.679787 48.365673,95.496033 
	C48.437420,94.679794 48.536930,93.547684 48.656525,92.187103 
	C50.913475,93.634041 52.882332,94.896278 54.616508,96.565216 
	C54.126686,97.119286 53.858013,97.248909 53.625580,97.426071 
	C53.564796,97.472389 53.577362,97.760536 53.622433,97.779373 
	C57.074966,99.223625 60.534130,100.652023 63.992783,102.081642 
	C62.688648,102.721382 61.435383,103.744194 60.070370,103.925438 
	C56.657330,104.378609 53.193584,104.449936 49.367348,104.843048 
	C47.909771,104.662582 46.835030,104.313545 45.420433,103.940475 
	C43.146996,101.478516 41.213417,99.040581 39.139877,96.300629 
z"/>
<path fill="#A72F08" opacity="1.000000" stroke="none" 
	d="
M64.457108,102.050789 
	C60.534130,100.652023 57.074966,99.223625 53.622433,97.779373 
	C53.577362,97.760536 53.564796,97.472389 53.625580,97.426071 
	C53.858013,97.248909 54.126686,97.119286 54.696339,96.900085 
	C57.753910,97.516701 60.496975,98.205132 63.619133,98.949150 
	C69.693100,98.979401 75.387962,98.954071 81.509087,98.976227 
	C76.873543,103.483429 70.747238,101.898468 64.457108,102.050789 
z"/>
<path fill="#60C6D2" opacity="1.000000" stroke="none" 
	d="
M114.637177,66.001381 
	C114.663231,67.069061 114.689278,68.136749 114.250610,69.666565 
	C108.850937,71.420578 103.873802,72.572563 98.993088,74.044312 
	C94.271049,75.468208 89.648254,77.221260 84.602692,78.881088 
	C83.204445,78.989143 82.185387,79.045837 81.081390,78.771545 
	C80.022781,76.961052 79.049110,75.481544 78.451141,73.954575 
	C90.763618,71.271873 102.700401,68.636627 114.637177,66.001381 
z"/>
<path fill="#61CDCC" opacity="1.000000" stroke="none" 
	d="
M114.743393,65.670219 
	C102.700401,68.636627 90.763618,71.271873 78.226639,73.698990 
	C76.992790,73.272476 76.359154,73.054085 75.774590,72.524261 
	C75.919418,71.806870 76.015160,71.400909 76.378677,70.771576 
	C77.999283,69.707047 79.253174,68.423195 80.720673,68.095261 
	C91.758263,65.628754 102.837914,63.350498 113.927963,61.341141 
	C114.266251,62.428959 114.581001,63.189026 114.895752,63.949089 
	C114.880371,64.412415 114.864990,64.875732 114.743393,65.670219 
z"/>
<path fill="#5BB7CD" opacity="1.000000" stroke="none" 
	d="
M84.981873,78.829735 
	C89.648254,77.221260 94.271049,75.468208 98.993088,74.044312 
	C103.873802,72.572563 108.850937,71.420578 114.122025,70.048965 
	C114.201134,78.773674 113.049065,79.837730 104.325150,79.968117 
	C100.432671,80.026283 96.545219,80.421165 92.241302,80.527710 
	C89.545364,79.871361 87.263618,79.350548 84.981873,78.829735 
z"/>
<path fill="#4E5450" opacity="1.000000" stroke="none" 
	d="
M84.602692,78.881088 
	C87.263618,79.350548 89.545364,79.871361 91.886650,80.781418 
	C91.782913,81.450455 91.619637,81.730247 91.228668,82.124680 
	C86.949135,82.475555 82.897285,82.711792 78.441772,82.927414 
	C78.038094,82.906799 77.913864,82.494377 78.034767,82.014374 
	C79.159218,80.723747 80.162773,79.913132 81.166328,79.102524 
	C82.185387,79.045837 83.204445,78.989143 84.602692,78.881088 
z"/>
<path fill="#5BB7CD" opacity="1.000000" stroke="none" 
	d="
M115.176315,63.922543 
	C114.581001,63.189026 114.266251,62.428959 114.039551,61.128666 
	C114.307449,60.316338 114.540329,60.101830 114.826248,59.944908 
	C115.191017,60.959415 115.555779,61.973927 115.941223,63.317074 
	C115.793564,63.729141 115.625221,63.812569 115.176315,63.922543 
z"/>
<path fill="#62D4C4" opacity="1.000000" stroke="none" 
	d="
M114.921967,59.592869 
	C114.540329,60.101830 114.307449,60.316338 114.016014,60.800911 
	C102.837914,63.350498 91.758263,65.628754 80.720673,68.095261 
	C79.253174,68.423195 77.999283,69.707047 76.303711,70.370277 
	C75.664642,67.793549 75.368332,65.394745 75.500992,62.998009 
	C86.562157,60.849388 97.213669,58.785538 107.800781,56.432011 
	C109.046005,56.155197 109.937248,54.286003 110.992592,53.154995 
	C112.334282,55.183609 113.675980,57.212219 114.921967,59.592869 
z"/>
<path fill="#65DFBB" opacity="1.000000" stroke="none" 
	d="
M110.736191,52.975296 
	C109.937248,54.286003 109.046005,56.155197 107.800781,56.432011 
	C97.213669,58.785538 86.562157,60.849388 75.409027,62.573330 
	C74.977257,60.423153 75.066406,58.699718 75.567459,56.980652 
	C82.585526,55.614113 89.216637,54.350624 95.787025,52.825535 
	C98.921455,52.097977 101.940483,50.873310 105.011787,49.873810 
	C106.377113,50.269596 107.742439,50.665379 109.468513,51.067806 
	C110.046104,51.648167 110.262947,52.221886 110.736191,52.975296 
z"/>
<path fill="#86E19D" opacity="1.000000" stroke="none" 
	d="
M104.928848,49.635078 
	C101.940483,50.873310 98.921455,52.097977 95.787025,52.825535 
	C89.216637,54.350624 82.585526,55.614113 75.486526,56.571022 
	C75.046448,54.766644 75.099190,53.376266 75.564774,51.991631 
	C85.330414,51.014744 94.305939,46.662724 104.014580,48.858017 
	C104.291687,49.037460 104.568802,49.216908 104.928848,49.635078 
z"/>
<path fill="#A9E488" opacity="1.000000" stroke="none" 
	d="
M103.966583,48.586239 
	C94.305939,46.662724 85.330414,51.014744 75.423767,51.681801 
	C74.996628,50.223469 75.123329,49.080708 75.250038,47.937950 
	C82.799774,42.707722 90.875244,44.814983 98.879990,46.308739 
	C100.303444,46.574371 101.643768,47.285568 103.376892,47.793129 
	C103.793732,47.968319 103.856155,48.141392 103.966583,48.586239 
z"/>
<path fill="#FCD644" opacity="1.000000" stroke="none" 
	d="
M96.150177,31.230255 
	C96.360970,31.113024 96.599533,31.286610 96.870895,31.746552 
	C96.657593,31.870817 96.415688,31.700205 96.150177,31.230255 
z"/>
<path fill="#93928D" opacity="1.000000" stroke="none" 
	d="
M63.928825,46.379128 
	C66.014946,45.655060 68.157906,45.304222 70.697037,45.441940 
	C70.832634,48.252571 70.572067,50.574642 70.311501,52.896713 
	C69.014938,52.920132 67.718384,52.943554 65.939125,53.044147 
	C64.966171,50.998333 64.475914,48.875347 63.928825,46.379128 
z"/>
<path fill="#201D17" opacity="1.000000" stroke="none" 
	d="
M70.346390,53.366875 
	C70.572067,50.574642 70.832634,48.252571 71.123154,45.517834 
	C72.437927,45.836716 73.722748,46.568260 75.128799,47.618877 
	C75.123329,49.080708 74.996628,50.223469 75.010925,51.676056 
	C75.099190,53.376266 75.046448,54.766644 75.074631,56.566654 
	C75.066406,58.699718 74.977257,60.423153 74.980064,62.571266 
	C75.368332,65.394745 75.664642,67.793549 76.035934,70.593658 
	C76.015160,71.400909 75.919418,71.806870 75.478012,72.689850 
	C74.375923,73.818649 73.619507,74.470428 72.863083,75.122200 
	C72.035812,68.027145 71.208542,60.932087 70.346390,53.366875 
z"/>
<path fill="#AEB0AC" opacity="1.000000" stroke="none" 
	d="
M72.897156,75.491608 
	C73.619507,74.470428 74.375923,73.818649 75.428925,73.001289 
	C76.359154,73.054085 76.992790,73.272476 77.850937,73.746445 
	C79.049110,75.481544 80.022781,76.961052 81.081390,78.771545 
	C80.162773,79.913132 79.159218,80.723747 77.970741,81.808746 
	C76.167618,80.009087 74.549423,77.935043 72.897156,75.491608 
z"/>
</svg>